<?xml version="1.0" encoding="utf-8" standalone="no"?>
<!DOCTYPE svg PUBLIC "-//W3C//DTD SVG 1.1//EN"
  "http://www.w3.org/Graphics/SVG/1.1/DTD/svg11.dtd">
<!-- Created with matplotlib (http://matplotlib.org/) -->
<svg height="141.732283pt" version="1.1" viewBox="0 0 283.464567 141.732283" width="283.464567pt" xmlns="http://www.w3.org/2000/svg" xmlns:xlink="http://www.w3.org/1999/xlink">
 <defs>
  <style type="text/css">
*{stroke-linecap:butt;stroke-linejoin:round;}
  </style>
 </defs>
 <g id="figure_1">
  <g id="patch_1">
   <path d="M 0 141.732283 
L 283.464567 141.732283 
L 283.464567 0 
L 0 0 
z
" style="fill:#ffffff;"/>
  </g>
  <g id="axes_1">
   <g id="patch_2">
    <path d="M 42.519685 58.110236 
L 269.291339 58.110236 
L 269.291339 1.417323 
L 42.519685 1.417323 
z
" style="fill:#ffffff;"/>
   </g>
   <g id="patch_3">
    <path clip-path="url(#p1dcf6453bc)" d="M 127.559055 58.110236 
L 127.559055 1.417323 
L 144.566929 1.417323 
L 144.566929 58.110236 
z
" style="fill:#bfb1d3;opacity:0.2;stroke:#bfb1d3;stroke-linejoin:miter;"/>
   </g>
   <g id="matplotlib.axis_1"/>
   <g id="matplotlib.axis_2">
    <g id="ytick_1">
     <g id="line2d_1">
      <defs>
       <path d="M 0 0 
L -3.5 0 
" id="m22b3a42bb1" style="stroke:#000000;stroke-width:0.8;"/>
      </defs>
      <g>
       <use style="stroke:#000000;stroke-width:0.8;" x="42.519685" xlink:href="#m22b3a42bb1" y="58.110236"/>
      </g>
     </g>
     <g id="text_1">
      <!-- 0 -->
      <defs>
       <path d="M 31.78125 3.421875 
Q 39.265625 3.421875 42.96875 11.625 
Q 46.6875 19.828125 46.6875 36.375 
Q 46.6875 52.984375 42.96875 61.1875 
Q 39.265625 69.390625 31.78125 69.390625 
Q 24.3125 69.390625 20.59375 61.1875 
Q 16.890625 52.984375 16.890625 36.375 
Q 16.890625 19.828125 20.59375 11.625 
Q 24.3125 3.421875 31.78125 3.421875 
z
M 31.78125 -1.421875 
Q 19.921875 -1.421875 13.25 8.53125 
Q 6.59375 18.5 6.59375 36.375 
Q 6.59375 54.296875 13.25 64.25 
Q 19.921875 74.21875 31.78125 74.21875 
Q 43.703125 74.21875 50.34375 64.25 
Q 56.984375 54.296875 56.984375 36.375 
Q 56.984375 18.5 50.34375 8.53125 
Q 43.703125 -1.421875 31.78125 -1.421875 
z
" id="DejaVuSerif-30"/>
      </defs>
      <g transform="translate(31.702185 60.389767)scale(0.06 -0.06)">
       <use xlink:href="#DejaVuSerif-30"/>
      </g>
     </g>
    </g>
    <g id="ytick_2">
     <g id="line2d_2">
      <g>
       <use style="stroke:#000000;stroke-width:0.8;" x="42.519685" xlink:href="#m22b3a42bb1" y="40.393701"/>
      </g>
     </g>
     <g id="text_2">
      <!-- 5 -->
      <defs>
       <path d="M 50.296875 72.90625 
L 50.296875 64.890625 
L 16.890625 64.890625 
L 16.890625 44 
Q 19.4375 45.75 22.828125 46.625 
Q 26.21875 47.515625 30.421875 47.515625 
Q 42.234375 47.515625 49.0625 40.96875 
Q 55.90625 34.421875 55.90625 23.09375 
Q 55.90625 11.53125 49 5.046875 
Q 42.09375 -1.421875 29.59375 -1.421875 
Q 24.5625 -1.421875 19.28125 -0.1875 
Q 14.015625 1.03125 8.5 3.515625 
L 8.5 17.671875 
L 14.015625 17.671875 
Q 14.453125 10.75 18.421875 7.078125 
Q 22.40625 3.421875 29.59375 3.421875 
Q 37.3125 3.421875 41.453125 8.5 
Q 45.609375 13.578125 45.609375 23.09375 
Q 45.609375 32.5625 41.484375 37.609375 
Q 37.359375 42.671875 29.59375 42.671875 
Q 25.203125 42.671875 21.84375 41.109375 
Q 18.5 39.546875 15.921875 36.28125 
L 11.71875 36.28125 
L 11.71875 72.90625 
z
" id="DejaVuSerif-35"/>
      </defs>
      <g transform="translate(31.702185 42.673232)scale(0.06 -0.06)">
       <use xlink:href="#DejaVuSerif-35"/>
      </g>
     </g>
    </g>
    <g id="ytick_3">
     <g id="line2d_3">
      <g>
       <use style="stroke:#000000;stroke-width:0.8;" x="42.519685" xlink:href="#m22b3a42bb1" y="22.677165"/>
      </g>
     </g>
     <g id="text_3">
      <!-- 10 -->
      <defs>
       <path d="M 14.203125 0 
L 14.203125 5.171875 
L 26.90625 5.171875 
L 26.90625 65.828125 
L 12.203125 56.296875 
L 12.203125 62.703125 
L 29.984375 74.21875 
L 36.71875 74.21875 
L 36.71875 5.171875 
L 49.421875 5.171875 
L 49.421875 0 
z
" id="DejaVuSerif-31"/>
      </defs>
      <g transform="translate(27.884685 24.956697)scale(0.06 -0.06)">
       <use xlink:href="#DejaVuSerif-31"/>
       <use x="63.623047" xlink:href="#DejaVuSerif-30"/>
      </g>
     </g>
    </g>
    <g id="ytick_4">
     <g id="line2d_4">
      <g>
       <use style="stroke:#000000;stroke-width:0.8;" x="42.519685" xlink:href="#m22b3a42bb1" y="4.96063"/>
      </g>
     </g>
     <g id="text_4">
      <!-- 15 -->
      <g transform="translate(27.884685 7.240161)scale(0.06 -0.06)">
       <use xlink:href="#DejaVuSerif-31"/>
       <use x="63.623047" xlink:href="#DejaVuSerif-35"/>
      </g>
     </g>
    </g>
    <g id="text_5">
     <!-- Firing rate (Hz) -->
     <defs>
      <path d="M 5.515625 0 
L 5.515625 5.171875 
L 14.796875 5.171875 
L 14.796875 67.671875 
L 5.515625 67.671875 
L 5.515625 72.90625 
L 65.1875 72.90625 
L 65.1875 56.6875 
L 59.1875 56.6875 
L 59.1875 66.890625 
L 24.703125 66.890625 
L 24.703125 42.484375 
L 49.609375 42.484375 
L 49.609375 51.609375 
L 55.609375 51.609375 
L 55.609375 27.390625 
L 49.609375 27.390625 
L 49.609375 36.53125 
L 24.703125 36.53125 
L 24.703125 5.171875 
L 36.375 5.171875 
L 36.375 0 
z
" id="DejaVuSerif-46"/>
      <path d="M 9.71875 68.015625 
Q 9.71875 70.265625 11.34375 71.921875 
Q 12.984375 73.578125 15.28125 73.578125 
Q 17.53125 73.578125 19.15625 71.921875 
Q 20.796875 70.265625 20.796875 68.015625 
Q 20.796875 65.71875 19.1875 64.109375 
Q 17.578125 62.5 15.28125 62.5 
Q 12.984375 62.5 11.34375 64.109375 
Q 9.71875 65.71875 9.71875 68.015625 
z
M 21.1875 5.171875 
L 29.6875 5.171875 
L 29.6875 0 
L 3.609375 0 
L 3.609375 5.171875 
L 12.203125 5.171875 
L 12.203125 46.6875 
L 3.609375 46.6875 
L 3.609375 51.90625 
L 21.1875 51.90625 
z
" id="DejaVuSerif-69"/>
      <path d="M 47.796875 52 
L 47.796875 39.015625 
L 42.625 39.015625 
Q 42.390625 42.875 40.484375 44.78125 
Q 38.578125 46.6875 34.90625 46.6875 
Q 28.265625 46.6875 24.71875 42.09375 
Q 21.1875 37.5 21.1875 28.90625 
L 21.1875 5.171875 
L 31.59375 5.171875 
L 31.59375 0 
L 4.109375 0 
L 4.109375 5.171875 
L 12.203125 5.171875 
L 12.203125 46.78125 
L 3.609375 46.78125 
L 3.609375 51.90625 
L 21.1875 51.90625 
L 21.1875 42.671875 
Q 23.828125 48.09375 27.96875 50.703125 
Q 32.125 53.328125 38.09375 53.328125 
Q 40.28125 53.328125 42.703125 52.984375 
Q 45.125 52.640625 47.796875 52 
z
" id="DejaVuSerif-72"/>
      <path d="M 4.109375 0 
L 4.109375 5.171875 
L 12.203125 5.171875 
L 12.203125 46.6875 
L 3.609375 46.6875 
L 3.609375 51.90625 
L 21.1875 51.90625 
L 21.1875 42.671875 
Q 23.6875 47.953125 27.65625 50.640625 
Q 31.640625 53.328125 36.921875 53.328125 
Q 45.515625 53.328125 49.5625 48.390625 
Q 53.609375 43.453125 53.609375 33.015625 
L 53.609375 5.171875 
L 61.625 5.171875 
L 61.625 0 
L 36.8125 0 
L 36.8125 5.171875 
L 44.578125 5.171875 
L 44.578125 30.171875 
Q 44.578125 39.703125 42.234375 43.234375 
Q 39.890625 46.78125 33.984375 46.78125 
Q 27.734375 46.78125 24.453125 42.203125 
Q 21.1875 37.640625 21.1875 28.90625 
L 21.1875 5.171875 
L 29 5.171875 
L 29 0 
z
" id="DejaVuSerif-6e"/>
      <path d="M 52.484375 46.6875 
L 52.484375 1.125 
Q 52.484375 -10.0625 46.328125 -16.140625 
Q 40.1875 -22.21875 28.8125 -22.21875 
Q 23.6875 -22.21875 19 -21.28125 
Q 14.3125 -20.359375 10.015625 -18.5 
L 10.015625 -7.625 
L 14.703125 -7.625 
Q 15.578125 -12.703125 18.84375 -15.046875 
Q 22.125 -17.390625 28.21875 -17.390625 
Q 36.140625 -17.390625 39.8125 -12.921875 
Q 43.5 -8.453125 43.5 1.125 
L 43.5 8.109375 
Q 40.875 3.21875 36.796875 0.890625 
Q 32.71875 -1.421875 26.703125 -1.421875 
Q 17.140625 -1.421875 11.0625 6.171875 
Q 4.984375 13.765625 4.984375 25.984375 
Q 4.984375 38.1875 11.03125 45.75 
Q 17.09375 53.328125 26.703125 53.328125 
Q 32.71875 53.328125 36.796875 51 
Q 40.875 48.6875 43.5 43.796875 
L 43.5 51.90625 
L 61.078125 51.90625 
L 61.078125 46.6875 
z
M 43.5 28.515625 
Q 43.5 37.84375 39.90625 42.765625 
Q 36.328125 47.703125 29.5 47.703125 
Q 22.5625 47.703125 19.015625 42.234375 
Q 15.484375 36.765625 15.484375 25.984375 
Q 15.484375 15.234375 19.015625 9.71875 
Q 22.5625 4.203125 29.5 4.203125 
Q 36.328125 4.203125 39.90625 9.109375 
Q 43.5 14.015625 43.5 23.390625 
z
" id="DejaVuSerif-67"/>
      <path id="DejaVuSerif-20"/>
      <path d="M 39.796875 16.3125 
L 39.796875 27.296875 
L 28.21875 27.296875 
Q 21.53125 27.296875 18.25 24.40625 
Q 14.984375 21.53125 14.984375 15.578125 
Q 14.984375 10.15625 18.296875 6.984375 
Q 21.625 3.8125 27.296875 3.8125 
Q 32.90625 3.8125 36.34375 7.28125 
Q 39.796875 10.75 39.796875 16.3125 
z
M 48.78125 32.421875 
L 48.78125 5.171875 
L 56.78125 5.171875 
L 56.78125 0 
L 39.796875 0 
L 39.796875 5.609375 
Q 36.8125 2 32.90625 0.28125 
Q 29 -1.421875 23.78125 -1.421875 
Q 15.140625 -1.421875 10.0625 3.171875 
Q 4.984375 7.765625 4.984375 15.578125 
Q 4.984375 23.640625 10.796875 28.078125 
Q 16.609375 32.515625 27.203125 32.515625 
L 39.796875 32.515625 
L 39.796875 36.078125 
Q 39.796875 42 36.203125 45.234375 
Q 32.625 48.484375 26.125 48.484375 
Q 20.75 48.484375 17.578125 46.046875 
Q 14.40625 43.609375 13.625 38.8125 
L 8.984375 38.8125 
L 8.984375 49.3125 
Q 13.671875 51.3125 18.09375 52.3125 
Q 22.515625 53.328125 26.703125 53.328125 
Q 37.5 53.328125 43.140625 47.96875 
Q 48.78125 42.625 48.78125 32.421875 
z
" id="DejaVuSerif-61"/>
      <path d="M 10.796875 46.6875 
L 2.875 46.6875 
L 2.875 51.90625 
L 10.796875 51.90625 
L 10.796875 68.015625 
L 19.828125 68.015625 
L 19.828125 51.90625 
L 36.71875 51.90625 
L 36.71875 46.6875 
L 19.828125 46.6875 
L 19.828125 13.71875 
Q 19.828125 7.125 21.09375 5.265625 
Q 22.359375 3.421875 25.78125 3.421875 
Q 29.296875 3.421875 30.90625 5.484375 
Q 32.515625 7.5625 32.625 12.203125 
L 39.40625 12.203125 
Q 39.015625 5.125 35.546875 1.84375 
Q 32.078125 -1.421875 25 -1.421875 
Q 17.234375 -1.421875 14.015625 2.015625 
Q 10.796875 5.46875 10.796875 13.71875 
z
" id="DejaVuSerif-74"/>
      <path d="M 54.203125 25 
L 15.484375 25 
L 15.484375 24.609375 
Q 15.484375 14.109375 19.4375 8.765625 
Q 23.390625 3.421875 31.109375 3.421875 
Q 37.015625 3.421875 40.796875 6.515625 
Q 44.578125 9.625 46.09375 15.71875 
L 53.328125 15.71875 
Q 51.171875 7.171875 45.375 2.875 
Q 39.59375 -1.421875 30.171875 -1.421875 
Q 18.796875 -1.421875 11.890625 6.078125 
Q 4.984375 13.578125 4.984375 25.984375 
Q 4.984375 38.28125 11.765625 45.796875 
Q 18.5625 53.328125 29.59375 53.328125 
Q 41.359375 53.328125 47.65625 46.0625 
Q 53.953125 38.8125 54.203125 25 
z
M 43.609375 30.171875 
Q 43.3125 39.265625 39.765625 43.875 
Q 36.234375 48.484375 29.59375 48.484375 
Q 23.390625 48.484375 19.828125 43.84375 
Q 16.265625 39.203125 15.484375 30.171875 
z
" id="DejaVuSerif-65"/>
      <path d="M 31.890625 -15.578125 
Q 20.015625 -10.25 13.953125 1.296875 
Q 7.90625 12.84375 7.90625 30.171875 
Q 7.90625 47.5625 13.953125 59.109375 
Q 20.015625 70.65625 31.890625 75.984375 
L 31.890625 71.1875 
Q 24.359375 66.015625 21.09375 56.609375 
Q 17.828125 47.21875 17.828125 30.171875 
Q 17.828125 13.1875 21.09375 3.78125 
Q 24.359375 -5.609375 31.890625 -10.796875 
z
" id="DejaVuSerif-28"/>
      <path d="M 5.515625 0 
L 5.515625 5.171875 
L 14.796875 5.171875 
L 14.796875 67.671875 
L 5.515625 67.671875 
L 5.515625 72.90625 
L 33.984375 72.90625 
L 33.984375 67.671875 
L 24.703125 67.671875 
L 24.703125 42.484375 
L 62.5 42.484375 
L 62.5 67.671875 
L 53.21875 67.671875 
L 53.21875 72.90625 
L 81.6875 72.90625 
L 81.6875 67.671875 
L 72.40625 67.671875 
L 72.40625 5.171875 
L 81.6875 5.171875 
L 81.6875 0 
L 53.21875 0 
L 53.21875 5.171875 
L 62.5 5.171875 
L 62.5 36.53125 
L 24.703125 36.53125 
L 24.703125 5.171875 
L 33.984375 5.171875 
L 33.984375 0 
z
" id="DejaVuSerif-48"/>
      <path d="M 4 0 
L 4 4.203125 
L 36.53125 46.6875 
L 10.796875 46.6875 
L 10.796875 37.703125 
L 5.609375 37.703125 
L 5.609375 51.90625 
L 48.09375 51.90625 
L 48.09375 47.703125 
L 15.578125 5.171875 
L 43.796875 5.171875 
L 43.796875 14.59375 
L 49.03125 14.59375 
L 49.03125 0 
z
" id="DejaVuSerif-7a"/>
      <path d="M 7.078125 -15.578125 
L 7.078125 -10.796875 
Q 14.59375 -5.609375 17.890625 3.78125 
Q 21.1875 13.1875 21.1875 30.171875 
Q 21.1875 47.21875 17.890625 56.609375 
Q 14.59375 66.015625 7.078125 71.1875 
L 7.078125 75.984375 
Q 19 70.65625 25.046875 59.109375 
Q 31.109375 47.5625 31.109375 30.171875 
Q 31.109375 12.84375 25.046875 1.296875 
Q 19 -10.25 7.078125 -15.578125 
z
" id="DejaVuSerif-29"/>
     </defs>
     <g transform="translate(22.107185 61.678155)rotate(-90)scale(0.08 -0.08)">
      <use xlink:href="#DejaVuSerif-46"/>
      <use x="69.384766" xlink:href="#DejaVuSerif-69"/>
      <use x="101.367188" xlink:href="#DejaVuSerif-72"/>
      <use x="149.169922" xlink:href="#DejaVuSerif-69"/>
      <use x="181.152344" xlink:href="#DejaVuSerif-6e"/>
      <use x="245.556641" xlink:href="#DejaVuSerif-67"/>
      <use x="309.570312" xlink:href="#DejaVuSerif-20"/>
      <use x="341.357422" xlink:href="#DejaVuSerif-72"/>
      <use x="389.160156" xlink:href="#DejaVuSerif-61"/>
      <use x="448.779297" xlink:href="#DejaVuSerif-74"/>
      <use x="488.964844" xlink:href="#DejaVuSerif-65"/>
      <use x="548.144531" xlink:href="#DejaVuSerif-20"/>
      <use x="579.931641" xlink:href="#DejaVuSerif-28"/>
      <use x="618.945312" xlink:href="#DejaVuSerif-48"/>
      <use x="706.152344" xlink:href="#DejaVuSerif-7a"/>
      <use x="758.837891" xlink:href="#DejaVuSerif-29"/>
     </g>
    </g>
   </g>
   <g id="line2d_5">
    <path clip-path="url(#p1dcf6453bc)" d="M 51.023622 49.663701 
L 59.527559 47.561102 
L 68.031496 44.660551 
L 76.535433 40.582205 
L 85.03937 35.302677 
L 93.543307 31.476614 
L 102.047244 30.295276 
L 110.551181 29.991969 
L 119.055118 29.814803 
L 127.559055 29.988425 
L 128.409449 1.21748 
L 129.259843 3.874252 
L 130.110236 8.047559 
L 130.96063 11.957244 
L 131.811024 14.813858 
L 132.661417 17.386299 
L 133.511811 19.778031 
L 134.362205 21.474567 
L 135.212598 22.869921 
L 136.062992 24.028583 
L 136.913386 24.805984 
L 137.76378 25.830709 
L 138.614173 26.294173 
L 139.464567 26.879528 
L 140.314961 27.465591 
L 141.165354 27.805748 
L 142.015748 27.84189 
L 142.866142 28.374803 
L 143.716535 28.464094 
L 144.566929 28.571811 
L 145.417323 46.669606 
L 146.267717 46.033228 
L 147.11811 45.385512 
L 147.968504 44.479843 
L 148.818898 43.518898 
L 149.669291 42.610394 
L 150.519685 41.575039 
L 151.370079 40.137165 
L 152.220472 39.459685 
L 153.070866 38.295354 
L 153.92126 37.280551 
L 154.771654 36.341575 
L 155.622047 35.596772 
L 156.472441 34.582677 
L 157.322835 33.71315 
L 158.173228 33.076063 
L 159.023622 32.751496 
L 159.874016 32.038583 
L 160.724409 31.646693 
L 161.574803 31.325669 
L 162.425197 30.995433 
L 163.275591 30.879213 
L 164.125984 30.596457 
L 164.976378 30.670866 
L 165.826772 30.004016 
L 166.677165 30.514961 
L 167.527559 30.016063 
L 168.377953 30.003307 
L 169.228346 29.804882 
L 170.07874 30.086929 
L 170.929134 29.767323 
L 171.779528 29.995512 
L 172.629921 30.106063 
L 173.480315 29.420787 
L 174.330709 29.680866 
L 175.181102 29.702126 
L 176.031496 29.757402 
L 176.88189 29.785748 
L 177.732283 29.863701 
L 178.582677 30.067087 
L 179.433071 29.719134 
L 180.283465 29.67874 
L 181.133858 29.539843 
L 181.984252 29.538425 
L 182.834646 29.517874 
L 183.685039 29.810551 
L 184.535433 29.883543 
L 185.385827 29.551181 
L 186.23622 29.850945 
L 187.086614 29.859449 
L 187.937008 29.66315 
L 188.787402 29.690787 
L 189.637795 29.777953 
L 190.488189 29.833228 
L 191.338583 29.86937 
L 192.188976 30.018898 
L 193.03937 29.994803 
L 193.889764 29.566772 
L 194.740157 29.725512 
L 195.590551 29.400945 
L 204.094488 29.770157 
L 212.598425 29.619213 
L 221.102362 29.844567 
L 229.606299 29.794252 
L 238.110236 29.712047 
L 246.614173 29.282598 
L 255.11811 29.586614 
L 263.622047 29.502992 
L 272.125984 29.481024 
L 280.629921 29.775827 
L 284.464567 29.841016 
" style="fill:none;stroke:#9681b7;stroke-linecap:square;"/>
   </g>
   <g id="line2d_6">
    <path clip-path="url(#p1dcf6453bc)" d="M 51.023622 49.624409 
L 59.527559 47.605748 
L 68.031496 44.741339 
L 76.535433 40.582913 
L 85.03937 35.333307 
L 93.543307 31.617323 
L 102.047244 30.275197 
L 110.551181 29.927402 
L 119.055118 29.827244 
L 127.559055 29.781969 
L 128.409449 29.717008 
L 129.259843 29.657008 
L 130.110236 30.082441 
L 130.96063 30.126063 
L 131.811024 30.001102 
L 132.661417 30.039921 
L 133.511811 29.927008 
L 134.362205 30.032205 
L 135.212598 29.792047 
L 136.062992 29.83811 
L 136.913386 29.691575 
L 137.76378 29.69126 
L 138.614173 29.61622 
L 139.464567 29.738898 
L 140.314961 29.696614 
L 141.165354 29.552598 
L 142.015748 29.52063 
L 142.866142 29.619606 
L 143.716535 29.645433 
L 144.566929 29.737402 
L 145.417323 28.189055 
L 146.267717 28.620079 
L 147.11811 28.61811 
L 147.968504 29.029134 
L 148.818898 29.321811 
L 149.669291 29.676299 
L 150.519685 29.673307 
L 151.370079 29.831181 
L 152.220472 30.044409 
L 153.070866 29.947008 
L 153.92126 29.876535 
L 154.771654 29.987244 
L 155.622047 29.928425 
L 156.472441 30.119606 
L 157.322835 29.91874 
L 158.173228 30.076378 
L 159.023622 29.931181 
L 159.874016 30.060315 
L 160.724409 29.984409 
L 161.574803 29.986063 
L 162.425197 29.927559 
L 163.275591 29.917717 
L 164.125984 29.882677 
L 164.976378 29.816063 
L 165.826772 29.872756 
L 166.677165 29.905433 
L 167.527559 29.999606 
L 168.377953 29.764331 
L 169.228346 29.915748 
L 170.07874 29.685118 
L 170.929134 29.85811 
L 171.779528 29.64937 
L 172.629921 29.833937 
L 173.480315 29.707087 
L 174.330709 29.83811 
L 175.181102 29.773622 
L 176.031496 29.849055 
L 176.88189 29.828976 
L 177.732283 29.707717 
L 178.582677 29.801575 
L 179.433071 29.738031 
L 180.283465 29.877717 
L 181.133858 29.700472 
L 181.984252 29.608268 
L 182.834646 29.701969 
L 183.685039 29.733465 
L 184.535433 29.745039 
L 185.385827 29.715827 
L 186.23622 29.671417 
L 187.086614 29.822835 
L 187.937008 29.78063 
L 188.787402 29.831417 
L 189.637795 29.683622 
L 190.488189 29.773071 
L 191.338583 29.879055 
L 192.188976 29.914882 
L 193.03937 29.744567 
L 193.889764 29.830236 
L 194.740157 29.874567 
L 195.590551 29.79937 
L 204.094488 29.783465 
L 212.598425 29.753071 
L 221.102362 29.828583 
L 229.606299 29.677244 
L 238.110236 29.682283 
L 246.614173 29.686378 
L 255.11811 29.613307 
L 263.622047 29.83378 
L 272.125984 29.730472 
L 280.629921 29.777559 
L 284.464567 29.871685 
" style="fill:none;stroke:#4d4d4d;stroke-linecap:square;"/>
   </g>
   <g id="patch_4">
    <path d="M 42.519685 58.110236 
L 42.519685 1.417323 
" style="fill:none;stroke:#000000;stroke-linecap:square;stroke-linejoin:miter;stroke-width:0.8;"/>
   </g>
   <g id="patch_5">
    <path d="M 42.519685 58.110236 
L 269.291339 58.110236 
" style="fill:none;stroke:#000000;stroke-linecap:square;stroke-linejoin:miter;stroke-width:0.8;"/>
   </g>
  </g>
  <g id="axes_2">
   <g id="patch_6">
    <path d="M 42.519685 120.472441 
L 269.291339 120.472441 
L 269.291339 63.779528 
L 42.519685 63.779528 
z
" style="fill:#ffffff;"/>
   </g>
   <g id="patch_7">
    <path clip-path="url(#p8a754b7312)" d="M 127.559055 120.472441 
L 127.559055 63.779528 
L 144.566929 63.779528 
L 144.566929 120.472441 
z
" style="fill:#bfb1d3;opacity:0.2;stroke:#bfb1d3;stroke-linejoin:miter;"/>
   </g>
   <g id="matplotlib.axis_3">
    <g id="xtick_1">
     <g id="line2d_7">
      <defs>
       <path d="M 0 0 
L 0 3.5 
" id="mf551df242a" style="stroke:#000000;stroke-width:0.8;"/>
      </defs>
      <g>
       <use style="stroke:#000000;stroke-width:0.8;" x="42.519685" xlink:href="#mf551df242a" y="120.472441"/>
      </g>
     </g>
     <g id="text_6">
      <!-- 0 -->
      <g transform="translate(40.610935 132.031503)scale(0.06 -0.06)">
       <use xlink:href="#DejaVuSerif-30"/>
      </g>
     </g>
    </g>
    <g id="xtick_2">
     <g id="line2d_8">
      <g>
       <use style="stroke:#000000;stroke-width:0.8;" x="70.866142" xlink:href="#mf551df242a" y="120.472441"/>
      </g>
     </g>
     <g id="text_7">
      <!-- 250 -->
      <defs>
       <path d="M 12.796875 55.515625 
L 7.328125 55.515625 
L 7.328125 68.5 
Q 12.546875 71.296875 17.84375 72.75 
Q 23.140625 74.21875 28.21875 74.21875 
Q 39.59375 74.21875 46.1875 68.703125 
Q 52.78125 63.1875 52.78125 53.71875 
Q 52.78125 43.015625 37.84375 28.125 
Q 36.671875 27 36.078125 26.421875 
L 17.671875 8.015625 
L 48.09375 8.015625 
L 48.09375 17 
L 53.8125 17 
L 53.8125 0 
L 6.78125 0 
L 6.78125 5.328125 
L 28.90625 27.390625 
Q 36.234375 34.71875 39.359375 40.84375 
Q 42.484375 46.96875 42.484375 53.71875 
Q 42.484375 61.078125 38.640625 65.234375 
Q 34.8125 69.390625 28.078125 69.390625 
Q 21.09375 69.390625 17.28125 65.921875 
Q 13.484375 62.453125 12.796875 55.515625 
z
" id="DejaVuSerif-32"/>
      </defs>
      <g transform="translate(65.139892 132.031503)scale(0.06 -0.06)">
       <use xlink:href="#DejaVuSerif-32"/>
       <use x="63.623047" xlink:href="#DejaVuSerif-35"/>
       <use x="127.246094" xlink:href="#DejaVuSerif-30"/>
      </g>
     </g>
    </g>
    <g id="xtick_3">
     <g id="line2d_9">
      <g>
       <use style="stroke:#000000;stroke-width:0.8;" x="99.212598" xlink:href="#mf551df242a" y="120.472441"/>
      </g>
     </g>
     <g id="text_8">
      <!-- 500 -->
      <g transform="translate(93.486348 132.031503)scale(0.06 -0.06)">
       <use xlink:href="#DejaVuSerif-35"/>
       <use x="63.623047" xlink:href="#DejaVuSerif-30"/>
       <use x="127.246094" xlink:href="#DejaVuSerif-30"/>
      </g>
     </g>
    </g>
    <g id="xtick_4">
     <g id="line2d_10">
      <g>
       <use style="stroke:#000000;stroke-width:0.8;" x="127.559055" xlink:href="#mf551df242a" y="120.472441"/>
      </g>
     </g>
     <g id="text_9">
      <!-- 750 -->
      <defs>
       <path d="M 56.390625 67.921875 
L 27.875 0 
L 20.609375 0 
L 47.796875 64.890625 
L 14.109375 64.890625 
L 14.109375 55.90625 
L 8.40625 55.90625 
L 8.40625 72.90625 
L 56.390625 72.90625 
z
" id="DejaVuSerif-37"/>
      </defs>
      <g transform="translate(121.832805 132.031503)scale(0.06 -0.06)">
       <use xlink:href="#DejaVuSerif-37"/>
       <use x="63.623047" xlink:href="#DejaVuSerif-35"/>
       <use x="127.246094" xlink:href="#DejaVuSerif-30"/>
      </g>
     </g>
    </g>
    <g id="xtick_5">
     <g id="line2d_11">
      <g>
       <use style="stroke:#000000;stroke-width:0.8;" x="155.905512" xlink:href="#mf551df242a" y="120.472441"/>
      </g>
     </g>
     <g id="text_10">
      <!-- 1000 -->
      <g transform="translate(148.270512 132.031503)scale(0.06 -0.06)">
       <use xlink:href="#DejaVuSerif-31"/>
       <use x="63.623047" xlink:href="#DejaVuSerif-30"/>
       <use x="127.246094" xlink:href="#DejaVuSerif-30"/>
       <use x="190.869141" xlink:href="#DejaVuSerif-30"/>
      </g>
     </g>
    </g>
    <g id="xtick_6">
     <g id="line2d_12">
      <g>
       <use style="stroke:#000000;stroke-width:0.8;" x="184.251969" xlink:href="#mf551df242a" y="120.472441"/>
      </g>
     </g>
     <g id="text_11">
      <!-- 1250 -->
      <g transform="translate(176.616969 132.031503)scale(0.06 -0.06)">
       <use xlink:href="#DejaVuSerif-31"/>
       <use x="63.623047" xlink:href="#DejaVuSerif-32"/>
       <use x="127.246094" xlink:href="#DejaVuSerif-35"/>
       <use x="190.869141" xlink:href="#DejaVuSerif-30"/>
      </g>
     </g>
    </g>
    <g id="xtick_7">
     <g id="line2d_13">
      <g>
       <use style="stroke:#000000;stroke-width:0.8;" x="212.598425" xlink:href="#mf551df242a" y="120.472441"/>
      </g>
     </g>
     <g id="text_12">
      <!-- 1500 -->
      <g transform="translate(204.963425 132.031503)scale(0.06 -0.06)">
       <use xlink:href="#DejaVuSerif-31"/>
       <use x="63.623047" xlink:href="#DejaVuSerif-35"/>
       <use x="127.246094" xlink:href="#DejaVuSerif-30"/>
       <use x="190.869141" xlink:href="#DejaVuSerif-30"/>
      </g>
     </g>
    </g>
    <g id="xtick_8">
     <g id="line2d_14">
      <g>
       <use style="stroke:#000000;stroke-width:0.8;" x="240.944882" xlink:href="#mf551df242a" y="120.472441"/>
      </g>
     </g>
     <g id="text_13">
      <!-- 1750 -->
      <g transform="translate(233.309882 132.031503)scale(0.06 -0.06)">
       <use xlink:href="#DejaVuSerif-31"/>
       <use x="63.623047" xlink:href="#DejaVuSerif-37"/>
       <use x="127.246094" xlink:href="#DejaVuSerif-35"/>
       <use x="190.869141" xlink:href="#DejaVuSerif-30"/>
      </g>
     </g>
    </g>
    <g id="xtick_9">
     <g id="line2d_15">
      <g>
       <use style="stroke:#000000;stroke-width:0.8;" x="269.291339" xlink:href="#mf551df242a" y="120.472441"/>
      </g>
     </g>
     <g id="text_14">
      <!-- 2000 -->
      <g transform="translate(261.656339 132.031503)scale(0.06 -0.06)">
       <use xlink:href="#DejaVuSerif-32"/>
       <use x="63.623047" xlink:href="#DejaVuSerif-30"/>
       <use x="127.246094" xlink:href="#DejaVuSerif-30"/>
       <use x="190.869141" xlink:href="#DejaVuSerif-30"/>
      </g>
     </g>
    </g>
    <g id="text_15">
     <!-- Time (s) -->
     <defs>
      <path d="M 19.09375 0 
L 19.09375 5.171875 
L 28.421875 5.171875 
L 28.421875 67.09375 
L 6.984375 67.09375 
L 6.984375 55.71875 
L 0.984375 55.71875 
L 0.984375 72.90625 
L 65.71875 72.90625 
L 65.71875 55.71875 
L 59.71875 55.71875 
L 59.71875 67.09375 
L 38.28125 67.09375 
L 38.28125 5.171875 
L 47.609375 5.171875 
L 47.609375 0 
z
" id="DejaVuSerif-54"/>
      <path d="M 51.8125 41.796875 
Q 54.390625 47.515625 58.421875 50.421875 
Q 62.453125 53.328125 67.828125 53.328125 
Q 75.984375 53.328125 79.984375 48.265625 
Q 83.984375 43.21875 83.984375 33.015625 
L 83.984375 5.171875 
L 92.09375 5.171875 
L 92.09375 0 
L 67.1875 0 
L 67.1875 5.171875 
L 75 5.171875 
L 75 31.984375 
Q 75 39.9375 72.65625 43.3125 
Q 70.3125 46.6875 64.890625 46.6875 
Q 58.890625 46.6875 55.734375 42.140625 
Q 52.59375 37.59375 52.59375 28.90625 
L 52.59375 5.171875 
L 60.40625 5.171875 
L 60.40625 0 
L 35.796875 0 
L 35.796875 5.171875 
L 43.609375 5.171875 
L 43.609375 32.328125 
Q 43.609375 40.09375 41.265625 43.390625 
Q 38.921875 46.6875 33.5 46.6875 
Q 27.484375 46.6875 24.328125 42.140625 
Q 21.1875 37.59375 21.1875 28.90625 
L 21.1875 5.171875 
L 29 5.171875 
L 29 0 
L 4.109375 0 
L 4.109375 5.171875 
L 12.203125 5.171875 
L 12.203125 46.78125 
L 3.609375 46.78125 
L 3.609375 51.90625 
L 21.1875 51.90625 
L 21.1875 42.671875 
Q 23.6875 47.859375 27.53125 50.59375 
Q 31.390625 53.328125 36.28125 53.328125 
Q 42.328125 53.328125 46.375 50.3125 
Q 50.4375 47.3125 51.8125 41.796875 
z
" id="DejaVuSerif-6d"/>
      <path d="M 5.609375 2.875 
L 5.609375 14.984375 
L 10.796875 14.984375 
Q 10.984375 9.1875 14.421875 6.296875 
Q 17.875 3.421875 24.609375 3.421875 
Q 30.671875 3.421875 33.84375 5.6875 
Q 37.015625 7.953125 37.015625 12.3125 
Q 37.015625 15.71875 34.6875 17.8125 
Q 32.375 19.921875 24.90625 22.3125 
L 18.40625 24.515625 
Q 11.71875 26.65625 8.71875 29.875 
Q 5.71875 33.109375 5.71875 38.09375 
Q 5.71875 45.21875 10.9375 49.265625 
Q 16.15625 53.328125 25.390625 53.328125 
Q 29.5 53.328125 34.03125 52.25 
Q 38.578125 51.171875 43.40625 49.125 
L 43.40625 37.796875 
L 38.234375 37.796875 
Q 38.03125 42.828125 34.703125 45.65625 
Q 31.390625 48.484375 25.6875 48.484375 
Q 20.015625 48.484375 17.109375 46.484375 
Q 14.203125 44.484375 14.203125 40.484375 
Q 14.203125 37.203125 16.40625 35.21875 
Q 18.609375 33.25 25.203125 31.203125 
L 32.328125 29 
Q 39.703125 26.703125 42.9375 23.265625 
Q 46.1875 19.828125 46.1875 14.40625 
Q 46.1875 7.03125 40.546875 2.796875 
Q 34.90625 -1.421875 25 -1.421875 
Q 19.96875 -1.421875 15.1875 -0.34375 
Q 10.40625 0.734375 5.609375 2.875 
z
" id="DejaVuSerif-73"/>
     </defs>
     <g transform="translate(139.352387 143.358066)scale(0.08 -0.08)">
      <use xlink:href="#DejaVuSerif-54"/>
      <use x="66.699219" xlink:href="#DejaVuSerif-69"/>
      <use x="98.681641" xlink:href="#DejaVuSerif-6d"/>
      <use x="193.505859" xlink:href="#DejaVuSerif-65"/>
      <use x="252.685547" xlink:href="#DejaVuSerif-20"/>
      <use x="284.472656" xlink:href="#DejaVuSerif-28"/>
      <use x="323.486328" xlink:href="#DejaVuSerif-73"/>
      <use x="374.804688" xlink:href="#DejaVuSerif-29"/>
     </g>
    </g>
   </g>
   <g id="matplotlib.axis_4">
    <g id="ytick_5">
     <g id="line2d_16">
      <g>
       <use style="stroke:#000000;stroke-width:0.8;" x="42.519685" xlink:href="#m22b3a42bb1" y="120.472441"/>
      </g>
     </g>
     <g id="text_16">
      <!-- 0.00 -->
      <defs>
       <path d="M 9.421875 5.078125 
Q 9.421875 7.8125 11.28125 9.71875 
Q 13.140625 11.625 15.921875 11.625 
Q 18.609375 11.625 20.5 9.71875 
Q 22.40625 7.8125 22.40625 5.078125 
Q 22.40625 2.390625 20.5 0.484375 
Q 18.609375 -1.421875 15.921875 -1.421875 
Q 13.140625 -1.421875 11.28125 0.453125 
Q 9.421875 2.34375 9.421875 5.078125 
z
" id="DejaVuSerif-2e"/>
      </defs>
      <g transform="translate(22.16031 122.751972)scale(0.06 -0.06)">
       <use xlink:href="#DejaVuSerif-30"/>
       <use x="63.623047" xlink:href="#DejaVuSerif-2e"/>
       <use x="95.410156" xlink:href="#DejaVuSerif-30"/>
       <use x="159.033203" xlink:href="#DejaVuSerif-30"/>
      </g>
     </g>
    </g>
    <g id="ytick_6">
     <g id="line2d_17">
      <g>
       <use style="stroke:#000000;stroke-width:0.8;" x="42.519685" xlink:href="#m22b3a42bb1" y="102.755906"/>
      </g>
     </g>
     <g id="text_17">
      <!-- 0.05 -->
      <g transform="translate(22.16031 105.035437)scale(0.06 -0.06)">
       <use xlink:href="#DejaVuSerif-30"/>
       <use x="63.623047" xlink:href="#DejaVuSerif-2e"/>
       <use x="95.410156" xlink:href="#DejaVuSerif-30"/>
       <use x="159.033203" xlink:href="#DejaVuSerif-35"/>
      </g>
     </g>
    </g>
    <g id="ytick_7">
     <g id="line2d_18">
      <g>
       <use style="stroke:#000000;stroke-width:0.8;" x="42.519685" xlink:href="#m22b3a42bb1" y="85.03937"/>
      </g>
     </g>
     <g id="text_18">
      <!-- 0.10 -->
      <g transform="translate(22.16031 87.318901)scale(0.06 -0.06)">
       <use xlink:href="#DejaVuSerif-30"/>
       <use x="63.623047" xlink:href="#DejaVuSerif-2e"/>
       <use x="95.410156" xlink:href="#DejaVuSerif-31"/>
       <use x="159.033203" xlink:href="#DejaVuSerif-30"/>
      </g>
     </g>
    </g>
    <g id="ytick_8">
     <g id="line2d_19">
      <g>
       <use style="stroke:#000000;stroke-width:0.8;" x="42.519685" xlink:href="#m22b3a42bb1" y="67.322835"/>
      </g>
     </g>
     <g id="text_19">
      <!-- 0.15 -->
      <g transform="translate(22.16031 69.602366)scale(0.06 -0.06)">
       <use xlink:href="#DejaVuSerif-30"/>
       <use x="63.623047" xlink:href="#DejaVuSerif-2e"/>
       <use x="95.410156" xlink:href="#DejaVuSerif-31"/>
       <use x="159.033203" xlink:href="#DejaVuSerif-35"/>
      </g>
     </g>
    </g>
    <g id="text_20">
     <!-- $\Gamma$ -->
     <defs>
      <path d="M 24.703125 5.171875 
L 36.375 5.171875 
L 36.375 0 
L 5.515625 0 
L 5.515625 5.171875 
L 14.796875 5.171875 
L 14.796875 67.671875 
L 5.515625 67.671875 
L 5.515625 72.90625 
L 65.1875 72.90625 
L 65.1875 56.640625 
L 59.1875 56.640625 
L 59.1875 66.890625 
L 24.703125 66.890625 
z
" id="DejaVuSerif-393"/>
     </defs>
     <g transform="translate(16.49656 94.925984)rotate(-90)scale(0.08 -0.08)">
      <use transform="translate(0 0.09375)" xlink:href="#DejaVuSerif-393"/>
     </g>
    </g>
   </g>
   <g id="line2d_20">
    <path clip-path="url(#p8a754b7312)" d="M 51.023622 112.380236 
L 59.527559 105.240827 
L 68.031496 98.95748 
L 76.535433 93.931299 
L 85.03937 90.700866 
L 93.543307 89.241378 
L 102.047244 88.836732 
L 110.551181 88.754173 
L 119.055118 88.733268 
L 127.559055 88.745669 
L 128.409449 89.309055 
L 129.259843 90.532559 
L 130.110236 91.963346 
L 130.96063 93.33 
L 131.811024 94.543228 
L 132.661417 95.589567 
L 133.511811 96.420472 
L 134.362205 97.096181 
L 135.212598 97.663819 
L 136.062992 98.136496 
L 136.913386 98.52378 
L 137.76378 98.855079 
L 138.614173 99.116575 
L 139.464567 99.329173 
L 140.314961 99.51626 
L 141.165354 99.668622 
L 142.015748 99.784134 
L 142.866142 99.893976 
L 143.716535 99.983622 
L 144.566929 100.059803 
L 145.417323 99.556654 
L 146.267717 97.675157 
L 147.11811 95.040354 
L 147.968504 92.123858 
L 148.818898 89.195669 
L 149.669291 86.335866 
L 150.519685 83.715945 
L 151.370079 81.368858 
L 152.220472 79.288937 
L 153.070866 77.50063 
L 153.92126 75.999331 
L 154.771654 74.722677 
L 155.622047 73.685906 
L 156.472441 72.84189 
L 157.322835 72.178228 
L 158.173228 71.667992 
L 159.023622 71.264409 
L 159.874016 70.958268 
L 160.724409 70.727244 
L 161.574803 70.553622 
L 162.425197 70.421811 
L 163.275591 70.333228 
L 164.125984 70.254213 
L 164.976378 70.202126 
L 165.826772 70.172008 
L 166.677165 70.169882 
L 167.527559 70.165276 
L 168.377953 70.156417 
L 169.228346 70.169882 
L 170.07874 70.187244 
L 170.929134 70.216654 
L 171.779528 70.233307 
L 172.629921 70.248543 
L 173.480315 70.278661 
L 174.330709 70.311969 
L 175.181102 70.342441 
L 176.031496 70.367598 
L 176.88189 70.395591 
L 177.732283 70.41685 
L 178.582677 70.438819 
L 179.433071 70.456535 
L 180.283465 70.494803 
L 181.133858 70.538031 
L 181.984252 70.58126 
L 182.834646 70.624488 
L 183.685039 70.659567 
L 184.535433 70.695709 
L 185.385827 70.728661 
L 186.23622 70.758425 
L 187.086614 70.781102 
L 187.937008 70.814764 
L 188.787402 70.851614 
L 189.637795 70.892717 
L 190.488189 70.913976 
L 191.338583 70.938425 
L 192.188976 70.953307 
L 193.03937 70.981654 
L 193.889764 71.001496 
L 194.740157 71.039764 
L 195.590551 71.084055 
L 204.094488 71.371417 
L 212.598425 71.67437 
L 221.102362 71.965984 
L 229.606299 72.290906 
L 238.110236 72.588189 
L 246.614173 72.909213 
L 255.11811 73.205787 
L 263.622047 73.48252 
L 272.125984 73.747559 
L 280.629921 74.048386 
L 284.464567 74.140098 
" style="fill:none;stroke:#9681b7;stroke-linecap:square;"/>
   </g>
   <g id="line2d_21">
    <path clip-path="url(#p8a754b7312)" d="M 51.023622 112.385748 
L 59.527559 105.215827 
L 68.031496 98.904528 
L 76.535433 93.881811 
L 85.03937 90.609567 
L 93.543307 89.149606 
L 102.047244 88.738701 
L 110.551181 88.652441 
L 119.055118 88.628661 
L 127.559055 88.615748 
L 128.409449 88.888307 
L 129.259843 89.512323 
L 130.110236 90.232441 
L 130.96063 90.939291 
L 131.811024 91.58252 
L 132.661417 92.143346 
L 133.511811 92.620827 
L 134.362205 93.018583 
L 135.212598 93.351811 
L 136.062992 93.626654 
L 136.913386 93.857126 
L 137.76378 94.051339 
L 138.614173 94.212677 
L 139.464567 94.349843 
L 140.314961 94.465945 
L 141.165354 94.561614 
L 142.015748 94.644882 
L 142.866142 94.714921 
L 143.716535 94.772874 
L 144.566929 94.82374 
L 145.417323 94.725709 
L 146.267717 94.493819 
L 147.11811 94.225827 
L 147.968504 93.948307 
L 148.818898 93.67252 
L 149.669291 93.411378 
L 150.519685 93.156614 
L 151.370079 92.907953 
L 152.220472 92.673465 
L 153.070866 92.447677 
L 153.92126 92.23437 
L 154.771654 92.040551 
L 155.622047 91.858386 
L 156.472441 91.692165 
L 157.322835 91.544567 
L 158.173228 91.415748 
L 159.023622 91.299882 
L 159.874016 91.198071 
L 160.724409 91.112913 
L 161.574803 91.040551 
L 162.425197 90.980472 
L 163.275591 90.928583 
L 164.125984 90.884094 
L 164.976378 90.848622 
L 165.826772 90.820433 
L 166.677165 90.795039 
L 167.527559 90.774843 
L 168.377953 90.757323 
L 169.228346 90.742126 
L 170.07874 90.731142 
L 170.929134 90.719646 
L 171.779528 90.711339 
L 172.629921 90.703386 
L 173.480315 90.695906 
L 174.330709 90.693661 
L 175.181102 90.689803 
L 176.031496 90.684488 
L 176.88189 90.676378 
L 177.732283 90.669488 
L 178.582677 90.660945 
L 179.433071 90.654409 
L 180.283465 90.651299 
L 181.133858 90.646457 
L 181.984252 90.643543 
L 182.834646 90.642677 
L 183.685039 90.64126 
L 184.535433 90.637953 
L 185.385827 90.632913 
L 186.23622 90.630197 
L 187.086614 90.627402 
L 187.937008 90.624409 
L 188.787402 90.624173 
L 189.637795 90.619488 
L 190.488189 90.615157 
L 191.338583 90.607283 
L 192.188976 90.596417 
L 193.03937 90.589528 
L 193.889764 90.585591 
L 194.740157 90.583504 
L 195.590551 90.583425 
L 204.094488 90.547953 
L 212.598425 90.510591 
L 221.102362 90.486142 
L 229.606299 90.454094 
L 238.110236 90.416772 
L 246.614173 90.38063 
L 255.11811 90.352598 
L 263.622047 90.320866 
L 272.125984 90.288465 
L 280.629921 90.268386 
L 284.464567 90.245094 
" style="fill:none;stroke:#999999;stroke-linecap:square;"/>
   </g>
   <g id="line2d_22">
    <path clip-path="url(#p8a754b7312)" d="M 51.023622 112.374309 
L 59.527559 105.206562 
L 68.031496 98.898421 
L 76.535433 93.860595 
L 85.03937 90.59535 
L 93.543307 89.141789 
L 102.047244 88.728941 
L 110.551181 88.642021 
L 119.055118 88.630818 
L 127.559055 88.621269 
L 128.409449 88.592292 
L 129.259843 88.524068 
L 130.110236 88.440582 
L 130.96063 88.352402 
L 131.811024 88.269094 
L 132.661417 88.193561 
L 133.511811 88.12759 
L 134.362205 88.072992 
L 135.212598 88.02727 
L 136.062992 87.991474 
L 136.913386 87.961597 
L 137.76378 87.938093 
L 138.614173 87.919672 
L 139.464567 87.905367 
L 140.314961 87.895634 
L 141.165354 87.888981 
L 142.015748 87.885796 
L 142.866142 87.886374 
L 143.716535 87.887008 
L 144.566929 87.886995 
L 145.417323 87.919869 
L 146.267717 87.988123 
L 147.11811 88.063001 
L 147.968504 88.136995 
L 148.818898 88.202091 
L 149.669291 88.255162 
L 150.519685 88.29678 
L 151.370079 88.329755 
L 152.220472 88.355372 
L 153.070866 88.375249 
L 153.92126 88.391715 
L 154.771654 88.405779 
L 155.622047 88.417677 
L 156.472441 88.425687 
L 157.322835 88.430652 
L 158.173228 88.434243 
L 159.023622 88.435411 
L 159.874016 88.435451 
L 160.724409 88.433854 
L 161.574803 88.431059 
L 162.425197 88.429191 
L 163.275591 88.427021 
L 164.125984 88.425315 
L 164.976378 88.423521 
L 165.826772 88.421387 
L 166.677165 88.419094 
L 167.527559 88.414978 
L 168.377953 88.412559 
L 169.228346 88.408373 
L 170.07874 88.406115 
L 170.929134 88.406903 
L 171.779528 88.407336 
L 172.629921 88.408193 
L 173.480315 88.40804 
L 174.330709 88.408552 
L 175.181102 88.408075 
L 176.031496 88.407633 
L 176.88189 88.406199 
L 177.732283 88.404886 
L 178.582677 88.406041 
L 179.433071 88.406483 
L 180.283465 88.406754 
L 181.133858 88.405739 
L 181.984252 88.407559 
L 182.834646 88.409856 
L 183.685039 88.412415 
L 184.535433 88.414116 
L 185.385827 88.414978 
L 186.23622 88.417305 
L 187.086614 88.418255 
L 187.937008 88.417638 
L 188.787402 88.417305 
L 189.637795 88.416807 
L 190.488189 88.415787 
L 191.338583 88.415324 
L 192.188976 88.414641 
L 193.03937 88.414243 
L 193.889764 88.413526 
L 194.740157 88.411457 
L 195.590551 88.408386 
L 204.094488 88.411881 
L 212.598425 88.414125 
L 221.102362 88.411859 
L 229.606299 88.431667 
L 238.110236 88.433561 
L 246.614173 88.434593 
L 255.11811 88.437012 
L 263.622047 88.437708 
L 272.125984 88.440459 
L 280.629921 88.454908 
L 284.464567 88.450468 
" style="fill:none;stroke:#4d4d4d;stroke-linecap:square;"/>
   </g>
   <g id="line2d_23">
    <defs>
     <path d="M 0 1.25 
C 0.331504 1.25 0.649475 1.118292 0.883883 0.883883 
C 1.118292 0.649475 1.25 0.331504 1.25 0 
C 1.25 -0.331504 1.118292 -0.649475 0.883883 -0.883883 
C 0.649475 -1.118292 0.331504 -1.25 0 -1.25 
C -0.331504 -1.25 -0.649475 -1.118292 -0.883883 -0.883883 
C -1.118292 -0.649475 -1.25 -0.331504 -1.25 0 
C -1.25 0.331504 -1.118292 0.649475 -0.883883 0.883883 
C -0.649475 1.118292 -0.331504 1.25 0 1.25 
z
" id="m9323c11a41" style="stroke:#353a90;"/>
    </defs>
    <g clip-path="url(#p8a754b7312)">
     <use style="fill:#353a90;stroke:#353a90;" x="127.559055" xlink:href="#m9323c11a41" y="88.745669"/>
    </g>
   </g>
   <g id="line2d_24">
    <g clip-path="url(#p8a754b7312)">
     <use style="fill:#353a90;stroke:#353a90;" x="145.417323" xlink:href="#m9323c11a41" y="99.556654"/>
    </g>
   </g>
   <g id="line2d_25">
    <g clip-path="url(#p8a754b7312)">
     <use style="fill:#353a90;stroke:#353a90;" x="161.574803" xlink:href="#m9323c11a41" y="70.553622"/>
    </g>
   </g>
   <g id="patch_8">
    <path d="M 42.519685 120.472441 
L 42.519685 63.779528 
" style="fill:none;stroke:#000000;stroke-linecap:square;stroke-linejoin:miter;stroke-width:0.8;"/>
   </g>
   <g id="patch_9">
    <path d="M 42.519685 120.472441 
L 269.291339 120.472441 
" style="fill:none;stroke:#000000;stroke-linecap:square;stroke-linejoin:miter;stroke-width:0.8;"/>
   </g>
   <g id="legend_1">
    <g id="line2d_26">
     <path d="M 56.258268 113.458583 
L 68.258268 113.458583 
" style="fill:none;stroke:#9681b7;stroke-linecap:square;"/>
    </g>
    <g id="line2d_27"/>
    <g id="text_21">
     <!-- $\mathrm{engram} \rightarrow  \mathrm{engram}$ -->
     <defs>
      <path d="M 5.71875 36.28125 
L 68.609375 36.28125 
L 59.1875 52.734375 
L 59.71875 52.734375 
L 80.078125 32.5625 
L 80.078125 32.078125 
L 59.71875 11.921875 
L 59.1875 11.921875 
L 68.609375 28.375 
L 5.71875 28.375 
z
" id="DejaVuSerif-2192"/>
     </defs>
     <g transform="translate(73.058268 115.558583)scale(0.06 -0.06)">
      <use transform="translate(0 0.671875)" xlink:href="#DejaVuSerif-65"/>
      <use transform="translate(59.179688 0.671875)" xlink:href="#DejaVuSerif-6e"/>
      <use transform="translate(123.583984 0.671875)" xlink:href="#DejaVuSerif-67"/>
      <use transform="translate(187.597656 0.671875)" xlink:href="#DejaVuSerif-72"/>
      <use transform="translate(235.400391 0.671875)" xlink:href="#DejaVuSerif-61"/>
      <use transform="translate(295.019531 0.671875)" xlink:href="#DejaVuSerif-6d"/>
      <use transform="translate(408.808594 0.671875)" xlink:href="#DejaVuSerif-2192"/>
      <use transform="translate(511.5625 0.671875)" xlink:href="#DejaVuSerif-65"/>
      <use transform="translate(570.742188 0.671875)" xlink:href="#DejaVuSerif-6e"/>
      <use transform="translate(635.146484 0.671875)" xlink:href="#DejaVuSerif-67"/>
      <use transform="translate(699.160156 0.671875)" xlink:href="#DejaVuSerif-72"/>
      <use transform="translate(746.962891 0.671875)" xlink:href="#DejaVuSerif-61"/>
      <use transform="translate(806.582031 0.671875)" xlink:href="#DejaVuSerif-6d"/>
     </g>
    </g>
    <g id="line2d_28">
     <path d="M 145.764803 113.458583 
L 157.764803 113.458583 
" style="fill:none;stroke:#999999;stroke-linecap:square;"/>
    </g>
    <g id="line2d_29"/>
    <g id="text_22">
     <!-- $\mathrm{exc} \leftrightarrow  \mathrm{engram}$ -->
     <defs>
      <path d="M 29.109375 31.6875 
L 39.984375 46.6875 
L 33.015625 46.6875 
L 33.015625 51.90625 
L 52.984375 51.90625 
L 52.984375 46.6875 
L 46.09375 46.6875 
L 32.171875 27.484375 
L 48.390625 5.171875 
L 55.171875 5.171875 
L 55.171875 0 
L 31.203125 0 
L 31.203125 5.171875 
L 37.796875 5.171875 
L 26.515625 20.703125 
L 15.1875 5.171875 
L 21.921875 5.171875 
L 21.921875 0 
L 2.203125 0 
L 2.203125 5.171875 
L 9.078125 5.171875 
L 23.390625 24.90625 
L 7.625 46.6875 
L 1.21875 46.6875 
L 1.21875 51.90625 
L 24.421875 51.90625 
L 24.421875 46.6875 
L 18.21875 46.6875 
z
" id="DejaVuSerif-78"/>
      <path d="M 51.421875 15.578125 
Q 49.515625 7.28125 44.09375 2.921875 
Q 38.671875 -1.421875 30.078125 -1.421875 
Q 18.75 -1.421875 11.859375 6.078125 
Q 4.984375 13.578125 4.984375 25.984375 
Q 4.984375 38.421875 11.859375 45.875 
Q 18.75 53.328125 30.078125 53.328125 
Q 35.015625 53.328125 39.890625 52.171875 
Q 44.78125 51.03125 49.703125 48.6875 
L 49.703125 35.40625 
L 44.484375 35.40625 
Q 43.453125 42.234375 40.015625 45.359375 
Q 36.578125 48.484375 30.171875 48.484375 
Q 22.90625 48.484375 19.1875 42.84375 
Q 15.484375 37.203125 15.484375 25.984375 
Q 15.484375 14.75 19.171875 9.078125 
Q 22.859375 3.421875 30.171875 3.421875 
Q 35.984375 3.421875 39.453125 6.4375 
Q 42.921875 9.46875 44.1875 15.578125 
z
" id="DejaVuSerif-63"/>
      <path d="M 68.609375 36.28125 
L 59.1875 52.734375 
L 59.71875 52.734375 
L 80.078125 32.5625 
L 80.078125 32.078125 
L 59.71875 11.921875 
L 59.1875 11.921875 
L 68.609375 28.375 
L 15.1875 28.375 
L 24.609375 11.921875 
L 24.078125 11.921875 
L 3.71875 32.078125 
L 3.71875 32.5625 
L 24.078125 52.734375 
L 24.609375 52.734375 
L 15.1875 36.28125 
z
" id="DejaVuSerif-2194"/>
     </defs>
     <g transform="translate(162.564803 115.558583)scale(0.06 -0.06)">
      <use transform="translate(0 0.671875)" xlink:href="#DejaVuSerif-65"/>
      <use transform="translate(59.179688 0.671875)" xlink:href="#DejaVuSerif-78"/>
      <use transform="translate(115.576172 0.671875)" xlink:href="#DejaVuSerif-63"/>
      <use transform="translate(190.546875 0.671875)" xlink:href="#DejaVuSerif-2194"/>
      <use transform="translate(293.300781 0.671875)" xlink:href="#DejaVuSerif-65"/>
      <use transform="translate(352.480469 0.671875)" xlink:href="#DejaVuSerif-6e"/>
      <use transform="translate(416.884766 0.671875)" xlink:href="#DejaVuSerif-67"/>
      <use transform="translate(480.898438 0.671875)" xlink:href="#DejaVuSerif-72"/>
      <use transform="translate(528.701172 0.671875)" xlink:href="#DejaVuSerif-61"/>
      <use transform="translate(588.320312 0.671875)" xlink:href="#DejaVuSerif-6d"/>
     </g>
    </g>
    <g id="line2d_30">
     <path d="M 222.191339 113.458583 
L 234.191339 113.458583 
" style="fill:none;stroke:#4d4d4d;stroke-linecap:square;"/>
    </g>
    <g id="line2d_31"/>
    <g id="text_23">
     <!-- $\mathrm{exc} \rightarrow  \mathrm{exc}$ -->
     <g transform="translate(238.991339 115.558583)scale(0.06 -0.06)">
      <use transform="translate(0 0.671875)" xlink:href="#DejaVuSerif-65"/>
      <use transform="translate(59.179688 0.671875)" xlink:href="#DejaVuSerif-78"/>
      <use transform="translate(115.576172 0.671875)" xlink:href="#DejaVuSerif-63"/>
      <use transform="translate(190.546875 0.671875)" xlink:href="#DejaVuSerif-2192"/>
      <use transform="translate(293.300781 0.671875)" xlink:href="#DejaVuSerif-65"/>
      <use transform="translate(352.480469 0.671875)" xlink:href="#DejaVuSerif-78"/>
      <use transform="translate(408.876953 0.671875)" xlink:href="#DejaVuSerif-63"/>
     </g>
    </g>
   </g>
  </g>
 </g>
 <defs>
  <clipPath id="p1dcf6453bc">
   <rect height="56.692913" width="226.771654" x="42.519685" y="1.417323"/>
  </clipPath>
  <clipPath id="p8a754b7312">
   <rect height="56.692913" width="226.771654" x="42.519685" y="63.779528"/>
  </clipPath>
 </defs>
</svg>
