<?xml version="1.0" encoding="utf-8" standalone="no"?>
<!DOCTYPE svg PUBLIC "-//W3C//DTD SVG 1.1//EN"
  "http://www.w3.org/Graphics/SVG/1.1/DTD/svg11.dtd">
<!-- Created with matplotlib (http://matplotlib.org/) -->
<svg height="141pt" version="1.1" viewBox="0 0 283 141" width="283pt" xmlns="http://www.w3.org/2000/svg" xmlns:xlink="http://www.w3.org/1999/xlink">
 <defs>
  <style type="text/css">
*{stroke-linecap:butt;stroke-linejoin:round;}
  </style>
 </defs>
 <g id="figure_1">
  <g id="patch_1">
   <path d="M 0 141.732283 
L 283.464567 141.732283 
L 283.464567 0 
L 0 0 
z
" style="fill:#ffffff;"/>
  </g>
  <g id="axes_1">
   <g id="patch_2">
    <path d="M 42.519685 58.110236 
L 269.291339 58.110236 
L 269.291339 1.417323 
L 42.519685 1.417323 
z
" style="fill:#ffffff;"/>
   </g>
   <g id="patch_3">
    <path clip-path="url(#pa9d99607d5)" d="M 127.559055 58.110236 
L 127.559055 1.417323 
L 144.566929 1.417323 
L 144.566929 58.110236 
z
" style="fill:#c6710a;opacity:0.1;stroke:#c6710a;stroke-linejoin:miter;"/>
   </g>
   <g id="matplotlib.axis_1"/>
   <g id="matplotlib.axis_2">
    <g id="ytick_1">
     <g id="line2d_1">
      <defs>
       <path d="M 0 0 
L -3.5 0 
" id="m177bf9d7a7" style="stroke:#000000;stroke-width:0.8;"/>
      </defs>
      <g>
       <use style="stroke:#000000;stroke-width:0.8;" x="42.519685" xlink:href="#m177bf9d7a7" y="39.178381"/>
      </g>
     </g>
     <g id="text_1">
      <!-- 5 -->
      <defs>
       <path d="M 50.296875 72.90625 
L 50.296875 64.890625 
L 16.890625 64.890625 
L 16.890625 44 
Q 19.4375 45.75 22.828125 46.625 
Q 26.21875 47.515625 30.421875 47.515625 
Q 42.234375 47.515625 49.0625 40.96875 
Q 55.90625 34.421875 55.90625 23.09375 
Q 55.90625 11.53125 49 5.046875 
Q 42.09375 -1.421875 29.59375 -1.421875 
Q 24.5625 -1.421875 19.28125 -0.1875 
Q 14.015625 1.03125 8.5 3.515625 
L 8.5 17.671875 
L 14.015625 17.671875 
Q 14.453125 10.75 18.421875 7.078125 
Q 22.40625 3.421875 29.59375 3.421875 
Q 37.3125 3.421875 41.453125 8.5 
Q 45.609375 13.578125 45.609375 23.09375 
Q 45.609375 32.5625 41.484375 37.609375 
Q 37.359375 42.671875 29.59375 42.671875 
Q 25.203125 42.671875 21.84375 41.109375 
Q 18.5 39.546875 15.921875 36.28125 
L 11.71875 36.28125 
L 11.71875 72.90625 
z
" id="DejaVuSerif-35"/>
      </defs>
      <g transform="translate(31.702185 41.457913)scale(0.06 -0.06)">
       <use xlink:href="#DejaVuSerif-35"/>
      </g>
     </g>
    </g>
    <g id="ytick_2">
     <g id="line2d_2">
      <g>
       <use style="stroke:#000000;stroke-width:0.8;" x="42.519685" xlink:href="#m177bf9d7a7" y="17.786745"/>
      </g>
     </g>
     <g id="text_2">
      <!-- 10 -->
      <defs>
       <path d="M 14.203125 0 
L 14.203125 5.171875 
L 26.90625 5.171875 
L 26.90625 65.828125 
L 12.203125 56.296875 
L 12.203125 62.703125 
L 29.984375 74.21875 
L 36.71875 74.21875 
L 36.71875 5.171875 
L 49.421875 5.171875 
L 49.421875 0 
z
" id="DejaVuSerif-31"/>
       <path d="M 31.78125 3.421875 
Q 39.265625 3.421875 42.96875 11.625 
Q 46.6875 19.828125 46.6875 36.375 
Q 46.6875 52.984375 42.96875 61.1875 
Q 39.265625 69.390625 31.78125 69.390625 
Q 24.3125 69.390625 20.59375 61.1875 
Q 16.890625 52.984375 16.890625 36.375 
Q 16.890625 19.828125 20.59375 11.625 
Q 24.3125 3.421875 31.78125 3.421875 
z
M 31.78125 -1.421875 
Q 19.921875 -1.421875 13.25 8.53125 
Q 6.59375 18.5 6.59375 36.375 
Q 6.59375 54.296875 13.25 64.25 
Q 19.921875 74.21875 31.78125 74.21875 
Q 43.703125 74.21875 50.34375 64.25 
Q 56.984375 54.296875 56.984375 36.375 
Q 56.984375 18.5 50.34375 8.53125 
Q 43.703125 -1.421875 31.78125 -1.421875 
z
" id="DejaVuSerif-30"/>
      </defs>
      <g transform="translate(27.884685 20.066276)scale(0.06 -0.06)">
       <use xlink:href="#DejaVuSerif-31"/>
       <use x="63.623047" xlink:href="#DejaVuSerif-30"/>
      </g>
     </g>
    </g>
    <g id="text_3">
     <!-- Firing rate (Hz) -->
     <defs>
      <path d="M 5.515625 0 
L 5.515625 5.171875 
L 14.796875 5.171875 
L 14.796875 67.671875 
L 5.515625 67.671875 
L 5.515625 72.90625 
L 65.1875 72.90625 
L 65.1875 56.6875 
L 59.1875 56.6875 
L 59.1875 66.890625 
L 24.703125 66.890625 
L 24.703125 42.484375 
L 49.609375 42.484375 
L 49.609375 51.609375 
L 55.609375 51.609375 
L 55.609375 27.390625 
L 49.609375 27.390625 
L 49.609375 36.53125 
L 24.703125 36.53125 
L 24.703125 5.171875 
L 36.375 5.171875 
L 36.375 0 
z
" id="DejaVuSerif-46"/>
      <path d="M 9.71875 68.015625 
Q 9.71875 70.265625 11.34375 71.921875 
Q 12.984375 73.578125 15.28125 73.578125 
Q 17.53125 73.578125 19.15625 71.921875 
Q 20.796875 70.265625 20.796875 68.015625 
Q 20.796875 65.71875 19.1875 64.109375 
Q 17.578125 62.5 15.28125 62.5 
Q 12.984375 62.5 11.34375 64.109375 
Q 9.71875 65.71875 9.71875 68.015625 
z
M 21.1875 5.171875 
L 29.6875 5.171875 
L 29.6875 0 
L 3.609375 0 
L 3.609375 5.171875 
L 12.203125 5.171875 
L 12.203125 46.6875 
L 3.609375 46.6875 
L 3.609375 51.90625 
L 21.1875 51.90625 
z
" id="DejaVuSerif-69"/>
      <path d="M 47.796875 52 
L 47.796875 39.015625 
L 42.625 39.015625 
Q 42.390625 42.875 40.484375 44.78125 
Q 38.578125 46.6875 34.90625 46.6875 
Q 28.265625 46.6875 24.71875 42.09375 
Q 21.1875 37.5 21.1875 28.90625 
L 21.1875 5.171875 
L 31.59375 5.171875 
L 31.59375 0 
L 4.109375 0 
L 4.109375 5.171875 
L 12.203125 5.171875 
L 12.203125 46.78125 
L 3.609375 46.78125 
L 3.609375 51.90625 
L 21.1875 51.90625 
L 21.1875 42.671875 
Q 23.828125 48.09375 27.96875 50.703125 
Q 32.125 53.328125 38.09375 53.328125 
Q 40.28125 53.328125 42.703125 52.984375 
Q 45.125 52.640625 47.796875 52 
z
" id="DejaVuSerif-72"/>
      <path d="M 4.109375 0 
L 4.109375 5.171875 
L 12.203125 5.171875 
L 12.203125 46.6875 
L 3.609375 46.6875 
L 3.609375 51.90625 
L 21.1875 51.90625 
L 21.1875 42.671875 
Q 23.6875 47.953125 27.65625 50.640625 
Q 31.640625 53.328125 36.921875 53.328125 
Q 45.515625 53.328125 49.5625 48.390625 
Q 53.609375 43.453125 53.609375 33.015625 
L 53.609375 5.171875 
L 61.625 5.171875 
L 61.625 0 
L 36.8125 0 
L 36.8125 5.171875 
L 44.578125 5.171875 
L 44.578125 30.171875 
Q 44.578125 39.703125 42.234375 43.234375 
Q 39.890625 46.78125 33.984375 46.78125 
Q 27.734375 46.78125 24.453125 42.203125 
Q 21.1875 37.640625 21.1875 28.90625 
L 21.1875 5.171875 
L 29 5.171875 
L 29 0 
z
" id="DejaVuSerif-6e"/>
      <path d="M 52.484375 46.6875 
L 52.484375 1.125 
Q 52.484375 -10.0625 46.328125 -16.140625 
Q 40.1875 -22.21875 28.8125 -22.21875 
Q 23.6875 -22.21875 19 -21.28125 
Q 14.3125 -20.359375 10.015625 -18.5 
L 10.015625 -7.625 
L 14.703125 -7.625 
Q 15.578125 -12.703125 18.84375 -15.046875 
Q 22.125 -17.390625 28.21875 -17.390625 
Q 36.140625 -17.390625 39.8125 -12.921875 
Q 43.5 -8.453125 43.5 1.125 
L 43.5 8.109375 
Q 40.875 3.21875 36.796875 0.890625 
Q 32.71875 -1.421875 26.703125 -1.421875 
Q 17.140625 -1.421875 11.0625 6.171875 
Q 4.984375 13.765625 4.984375 25.984375 
Q 4.984375 38.1875 11.03125 45.75 
Q 17.09375 53.328125 26.703125 53.328125 
Q 32.71875 53.328125 36.796875 51 
Q 40.875 48.6875 43.5 43.796875 
L 43.5 51.90625 
L 61.078125 51.90625 
L 61.078125 46.6875 
z
M 43.5 28.515625 
Q 43.5 37.84375 39.90625 42.765625 
Q 36.328125 47.703125 29.5 47.703125 
Q 22.5625 47.703125 19.015625 42.234375 
Q 15.484375 36.765625 15.484375 25.984375 
Q 15.484375 15.234375 19.015625 9.71875 
Q 22.5625 4.203125 29.5 4.203125 
Q 36.328125 4.203125 39.90625 9.109375 
Q 43.5 14.015625 43.5 23.390625 
z
" id="DejaVuSerif-67"/>
      <path id="DejaVuSerif-20"/>
      <path d="M 39.796875 16.3125 
L 39.796875 27.296875 
L 28.21875 27.296875 
Q 21.53125 27.296875 18.25 24.40625 
Q 14.984375 21.53125 14.984375 15.578125 
Q 14.984375 10.15625 18.296875 6.984375 
Q 21.625 3.8125 27.296875 3.8125 
Q 32.90625 3.8125 36.34375 7.28125 
Q 39.796875 10.75 39.796875 16.3125 
z
M 48.78125 32.421875 
L 48.78125 5.171875 
L 56.78125 5.171875 
L 56.78125 0 
L 39.796875 0 
L 39.796875 5.609375 
Q 36.8125 2 32.90625 0.28125 
Q 29 -1.421875 23.78125 -1.421875 
Q 15.140625 -1.421875 10.0625 3.171875 
Q 4.984375 7.765625 4.984375 15.578125 
Q 4.984375 23.640625 10.796875 28.078125 
Q 16.609375 32.515625 27.203125 32.515625 
L 39.796875 32.515625 
L 39.796875 36.078125 
Q 39.796875 42 36.203125 45.234375 
Q 32.625 48.484375 26.125 48.484375 
Q 20.75 48.484375 17.578125 46.046875 
Q 14.40625 43.609375 13.625 38.8125 
L 8.984375 38.8125 
L 8.984375 49.3125 
Q 13.671875 51.3125 18.09375 52.3125 
Q 22.515625 53.328125 26.703125 53.328125 
Q 37.5 53.328125 43.140625 47.96875 
Q 48.78125 42.625 48.78125 32.421875 
z
" id="DejaVuSerif-61"/>
      <path d="M 10.796875 46.6875 
L 2.875 46.6875 
L 2.875 51.90625 
L 10.796875 51.90625 
L 10.796875 68.015625 
L 19.828125 68.015625 
L 19.828125 51.90625 
L 36.71875 51.90625 
L 36.71875 46.6875 
L 19.828125 46.6875 
L 19.828125 13.71875 
Q 19.828125 7.125 21.09375 5.265625 
Q 22.359375 3.421875 25.78125 3.421875 
Q 29.296875 3.421875 30.90625 5.484375 
Q 32.515625 7.5625 32.625 12.203125 
L 39.40625 12.203125 
Q 39.015625 5.125 35.546875 1.84375 
Q 32.078125 -1.421875 25 -1.421875 
Q 17.234375 -1.421875 14.015625 2.015625 
Q 10.796875 5.46875 10.796875 13.71875 
z
" id="DejaVuSerif-74"/>
      <path d="M 54.203125 25 
L 15.484375 25 
L 15.484375 24.609375 
Q 15.484375 14.109375 19.4375 8.765625 
Q 23.390625 3.421875 31.109375 3.421875 
Q 37.015625 3.421875 40.796875 6.515625 
Q 44.578125 9.625 46.09375 15.71875 
L 53.328125 15.71875 
Q 51.171875 7.171875 45.375 2.875 
Q 39.59375 -1.421875 30.171875 -1.421875 
Q 18.796875 -1.421875 11.890625 6.078125 
Q 4.984375 13.578125 4.984375 25.984375 
Q 4.984375 38.28125 11.765625 45.796875 
Q 18.5625 53.328125 29.59375 53.328125 
Q 41.359375 53.328125 47.65625 46.0625 
Q 53.953125 38.8125 54.203125 25 
z
M 43.609375 30.171875 
Q 43.3125 39.265625 39.765625 43.875 
Q 36.234375 48.484375 29.59375 48.484375 
Q 23.390625 48.484375 19.828125 43.84375 
Q 16.265625 39.203125 15.484375 30.171875 
z
" id="DejaVuSerif-65"/>
      <path d="M 31.890625 -15.578125 
Q 20.015625 -10.25 13.953125 1.296875 
Q 7.90625 12.84375 7.90625 30.171875 
Q 7.90625 47.5625 13.953125 59.109375 
Q 20.015625 70.65625 31.890625 75.984375 
L 31.890625 71.1875 
Q 24.359375 66.015625 21.09375 56.609375 
Q 17.828125 47.21875 17.828125 30.171875 
Q 17.828125 13.1875 21.09375 3.78125 
Q 24.359375 -5.609375 31.890625 -10.796875 
z
" id="DejaVuSerif-28"/>
      <path d="M 5.515625 0 
L 5.515625 5.171875 
L 14.796875 5.171875 
L 14.796875 67.671875 
L 5.515625 67.671875 
L 5.515625 72.90625 
L 33.984375 72.90625 
L 33.984375 67.671875 
L 24.703125 67.671875 
L 24.703125 42.484375 
L 62.5 42.484375 
L 62.5 67.671875 
L 53.21875 67.671875 
L 53.21875 72.90625 
L 81.6875 72.90625 
L 81.6875 67.671875 
L 72.40625 67.671875 
L 72.40625 5.171875 
L 81.6875 5.171875 
L 81.6875 0 
L 53.21875 0 
L 53.21875 5.171875 
L 62.5 5.171875 
L 62.5 36.53125 
L 24.703125 36.53125 
L 24.703125 5.171875 
L 33.984375 5.171875 
L 33.984375 0 
z
" id="DejaVuSerif-48"/>
      <path d="M 4 0 
L 4 4.203125 
L 36.53125 46.6875 
L 10.796875 46.6875 
L 10.796875 37.703125 
L 5.609375 37.703125 
L 5.609375 51.90625 
L 48.09375 51.90625 
L 48.09375 47.703125 
L 15.578125 5.171875 
L 43.796875 5.171875 
L 43.796875 14.59375 
L 49.03125 14.59375 
L 49.03125 0 
z
" id="DejaVuSerif-7a"/>
      <path d="M 7.078125 -15.578125 
L 7.078125 -10.796875 
Q 14.59375 -5.609375 17.890625 3.78125 
Q 21.1875 13.1875 21.1875 30.171875 
Q 21.1875 47.21875 17.890625 56.609375 
Q 14.59375 66.015625 7.078125 71.1875 
L 7.078125 75.984375 
Q 19 70.65625 25.046875 59.109375 
Q 31.109375 47.5625 31.109375 30.171875 
Q 31.109375 12.84375 25.046875 1.296875 
Q 19 -10.25 7.078125 -15.578125 
z
" id="DejaVuSerif-29"/>
     </defs>
     <g transform="translate(22.107185 61.678155)rotate(-90)scale(0.08 -0.08)">
      <use xlink:href="#DejaVuSerif-46"/>
      <use x="69.384766" xlink:href="#DejaVuSerif-69"/>
      <use x="101.367188" xlink:href="#DejaVuSerif-72"/>
      <use x="149.169922" xlink:href="#DejaVuSerif-69"/>
      <use x="181.152344" xlink:href="#DejaVuSerif-6e"/>
      <use x="245.556641" xlink:href="#DejaVuSerif-67"/>
      <use x="309.570312" xlink:href="#DejaVuSerif-20"/>
      <use x="341.357422" xlink:href="#DejaVuSerif-72"/>
      <use x="389.160156" xlink:href="#DejaVuSerif-61"/>
      <use x="448.779297" xlink:href="#DejaVuSerif-74"/>
      <use x="488.964844" xlink:href="#DejaVuSerif-65"/>
      <use x="548.144531" xlink:href="#DejaVuSerif-20"/>
      <use x="579.931641" xlink:href="#DejaVuSerif-28"/>
      <use x="618.945312" xlink:href="#DejaVuSerif-48"/>
      <use x="706.152344" xlink:href="#DejaVuSerif-7a"/>
      <use x="758.837891" xlink:href="#DejaVuSerif-29"/>
     </g>
    </g>
   </g>
   <g id="line2d_3">
    <path clip-path="url(#pa9d99607d5)" d="M 51.023622 55.471107 
L 59.527559 53.757209 
L 68.031496 50.299465 
L 76.535433 41.335514 
L 85.03937 26.293771 
L 93.543307 25.974608 
L 102.047244 26.476028 
L 110.551181 26.190235 
L 119.055118 26.526512 
L 127.559055 26.125205 
L 128.409449 3.994273 
L 129.259843 7.674491 
L 130.110236 11.386367 
L 130.96063 14.593401 
L 131.811024 17.447046 
L 132.661417 19.771033 
L 133.511811 21.379684 
L 134.362205 22.28669 
L 135.212598 23.467508 
L 136.062992 24.094711 
L 136.913386 24.310338 
L 137.76378 24.916149 
L 138.614173 25.402167 
L 139.464567 25.339704 
L 140.314961 25.567311 
L 141.165354 25.797485 
L 142.015748 25.765825 
L 142.866142 26.351956 
L 143.716535 26.262967 
L 144.566929 26.38276 
L 145.417323 41.665801 
L 146.267717 40.993248 
L 147.11811 39.873182 
L 147.968504 38.118212 
L 148.818898 36.52154 
L 149.669291 35.024126 
L 150.519685 33.918606 
L 151.370079 32.077214 
L 152.220472 30.826231 
L 153.070866 29.831948 
L 153.92126 29.067838 
L 154.771654 28.047029 
L 155.622047 27.981999 
L 156.472441 27.413837 
L 157.322835 27.245271 
L 158.173228 27.232436 
L 159.023622 27.069004 
L 159.874016 26.427255 
L 160.724409 26.031937 
L 161.574803 26.444368 
L 162.425197 26.113225 
L 163.275591 26.304039 
L 164.125984 25.948082 
L 164.976378 26.668552 
L 165.826772 26.484584 
L 166.677165 26.651439 
L 167.527559 26.322864 
L 168.377953 25.93867 
L 169.228346 26.219328 
L 170.07874 26.345111 
L 170.929134 26.722459 
L 171.779528 25.969474 
L 172.629921 26.278369 
L 173.480315 26.152586 
L 174.330709 26.44009 
L 175.181102 25.950649 
L 176.031496 26.345966 
L 176.88189 26.238153 
L 177.732283 25.963484 
L 178.582677 26.332276 
L 179.433071 26.054185 
L 180.283465 26.379337 
L 181.133858 26.114937 
L 181.984252 26.777222 
L 182.834646 26.363935 
L 183.685039 26.687377 
L 184.535433 26.588975 
L 185.385827 26.18339 
L 186.23622 26.213338 
L 187.086614 26.450358 
L 187.937008 26.261256 
L 188.787402 26.416131 
L 189.637795 26.380193 
L 190.488189 26.637748 
L 191.338583 25.946371 
L 192.188976 26.4341 
L 193.03937 26.065308 
L 193.889764 26.268101 
L 194.740157 26.422976 
L 195.590551 26.20906 
L 204.094488 26.622346 
L 212.598425 26.375915 
L 221.102362 26.054185 
L 229.606299 26.697645 
L 238.110236 26.065308 
L 246.614173 26.188524 
L 255.11811 26.341688 
L 263.622047 26.442657 
L 272.125984 26.171411 
L 280.629921 26.21505 
L 284.464567 26.340448 
" style="fill:none;stroke:#c6710a;stroke-linecap:square;"/>
   </g>
   <g id="line2d_4">
    <path clip-path="url(#pa9d99607d5)" d="M 51.023622 55.533286 
L 59.527559 53.843346 
L 68.031496 50.417737 
L 76.535433 41.339222 
L 85.03937 26.185482 
L 93.543307 26.195369 
L 102.047244 26.553798 
L 110.551181 26.297098 
L 119.055118 26.309173 
L 127.559055 26.328473 
L 128.409449 23.917208 
L 129.259843 25.263455 
L 130.110236 26.059794 
L 130.96063 26.534498 
L 131.811024 26.974881 
L 132.661417 27.176437 
L 133.511811 27.092582 
L 134.362205 26.771613 
L 135.212598 27.078796 
L 136.062992 26.671595 
L 136.913386 26.387894 
L 137.76378 26.252509 
L 138.614173 26.214099 
L 139.464567 26.364221 
L 140.314961 25.966431 
L 141.165354 26.058368 
L 142.015748 26.20231 
L 142.866142 26.581845 
L 143.716535 26.509113 
L 144.566929 26.307366 
L 145.417323 26.370781 
L 146.267717 26.562355 
L 147.11811 26.578422 
L 147.968504 26.52404 
L 148.818898 26.114461 
L 149.669291 26.373823 
L 150.519685 26.602856 
L 151.370079 26.516434 
L 152.220472 26.041445 
L 153.070866 26.333797 
L 153.92126 25.959681 
L 154.771654 26.301757 
L 155.622047 26.312215 
L 156.472441 26.298715 
L 157.322835 26.27295 
L 158.173228 26.276182 
L 159.023622 26.405958 
L 159.874016 26.069111 
L 160.724409 26.105524 
L 161.574803 26.351005 
L 162.425197 26.369925 
L 163.275591 26.269147 
L 164.125984 26.165041 
L 164.976378 26.548759 
L 165.826772 26.444273 
L 166.677165 26.58194 
L 167.527559 26.532977 
L 168.377953 25.973562 
L 169.228346 26.282837 
L 170.07874 26.297098 
L 170.929134 26.55589 
L 171.779528 26.062266 
L 172.629921 26.049336 
L 173.480315 26.177591 
L 174.330709 26.459865 
L 175.181102 26.107996 
L 176.031496 26.444463 
L 176.88189 26.298525 
L 177.732283 26.161523 
L 178.582677 26.389796 
L 179.433071 26.077288 
L 180.283465 26.471559 
L 181.133858 26.043441 
L 181.984252 26.495898 
L 182.834646 26.402821 
L 183.685039 26.622632 
L 184.535433 26.445889 
L 185.385827 26.204972 
L 186.23622 26.318015 
L 187.086614 26.217712 
L 187.937008 26.016345 
L 188.787402 26.599148 
L 189.637795 26.468612 
L 190.488189 26.578707 
L 191.338583 25.953977 
L 192.188976 26.436382 
L 193.03937 26.390271 
L 193.889764 26.325431 
L 194.740157 26.371922 
L 195.590551 26.281887 
L 204.094488 26.547333 
L 212.598425 26.217617 
L 221.102362 26.095256 
L 229.606299 26.506546 
L 238.110236 26.295672 
L 246.614173 26.234445 
L 255.11811 26.22817 
L 263.622047 26.488672 
L 272.125984 26.141272 
L 280.629921 26.428681 
L 284.464567 26.493288 
" style="fill:none;stroke:#4d4d4d;stroke-linecap:square;"/>
   </g>
   <g id="patch_4">
    <path d="M 42.519685 58.110236 
L 42.519685 1.417323 
" style="fill:none;stroke:#000000;stroke-linecap:square;stroke-linejoin:miter;stroke-width:0.8;"/>
   </g>
   <g id="patch_5">
    <path d="M 42.519685 58.110236 
L 269.291339 58.110236 
" style="fill:none;stroke:#000000;stroke-linecap:square;stroke-linejoin:miter;stroke-width:0.8;"/>
   </g>
   <g id="legend_1">
    <g id="line2d_5">
     <path d="M 208.451339 9.277323 
L 220.451339 9.277323 
" style="fill:none;stroke:#c6710a;stroke-linecap:square;"/>
    </g>
    <g id="line2d_6"/>
    <g id="text_4">
     <!-- $\mathrm{learning\ pop}$ -->
     <defs>
      <path d="M 20.515625 5.171875 
L 29 5.171875 
L 29 0 
L 2.875 0 
L 2.875 5.171875 
L 11.53125 5.171875 
L 11.53125 70.796875 
L 2.875 70.796875 
L 2.875 75.984375 
L 20.515625 75.984375 
z
" id="DejaVuSerif-6c"/>
      <path d="M 20.515625 28.515625 
L 20.515625 23.390625 
Q 20.515625 14.015625 24.09375 9.109375 
Q 27.6875 4.203125 34.515625 4.203125 
Q 41.40625 4.203125 44.9375 9.71875 
Q 48.484375 15.234375 48.484375 25.984375 
Q 48.484375 36.765625 44.9375 42.234375 
Q 41.40625 47.703125 34.515625 47.703125 
Q 27.6875 47.703125 24.09375 42.765625 
Q 20.515625 37.84375 20.515625 28.515625 
z
M 11.53125 46.6875 
L 2.875 46.6875 
L 2.875 51.90625 
L 20.515625 51.90625 
L 20.515625 43.796875 
Q 23.140625 48.6875 27.21875 51 
Q 31.296875 53.328125 37.3125 53.328125 
Q 46.875 53.328125 52.921875 45.75 
Q 58.984375 38.1875 58.984375 25.984375 
Q 58.984375 13.765625 52.921875 6.171875 
Q 46.875 -1.421875 37.3125 -1.421875 
Q 31.296875 -1.421875 27.21875 0.890625 
Q 23.140625 3.21875 20.515625 8.109375 
L 20.515625 -15.578125 
L 29 -15.578125 
L 29 -20.796875 
L 2.875 -20.796875 
L 2.875 -15.578125 
L 11.53125 -15.578125 
z
" id="DejaVuSerif-70"/>
      <path d="M 30.078125 3.421875 
Q 37.3125 3.421875 40.984375 9.125 
Q 44.671875 14.84375 44.671875 25.984375 
Q 44.671875 37.109375 40.984375 42.796875 
Q 37.3125 48.484375 30.078125 48.484375 
Q 22.859375 48.484375 19.171875 42.796875 
Q 15.484375 37.109375 15.484375 25.984375 
Q 15.484375 14.84375 19.1875 9.125 
Q 22.90625 3.421875 30.078125 3.421875 
z
M 30.078125 -1.421875 
Q 18.75 -1.421875 11.859375 6.078125 
Q 4.984375 13.578125 4.984375 25.984375 
Q 4.984375 38.375 11.84375 45.84375 
Q 18.703125 53.328125 30.078125 53.328125 
Q 41.453125 53.328125 48.3125 45.84375 
Q 55.171875 38.375 55.171875 25.984375 
Q 55.171875 13.578125 48.3125 6.078125 
Q 41.453125 -1.421875 30.078125 -1.421875 
z
" id="DejaVuSerif-6f"/>
     </defs>
     <g transform="translate(225.251339 11.377323)scale(0.06 -0.06)">
      <use transform="translate(0 0.015625)" xlink:href="#DejaVuSerif-6c"/>
      <use transform="translate(31.982422 0.015625)" xlink:href="#DejaVuSerif-65"/>
      <use transform="translate(91.162109 0.015625)" xlink:href="#DejaVuSerif-61"/>
      <use transform="translate(150.78125 0.015625)" xlink:href="#DejaVuSerif-72"/>
      <use transform="translate(198.583984 0.015625)" xlink:href="#DejaVuSerif-6e"/>
      <use transform="translate(262.988281 0.015625)" xlink:href="#DejaVuSerif-69"/>
      <use transform="translate(294.970703 0.015625)" xlink:href="#DejaVuSerif-6e"/>
      <use transform="translate(359.375 0.015625)" xlink:href="#DejaVuSerif-67"/>
      <use transform="translate(454.996429 0.015625)" xlink:href="#DejaVuSerif-70"/>
      <use transform="translate(519.010101 0.015625)" xlink:href="#DejaVuSerif-6f"/>
      <use transform="translate(579.215179 0.015625)" xlink:href="#DejaVuSerif-70"/>
     </g>
    </g>
    <g id="line2d_7">
     <path d="M 208.451339 18.217323 
L 220.451339 18.217323 
" style="fill:none;stroke:#4d4d4d;stroke-linecap:square;"/>
    </g>
    <g id="line2d_8"/>
    <g id="text_5">
     <!-- $\mathrm{background}$ -->
     <defs>
      <path d="M 11.53125 5.171875 
L 11.53125 70.796875 
L 2.875 70.796875 
L 2.875 75.984375 
L 20.515625 75.984375 
L 20.515625 43.796875 
Q 23.140625 48.6875 27.21875 51 
Q 31.296875 53.328125 37.3125 53.328125 
Q 46.875 53.328125 52.921875 45.75 
Q 58.984375 38.1875 58.984375 25.984375 
Q 58.984375 13.765625 52.921875 6.171875 
Q 46.875 -1.421875 37.3125 -1.421875 
Q 31.296875 -1.421875 27.21875 0.890625 
Q 23.140625 3.21875 20.515625 8.109375 
L 20.515625 0 
L 2.875 0 
L 2.875 5.171875 
z
M 20.515625 23.390625 
Q 20.515625 14.015625 24.09375 9.109375 
Q 27.6875 4.203125 34.515625 4.203125 
Q 41.40625 4.203125 44.9375 9.71875 
Q 48.484375 15.234375 48.484375 25.984375 
Q 48.484375 36.765625 44.9375 42.234375 
Q 41.40625 47.703125 34.515625 47.703125 
Q 27.6875 47.703125 24.09375 42.765625 
Q 20.515625 37.84375 20.515625 28.515625 
z
" id="DejaVuSerif-62"/>
      <path d="M 51.421875 15.578125 
Q 49.515625 7.28125 44.09375 2.921875 
Q 38.671875 -1.421875 30.078125 -1.421875 
Q 18.75 -1.421875 11.859375 6.078125 
Q 4.984375 13.578125 4.984375 25.984375 
Q 4.984375 38.421875 11.859375 45.875 
Q 18.75 53.328125 30.078125 53.328125 
Q 35.015625 53.328125 39.890625 52.171875 
Q 44.78125 51.03125 49.703125 48.6875 
L 49.703125 35.40625 
L 44.484375 35.40625 
Q 43.453125 42.234375 40.015625 45.359375 
Q 36.578125 48.484375 30.171875 48.484375 
Q 22.90625 48.484375 19.1875 42.84375 
Q 15.484375 37.203125 15.484375 25.984375 
Q 15.484375 14.75 19.171875 9.078125 
Q 22.859375 3.421875 30.171875 3.421875 
Q 35.984375 3.421875 39.453125 6.4375 
Q 42.921875 9.46875 44.1875 15.578125 
z
" id="DejaVuSerif-63"/>
      <path d="M 28.609375 0 
L 3.421875 0 
L 3.421875 5.171875 
L 11.53125 5.171875 
L 11.53125 70.796875 
L 2.875 70.796875 
L 2.875 75.984375 
L 20.515625 75.984375 
L 20.515625 26.515625 
L 42.390625 46.6875 
L 34.90625 46.6875 
L 34.90625 51.90625 
L 58.40625 51.90625 
L 58.40625 46.6875 
L 49.515625 46.6875 
L 34.078125 32.421875 
L 53.8125 5.171875 
L 61.28125 5.171875 
L 61.28125 0 
L 35.6875 0 
L 35.6875 5.171875 
L 43.109375 5.171875 
L 27.59375 26.515625 
L 20.515625 19.921875 
L 20.515625 5.171875 
L 28.609375 5.171875 
z
" id="DejaVuSerif-6b"/>
      <path d="M 35.40625 51.90625 
L 52.203125 51.90625 
L 52.203125 5.171875 
L 60.6875 5.171875 
L 60.6875 0 
L 43.21875 0 
L 43.21875 9.1875 
Q 40.71875 4 36.765625 1.28125 
Q 32.8125 -1.421875 27.59375 -1.421875 
Q 18.953125 -1.421875 14.875 3.484375 
Q 10.796875 8.40625 10.796875 18.890625 
L 10.796875 46.6875 
L 2.6875 46.6875 
L 2.6875 51.90625 
L 19.828125 51.90625 
L 19.828125 21.6875 
Q 19.828125 12.203125 22.140625 8.6875 
Q 24.46875 5.171875 30.421875 5.171875 
Q 36.671875 5.171875 39.9375 9.765625 
Q 43.21875 14.359375 43.21875 23.09375 
L 43.21875 46.6875 
L 35.40625 46.6875 
z
" id="DejaVuSerif-75"/>
      <path d="M 52.484375 5.171875 
L 61.078125 5.171875 
L 61.078125 0 
L 43.5 0 
L 43.5 8.109375 
Q 40.875 3.21875 36.796875 0.890625 
Q 32.71875 -1.421875 26.703125 -1.421875 
Q 17.140625 -1.421875 11.0625 6.171875 
Q 4.984375 13.765625 4.984375 25.984375 
Q 4.984375 38.1875 11.03125 45.75 
Q 17.09375 53.328125 26.703125 53.328125 
Q 32.71875 53.328125 36.796875 51 
Q 40.875 48.6875 43.5 43.796875 
L 43.5 70.796875 
L 35.015625 70.796875 
L 35.015625 75.984375 
L 52.484375 75.984375 
z
M 43.5 23.390625 
L 43.5 28.515625 
Q 43.5 37.84375 39.90625 42.765625 
Q 36.328125 47.703125 29.5 47.703125 
Q 22.5625 47.703125 19.015625 42.234375 
Q 15.484375 36.765625 15.484375 25.984375 
Q 15.484375 15.234375 19.015625 9.71875 
Q 22.5625 4.203125 29.5 4.203125 
Q 36.328125 4.203125 39.90625 9.109375 
Q 43.5 14.015625 43.5 23.390625 
z
" id="DejaVuSerif-64"/>
     </defs>
     <g transform="translate(225.251339 20.317323)scale(0.06 -0.06)">
      <use transform="translate(0 0.015625)" xlink:href="#DejaVuSerif-62"/>
      <use transform="translate(64.013672 0.015625)" xlink:href="#DejaVuSerif-61"/>
      <use transform="translate(123.632812 0.015625)" xlink:href="#DejaVuSerif-63"/>
      <use transform="translate(179.638672 0.015625)" xlink:href="#DejaVuSerif-6b"/>
      <use transform="translate(240.234375 0.015625)" xlink:href="#DejaVuSerif-67"/>
      <use transform="translate(304.248047 0.015625)" xlink:href="#DejaVuSerif-72"/>
      <use transform="translate(352.050781 0.015625)" xlink:href="#DejaVuSerif-6f"/>
      <use transform="translate(412.255859 0.015625)" xlink:href="#DejaVuSerif-75"/>
      <use transform="translate(476.660156 0.015625)" xlink:href="#DejaVuSerif-6e"/>
      <use transform="translate(541.064453 0.015625)" xlink:href="#DejaVuSerif-64"/>
     </g>
    </g>
   </g>
  </g>
  <g id="axes_2">
   <g id="patch_6">
    <path d="M 42.519685 120.472441 
L 269.291339 120.472441 
L 269.291339 63.779528 
L 42.519685 63.779528 
z
" style="fill:#ffffff;"/>
   </g>
   <g id="patch_7">
    <path clip-path="url(#pf920e8dc32)" d="M 127.559055 120.472441 
L 127.559055 63.779528 
L 144.566929 63.779528 
L 144.566929 120.472441 
z
" style="fill:#c6710a;opacity:0.1;stroke:#c6710a;stroke-linejoin:miter;"/>
   </g>
   <g id="matplotlib.axis_3">
    <g id="xtick_1">
     <g id="line2d_9">
      <defs>
       <path d="M 0 0 
L 0 3.5 
" id="m7980cd107f" style="stroke:#000000;stroke-width:0.8;"/>
      </defs>
      <g>
       <use style="stroke:#000000;stroke-width:0.8;" x="42.519685" xlink:href="#m7980cd107f" y="120.472441"/>
      </g>
     </g>
     <g id="text_6">
      <!-- 0 -->
      <g transform="translate(40.610935 132.031503)scale(0.06 -0.06)">
       <use xlink:href="#DejaVuSerif-30"/>
      </g>
     </g>
    </g>
    <g id="xtick_2">
     <g id="line2d_10">
      <g>
       <use style="stroke:#000000;stroke-width:0.8;" x="70.866142" xlink:href="#m7980cd107f" y="120.472441"/>
      </g>
     </g>
     <g id="text_7">
      <!-- 250 -->
      <defs>
       <path d="M 12.796875 55.515625 
L 7.328125 55.515625 
L 7.328125 68.5 
Q 12.546875 71.296875 17.84375 72.75 
Q 23.140625 74.21875 28.21875 74.21875 
Q 39.59375 74.21875 46.1875 68.703125 
Q 52.78125 63.1875 52.78125 53.71875 
Q 52.78125 43.015625 37.84375 28.125 
Q 36.671875 27 36.078125 26.421875 
L 17.671875 8.015625 
L 48.09375 8.015625 
L 48.09375 17 
L 53.8125 17 
L 53.8125 0 
L 6.78125 0 
L 6.78125 5.328125 
L 28.90625 27.390625 
Q 36.234375 34.71875 39.359375 40.84375 
Q 42.484375 46.96875 42.484375 53.71875 
Q 42.484375 61.078125 38.640625 65.234375 
Q 34.8125 69.390625 28.078125 69.390625 
Q 21.09375 69.390625 17.28125 65.921875 
Q 13.484375 62.453125 12.796875 55.515625 
z
" id="DejaVuSerif-32"/>
      </defs>
      <g transform="translate(65.139892 132.031503)scale(0.06 -0.06)">
       <use xlink:href="#DejaVuSerif-32"/>
       <use x="63.623047" xlink:href="#DejaVuSerif-35"/>
       <use x="127.246094" xlink:href="#DejaVuSerif-30"/>
      </g>
     </g>
    </g>
    <g id="xtick_3">
     <g id="line2d_11">
      <g>
       <use style="stroke:#000000;stroke-width:0.8;" x="99.212598" xlink:href="#m7980cd107f" y="120.472441"/>
      </g>
     </g>
     <g id="text_8">
      <!-- 500 -->
      <g transform="translate(93.486348 132.031503)scale(0.06 -0.06)">
       <use xlink:href="#DejaVuSerif-35"/>
       <use x="63.623047" xlink:href="#DejaVuSerif-30"/>
       <use x="127.246094" xlink:href="#DejaVuSerif-30"/>
      </g>
     </g>
    </g>
    <g id="xtick_4">
     <g id="line2d_12">
      <g>
       <use style="stroke:#000000;stroke-width:0.8;" x="127.559055" xlink:href="#m7980cd107f" y="120.472441"/>
      </g>
     </g>
     <g id="text_9">
      <!-- 750 -->
      <defs>
       <path d="M 56.390625 67.921875 
L 27.875 0 
L 20.609375 0 
L 47.796875 64.890625 
L 14.109375 64.890625 
L 14.109375 55.90625 
L 8.40625 55.90625 
L 8.40625 72.90625 
L 56.390625 72.90625 
z
" id="DejaVuSerif-37"/>
      </defs>
      <g transform="translate(121.832805 132.031503)scale(0.06 -0.06)">
       <use xlink:href="#DejaVuSerif-37"/>
       <use x="63.623047" xlink:href="#DejaVuSerif-35"/>
       <use x="127.246094" xlink:href="#DejaVuSerif-30"/>
      </g>
     </g>
    </g>
    <g id="xtick_5">
     <g id="line2d_13">
      <g>
       <use style="stroke:#000000;stroke-width:0.8;" x="155.905512" xlink:href="#m7980cd107f" y="120.472441"/>
      </g>
     </g>
     <g id="text_10">
      <!-- 1000 -->
      <g transform="translate(148.270512 132.031503)scale(0.06 -0.06)">
       <use xlink:href="#DejaVuSerif-31"/>
       <use x="63.623047" xlink:href="#DejaVuSerif-30"/>
       <use x="127.246094" xlink:href="#DejaVuSerif-30"/>
       <use x="190.869141" xlink:href="#DejaVuSerif-30"/>
      </g>
     </g>
    </g>
    <g id="xtick_6">
     <g id="line2d_14">
      <g>
       <use style="stroke:#000000;stroke-width:0.8;" x="184.251969" xlink:href="#m7980cd107f" y="120.472441"/>
      </g>
     </g>
     <g id="text_11">
      <!-- 1250 -->
      <g transform="translate(176.616969 132.031503)scale(0.06 -0.06)">
       <use xlink:href="#DejaVuSerif-31"/>
       <use x="63.623047" xlink:href="#DejaVuSerif-32"/>
       <use x="127.246094" xlink:href="#DejaVuSerif-35"/>
       <use x="190.869141" xlink:href="#DejaVuSerif-30"/>
      </g>
     </g>
    </g>
    <g id="xtick_7">
     <g id="line2d_15">
      <g>
       <use style="stroke:#000000;stroke-width:0.8;" x="212.598425" xlink:href="#m7980cd107f" y="120.472441"/>
      </g>
     </g>
     <g id="text_12">
      <!-- 1500 -->
      <g transform="translate(204.963425 132.031503)scale(0.06 -0.06)">
       <use xlink:href="#DejaVuSerif-31"/>
       <use x="63.623047" xlink:href="#DejaVuSerif-35"/>
       <use x="127.246094" xlink:href="#DejaVuSerif-30"/>
       <use x="190.869141" xlink:href="#DejaVuSerif-30"/>
      </g>
     </g>
    </g>
    <g id="xtick_8">
     <g id="line2d_16">
      <g>
       <use style="stroke:#000000;stroke-width:0.8;" x="240.944882" xlink:href="#m7980cd107f" y="120.472441"/>
      </g>
     </g>
     <g id="text_13">
      <!-- 1750 -->
      <g transform="translate(233.309882 132.031503)scale(0.06 -0.06)">
       <use xlink:href="#DejaVuSerif-31"/>
       <use x="63.623047" xlink:href="#DejaVuSerif-37"/>
       <use x="127.246094" xlink:href="#DejaVuSerif-35"/>
       <use x="190.869141" xlink:href="#DejaVuSerif-30"/>
      </g>
     </g>
    </g>
    <g id="xtick_9">
     <g id="line2d_17">
      <g>
       <use style="stroke:#000000;stroke-width:0.8;" x="269.291339" xlink:href="#m7980cd107f" y="120.472441"/>
      </g>
     </g>
     <g id="text_14">
      <!-- 2000 -->
      <g transform="translate(261.656339 132.031503)scale(0.06 -0.06)">
       <use xlink:href="#DejaVuSerif-32"/>
       <use x="63.623047" xlink:href="#DejaVuSerif-30"/>
       <use x="127.246094" xlink:href="#DejaVuSerif-30"/>
       <use x="190.869141" xlink:href="#DejaVuSerif-30"/>
      </g>
     </g>
    </g>
    <g id="text_15">
     <!-- Time (s) -->
     <defs>
      <path d="M 19.09375 0 
L 19.09375 5.171875 
L 28.421875 5.171875 
L 28.421875 67.09375 
L 6.984375 67.09375 
L 6.984375 55.71875 
L 0.984375 55.71875 
L 0.984375 72.90625 
L 65.71875 72.90625 
L 65.71875 55.71875 
L 59.71875 55.71875 
L 59.71875 67.09375 
L 38.28125 67.09375 
L 38.28125 5.171875 
L 47.609375 5.171875 
L 47.609375 0 
z
" id="DejaVuSerif-54"/>
      <path d="M 51.8125 41.796875 
Q 54.390625 47.515625 58.421875 50.421875 
Q 62.453125 53.328125 67.828125 53.328125 
Q 75.984375 53.328125 79.984375 48.265625 
Q 83.984375 43.21875 83.984375 33.015625 
L 83.984375 5.171875 
L 92.09375 5.171875 
L 92.09375 0 
L 67.1875 0 
L 67.1875 5.171875 
L 75 5.171875 
L 75 31.984375 
Q 75 39.9375 72.65625 43.3125 
Q 70.3125 46.6875 64.890625 46.6875 
Q 58.890625 46.6875 55.734375 42.140625 
Q 52.59375 37.59375 52.59375 28.90625 
L 52.59375 5.171875 
L 60.40625 5.171875 
L 60.40625 0 
L 35.796875 0 
L 35.796875 5.171875 
L 43.609375 5.171875 
L 43.609375 32.328125 
Q 43.609375 40.09375 41.265625 43.390625 
Q 38.921875 46.6875 33.5 46.6875 
Q 27.484375 46.6875 24.328125 42.140625 
Q 21.1875 37.59375 21.1875 28.90625 
L 21.1875 5.171875 
L 29 5.171875 
L 29 0 
L 4.109375 0 
L 4.109375 5.171875 
L 12.203125 5.171875 
L 12.203125 46.78125 
L 3.609375 46.78125 
L 3.609375 51.90625 
L 21.1875 51.90625 
L 21.1875 42.671875 
Q 23.6875 47.859375 27.53125 50.59375 
Q 31.390625 53.328125 36.28125 53.328125 
Q 42.328125 53.328125 46.375 50.3125 
Q 50.4375 47.3125 51.8125 41.796875 
z
" id="DejaVuSerif-6d"/>
      <path d="M 5.609375 2.875 
L 5.609375 14.984375 
L 10.796875 14.984375 
Q 10.984375 9.1875 14.421875 6.296875 
Q 17.875 3.421875 24.609375 3.421875 
Q 30.671875 3.421875 33.84375 5.6875 
Q 37.015625 7.953125 37.015625 12.3125 
Q 37.015625 15.71875 34.6875 17.8125 
Q 32.375 19.921875 24.90625 22.3125 
L 18.40625 24.515625 
Q 11.71875 26.65625 8.71875 29.875 
Q 5.71875 33.109375 5.71875 38.09375 
Q 5.71875 45.21875 10.9375 49.265625 
Q 16.15625 53.328125 25.390625 53.328125 
Q 29.5 53.328125 34.03125 52.25 
Q 38.578125 51.171875 43.40625 49.125 
L 43.40625 37.796875 
L 38.234375 37.796875 
Q 38.03125 42.828125 34.703125 45.65625 
Q 31.390625 48.484375 25.6875 48.484375 
Q 20.015625 48.484375 17.109375 46.484375 
Q 14.203125 44.484375 14.203125 40.484375 
Q 14.203125 37.203125 16.40625 35.21875 
Q 18.609375 33.25 25.203125 31.203125 
L 32.328125 29 
Q 39.703125 26.703125 42.9375 23.265625 
Q 46.1875 19.828125 46.1875 14.40625 
Q 46.1875 7.03125 40.546875 2.796875 
Q 34.90625 -1.421875 25 -1.421875 
Q 19.96875 -1.421875 15.1875 -0.34375 
Q 10.40625 0.734375 5.609375 2.875 
z
" id="DejaVuSerif-73"/>
     </defs>
     <g transform="translate(139.352387 143.358066)scale(0.08 -0.08)">
      <use xlink:href="#DejaVuSerif-54"/>
      <use x="66.699219" xlink:href="#DejaVuSerif-69"/>
      <use x="98.681641" xlink:href="#DejaVuSerif-6d"/>
      <use x="193.505859" xlink:href="#DejaVuSerif-65"/>
      <use x="252.685547" xlink:href="#DejaVuSerif-20"/>
      <use x="284.472656" xlink:href="#DejaVuSerif-28"/>
      <use x="323.486328" xlink:href="#DejaVuSerif-73"/>
      <use x="374.804688" xlink:href="#DejaVuSerif-29"/>
     </g>
    </g>
   </g>
   <g id="matplotlib.axis_4">
    <g id="ytick_3">
     <g id="line2d_18">
      <g>
       <use style="stroke:#000000;stroke-width:0.8;" x="42.519685" xlink:href="#m177bf9d7a7" y="120.472441"/>
      </g>
     </g>
     <g id="text_16">
      <!-- 0.00 -->
      <defs>
       <path d="M 9.421875 5.078125 
Q 9.421875 7.8125 11.28125 9.71875 
Q 13.140625 11.625 15.921875 11.625 
Q 18.609375 11.625 20.5 9.71875 
Q 22.40625 7.8125 22.40625 5.078125 
Q 22.40625 2.390625 20.5 0.484375 
Q 18.609375 -1.421875 15.921875 -1.421875 
Q 13.140625 -1.421875 11.28125 0.453125 
Q 9.421875 2.34375 9.421875 5.078125 
z
" id="DejaVuSerif-2e"/>
      </defs>
      <g transform="translate(22.16031 122.751972)scale(0.06 -0.06)">
       <use xlink:href="#DejaVuSerif-30"/>
       <use x="63.623047" xlink:href="#DejaVuSerif-2e"/>
       <use x="95.410156" xlink:href="#DejaVuSerif-30"/>
       <use x="159.033203" xlink:href="#DejaVuSerif-30"/>
      </g>
     </g>
    </g>
    <g id="ytick_4">
     <g id="line2d_19">
      <g>
       <use style="stroke:#000000;stroke-width:0.8;" x="42.519685" xlink:href="#m177bf9d7a7" y="102.755906"/>
      </g>
     </g>
     <g id="text_17">
      <!-- 0.05 -->
      <g transform="translate(22.16031 105.035437)scale(0.06 -0.06)">
       <use xlink:href="#DejaVuSerif-30"/>
       <use x="63.623047" xlink:href="#DejaVuSerif-2e"/>
       <use x="95.410156" xlink:href="#DejaVuSerif-30"/>
       <use x="159.033203" xlink:href="#DejaVuSerif-35"/>
      </g>
     </g>
    </g>
    <g id="ytick_5">
     <g id="line2d_20">
      <g>
       <use style="stroke:#000000;stroke-width:0.8;" x="42.519685" xlink:href="#m177bf9d7a7" y="85.03937"/>
      </g>
     </g>
     <g id="text_18">
      <!-- 0.10 -->
      <g transform="translate(22.16031 87.318901)scale(0.06 -0.06)">
       <use xlink:href="#DejaVuSerif-30"/>
       <use x="63.623047" xlink:href="#DejaVuSerif-2e"/>
       <use x="95.410156" xlink:href="#DejaVuSerif-31"/>
       <use x="159.033203" xlink:href="#DejaVuSerif-30"/>
      </g>
     </g>
    </g>
    <g id="ytick_6">
     <g id="line2d_21">
      <g>
       <use style="stroke:#000000;stroke-width:0.8;" x="42.519685" xlink:href="#m177bf9d7a7" y="67.322835"/>
      </g>
     </g>
     <g id="text_19">
      <!-- 0.15 -->
      <g transform="translate(22.16031 69.602366)scale(0.06 -0.06)">
       <use xlink:href="#DejaVuSerif-30"/>
       <use x="63.623047" xlink:href="#DejaVuSerif-2e"/>
       <use x="95.410156" xlink:href="#DejaVuSerif-31"/>
       <use x="159.033203" xlink:href="#DejaVuSerif-35"/>
      </g>
     </g>
    </g>
    <g id="text_20">
     <!-- $\Gamma$ -->
     <defs>
      <path d="M 24.703125 5.171875 
L 36.375 5.171875 
L 36.375 0 
L 5.515625 0 
L 5.515625 5.171875 
L 14.796875 5.171875 
L 14.796875 67.671875 
L 5.515625 67.671875 
L 5.515625 72.90625 
L 65.1875 72.90625 
L 65.1875 56.640625 
L 59.1875 56.640625 
L 59.1875 66.890625 
L 24.703125 66.890625 
z
" id="DejaVuSerif-393"/>
     </defs>
     <g transform="translate(16.49656 94.925984)rotate(-90)scale(0.08 -0.08)">
      <use transform="translate(0 0.09375)" xlink:href="#DejaVuSerif-393"/>
     </g>
    </g>
   </g>
   <g id="line2d_22">
    <path clip-path="url(#pf920e8dc32)" d="M 51.023622 111.06815 
L 59.527559 102.237165 
L 68.031496 93.962126 
L 76.535433 87.45378 
L 85.03937 85.010315 
L 93.543307 84.964961 
L 102.047244 84.954331 
L 110.551181 84.986575 
L 119.055118 84.965669 
L 127.559055 84.96815 
L 128.409449 85.310787 
L 129.259843 86.105551 
L 130.110236 87.006969 
L 130.96063 87.820157 
L 131.811024 88.532362 
L 132.661417 89.099291 
L 133.511811 89.541142 
L 134.362205 89.897953 
L 135.212598 90.146693 
L 136.062992 90.336614 
L 136.913386 90.482244 
L 137.76378 90.597756 
L 138.614173 90.686339 
L 139.464567 90.751535 
L 140.314961 90.814252 
L 141.165354 90.856772 
L 142.015748 90.897874 
L 142.866142 90.920906 
L 143.716535 90.94252 
L 144.566929 90.95315 
L 145.417323 90.544961 
L 146.267717 89.170512 
L 147.11811 87.373346 
L 147.968504 85.489016 
L 148.818898 83.727992 
L 149.669291 82.18878 
L 150.519685 80.907165 
L 151.370079 79.901929 
L 152.220472 79.156772 
L 153.070866 78.602953 
L 153.92126 78.198661 
L 154.771654 77.910945 
L 155.622047 77.716772 
L 156.472441 77.570079 
L 157.322835 77.464843 
L 158.173228 77.400354 
L 159.023622 77.337992 
L 159.874016 77.288386 
L 160.724409 77.272087 
L 161.574803 77.265709 
L 162.425197 77.277402 
L 163.275591 77.289449 
L 164.125984 77.294409 
L 164.976378 77.321339 
L 165.826772 77.330906 
L 166.677165 77.335866 
L 167.527559 77.345079 
L 168.377953 77.365984 
L 169.228346 77.38122 
L 170.07874 77.385472 
L 170.929134 77.394685 
L 171.779528 77.401772 
L 172.629921 77.419843 
L 173.480315 77.43437 
L 174.330709 77.440394 
L 175.181102 77.44252 
L 176.031496 77.45811 
L 176.88189 77.473346 
L 177.732283 77.496024 
L 178.582677 77.522953 
L 179.433071 77.532165 
L 180.283465 77.549173 
L 181.133858 77.557323 
L 181.984252 77.55626 
L 182.834646 77.564409 
L 183.685039 77.567598 
L 184.535433 77.561575 
L 185.385827 77.573622 
L 186.23622 77.586024 
L 187.086614 77.593465 
L 187.937008 77.600906 
L 188.787402 77.608346 
L 189.637795 77.618268 
L 190.488189 77.628543 
L 191.338583 77.63563 
L 192.188976 77.660787 
L 193.03937 77.686654 
L 193.889764 77.700118 
L 194.740157 77.709685 
L 195.590551 77.726693 
L 204.094488 77.837953 
L 212.598425 77.943189 
L 221.102362 78.051614 
L 229.606299 78.14126 
L 238.110236 78.270236 
L 246.614173 78.348189 
L 255.11811 78.454134 
L 263.622047 78.547677 
L 272.125984 78.613583 
L 280.629921 78.711732 
L 284.464567 78.761103 
" style="fill:none;stroke:#c6710a;stroke-linecap:square;"/>
   </g>
   <g id="line2d_23">
    <path clip-path="url(#pf920e8dc32)" d="M 51.023622 111.075748 
L 59.527559 102.195197 
L 68.031496 94.018661 
L 76.535433 87.442126 
L 85.03937 84.993031 
L 93.543307 84.98874 
L 102.047244 84.991614 
L 110.551181 84.999016 
L 119.055118 84.988701 
L 127.559055 84.986142 
L 128.409449 85.164016 
L 129.259843 85.560472 
L 130.110236 86.005669 
L 130.96063 86.42626 
L 131.811024 86.784488 
L 132.661417 87.073228 
L 133.511811 87.299961 
L 134.362205 87.473031 
L 135.212598 87.609252 
L 136.062992 87.712598 
L 136.913386 87.794567 
L 137.76378 87.858504 
L 138.614173 87.906457 
L 139.464567 87.943307 
L 140.314961 87.973228 
L 141.165354 87.997283 
L 142.015748 88.016693 
L 142.866142 88.031732 
L 143.716535 88.039252 
L 144.566929 88.046339 
L 145.417323 87.947953 
L 146.267717 87.75689 
L 147.11811 87.535079 
L 147.968504 87.31189 
L 148.818898 87.098858 
L 149.669291 86.902244 
L 150.519685 86.718543 
L 151.370079 86.548465 
L 152.220472 86.402244 
L 153.070866 86.283425 
L 153.92126 86.183228 
L 154.771654 86.101339 
L 155.622047 86.035039 
L 156.472441 85.982165 
L 157.322835 85.942008 
L 158.173228 85.91185 
L 159.023622 85.887205 
L 159.874016 85.868937 
L 160.724409 85.860748 
L 161.574803 85.857756 
L 162.425197 85.853386 
L 163.275591 85.850748 
L 164.125984 85.848583 
L 164.976378 85.848661 
L 165.826772 85.847756 
L 166.677165 85.845748 
L 167.527559 85.842323 
L 168.377953 85.841417 
L 169.228346 85.843346 
L 170.07874 85.844843 
L 170.929134 85.839528 
L 171.779528 85.836575 
L 172.629921 85.835315 
L 173.480315 85.834528 
L 174.330709 85.831969 
L 175.181102 85.831378 
L 176.031496 85.831929 
L 176.88189 85.831063 
L 177.732283 85.832677 
L 178.582677 85.83752 
L 179.433071 85.839213 
L 180.283465 85.842323 
L 181.133858 85.841299 
L 181.984252 85.837835 
L 182.834646 85.834213 
L 183.685039 85.827913 
L 184.535433 85.819567 
L 185.385827 85.815472 
L 186.23622 85.814724 
L 187.086614 85.814055 
L 187.937008 85.810669 
L 188.787402 85.805866 
L 189.637795 85.801535 
L 190.488189 85.798661 
L 191.338583 85.798031 
L 192.188976 85.798858 
L 193.03937 85.80063 
L 193.889764 85.802323 
L 194.740157 85.80122 
L 195.590551 85.800157 
L 204.094488 85.785039 
L 212.598425 85.773031 
L 221.102362 85.76563 
L 229.606299 85.749724 
L 238.110236 85.73752 
L 246.614173 85.729252 
L 255.11811 85.72063 
L 263.622047 85.710118 
L 272.125984 85.702244 
L 280.629921 85.683228 
L 284.464567 85.68156 
" style="fill:none;stroke:#999999;stroke-linecap:square;"/>
   </g>
   <g id="line2d_24">
    <path clip-path="url(#pf920e8dc32)" d="M 51.023622 111.075319 
L 59.527559 102.201829 
L 68.031496 94.014908 
L 76.535433 87.416942 
L 85.03937 84.967594 
L 93.543307 84.975083 
L 102.047244 84.979116 
L 110.551181 84.987441 
L 119.055118 84.986172 
L 127.559055 84.973845 
L 128.409449 84.974781 
L 129.259843 84.975682 
L 130.110236 84.962371 
L 130.96063 84.935551 
L 131.811024 84.899353 
L 132.661417 84.856693 
L 133.511811 84.810044 
L 134.362205 84.766697 
L 135.212598 84.729549 
L 136.062992 84.700787 
L 136.913386 84.680048 
L 137.76378 84.665949 
L 138.614173 84.654423 
L 139.464567 84.647629 
L 140.314961 84.643167 
L 141.165354 84.643705 
L 142.015748 84.64493 
L 142.866142 84.645166 
L 143.716535 84.641374 
L 144.566929 84.640227 
L 145.417323 84.650289 
L 146.267717 84.668828 
L 147.11811 84.687791 
L 147.968504 84.706903 
L 148.818898 84.725538 
L 149.669291 84.746483 
L 150.519685 84.760976 
L 151.370079 84.771483 
L 152.220472 84.786172 
L 153.070866 84.804694 
L 153.92126 84.818714 
L 154.771654 84.830941 
L 155.622047 84.839449 
L 156.472441 84.846584 
L 157.322835 84.854821 
L 158.173228 84.862585 
L 159.023622 84.869182 
L 159.874016 84.873832 
L 160.724409 84.882082 
L 161.574803 84.886395 
L 162.425197 84.88832 
L 163.275591 84.888381 
L 164.125984 84.889895 
L 164.976378 84.891295 
L 165.826772 84.890739 
L 166.677165 84.889554 
L 167.527559 84.885311 
L 168.377953 84.885262 
L 169.228346 84.88696 
L 170.07874 84.889602 
L 170.929134 84.889016 
L 171.779528 84.887507 
L 172.629921 84.889606 
L 173.480315 84.892178 
L 174.330709 84.894108 
L 175.181102 84.895061 
L 176.031496 84.897008 
L 176.88189 84.895122 
L 177.732283 84.896811 
L 178.582677 84.899269 
L 179.433071 84.900556 
L 180.283465 84.902515 
L 181.133858 84.903106 
L 181.984252 84.903828 
L 182.834646 84.902769 
L 183.685039 84.899059 
L 184.535433 84.893171 
L 185.385827 84.892445 
L 186.23622 84.892598 
L 187.086614 84.893517 
L 187.937008 84.895315 
L 188.787402 84.896973 
L 189.637795 84.897047 
L 190.488189 84.895004 
L 191.338583 84.893565 
L 192.188976 84.896207 
L 193.03937 84.897161 
L 193.889764 84.895385 
L 194.740157 84.89259 
L 195.590551 84.889707 
L 204.094488 84.894738 
L 212.598425 84.901374 
L 221.102362 84.895805 
L 229.606299 84.904856 
L 238.110236 84.89808 
L 246.614173 84.906448 
L 255.11811 84.904742 
L 263.622047 84.897598 
L 272.125984 84.909829 
L 280.629921 84.906028 
L 284.464567 84.907541 
" style="fill:none;stroke:#4d4d4d;stroke-linecap:square;"/>
   </g>
   <g id="line2d_25">
    <defs>
     <path d="M 0 1.25 
C 0.331504 1.25 0.649475 1.118292 0.883883 0.883883 
C 1.118292 0.649475 1.25 0.331504 1.25 0 
C 1.25 -0.331504 1.118292 -0.649475 0.883883 -0.883883 
C 0.649475 -1.118292 0.331504 -1.25 0 -1.25 
C -0.331504 -1.25 -0.649475 -1.118292 -0.883883 -0.883883 
C -1.118292 -0.649475 -1.25 -0.331504 -1.25 0 
C -1.25 0.331504 -1.118292 0.649475 -0.883883 0.883883 
C -0.649475 1.118292 -0.331504 1.25 0 1.25 
z
" id="mf54effc590" style="stroke:#008000;"/>
    </defs>
    <g clip-path="url(#pf920e8dc32)">
     <use style="fill:#008000;stroke:#008000;" x="127.559055" xlink:href="#mf54effc590" y="84.96815"/>
    </g>
   </g>
   <g id="line2d_26">
    <g clip-path="url(#pf920e8dc32)">
     <use style="fill:#008000;stroke:#008000;" x="144.566929" xlink:href="#mf54effc590" y="90.95315"/>
    </g>
   </g>
   <g id="line2d_27">
    <g clip-path="url(#pf920e8dc32)">
     <use style="fill:#008000;stroke:#008000;" x="178.582677" xlink:href="#mf54effc590" y="77.522953"/>
    </g>
   </g>
   <g id="line2d_28">
    <g clip-path="url(#pf920e8dc32)">
     <use style="fill:#008000;stroke:#008000;" x="212.598425" xlink:href="#mf54effc590" y="77.943189"/>
    </g>
   </g>
   <g id="patch_8">
    <path d="M 42.519685 120.472441 
L 42.519685 63.779528 
" style="fill:none;stroke:#000000;stroke-linecap:square;stroke-linejoin:miter;stroke-width:0.8;"/>
   </g>
   <g id="patch_9">
    <path d="M 42.519685 120.472441 
L 269.291339 120.472441 
" style="fill:none;stroke:#000000;stroke-linecap:square;stroke-linejoin:miter;stroke-width:0.8;"/>
   </g>
   <g id="legend_2">
    <g id="line2d_29">
     <path d="M 56.258268 113.398583 
L 68.258268 113.398583 
" style="fill:none;stroke:#c6710a;stroke-linecap:square;"/>
    </g>
    <g id="line2d_30"/>
    <g id="text_21">
     <!-- $\mathrm{L\_pop} \rightarrow  \mathrm{L\_pop}$ -->
     <defs>
      <path d="M 5.515625 0 
L 5.515625 5.171875 
L 14.796875 5.171875 
L 14.796875 67.671875 
L 5.515625 67.671875 
L 5.515625 72.90625 
L 33.984375 72.90625 
L 33.984375 67.671875 
L 24.703125 67.671875 
L 24.703125 6 
L 58.015625 6 
L 58.015625 18.21875 
L 64.015625 18.21875 
L 64.015625 0 
z
" id="DejaVuSerif-4c"/>
      <path d="M 50 -19.671875 
L 50 -23.578125 
L 0 -23.578125 
L 0 -19.671875 
z
" id="DejaVuSerif-5f"/>
      <path d="M 5.71875 36.28125 
L 68.609375 36.28125 
L 59.1875 52.734375 
L 59.71875 52.734375 
L 80.078125 32.5625 
L 80.078125 32.078125 
L 59.71875 11.921875 
L 59.1875 11.921875 
L 68.609375 28.375 
L 5.71875 28.375 
z
" id="DejaVuSerif-2192"/>
     </defs>
     <g transform="translate(73.058268 115.498583)scale(0.06 -0.06)">
      <use transform="translate(0 0.09375)" xlink:href="#DejaVuSerif-4c"/>
      <use transform="translate(66.40625 0.09375)" xlink:href="#DejaVuSerif-5f"/>
      <use transform="translate(116.40625 0.09375)" xlink:href="#DejaVuSerif-70"/>
      <use transform="translate(180.419922 0.09375)" xlink:href="#DejaVuSerif-6f"/>
      <use transform="translate(240.625 0.09375)" xlink:href="#DejaVuSerif-70"/>
      <use transform="translate(323.603516 0.09375)" xlink:href="#DejaVuSerif-2192"/>
      <use transform="translate(426.357422 0.09375)" xlink:href="#DejaVuSerif-4c"/>
      <use transform="translate(492.763672 0.09375)" xlink:href="#DejaVuSerif-5f"/>
      <use transform="translate(542.763672 0.09375)" xlink:href="#DejaVuSerif-70"/>
      <use transform="translate(606.777344 0.09375)" xlink:href="#DejaVuSerif-6f"/>
      <use transform="translate(666.982422 0.09375)" xlink:href="#DejaVuSerif-70"/>
     </g>
    </g>
    <g id="line2d_31">
     <path d="M 147.114803 113.398583 
L 159.114803 113.398583 
" style="fill:none;stroke:#999999;stroke-linecap:square;"/>
    </g>
    <g id="line2d_32"/>
    <g id="text_22">
     <!-- $\mathrm{bg} \leftrightarrow  \mathrm{L\_pop}$ -->
     <defs>
      <path d="M 68.609375 36.28125 
L 59.1875 52.734375 
L 59.71875 52.734375 
L 80.078125 32.5625 
L 80.078125 32.078125 
L 59.71875 11.921875 
L 59.1875 11.921875 
L 68.609375 28.375 
L 15.1875 28.375 
L 24.609375 11.921875 
L 24.078125 11.921875 
L 3.71875 32.078125 
L 3.71875 32.5625 
L 24.078125 52.734375 
L 24.609375 52.734375 
L 15.1875 36.28125 
z
" id="DejaVuSerif-2194"/>
     </defs>
     <g transform="translate(163.914803 115.498583)scale(0.06 -0.06)">
      <use transform="translate(0 0.015625)" xlink:href="#DejaVuSerif-62"/>
      <use transform="translate(64.013672 0.015625)" xlink:href="#DejaVuSerif-67"/>
      <use transform="translate(146.992188 0.015625)" xlink:href="#DejaVuSerif-2194"/>
      <use transform="translate(249.746094 0.015625)" xlink:href="#DejaVuSerif-4c"/>
      <use transform="translate(316.152344 0.015625)" xlink:href="#DejaVuSerif-5f"/>
      <use transform="translate(366.152344 0.015625)" xlink:href="#DejaVuSerif-70"/>
      <use transform="translate(430.166016 0.015625)" xlink:href="#DejaVuSerif-6f"/>
      <use transform="translate(490.371094 0.015625)" xlink:href="#DejaVuSerif-70"/>
     </g>
    </g>
    <g id="line2d_33">
     <path d="M 227.411339 113.398583 
L 239.411339 113.398583 
" style="fill:none;stroke:#4d4d4d;stroke-linecap:square;"/>
    </g>
    <g id="line2d_34"/>
    <g id="text_23">
     <!-- $\mathrm{bg} \rightarrow  \mathrm{bg}$ -->
     <g transform="translate(244.211339 115.498583)scale(0.06 -0.06)">
      <use transform="translate(0 0.015625)" xlink:href="#DejaVuSerif-62"/>
      <use transform="translate(64.013672 0.015625)" xlink:href="#DejaVuSerif-67"/>
      <use transform="translate(146.992188 0.015625)" xlink:href="#DejaVuSerif-2192"/>
      <use transform="translate(249.746094 0.015625)" xlink:href="#DejaVuSerif-62"/>
      <use transform="translate(313.759766 0.015625)" xlink:href="#DejaVuSerif-67"/>
     </g>
    </g>
   </g>
  </g>
 </g>
 <defs>
  <clipPath id="pa9d99607d5">
   <rect height="56.692913" width="226.771654" x="42.519685" y="1.417323"/>
  </clipPath>
  <clipPath id="pf920e8dc32">
   <rect height="56.692913" width="226.771654" x="42.519685" y="63.779528"/>
  </clipPath>
 </defs>
</svg>
