<?xml version="1.0" encoding="utf-8" standalone="no"?>
<!DOCTYPE svg PUBLIC "-//W3C//DTD SVG 1.1//EN"
  "http://www.w3.org/Graphics/SVG/1.1/DTD/svg11.dtd">
<!-- Created with matplotlib (http://matplotlib.org/) -->
<svg height="141.732283pt" version="1.1" viewBox="0 0 141.732283 141.732283" width="141.732283pt" xmlns="http://www.w3.org/2000/svg" xmlns:xlink="http://www.w3.org/1999/xlink">
 <defs>
  <style type="text/css">
*{stroke-linecap:butt;stroke-linejoin:round;}
  </style>
 </defs>
 <g id="figure_1">
  <g id="patch_1">
   <path d="M 0 141.732283 
L 141.732283 141.732283 
L 141.732283 0 
L 0 0 
z
" style="fill:#ffffff;"/>
  </g>
  <g id="axes_1">
   <g id="patch_2">
    <path d="M 17.007874 58.110236 
L 134.645669 58.110236 
L 134.645669 1.417323 
L 17.007874 1.417323 
z
" style="fill:#ffffff;"/>
   </g>
   <g id="patch_3">
    <path clip-path="url(#pa5e72b3a92)" d="M 61.122047 58.110236 
L 61.122047 1.417323 
L 69.944882 1.417323 
L 69.944882 58.110236 
z
" style="fill:#bbdb88;opacity:0.2;stroke:#bbdb88;stroke-linejoin:miter;"/>
   </g>
   <g id="matplotlib.axis_1"/>
   <g id="matplotlib.axis_2">
    <g id="ytick_1">
     <g id="line2d_1">
      <defs>
       <path d="M 0 0 
L -3.5 0 
" id="m2688ad42fa" style="stroke:#000000;stroke-width:0.8;"/>
      </defs>
      <g>
       <use style="stroke:#000000;stroke-width:0.8;" x="17.007874" xlink:href="#m2688ad42fa" y="58.110236"/>
      </g>
     </g>
     <g id="text_1">
      <!-- 0 -->
      <defs>
       <path d="M 31.78125 3.421875 
Q 39.265625 3.421875 42.96875 11.625 
Q 46.6875 19.828125 46.6875 36.375 
Q 46.6875 52.984375 42.96875 61.1875 
Q 39.265625 69.390625 31.78125 69.390625 
Q 24.3125 69.390625 20.59375 61.1875 
Q 16.890625 52.984375 16.890625 36.375 
Q 16.890625 19.828125 20.59375 11.625 
Q 24.3125 3.421875 31.78125 3.421875 
z
M 31.78125 -1.421875 
Q 19.921875 -1.421875 13.25 8.53125 
Q 6.59375 18.5 6.59375 36.375 
Q 6.59375 54.296875 13.25 64.25 
Q 19.921875 74.21875 31.78125 74.21875 
Q 43.703125 74.21875 50.34375 64.25 
Q 56.984375 54.296875 56.984375 36.375 
Q 56.984375 18.5 50.34375 8.53125 
Q 43.703125 -1.421875 31.78125 -1.421875 
z
" id="DejaVuSerif-30"/>
      </defs>
      <g transform="translate(6.190374 60.389767)scale(0.06 -0.06)">
       <use xlink:href="#DejaVuSerif-30"/>
      </g>
     </g>
    </g>
    <g id="ytick_2">
     <g id="line2d_2">
      <g>
       <use style="stroke:#000000;stroke-width:0.8;" x="17.007874" xlink:href="#m2688ad42fa" y="40.393701"/>
      </g>
     </g>
     <g id="text_2">
      <!-- 5 -->
      <defs>
       <path d="M 50.296875 72.90625 
L 50.296875 64.890625 
L 16.890625 64.890625 
L 16.890625 44 
Q 19.4375 45.75 22.828125 46.625 
Q 26.21875 47.515625 30.421875 47.515625 
Q 42.234375 47.515625 49.0625 40.96875 
Q 55.90625 34.421875 55.90625 23.09375 
Q 55.90625 11.53125 49 5.046875 
Q 42.09375 -1.421875 29.59375 -1.421875 
Q 24.5625 -1.421875 19.28125 -0.1875 
Q 14.015625 1.03125 8.5 3.515625 
L 8.5 17.671875 
L 14.015625 17.671875 
Q 14.453125 10.75 18.421875 7.078125 
Q 22.40625 3.421875 29.59375 3.421875 
Q 37.3125 3.421875 41.453125 8.5 
Q 45.609375 13.578125 45.609375 23.09375 
Q 45.609375 32.5625 41.484375 37.609375 
Q 37.359375 42.671875 29.59375 42.671875 
Q 25.203125 42.671875 21.84375 41.109375 
Q 18.5 39.546875 15.921875 36.28125 
L 11.71875 36.28125 
L 11.71875 72.90625 
z
" id="DejaVuSerif-35"/>
      </defs>
      <g transform="translate(6.190374 42.673232)scale(0.06 -0.06)">
       <use xlink:href="#DejaVuSerif-35"/>
      </g>
     </g>
    </g>
    <g id="ytick_3">
     <g id="line2d_3">
      <g>
       <use style="stroke:#000000;stroke-width:0.8;" x="17.007874" xlink:href="#m2688ad42fa" y="22.677165"/>
      </g>
     </g>
     <g id="text_3">
      <!-- 10 -->
      <defs>
       <path d="M 14.203125 0 
L 14.203125 5.171875 
L 26.90625 5.171875 
L 26.90625 65.828125 
L 12.203125 56.296875 
L 12.203125 62.703125 
L 29.984375 74.21875 
L 36.71875 74.21875 
L 36.71875 5.171875 
L 49.421875 5.171875 
L 49.421875 0 
z
" id="DejaVuSerif-31"/>
      </defs>
      <g transform="translate(2.372874 24.956697)scale(0.06 -0.06)">
       <use xlink:href="#DejaVuSerif-31"/>
       <use x="63.623047" xlink:href="#DejaVuSerif-30"/>
      </g>
     </g>
    </g>
    <g id="ytick_4">
     <g id="line2d_4">
      <g>
       <use style="stroke:#000000;stroke-width:0.8;" x="17.007874" xlink:href="#m2688ad42fa" y="4.96063"/>
      </g>
     </g>
     <g id="text_4">
      <!-- 15 -->
      <g transform="translate(2.372874 7.240161)scale(0.06 -0.06)">
       <use xlink:href="#DejaVuSerif-31"/>
       <use x="63.623047" xlink:href="#DejaVuSerif-35"/>
      </g>
     </g>
    </g>
   </g>
   <g id="line2d_5">
    <path clip-path="url(#pa5e72b3a92)" d="M 21.419291 49.663701 
L 25.830709 47.561102 
L 30.242126 44.660551 
L 34.653543 40.582205 
L 39.064961 35.302677 
L 43.476378 31.476614 
L 47.887795 30.295276 
L 52.299213 29.991969 
L 56.71063 29.814803 
L 61.122047 29.988425 
L 61.563189 38.208189 
L 62.004331 37.69937 
L 62.445472 37.199764 
L 62.886614 36.288425 
L 63.327756 35.774646 
L 63.768898 34.98874 
L 64.210039 34.45937 
L 64.651181 33.672756 
L 65.092323 33.036378 
L 65.533465 32.921575 
L 65.974606 32.048504 
L 66.415748 31.777087 
L 66.85689 31.652362 
L 67.298031 30.852992 
L 67.739173 30.71622 
L 68.180315 30.957165 
L 68.621457 30.631181 
L 69.062598 30.826772 
L 69.50374 30.34063 
L 69.944882 30.328583 
L 70.386024 18.523701 
L 70.827165 19.90063 
L 71.268307 21.200315 
L 71.709449 22.642441 
L 72.150591 23.85 
L 72.591732 25.073858 
L 73.032874 25.831417 
L 73.474016 26.97378 
L 73.915157 27.202677 
L 74.356299 27.9 
L 74.797441 27.83126 
L 75.238583 28.14874 
L 75.679724 28.378346 
L 76.120866 28.743307 
L 76.562008 28.763858 
L 77.00315 29.142283 
L 77.444291 29.179843 
L 77.885433 29.407323 
L 78.326575 29.193307 
L 78.767717 29.522126 
L 79.208858 29.211732 
L 79.65 29.50937 
L 80.091142 29.634803 
L 80.532283 29.769449 
L 80.973425 29.537008 
L 81.414567 29.719843 
L 81.855709 29.630551 
L 82.29685 29.611417 
L 82.737992 29.734724 
L 83.179134 29.83252 
L 83.620276 29.793543 
L 84.061417 29.694331 
L 84.502559 29.521417 
L 84.943701 29.611417 
L 85.384843 29.575276 
L 85.825984 29.921811 
L 86.267126 29.839606 
L 86.708268 29.867953 
L 87.149409 29.709921 
L 87.590551 29.894882 
L 88.031693 29.931024 
L 88.472835 29.828976 
L 88.913976 29.909764 
L 89.355118 29.966457 
L 89.79626 29.686535 
L 90.237402 29.648268 
L 90.678543 29.932441 
L 91.119685 29.825433 
L 91.560827 29.704252 
L 92.001969 29.753858 
L 92.44311 29.527087 
L 92.884252 29.521417 
L 93.325394 29.609291 
L 93.766535 29.956535 
L 94.207677 29.717717 
L 94.648819 29.970709 
L 95.089961 29.984882 
L 95.531102 29.75315 
L 95.972244 29.727638 
L 96.413386 29.700709 
L 100.824803 29.664567 
L 105.23622 29.561811 
L 109.647638 29.66811 
L 114.059055 29.860157 
L 118.470472 29.546929 
L 122.88189 29.597953 
L 127.293307 29.844567 
L 131.704724 29.865118 
L 136.116142 29.776535 
L 140.527559 29.95937 
L 142.732283 29.845681 
" style="fill:none;stroke:#007849;stroke-linecap:square;"/>
   </g>
   <g id="line2d_6">
    <path clip-path="url(#pa5e72b3a92)" d="M 21.419291 49.624409 
L 25.830709 47.605748 
L 30.242126 44.741339 
L 34.653543 40.582913 
L 39.064961 35.333307 
L 43.476378 31.617323 
L 47.887795 30.275197 
L 52.299213 29.927402 
L 56.71063 29.827244 
L 61.122047 29.781969 
L 61.563189 29.715984 
L 62.004331 29.705039 
L 62.445472 29.904252 
L 62.886614 29.700945 
L 63.327756 29.768583 
L 63.768898 29.838268 
L 64.210039 29.931969 
L 64.651181 29.805118 
L 65.092323 29.831732 
L 65.533465 29.906929 
L 65.974606 29.781181 
L 66.415748 29.758819 
L 66.85689 29.73874 
L 67.298031 29.583937 
L 67.739173 29.643622 
L 68.180315 29.658504 
L 68.621457 29.819291 
L 69.062598 29.862362 
L 69.50374 29.762362 
L 69.944882 29.749449 
L 70.386024 29.35315 
L 70.827165 29.587874 
L 71.268307 29.526929 
L 71.709449 29.645354 
L 72.150591 29.656142 
L 72.591732 29.655827 
L 73.032874 29.737795 
L 73.474016 29.920394 
L 73.915157 29.767638 
L 74.356299 29.857402 
L 74.797441 29.817795 
L 75.238583 29.874331 
L 75.679724 29.722677 
L 76.120866 29.777244 
L 76.562008 29.793701 
L 77.00315 29.88378 
L 77.444291 29.762283 
L 77.885433 29.840709 
L 78.326575 29.818268 
L 78.767717 29.744882 
L 79.208858 29.723701 
L 79.65 29.703465 
L 80.091142 29.647953 
L 80.532283 29.680709 
L 80.973425 29.627165 
L 81.414567 29.889134 
L 81.855709 29.818976 
L 82.29685 29.85 
L 82.737992 29.787638 
L 83.179134 29.841575 
L 83.620276 29.799055 
L 84.061417 29.707795 
L 84.502559 29.819055 
L 84.943701 29.731181 
L 85.384843 29.671181 
L 85.825984 29.695906 
L 86.267126 29.764016 
L 86.708268 29.781496 
L 87.149409 29.82126 
L 87.590551 29.780157 
L 88.031693 29.721575 
L 88.472835 29.724961 
L 88.913976 29.728504 
L 89.355118 29.804803 
L 89.79626 29.730866 
L 90.237402 29.647402 
L 90.678543 29.688976 
L 91.119685 29.765748 
L 91.560827 29.858898 
L 92.001969 29.592283 
L 92.44311 29.668425 
L 92.884252 29.773937 
L 93.325394 29.790157 
L 93.766535 29.752362 
L 94.207677 29.796535 
L 94.648819 29.818425 
L 95.089961 29.929134 
L 95.531102 29.714488 
L 95.972244 29.716693 
L 96.413386 29.778976 
L 100.824803 29.710787 
L 105.23622 29.635669 
L 109.647638 29.899449 
L 114.059055 29.813858 
L 118.470472 29.756772 
L 122.88189 29.782205 
L 127.293307 29.793071 
L 131.704724 29.687087 
L 136.116142 29.855118 
L 140.527559 29.915354 
L 142.732283 29.799028 
" style="fill:none;stroke:#4d4d4d;stroke-linecap:square;"/>
   </g>
   <g id="patch_4">
    <path d="M 17.007874 58.110236 
L 17.007874 1.417323 
" style="fill:none;stroke:#000000;stroke-linecap:square;stroke-linejoin:miter;stroke-width:0.8;"/>
   </g>
   <g id="patch_5">
    <path d="M 17.007874 58.110236 
L 134.645669 58.110236 
" style="fill:none;stroke:#000000;stroke-linecap:square;stroke-linejoin:miter;stroke-width:0.8;"/>
   </g>
   <g id="legend_1">
    <g id="line2d_7">
     <path d="M 39.065669 49.230236 
L 51.065669 49.230236 
" style="fill:none;stroke:#007849;stroke-linecap:square;"/>
    </g>
    <g id="line2d_8"/>
    <g id="text_5">
     <!-- $\mathrm{sti \ (hyperpolarizing \ DC)}$ -->
     <defs>
      <path d="M 5.609375 2.875 
L 5.609375 14.984375 
L 10.796875 14.984375 
Q 10.984375 9.1875 14.421875 6.296875 
Q 17.875 3.421875 24.609375 3.421875 
Q 30.671875 3.421875 33.84375 5.6875 
Q 37.015625 7.953125 37.015625 12.3125 
Q 37.015625 15.71875 34.6875 17.8125 
Q 32.375 19.921875 24.90625 22.3125 
L 18.40625 24.515625 
Q 11.71875 26.65625 8.71875 29.875 
Q 5.71875 33.109375 5.71875 38.09375 
Q 5.71875 45.21875 10.9375 49.265625 
Q 16.15625 53.328125 25.390625 53.328125 
Q 29.5 53.328125 34.03125 52.25 
Q 38.578125 51.171875 43.40625 49.125 
L 43.40625 37.796875 
L 38.234375 37.796875 
Q 38.03125 42.828125 34.703125 45.65625 
Q 31.390625 48.484375 25.6875 48.484375 
Q 20.015625 48.484375 17.109375 46.484375 
Q 14.203125 44.484375 14.203125 40.484375 
Q 14.203125 37.203125 16.40625 35.21875 
Q 18.609375 33.25 25.203125 31.203125 
L 32.328125 29 
Q 39.703125 26.703125 42.9375 23.265625 
Q 46.1875 19.828125 46.1875 14.40625 
Q 46.1875 7.03125 40.546875 2.796875 
Q 34.90625 -1.421875 25 -1.421875 
Q 19.96875 -1.421875 15.1875 -0.34375 
Q 10.40625 0.734375 5.609375 2.875 
z
" id="DejaVuSerif-73"/>
      <path d="M 10.796875 46.6875 
L 2.875 46.6875 
L 2.875 51.90625 
L 10.796875 51.90625 
L 10.796875 68.015625 
L 19.828125 68.015625 
L 19.828125 51.90625 
L 36.71875 51.90625 
L 36.71875 46.6875 
L 19.828125 46.6875 
L 19.828125 13.71875 
Q 19.828125 7.125 21.09375 5.265625 
Q 22.359375 3.421875 25.78125 3.421875 
Q 29.296875 3.421875 30.90625 5.484375 
Q 32.515625 7.5625 32.625 12.203125 
L 39.40625 12.203125 
Q 39.015625 5.125 35.546875 1.84375 
Q 32.078125 -1.421875 25 -1.421875 
Q 17.234375 -1.421875 14.015625 2.015625 
Q 10.796875 5.46875 10.796875 13.71875 
z
" id="DejaVuSerif-74"/>
      <path d="M 9.71875 68.015625 
Q 9.71875 70.265625 11.34375 71.921875 
Q 12.984375 73.578125 15.28125 73.578125 
Q 17.53125 73.578125 19.15625 71.921875 
Q 20.796875 70.265625 20.796875 68.015625 
Q 20.796875 65.71875 19.1875 64.109375 
Q 17.578125 62.5 15.28125 62.5 
Q 12.984375 62.5 11.34375 64.109375 
Q 9.71875 65.71875 9.71875 68.015625 
z
M 21.1875 5.171875 
L 29.6875 5.171875 
L 29.6875 0 
L 3.609375 0 
L 3.609375 5.171875 
L 12.203125 5.171875 
L 12.203125 46.6875 
L 3.609375 46.6875 
L 3.609375 51.90625 
L 21.1875 51.90625 
z
" id="DejaVuSerif-69"/>
      <path d="M 31.890625 -15.578125 
Q 20.015625 -10.25 13.953125 1.296875 
Q 7.90625 12.84375 7.90625 30.171875 
Q 7.90625 47.5625 13.953125 59.109375 
Q 20.015625 70.65625 31.890625 75.984375 
L 31.890625 71.1875 
Q 24.359375 66.015625 21.09375 56.609375 
Q 17.828125 47.21875 17.828125 30.171875 
Q 17.828125 13.1875 21.09375 3.78125 
Q 24.359375 -5.609375 31.890625 -10.796875 
z
" id="DejaVuSerif-28"/>
      <path d="M 4.109375 0 
L 4.109375 5.171875 
L 12.203125 5.171875 
L 12.203125 70.796875 
L 3.609375 70.796875 
L 3.609375 75.984375 
L 21.1875 75.984375 
L 21.1875 42.671875 
Q 23.6875 47.953125 27.65625 50.640625 
Q 31.640625 53.328125 36.921875 53.328125 
Q 45.515625 53.328125 49.5625 48.390625 
Q 53.609375 43.453125 53.609375 33.015625 
L 53.609375 5.171875 
L 61.625 5.171875 
L 61.625 0 
L 36.8125 0 
L 36.8125 5.171875 
L 44.578125 5.171875 
L 44.578125 30.171875 
Q 44.578125 39.703125 42.25 43.1875 
Q 39.9375 46.6875 33.984375 46.6875 
Q 27.734375 46.6875 24.453125 42.140625 
Q 21.1875 37.59375 21.1875 28.90625 
L 21.1875 5.171875 
L 29 5.171875 
L 29 0 
z
" id="DejaVuSerif-68"/>
      <path d="M 21.578125 -9.515625 
L 25 -0.875 
L 5.609375 46.6875 
L -0.296875 46.6875 
L -0.296875 51.90625 
L 23.578125 51.90625 
L 23.578125 46.6875 
L 15.28125 46.6875 
L 29.890625 10.984375 
L 44.484375 46.6875 
L 36.71875 46.6875 
L 36.71875 51.90625 
L 56.203125 51.90625 
L 56.203125 46.6875 
L 50.390625 46.6875 
L 26.609375 -11.71875 
Q 24.171875 -17.78125 21.1875 -20 
Q 18.21875 -22.21875 12.796875 -22.21875 
Q 10.5 -22.21875 8.078125 -21.828125 
Q 5.671875 -21.4375 3.21875 -20.703125 
L 3.21875 -10.796875 
L 7.8125 -10.796875 
Q 8.109375 -14.109375 9.5 -15.546875 
Q 10.890625 -17 13.8125 -17 
Q 16.5 -17 18.140625 -15.5 
Q 19.78125 -14.015625 21.578125 -9.515625 
z
" id="DejaVuSerif-79"/>
      <path d="M 20.515625 28.515625 
L 20.515625 23.390625 
Q 20.515625 14.015625 24.09375 9.109375 
Q 27.6875 4.203125 34.515625 4.203125 
Q 41.40625 4.203125 44.9375 9.71875 
Q 48.484375 15.234375 48.484375 25.984375 
Q 48.484375 36.765625 44.9375 42.234375 
Q 41.40625 47.703125 34.515625 47.703125 
Q 27.6875 47.703125 24.09375 42.765625 
Q 20.515625 37.84375 20.515625 28.515625 
z
M 11.53125 46.6875 
L 2.875 46.6875 
L 2.875 51.90625 
L 20.515625 51.90625 
L 20.515625 43.796875 
Q 23.140625 48.6875 27.21875 51 
Q 31.296875 53.328125 37.3125 53.328125 
Q 46.875 53.328125 52.921875 45.75 
Q 58.984375 38.1875 58.984375 25.984375 
Q 58.984375 13.765625 52.921875 6.171875 
Q 46.875 -1.421875 37.3125 -1.421875 
Q 31.296875 -1.421875 27.21875 0.890625 
Q 23.140625 3.21875 20.515625 8.109375 
L 20.515625 -15.578125 
L 29 -15.578125 
L 29 -20.796875 
L 2.875 -20.796875 
L 2.875 -15.578125 
L 11.53125 -15.578125 
z
" id="DejaVuSerif-70"/>
      <path d="M 54.203125 25 
L 15.484375 25 
L 15.484375 24.609375 
Q 15.484375 14.109375 19.4375 8.765625 
Q 23.390625 3.421875 31.109375 3.421875 
Q 37.015625 3.421875 40.796875 6.515625 
Q 44.578125 9.625 46.09375 15.71875 
L 53.328125 15.71875 
Q 51.171875 7.171875 45.375 2.875 
Q 39.59375 -1.421875 30.171875 -1.421875 
Q 18.796875 -1.421875 11.890625 6.078125 
Q 4.984375 13.578125 4.984375 25.984375 
Q 4.984375 38.28125 11.765625 45.796875 
Q 18.5625 53.328125 29.59375 53.328125 
Q 41.359375 53.328125 47.65625 46.0625 
Q 53.953125 38.8125 54.203125 25 
z
M 43.609375 30.171875 
Q 43.3125 39.265625 39.765625 43.875 
Q 36.234375 48.484375 29.59375 48.484375 
Q 23.390625 48.484375 19.828125 43.84375 
Q 16.265625 39.203125 15.484375 30.171875 
z
" id="DejaVuSerif-65"/>
      <path d="M 47.796875 52 
L 47.796875 39.015625 
L 42.625 39.015625 
Q 42.390625 42.875 40.484375 44.78125 
Q 38.578125 46.6875 34.90625 46.6875 
Q 28.265625 46.6875 24.71875 42.09375 
Q 21.1875 37.5 21.1875 28.90625 
L 21.1875 5.171875 
L 31.59375 5.171875 
L 31.59375 0 
L 4.109375 0 
L 4.109375 5.171875 
L 12.203125 5.171875 
L 12.203125 46.78125 
L 3.609375 46.78125 
L 3.609375 51.90625 
L 21.1875 51.90625 
L 21.1875 42.671875 
Q 23.828125 48.09375 27.96875 50.703125 
Q 32.125 53.328125 38.09375 53.328125 
Q 40.28125 53.328125 42.703125 52.984375 
Q 45.125 52.640625 47.796875 52 
z
" id="DejaVuSerif-72"/>
      <path d="M 30.078125 3.421875 
Q 37.3125 3.421875 40.984375 9.125 
Q 44.671875 14.84375 44.671875 25.984375 
Q 44.671875 37.109375 40.984375 42.796875 
Q 37.3125 48.484375 30.078125 48.484375 
Q 22.859375 48.484375 19.171875 42.796875 
Q 15.484375 37.109375 15.484375 25.984375 
Q 15.484375 14.84375 19.1875 9.125 
Q 22.90625 3.421875 30.078125 3.421875 
z
M 30.078125 -1.421875 
Q 18.75 -1.421875 11.859375 6.078125 
Q 4.984375 13.578125 4.984375 25.984375 
Q 4.984375 38.375 11.84375 45.84375 
Q 18.703125 53.328125 30.078125 53.328125 
Q 41.453125 53.328125 48.3125 45.84375 
Q 55.171875 38.375 55.171875 25.984375 
Q 55.171875 13.578125 48.3125 6.078125 
Q 41.453125 -1.421875 30.078125 -1.421875 
z
" id="DejaVuSerif-6f"/>
      <path d="M 20.515625 5.171875 
L 29 5.171875 
L 29 0 
L 2.875 0 
L 2.875 5.171875 
L 11.53125 5.171875 
L 11.53125 70.796875 
L 2.875 70.796875 
L 2.875 75.984375 
L 20.515625 75.984375 
z
" id="DejaVuSerif-6c"/>
      <path d="M 39.796875 16.3125 
L 39.796875 27.296875 
L 28.21875 27.296875 
Q 21.53125 27.296875 18.25 24.40625 
Q 14.984375 21.53125 14.984375 15.578125 
Q 14.984375 10.15625 18.296875 6.984375 
Q 21.625 3.8125 27.296875 3.8125 
Q 32.90625 3.8125 36.34375 7.28125 
Q 39.796875 10.75 39.796875 16.3125 
z
M 48.78125 32.421875 
L 48.78125 5.171875 
L 56.78125 5.171875 
L 56.78125 0 
L 39.796875 0 
L 39.796875 5.609375 
Q 36.8125 2 32.90625 0.28125 
Q 29 -1.421875 23.78125 -1.421875 
Q 15.140625 -1.421875 10.0625 3.171875 
Q 4.984375 7.765625 4.984375 15.578125 
Q 4.984375 23.640625 10.796875 28.078125 
Q 16.609375 32.515625 27.203125 32.515625 
L 39.796875 32.515625 
L 39.796875 36.078125 
Q 39.796875 42 36.203125 45.234375 
Q 32.625 48.484375 26.125 48.484375 
Q 20.75 48.484375 17.578125 46.046875 
Q 14.40625 43.609375 13.625 38.8125 
L 8.984375 38.8125 
L 8.984375 49.3125 
Q 13.671875 51.3125 18.09375 52.3125 
Q 22.515625 53.328125 26.703125 53.328125 
Q 37.5 53.328125 43.140625 47.96875 
Q 48.78125 42.625 48.78125 32.421875 
z
" id="DejaVuSerif-61"/>
      <path d="M 4 0 
L 4 4.203125 
L 36.53125 46.6875 
L 10.796875 46.6875 
L 10.796875 37.703125 
L 5.609375 37.703125 
L 5.609375 51.90625 
L 48.09375 51.90625 
L 48.09375 47.703125 
L 15.578125 5.171875 
L 43.796875 5.171875 
L 43.796875 14.59375 
L 49.03125 14.59375 
L 49.03125 0 
z
" id="DejaVuSerif-7a"/>
      <path d="M 4.109375 0 
L 4.109375 5.171875 
L 12.203125 5.171875 
L 12.203125 46.6875 
L 3.609375 46.6875 
L 3.609375 51.90625 
L 21.1875 51.90625 
L 21.1875 42.671875 
Q 23.6875 47.953125 27.65625 50.640625 
Q 31.640625 53.328125 36.921875 53.328125 
Q 45.515625 53.328125 49.5625 48.390625 
Q 53.609375 43.453125 53.609375 33.015625 
L 53.609375 5.171875 
L 61.625 5.171875 
L 61.625 0 
L 36.8125 0 
L 36.8125 5.171875 
L 44.578125 5.171875 
L 44.578125 30.171875 
Q 44.578125 39.703125 42.234375 43.234375 
Q 39.890625 46.78125 33.984375 46.78125 
Q 27.734375 46.78125 24.453125 42.203125 
Q 21.1875 37.640625 21.1875 28.90625 
L 21.1875 5.171875 
L 29 5.171875 
L 29 0 
z
" id="DejaVuSerif-6e"/>
      <path d="M 52.484375 46.6875 
L 52.484375 1.125 
Q 52.484375 -10.0625 46.328125 -16.140625 
Q 40.1875 -22.21875 28.8125 -22.21875 
Q 23.6875 -22.21875 19 -21.28125 
Q 14.3125 -20.359375 10.015625 -18.5 
L 10.015625 -7.625 
L 14.703125 -7.625 
Q 15.578125 -12.703125 18.84375 -15.046875 
Q 22.125 -17.390625 28.21875 -17.390625 
Q 36.140625 -17.390625 39.8125 -12.921875 
Q 43.5 -8.453125 43.5 1.125 
L 43.5 8.109375 
Q 40.875 3.21875 36.796875 0.890625 
Q 32.71875 -1.421875 26.703125 -1.421875 
Q 17.140625 -1.421875 11.0625 6.171875 
Q 4.984375 13.765625 4.984375 25.984375 
Q 4.984375 38.1875 11.03125 45.75 
Q 17.09375 53.328125 26.703125 53.328125 
Q 32.71875 53.328125 36.796875 51 
Q 40.875 48.6875 43.5 43.796875 
L 43.5 51.90625 
L 61.078125 51.90625 
L 61.078125 46.6875 
z
M 43.5 28.515625 
Q 43.5 37.84375 39.90625 42.765625 
Q 36.328125 47.703125 29.5 47.703125 
Q 22.5625 47.703125 19.015625 42.234375 
Q 15.484375 36.765625 15.484375 25.984375 
Q 15.484375 15.234375 19.015625 9.71875 
Q 22.5625 4.203125 29.5 4.203125 
Q 36.328125 4.203125 39.90625 9.109375 
Q 43.5 14.015625 43.5 23.390625 
z
" id="DejaVuSerif-67"/>
      <path d="M 24.703125 5.171875 
L 33.796875 5.171875 
Q 48 5.171875 55.59375 13.28125 
Q 63.1875 21.390625 63.1875 36.53125 
Q 63.1875 51.65625 55.609375 59.65625 
Q 48.046875 67.671875 33.796875 67.671875 
L 24.703125 67.671875 
z
M 5.515625 0 
L 5.515625 5.171875 
L 14.796875 5.171875 
L 14.796875 67.671875 
L 5.515625 67.671875 
L 5.515625 72.90625 
L 34.515625 72.90625 
Q 53.375 72.90625 63.890625 63.28125 
Q 74.421875 53.65625 74.421875 36.53125 
Q 74.421875 19.34375 63.875 9.671875 
Q 53.328125 0 34.515625 0 
z
" id="DejaVuSerif-44"/>
      <path d="M 70.515625 19.28125 
Q 67.28125 9.078125 59.6875 3.828125 
Q 52.09375 -1.421875 40.484375 -1.421875 
Q 33.34375 -1.421875 27.234375 1.015625 
Q 21.140625 3.46875 16.40625 8.203125 
Q 10.9375 13.671875 8.265625 20.625 
Q 5.609375 27.59375 5.609375 36.375 
Q 5.609375 53.375 15.421875 63.796875 
Q 25.25 74.21875 41.3125 74.21875 
Q 47.265625 74.21875 54 72.65625 
Q 60.75 71.09375 68.5 67.921875 
L 68.5 51.125 
L 62.984375 51.125 
Q 61.1875 60.296875 55.734375 64.640625 
Q 50.296875 69 40.484375 69 
Q 28.8125 69 22.796875 60.71875 
Q 16.796875 52.4375 16.796875 36.375 
Q 16.796875 20.359375 22.796875 12.078125 
Q 28.8125 3.8125 40.484375 3.8125 
Q 48.640625 3.8125 53.90625 7.6875 
Q 59.1875 11.578125 61.53125 19.28125 
z
" id="DejaVuSerif-43"/>
      <path d="M 7.078125 -15.578125 
L 7.078125 -10.796875 
Q 14.59375 -5.609375 17.890625 3.78125 
Q 21.1875 13.1875 21.1875 30.171875 
Q 21.1875 47.21875 17.890625 56.609375 
Q 14.59375 66.015625 7.078125 71.1875 
L 7.078125 75.984375 
Q 19 70.65625 25.046875 59.109375 
Q 31.109375 47.5625 31.109375 30.171875 
Q 31.109375 12.84375 25.046875 1.296875 
Q 19 -10.25 7.078125 -15.578125 
z
" id="DejaVuSerif-29"/>
     </defs>
     <g transform="translate(55.865669 51.330236)scale(0.06 -0.06)">
      <use transform="translate(0 0.015625)" xlink:href="#DejaVuSerif-73"/>
      <use transform="translate(51.318359 0.015625)" xlink:href="#DejaVuSerif-74"/>
      <use transform="translate(91.503906 0.015625)" xlink:href="#DejaVuSerif-69"/>
      <use transform="translate(155.094085 0.015625)" xlink:href="#DejaVuSerif-28"/>
      <use transform="translate(194.107757 0.015625)" xlink:href="#DejaVuSerif-68"/>
      <use transform="translate(258.512054 0.015625)" xlink:href="#DejaVuSerif-79"/>
      <use transform="translate(315.006194 0.015625)" xlink:href="#DejaVuSerif-70"/>
      <use transform="translate(379.019866 0.015625)" xlink:href="#DejaVuSerif-65"/>
      <use transform="translate(438.199554 0.015625)" xlink:href="#DejaVuSerif-72"/>
      <use transform="translate(486.002288 0.015625)" xlink:href="#DejaVuSerif-70"/>
      <use transform="translate(550.01596 0.015625)" xlink:href="#DejaVuSerif-6f"/>
      <use transform="translate(610.221038 0.015625)" xlink:href="#DejaVuSerif-6c"/>
      <use transform="translate(642.20346 0.015625)" xlink:href="#DejaVuSerif-61"/>
      <use transform="translate(701.822601 0.015625)" xlink:href="#DejaVuSerif-72"/>
      <use transform="translate(749.625335 0.015625)" xlink:href="#DejaVuSerif-69"/>
      <use transform="translate(781.607757 0.015625)" xlink:href="#DejaVuSerif-7a"/>
      <use transform="translate(834.293304 0.015625)" xlink:href="#DejaVuSerif-69"/>
      <use transform="translate(866.275726 0.015625)" xlink:href="#DejaVuSerif-6e"/>
      <use transform="translate(930.680022 0.015625)" xlink:href="#DejaVuSerif-67"/>
      <use transform="translate(1026.301451 0.015625)" xlink:href="#DejaVuSerif-44"/>
      <use transform="translate(1106.477232 0.015625)" xlink:href="#DejaVuSerif-43"/>
      <use transform="translate(1182.990904 0.015625)" xlink:href="#DejaVuSerif-29"/>
     </g>
    </g>
   </g>
  </g>
  <g id="axes_2">
   <g id="patch_6">
    <path d="M 17.007874 120.472441 
L 134.645669 120.472441 
L 134.645669 63.779528 
L 17.007874 63.779528 
z
" style="fill:#ffffff;"/>
   </g>
   <g id="patch_7">
    <path clip-path="url(#p00242b40cc)" d="M 61.122047 120.472441 
L 61.122047 63.779528 
L 69.944882 63.779528 
L 69.944882 120.472441 
z
" style="fill:#bbdb88;opacity:0.2;stroke:#bbdb88;stroke-linejoin:miter;"/>
   </g>
   <g id="matplotlib.axis_3">
    <g id="xtick_1">
     <g id="line2d_9">
      <defs>
       <path d="M 0 0 
L 0 3.5 
" id="madd31f218e" style="stroke:#000000;stroke-width:0.8;"/>
      </defs>
      <g>
       <use style="stroke:#000000;stroke-width:0.8;" x="17.007874" xlink:href="#madd31f218e" y="120.472441"/>
      </g>
     </g>
     <g id="text_6">
      <!-- 0 -->
      <g transform="translate(15.099124 132.031503)scale(0.06 -0.06)">
       <use xlink:href="#DejaVuSerif-30"/>
      </g>
     </g>
    </g>
    <g id="xtick_2">
     <g id="line2d_10">
      <g>
       <use style="stroke:#000000;stroke-width:0.8;" x="46.417323" xlink:href="#madd31f218e" y="120.472441"/>
      </g>
     </g>
     <g id="text_7">
      <!-- 500 -->
      <g transform="translate(40.691073 132.031503)scale(0.06 -0.06)">
       <use xlink:href="#DejaVuSerif-35"/>
       <use x="63.623047" xlink:href="#DejaVuSerif-30"/>
       <use x="127.246094" xlink:href="#DejaVuSerif-30"/>
      </g>
     </g>
    </g>
    <g id="xtick_3">
     <g id="line2d_11">
      <g>
       <use style="stroke:#000000;stroke-width:0.8;" x="75.826772" xlink:href="#madd31f218e" y="120.472441"/>
      </g>
     </g>
     <g id="text_8">
      <!-- 1000 -->
      <g transform="translate(68.191772 132.031503)scale(0.06 -0.06)">
       <use xlink:href="#DejaVuSerif-31"/>
       <use x="63.623047" xlink:href="#DejaVuSerif-30"/>
       <use x="127.246094" xlink:href="#DejaVuSerif-30"/>
       <use x="190.869141" xlink:href="#DejaVuSerif-30"/>
      </g>
     </g>
    </g>
    <g id="xtick_4">
     <g id="line2d_12">
      <g>
       <use style="stroke:#000000;stroke-width:0.8;" x="105.23622" xlink:href="#madd31f218e" y="120.472441"/>
      </g>
     </g>
     <g id="text_9">
      <!-- 1500 -->
      <g transform="translate(97.60122 132.031503)scale(0.06 -0.06)">
       <use xlink:href="#DejaVuSerif-31"/>
       <use x="63.623047" xlink:href="#DejaVuSerif-35"/>
       <use x="127.246094" xlink:href="#DejaVuSerif-30"/>
       <use x="190.869141" xlink:href="#DejaVuSerif-30"/>
      </g>
     </g>
    </g>
    <g id="xtick_5">
     <g id="line2d_13">
      <g>
       <use style="stroke:#000000;stroke-width:0.8;" x="134.645669" xlink:href="#madd31f218e" y="120.472441"/>
      </g>
     </g>
     <g id="text_10">
      <!-- 2000 -->
      <defs>
       <path d="M 12.796875 55.515625 
L 7.328125 55.515625 
L 7.328125 68.5 
Q 12.546875 71.296875 17.84375 72.75 
Q 23.140625 74.21875 28.21875 74.21875 
Q 39.59375 74.21875 46.1875 68.703125 
Q 52.78125 63.1875 52.78125 53.71875 
Q 52.78125 43.015625 37.84375 28.125 
Q 36.671875 27 36.078125 26.421875 
L 17.671875 8.015625 
L 48.09375 8.015625 
L 48.09375 17 
L 53.8125 17 
L 53.8125 0 
L 6.78125 0 
L 6.78125 5.328125 
L 28.90625 27.390625 
Q 36.234375 34.71875 39.359375 40.84375 
Q 42.484375 46.96875 42.484375 53.71875 
Q 42.484375 61.078125 38.640625 65.234375 
Q 34.8125 69.390625 28.078125 69.390625 
Q 21.09375 69.390625 17.28125 65.921875 
Q 13.484375 62.453125 12.796875 55.515625 
z
" id="DejaVuSerif-32"/>
      </defs>
      <g transform="translate(127.010669 132.031503)scale(0.06 -0.06)">
       <use xlink:href="#DejaVuSerif-32"/>
       <use x="63.623047" xlink:href="#DejaVuSerif-30"/>
       <use x="127.246094" xlink:href="#DejaVuSerif-30"/>
       <use x="190.869141" xlink:href="#DejaVuSerif-30"/>
      </g>
     </g>
    </g>
    <g id="text_11">
     <!-- Time (s) -->
     <defs>
      <path d="M 19.09375 0 
L 19.09375 5.171875 
L 28.421875 5.171875 
L 28.421875 67.09375 
L 6.984375 67.09375 
L 6.984375 55.71875 
L 0.984375 55.71875 
L 0.984375 72.90625 
L 65.71875 72.90625 
L 65.71875 55.71875 
L 59.71875 55.71875 
L 59.71875 67.09375 
L 38.28125 67.09375 
L 38.28125 5.171875 
L 47.609375 5.171875 
L 47.609375 0 
z
" id="DejaVuSerif-54"/>
      <path d="M 51.8125 41.796875 
Q 54.390625 47.515625 58.421875 50.421875 
Q 62.453125 53.328125 67.828125 53.328125 
Q 75.984375 53.328125 79.984375 48.265625 
Q 83.984375 43.21875 83.984375 33.015625 
L 83.984375 5.171875 
L 92.09375 5.171875 
L 92.09375 0 
L 67.1875 0 
L 67.1875 5.171875 
L 75 5.171875 
L 75 31.984375 
Q 75 39.9375 72.65625 43.3125 
Q 70.3125 46.6875 64.890625 46.6875 
Q 58.890625 46.6875 55.734375 42.140625 
Q 52.59375 37.59375 52.59375 28.90625 
L 52.59375 5.171875 
L 60.40625 5.171875 
L 60.40625 0 
L 35.796875 0 
L 35.796875 5.171875 
L 43.609375 5.171875 
L 43.609375 32.328125 
Q 43.609375 40.09375 41.265625 43.390625 
Q 38.921875 46.6875 33.5 46.6875 
Q 27.484375 46.6875 24.328125 42.140625 
Q 21.1875 37.59375 21.1875 28.90625 
L 21.1875 5.171875 
L 29 5.171875 
L 29 0 
L 4.109375 0 
L 4.109375 5.171875 
L 12.203125 5.171875 
L 12.203125 46.78125 
L 3.609375 46.78125 
L 3.609375 51.90625 
L 21.1875 51.90625 
L 21.1875 42.671875 
Q 23.6875 47.859375 27.53125 50.59375 
Q 31.390625 53.328125 36.28125 53.328125 
Q 42.328125 53.328125 46.375 50.3125 
Q 50.4375 47.3125 51.8125 41.796875 
z
" id="DejaVuSerif-6d"/>
      <path id="DejaVuSerif-20"/>
     </defs>
     <g transform="translate(59.273647 143.358066)scale(0.08 -0.08)">
      <use xlink:href="#DejaVuSerif-54"/>
      <use x="66.699219" xlink:href="#DejaVuSerif-69"/>
      <use x="98.681641" xlink:href="#DejaVuSerif-6d"/>
      <use x="193.505859" xlink:href="#DejaVuSerif-65"/>
      <use x="252.685547" xlink:href="#DejaVuSerif-20"/>
      <use x="284.472656" xlink:href="#DejaVuSerif-28"/>
      <use x="323.486328" xlink:href="#DejaVuSerif-73"/>
      <use x="374.804688" xlink:href="#DejaVuSerif-29"/>
     </g>
    </g>
   </g>
   <g id="matplotlib.axis_4">
    <g id="ytick_5">
     <g id="line2d_14">
      <g>
       <use style="stroke:#000000;stroke-width:0.8;" x="17.007874" xlink:href="#m2688ad42fa" y="120.472441"/>
      </g>
     </g>
     <g id="text_12">
      <!-- 0.00 -->
      <defs>
       <path d="M 9.421875 5.078125 
Q 9.421875 7.8125 11.28125 9.71875 
Q 13.140625 11.625 15.921875 11.625 
Q 18.609375 11.625 20.5 9.71875 
Q 22.40625 7.8125 22.40625 5.078125 
Q 22.40625 2.390625 20.5 0.484375 
Q 18.609375 -1.421875 15.921875 -1.421875 
Q 13.140625 -1.421875 11.28125 0.453125 
Q 9.421875 2.34375 9.421875 5.078125 
z
" id="DejaVuSerif-2e"/>
      </defs>
      <g transform="translate(-3.351501 122.751972)scale(0.06 -0.06)">
       <use xlink:href="#DejaVuSerif-30"/>
       <use x="63.623047" xlink:href="#DejaVuSerif-2e"/>
       <use x="95.410156" xlink:href="#DejaVuSerif-30"/>
       <use x="159.033203" xlink:href="#DejaVuSerif-30"/>
      </g>
     </g>
    </g>
    <g id="ytick_6">
     <g id="line2d_15">
      <g>
       <use style="stroke:#000000;stroke-width:0.8;" x="17.007874" xlink:href="#m2688ad42fa" y="102.755906"/>
      </g>
     </g>
     <g id="text_13">
      <!-- 0.05 -->
      <g transform="translate(-3.351501 105.035437)scale(0.06 -0.06)">
       <use xlink:href="#DejaVuSerif-30"/>
       <use x="63.623047" xlink:href="#DejaVuSerif-2e"/>
       <use x="95.410156" xlink:href="#DejaVuSerif-30"/>
       <use x="159.033203" xlink:href="#DejaVuSerif-35"/>
      </g>
     </g>
    </g>
    <g id="ytick_7">
     <g id="line2d_16">
      <g>
       <use style="stroke:#000000;stroke-width:0.8;" x="17.007874" xlink:href="#m2688ad42fa" y="85.03937"/>
      </g>
     </g>
     <g id="text_14">
      <!-- 0.10 -->
      <g transform="translate(-3.351501 87.318901)scale(0.06 -0.06)">
       <use xlink:href="#DejaVuSerif-30"/>
       <use x="63.623047" xlink:href="#DejaVuSerif-2e"/>
       <use x="95.410156" xlink:href="#DejaVuSerif-31"/>
       <use x="159.033203" xlink:href="#DejaVuSerif-30"/>
      </g>
     </g>
    </g>
    <g id="ytick_8">
     <g id="line2d_17">
      <g>
       <use style="stroke:#000000;stroke-width:0.8;" x="17.007874" xlink:href="#m2688ad42fa" y="67.322835"/>
      </g>
     </g>
     <g id="text_15">
      <!-- 0.15 -->
      <g transform="translate(-3.351501 69.602366)scale(0.06 -0.06)">
       <use xlink:href="#DejaVuSerif-30"/>
       <use x="63.623047" xlink:href="#DejaVuSerif-2e"/>
       <use x="95.410156" xlink:href="#DejaVuSerif-31"/>
       <use x="159.033203" xlink:href="#DejaVuSerif-35"/>
      </g>
     </g>
    </g>
   </g>
   <g id="line2d_18">
    <path clip-path="url(#p00242b40cc)" d="M 21.419291 112.380236 
L 25.830709 105.240827 
L 30.242126 98.95748 
L 34.653543 93.931299 
L 39.064961 90.700866 
L 43.476378 89.241378 
L 47.887795 88.836732 
L 52.299213 88.754173 
L 56.71063 88.733268 
L 61.122047 88.745669 
L 61.563189 88.498701 
L 62.004331 87.772323 
L 62.445472 86.759646 
L 62.886614 85.728543 
L 63.327756 84.732874 
L 63.768898 83.850945 
L 64.210039 83.076732 
L 64.651181 82.435039 
L 65.092323 81.91063 
L 65.533465 81.494646 
L 65.974606 81.142795 
L 66.415748 80.865354 
L 66.85689 80.644961 
L 67.298031 80.456811 
L 67.739173 80.328898 
L 68.180315 80.22437 
L 68.621457 80.124094 
L 69.062598 80.050394 
L 69.50374 79.985906 
L 69.944882 79.935236 
L 70.386024 80.153858 
L 70.827165 80.687835 
L 71.268307 81.322795 
L 71.709449 81.969094 
L 72.150591 82.55126 
L 72.591732 83.054409 
L 73.032874 83.488465 
L 73.474016 83.838543 
L 73.915157 84.100748 
L 74.356299 84.31122 
L 74.797441 84.509646 
L 75.238583 84.658819 
L 75.679724 84.789213 
L 76.120866 84.912165 
L 76.562008 84.998976 
L 77.00315 85.069134 
L 77.444291 85.133622 
L 77.885433 85.194567 
L 78.326575 85.239921 
L 78.767717 85.286693 
L 79.208858 85.323898 
L 79.65 85.35189 
L 80.091142 85.372441 
L 80.532283 85.390157 
L 80.973425 85.400787 
L 81.414567 85.422047 
L 81.855709 85.44189 
L 82.29685 85.460315 
L 82.737992 85.490079 
L 83.179134 85.513465 
L 83.620276 85.518425 
L 84.061417 85.538622 
L 84.502559 85.543583 
L 84.943701 85.551378 
L 85.384843 85.565906 
L 85.825984 85.577598 
L 86.267126 85.583976 
L 86.708268 85.590709 
L 87.149409 85.597441 
L 87.590551 85.597087 
L 88.031693 85.596732 
L 88.472835 85.599213 
L 88.913976 85.602047 
L 89.355118 85.600984 
L 89.79626 85.595669 
L 90.237402 85.58752 
L 90.678543 85.580787 
L 91.119685 85.580079 
L 91.560827 85.58752 
L 92.001969 85.594606 
L 92.44311 85.603465 
L 92.884252 85.612323 
L 93.325394 85.626496 
L 93.766535 85.63748 
L 94.207677 85.638898 
L 94.648819 85.647756 
L 95.089961 85.642795 
L 95.531102 85.642087 
L 95.972244 85.643858 
L 96.413386 85.653425 
L 100.824803 85.732087 
L 105.23622 85.776732 
L 109.647638 85.825276 
L 114.059055 85.842992 
L 118.470472 85.874528 
L 122.88189 86.006339 
L 127.293307 86.030787 
L 131.704724 86.080748 
L 136.116142 86.141693 
L 140.527559 86.165433 
L 142.732283 86.162777 
" style="fill:none;stroke:#007849;stroke-linecap:square;"/>
   </g>
   <g id="line2d_19">
    <path clip-path="url(#p00242b40cc)" d="M 21.419291 112.385748 
L 25.830709 105.215827 
L 30.242126 98.904528 
L 34.653543 93.881811 
L 39.064961 90.609567 
L 43.476378 89.149606 
L 47.887795 88.738701 
L 52.299213 88.652441 
L 56.71063 88.628661 
L 61.122047 88.615748 
L 61.563189 88.543189 
L 62.004331 88.394606 
L 62.445472 88.228583 
L 62.886614 88.054724 
L 63.327756 87.886457 
L 63.768898 87.727008 
L 64.210039 87.581142 
L 64.651181 87.443268 
L 65.092323 87.321535 
L 65.533465 87.21063 
L 65.974606 87.113465 
L 66.415748 87.030315 
L 66.85689 86.956614 
L 67.298031 86.899646 
L 67.739173 86.851378 
L 68.180315 86.809685 
L 68.621457 86.772441 
L 69.062598 86.739567 
L 69.50374 86.709882 
L 69.944882 86.685748 
L 70.386024 86.77126 
L 70.827165 86.998819 
L 71.268307 87.267835 
L 71.709449 87.533071 
L 72.150591 87.774016 
L 72.591732 87.984134 
L 73.032874 88.16 
L 73.474016 88.302362 
L 73.915157 88.417362 
L 74.356299 88.512126 
L 74.797441 88.586732 
L 75.238583 88.654843 
L 75.679724 88.709921 
L 76.120866 88.757008 
L 76.562008 88.796339 
L 77.00315 88.82874 
L 77.444291 88.85437 
L 77.885433 88.87437 
L 78.326575 88.893583 
L 78.767717 88.907559 
L 79.208858 88.919685 
L 79.65 88.932244 
L 80.091142 88.941417 
L 80.532283 88.949606 
L 80.973425 88.953504 
L 81.414567 88.957126 
L 81.855709 88.962795 
L 82.29685 88.965079 
L 82.737992 88.969055 
L 83.179134 88.970591 
L 83.620276 88.970906 
L 84.061417 88.971811 
L 84.502559 88.975433 
L 84.943701 88.981102 
L 85.384843 88.985118 
L 85.825984 88.989055 
L 86.267126 88.989685 
L 86.708268 88.989764 
L 87.149409 88.988976 
L 87.590551 88.986417 
L 88.031693 88.983228 
L 88.472835 88.979213 
L 88.913976 88.973031 
L 89.355118 88.96878 
L 89.79626 88.965354 
L 90.237402 88.964449 
L 90.678543 88.966614 
L 91.119685 88.962913 
L 91.560827 88.959134 
L 92.001969 88.960512 
L 92.44311 88.96126 
L 92.884252 88.963819 
L 93.325394 88.967756 
L 93.766535 88.971063 
L 94.207677 88.970472 
L 94.648819 88.968307 
L 95.089961 88.963661 
L 95.531102 88.958189 
L 95.972244 88.956654 
L 96.413386 88.955709 
L 100.824803 88.95622 
L 105.23622 88.95374 
L 109.647638 88.955079 
L 114.059055 88.945197 
L 118.470472 88.91874 
L 122.88189 88.93874 
L 127.293307 88.923976 
L 131.704724 88.911417 
L 136.116142 88.903228 
L 140.527559 88.909213 
L 142.732283 88.904116 
" style="fill:none;stroke:#999999;stroke-linecap:square;"/>
   </g>
   <g id="line2d_20">
    <path clip-path="url(#p00242b40cc)" d="M 21.419291 112.374309 
L 25.830709 105.206562 
L 30.242126 98.898421 
L 34.653543 93.860595 
L 39.064961 90.59535 
L 43.476378 89.141789 
L 47.887795 88.728941 
L 52.299213 88.642021 
L 56.71063 88.630818 
L 61.122047 88.621269 
L 61.563189 88.630315 
L 62.004331 88.647143 
L 62.445472 88.664121 
L 62.886614 88.68164 
L 63.327756 88.699409 
L 63.768898 88.715052 
L 64.210039 88.728368 
L 64.651181 88.739514 
L 65.092323 88.751824 
L 65.533465 88.761544 
L 65.974606 88.769383 
L 66.415748 88.77766 
L 66.85689 88.785726 
L 67.298031 88.794029 
L 67.739173 88.802992 
L 68.180315 88.81273 
L 68.621457 88.819733 
L 69.062598 88.824576 
L 69.50374 88.826776 
L 69.944882 88.830048 
L 70.386024 88.825437 
L 70.827165 88.807983 
L 71.268307 88.784934 
L 71.709449 88.76273 
L 72.150591 88.740564 
L 72.591732 88.720179 
L 73.032874 88.703421 
L 73.474016 88.687275 
L 73.915157 88.673018 
L 74.356299 88.66105 
L 74.797441 88.650796 
L 75.238583 88.640586 
L 75.679724 88.631168 
L 76.120866 88.624593 
L 76.562008 88.618605 
L 77.00315 88.612288 
L 77.444291 88.607865 
L 77.885433 88.604427 
L 78.326575 88.601732 
L 78.767717 88.599007 
L 79.208858 88.595866 
L 79.65 88.593115 
L 80.091142 88.592393 
L 80.532283 88.593508 
L 80.973425 88.595713 
L 81.414567 88.597178 
L 81.855709 88.595219 
L 82.29685 88.592485 
L 82.737992 88.589234 
L 83.179134 88.588119 
L 83.620276 88.585787 
L 84.061417 88.585101 
L 84.502559 88.584965 
L 84.943701 88.58444 
L 85.384843 88.585385 
L 85.825984 88.586404 
L 86.267126 88.587183 
L 86.708268 88.58881 
L 87.149409 88.588736 
L 87.590551 88.586868 
L 88.031693 88.585551 
L 88.472835 88.585542 
L 88.913976 88.586426 
L 89.355118 88.5872 
L 89.79626 88.586951 
L 90.237402 88.586413 
L 90.678543 88.587367 
L 91.119685 88.5878 
L 91.560827 88.588482 
L 92.001969 88.588268 
L 92.44311 88.589768 
L 92.884252 88.591006 
L 93.325394 88.592091 
L 93.766535 88.593946 
L 94.207677 88.595398 
L 94.648819 88.594794 
L 95.089961 88.593298 
L 95.531102 88.591413 
L 95.972244 88.590805 
L 96.413386 88.589969 
L 100.824803 88.586737 
L 105.23622 88.593189 
L 109.647638 88.592572 
L 114.059055 88.589895 
L 118.470472 88.578084 
L 122.88189 88.592056 
L 127.293307 88.59871 
L 131.704724 88.594948 
L 136.116142 88.592651 
L 140.527559 88.595621 
L 142.732283 88.595311 
" style="fill:none;stroke:#4d4d4d;stroke-linecap:square;"/>
   </g>
   <g id="line2d_21">
    <defs>
     <path d="M 0 1.25 
C 0.331504 1.25 0.649475 1.118292 0.883883 0.883883 
C 1.118292 0.649475 1.25 0.331504 1.25 0 
C 1.25 -0.331504 1.118292 -0.649475 0.883883 -0.883883 
C 0.649475 -1.118292 0.331504 -1.25 0 -1.25 
C -0.331504 -1.25 -0.649475 -1.118292 -0.883883 -0.883883 
C -1.118292 -0.649475 -1.25 -0.331504 -1.25 0 
C -1.25 0.331504 -1.118292 0.649475 -0.883883 0.883883 
C -0.649475 1.118292 -0.331504 1.25 0 1.25 
z
" id="m61653aa42f" style="stroke:#353a90;"/>
    </defs>
    <g clip-path="url(#p00242b40cc)">
     <use style="fill:#353a90;stroke:#353a90;" x="61.122047" xlink:href="#m61653aa42f" y="88.745669"/>
    </g>
   </g>
   <g id="line2d_22">
    <g clip-path="url(#p00242b40cc)">
     <use style="fill:#353a90;stroke:#353a90;" x="70.386024" xlink:href="#m61653aa42f" y="80.153858"/>
    </g>
   </g>
   <g id="line2d_23">
    <g clip-path="url(#p00242b40cc)">
     <use style="fill:#353a90;stroke:#353a90;" x="78.767717" xlink:href="#m61653aa42f" y="85.286693"/>
    </g>
   </g>
   <g id="line2d_24">
    <g clip-path="url(#p00242b40cc)">
     <use style="fill:#353a90;stroke:#353a90;" x="105.23622" xlink:href="#m61653aa42f" y="85.776732"/>
    </g>
   </g>
   <g id="patch_8">
    <path d="M 17.007874 120.472441 
L 17.007874 63.779528 
" style="fill:none;stroke:#000000;stroke-linecap:square;stroke-linejoin:miter;stroke-width:0.8;"/>
   </g>
   <g id="patch_9">
    <path d="M 17.007874 120.472441 
L 134.645669 120.472441 
" style="fill:none;stroke:#000000;stroke-linecap:square;stroke-linejoin:miter;stroke-width:0.8;"/>
   </g>
  </g>
 </g>
 <defs>
  <clipPath id="pa5e72b3a92">
   <rect height="56.692913" width="117.637795" x="17.007874" y="1.417323"/>
  </clipPath>
  <clipPath id="p00242b40cc">
   <rect height="56.692913" width="117.637795" x="17.007874" y="63.779528"/>
  </clipPath>
 </defs>
</svg>
