<?xml version="1.0" encoding="utf-8" standalone="no"?>
<!DOCTYPE svg PUBLIC "-//W3C//DTD SVG 1.1//EN"
  "http://www.w3.org/Graphics/SVG/1.1/DTD/svg11.dtd">
<!-- Created with matplotlib (http://matplotlib.org/) -->
<svg height="141.732283pt" version="1.1" viewBox="0 0 170.07874 141.732283" width="170.07874pt" xmlns="http://www.w3.org/2000/svg" xmlns:xlink="http://www.w3.org/1999/xlink">
 <defs>
  <style type="text/css">
*{stroke-linecap:butt;stroke-linejoin:round;}
  </style>
 </defs>
 <g id="figure_1">
  <g id="patch_1">
   <path d="M 0 141.732283 
L 170.07874 141.732283 
L 170.07874 0 
L 0 0 
z
" style="fill:#ffffff;"/>
  </g>
  <g id="axes_1">
   <g id="patch_2">
    <path d="M 34.015748 58.110236 
L 161.574803 58.110236 
L 161.574803 1.417323 
L 34.015748 1.417323 
z
" style="fill:#ffffff;"/>
   </g>
   <g id="patch_3">
    <path clip-path="url(#pde4151ad1c)" d="M 81.850394 58.110236 
L 81.850394 1.417323 
L 91.417323 1.417323 
L 91.417323 58.110236 
z
" style="fill:#bbdb88;opacity:0.2;stroke:#bbdb88;stroke-linejoin:miter;"/>
   </g>
   <g id="matplotlib.axis_1"/>
   <g id="matplotlib.axis_2">
    <g id="ytick_1">
     <g id="line2d_1">
      <defs>
       <path d="M 0 0 
L -3.5 0 
" id="m45fa759b48" style="stroke:#000000;stroke-width:0.8;"/>
      </defs>
      <g>
       <use style="stroke:#000000;stroke-width:0.8;" x="34.015748" xlink:href="#m45fa759b48" y="58.110236"/>
      </g>
     </g>
     <g id="text_1">
      <!-- 0 -->
      <defs>
       <path d="M 31.78125 3.421875 
Q 39.265625 3.421875 42.96875 11.625 
Q 46.6875 19.828125 46.6875 36.375 
Q 46.6875 52.984375 42.96875 61.1875 
Q 39.265625 69.390625 31.78125 69.390625 
Q 24.3125 69.390625 20.59375 61.1875 
Q 16.890625 52.984375 16.890625 36.375 
Q 16.890625 19.828125 20.59375 11.625 
Q 24.3125 3.421875 31.78125 3.421875 
z
M 31.78125 -1.421875 
Q 19.921875 -1.421875 13.25 8.53125 
Q 6.59375 18.5 6.59375 36.375 
Q 6.59375 54.296875 13.25 64.25 
Q 19.921875 74.21875 31.78125 74.21875 
Q 43.703125 74.21875 50.34375 64.25 
Q 56.984375 54.296875 56.984375 36.375 
Q 56.984375 18.5 50.34375 8.53125 
Q 43.703125 -1.421875 31.78125 -1.421875 
z
" id="DejaVuSerif-30"/>
      </defs>
      <g transform="translate(23.198248 60.389767)scale(0.06 -0.06)">
       <use xlink:href="#DejaVuSerif-30"/>
      </g>
     </g>
    </g>
    <g id="ytick_2">
     <g id="line2d_2">
      <g>
       <use style="stroke:#000000;stroke-width:0.8;" x="34.015748" xlink:href="#m45fa759b48" y="40.393701"/>
      </g>
     </g>
     <g id="text_2">
      <!-- 5 -->
      <defs>
       <path d="M 50.296875 72.90625 
L 50.296875 64.890625 
L 16.890625 64.890625 
L 16.890625 44 
Q 19.4375 45.75 22.828125 46.625 
Q 26.21875 47.515625 30.421875 47.515625 
Q 42.234375 47.515625 49.0625 40.96875 
Q 55.90625 34.421875 55.90625 23.09375 
Q 55.90625 11.53125 49 5.046875 
Q 42.09375 -1.421875 29.59375 -1.421875 
Q 24.5625 -1.421875 19.28125 -0.1875 
Q 14.015625 1.03125 8.5 3.515625 
L 8.5 17.671875 
L 14.015625 17.671875 
Q 14.453125 10.75 18.421875 7.078125 
Q 22.40625 3.421875 29.59375 3.421875 
Q 37.3125 3.421875 41.453125 8.5 
Q 45.609375 13.578125 45.609375 23.09375 
Q 45.609375 32.5625 41.484375 37.609375 
Q 37.359375 42.671875 29.59375 42.671875 
Q 25.203125 42.671875 21.84375 41.109375 
Q 18.5 39.546875 15.921875 36.28125 
L 11.71875 36.28125 
L 11.71875 72.90625 
z
" id="DejaVuSerif-35"/>
      </defs>
      <g transform="translate(23.198248 42.673232)scale(0.06 -0.06)">
       <use xlink:href="#DejaVuSerif-35"/>
      </g>
     </g>
    </g>
    <g id="ytick_3">
     <g id="line2d_3">
      <g>
       <use style="stroke:#000000;stroke-width:0.8;" x="34.015748" xlink:href="#m45fa759b48" y="22.677165"/>
      </g>
     </g>
     <g id="text_3">
      <!-- 10 -->
      <defs>
       <path d="M 14.203125 0 
L 14.203125 5.171875 
L 26.90625 5.171875 
L 26.90625 65.828125 
L 12.203125 56.296875 
L 12.203125 62.703125 
L 29.984375 74.21875 
L 36.71875 74.21875 
L 36.71875 5.171875 
L 49.421875 5.171875 
L 49.421875 0 
z
" id="DejaVuSerif-31"/>
      </defs>
      <g transform="translate(19.380748 24.956697)scale(0.06 -0.06)">
       <use xlink:href="#DejaVuSerif-31"/>
       <use x="63.623047" xlink:href="#DejaVuSerif-30"/>
      </g>
     </g>
    </g>
    <g id="ytick_4">
     <g id="line2d_4">
      <g>
       <use style="stroke:#000000;stroke-width:0.8;" x="34.015748" xlink:href="#m45fa759b48" y="4.96063"/>
      </g>
     </g>
     <g id="text_4">
      <!-- 15 -->
      <g transform="translate(19.380748 7.240161)scale(0.06 -0.06)">
       <use xlink:href="#DejaVuSerif-31"/>
       <use x="63.623047" xlink:href="#DejaVuSerif-35"/>
      </g>
     </g>
    </g>
    <g id="text_5">
     <!-- Firing rate (Hz) -->
     <defs>
      <path d="M 5.515625 0 
L 5.515625 5.171875 
L 14.796875 5.171875 
L 14.796875 67.671875 
L 5.515625 67.671875 
L 5.515625 72.90625 
L 65.1875 72.90625 
L 65.1875 56.6875 
L 59.1875 56.6875 
L 59.1875 66.890625 
L 24.703125 66.890625 
L 24.703125 42.484375 
L 49.609375 42.484375 
L 49.609375 51.609375 
L 55.609375 51.609375 
L 55.609375 27.390625 
L 49.609375 27.390625 
L 49.609375 36.53125 
L 24.703125 36.53125 
L 24.703125 5.171875 
L 36.375 5.171875 
L 36.375 0 
z
" id="DejaVuSerif-46"/>
      <path d="M 9.71875 68.015625 
Q 9.71875 70.265625 11.34375 71.921875 
Q 12.984375 73.578125 15.28125 73.578125 
Q 17.53125 73.578125 19.15625 71.921875 
Q 20.796875 70.265625 20.796875 68.015625 
Q 20.796875 65.71875 19.1875 64.109375 
Q 17.578125 62.5 15.28125 62.5 
Q 12.984375 62.5 11.34375 64.109375 
Q 9.71875 65.71875 9.71875 68.015625 
z
M 21.1875 5.171875 
L 29.6875 5.171875 
L 29.6875 0 
L 3.609375 0 
L 3.609375 5.171875 
L 12.203125 5.171875 
L 12.203125 46.6875 
L 3.609375 46.6875 
L 3.609375 51.90625 
L 21.1875 51.90625 
z
" id="DejaVuSerif-69"/>
      <path d="M 47.796875 52 
L 47.796875 39.015625 
L 42.625 39.015625 
Q 42.390625 42.875 40.484375 44.78125 
Q 38.578125 46.6875 34.90625 46.6875 
Q 28.265625 46.6875 24.71875 42.09375 
Q 21.1875 37.5 21.1875 28.90625 
L 21.1875 5.171875 
L 31.59375 5.171875 
L 31.59375 0 
L 4.109375 0 
L 4.109375 5.171875 
L 12.203125 5.171875 
L 12.203125 46.78125 
L 3.609375 46.78125 
L 3.609375 51.90625 
L 21.1875 51.90625 
L 21.1875 42.671875 
Q 23.828125 48.09375 27.96875 50.703125 
Q 32.125 53.328125 38.09375 53.328125 
Q 40.28125 53.328125 42.703125 52.984375 
Q 45.125 52.640625 47.796875 52 
z
" id="DejaVuSerif-72"/>
      <path d="M 4.109375 0 
L 4.109375 5.171875 
L 12.203125 5.171875 
L 12.203125 46.6875 
L 3.609375 46.6875 
L 3.609375 51.90625 
L 21.1875 51.90625 
L 21.1875 42.671875 
Q 23.6875 47.953125 27.65625 50.640625 
Q 31.640625 53.328125 36.921875 53.328125 
Q 45.515625 53.328125 49.5625 48.390625 
Q 53.609375 43.453125 53.609375 33.015625 
L 53.609375 5.171875 
L 61.625 5.171875 
L 61.625 0 
L 36.8125 0 
L 36.8125 5.171875 
L 44.578125 5.171875 
L 44.578125 30.171875 
Q 44.578125 39.703125 42.234375 43.234375 
Q 39.890625 46.78125 33.984375 46.78125 
Q 27.734375 46.78125 24.453125 42.203125 
Q 21.1875 37.640625 21.1875 28.90625 
L 21.1875 5.171875 
L 29 5.171875 
L 29 0 
z
" id="DejaVuSerif-6e"/>
      <path d="M 52.484375 46.6875 
L 52.484375 1.125 
Q 52.484375 -10.0625 46.328125 -16.140625 
Q 40.1875 -22.21875 28.8125 -22.21875 
Q 23.6875 -22.21875 19 -21.28125 
Q 14.3125 -20.359375 10.015625 -18.5 
L 10.015625 -7.625 
L 14.703125 -7.625 
Q 15.578125 -12.703125 18.84375 -15.046875 
Q 22.125 -17.390625 28.21875 -17.390625 
Q 36.140625 -17.390625 39.8125 -12.921875 
Q 43.5 -8.453125 43.5 1.125 
L 43.5 8.109375 
Q 40.875 3.21875 36.796875 0.890625 
Q 32.71875 -1.421875 26.703125 -1.421875 
Q 17.140625 -1.421875 11.0625 6.171875 
Q 4.984375 13.765625 4.984375 25.984375 
Q 4.984375 38.1875 11.03125 45.75 
Q 17.09375 53.328125 26.703125 53.328125 
Q 32.71875 53.328125 36.796875 51 
Q 40.875 48.6875 43.5 43.796875 
L 43.5 51.90625 
L 61.078125 51.90625 
L 61.078125 46.6875 
z
M 43.5 28.515625 
Q 43.5 37.84375 39.90625 42.765625 
Q 36.328125 47.703125 29.5 47.703125 
Q 22.5625 47.703125 19.015625 42.234375 
Q 15.484375 36.765625 15.484375 25.984375 
Q 15.484375 15.234375 19.015625 9.71875 
Q 22.5625 4.203125 29.5 4.203125 
Q 36.328125 4.203125 39.90625 9.109375 
Q 43.5 14.015625 43.5 23.390625 
z
" id="DejaVuSerif-67"/>
      <path id="DejaVuSerif-20"/>
      <path d="M 39.796875 16.3125 
L 39.796875 27.296875 
L 28.21875 27.296875 
Q 21.53125 27.296875 18.25 24.40625 
Q 14.984375 21.53125 14.984375 15.578125 
Q 14.984375 10.15625 18.296875 6.984375 
Q 21.625 3.8125 27.296875 3.8125 
Q 32.90625 3.8125 36.34375 7.28125 
Q 39.796875 10.75 39.796875 16.3125 
z
M 48.78125 32.421875 
L 48.78125 5.171875 
L 56.78125 5.171875 
L 56.78125 0 
L 39.796875 0 
L 39.796875 5.609375 
Q 36.8125 2 32.90625 0.28125 
Q 29 -1.421875 23.78125 -1.421875 
Q 15.140625 -1.421875 10.0625 3.171875 
Q 4.984375 7.765625 4.984375 15.578125 
Q 4.984375 23.640625 10.796875 28.078125 
Q 16.609375 32.515625 27.203125 32.515625 
L 39.796875 32.515625 
L 39.796875 36.078125 
Q 39.796875 42 36.203125 45.234375 
Q 32.625 48.484375 26.125 48.484375 
Q 20.75 48.484375 17.578125 46.046875 
Q 14.40625 43.609375 13.625 38.8125 
L 8.984375 38.8125 
L 8.984375 49.3125 
Q 13.671875 51.3125 18.09375 52.3125 
Q 22.515625 53.328125 26.703125 53.328125 
Q 37.5 53.328125 43.140625 47.96875 
Q 48.78125 42.625 48.78125 32.421875 
z
" id="DejaVuSerif-61"/>
      <path d="M 10.796875 46.6875 
L 2.875 46.6875 
L 2.875 51.90625 
L 10.796875 51.90625 
L 10.796875 68.015625 
L 19.828125 68.015625 
L 19.828125 51.90625 
L 36.71875 51.90625 
L 36.71875 46.6875 
L 19.828125 46.6875 
L 19.828125 13.71875 
Q 19.828125 7.125 21.09375 5.265625 
Q 22.359375 3.421875 25.78125 3.421875 
Q 29.296875 3.421875 30.90625 5.484375 
Q 32.515625 7.5625 32.625 12.203125 
L 39.40625 12.203125 
Q 39.015625 5.125 35.546875 1.84375 
Q 32.078125 -1.421875 25 -1.421875 
Q 17.234375 -1.421875 14.015625 2.015625 
Q 10.796875 5.46875 10.796875 13.71875 
z
" id="DejaVuSerif-74"/>
      <path d="M 54.203125 25 
L 15.484375 25 
L 15.484375 24.609375 
Q 15.484375 14.109375 19.4375 8.765625 
Q 23.390625 3.421875 31.109375 3.421875 
Q 37.015625 3.421875 40.796875 6.515625 
Q 44.578125 9.625 46.09375 15.71875 
L 53.328125 15.71875 
Q 51.171875 7.171875 45.375 2.875 
Q 39.59375 -1.421875 30.171875 -1.421875 
Q 18.796875 -1.421875 11.890625 6.078125 
Q 4.984375 13.578125 4.984375 25.984375 
Q 4.984375 38.28125 11.765625 45.796875 
Q 18.5625 53.328125 29.59375 53.328125 
Q 41.359375 53.328125 47.65625 46.0625 
Q 53.953125 38.8125 54.203125 25 
z
M 43.609375 30.171875 
Q 43.3125 39.265625 39.765625 43.875 
Q 36.234375 48.484375 29.59375 48.484375 
Q 23.390625 48.484375 19.828125 43.84375 
Q 16.265625 39.203125 15.484375 30.171875 
z
" id="DejaVuSerif-65"/>
      <path d="M 31.890625 -15.578125 
Q 20.015625 -10.25 13.953125 1.296875 
Q 7.90625 12.84375 7.90625 30.171875 
Q 7.90625 47.5625 13.953125 59.109375 
Q 20.015625 70.65625 31.890625 75.984375 
L 31.890625 71.1875 
Q 24.359375 66.015625 21.09375 56.609375 
Q 17.828125 47.21875 17.828125 30.171875 
Q 17.828125 13.1875 21.09375 3.78125 
Q 24.359375 -5.609375 31.890625 -10.796875 
z
" id="DejaVuSerif-28"/>
      <path d="M 5.515625 0 
L 5.515625 5.171875 
L 14.796875 5.171875 
L 14.796875 67.671875 
L 5.515625 67.671875 
L 5.515625 72.90625 
L 33.984375 72.90625 
L 33.984375 67.671875 
L 24.703125 67.671875 
L 24.703125 42.484375 
L 62.5 42.484375 
L 62.5 67.671875 
L 53.21875 67.671875 
L 53.21875 72.90625 
L 81.6875 72.90625 
L 81.6875 67.671875 
L 72.40625 67.671875 
L 72.40625 5.171875 
L 81.6875 5.171875 
L 81.6875 0 
L 53.21875 0 
L 53.21875 5.171875 
L 62.5 5.171875 
L 62.5 36.53125 
L 24.703125 36.53125 
L 24.703125 5.171875 
L 33.984375 5.171875 
L 33.984375 0 
z
" id="DejaVuSerif-48"/>
      <path d="M 4 0 
L 4 4.203125 
L 36.53125 46.6875 
L 10.796875 46.6875 
L 10.796875 37.703125 
L 5.609375 37.703125 
L 5.609375 51.90625 
L 48.09375 51.90625 
L 48.09375 47.703125 
L 15.578125 5.171875 
L 43.796875 5.171875 
L 43.796875 14.59375 
L 49.03125 14.59375 
L 49.03125 0 
z
" id="DejaVuSerif-7a"/>
      <path d="M 7.078125 -15.578125 
L 7.078125 -10.796875 
Q 14.59375 -5.609375 17.890625 3.78125 
Q 21.1875 13.1875 21.1875 30.171875 
Q 21.1875 47.21875 17.890625 56.609375 
Q 14.59375 66.015625 7.078125 71.1875 
L 7.078125 75.984375 
Q 19 70.65625 25.046875 59.109375 
Q 31.109375 47.5625 31.109375 30.171875 
Q 31.109375 12.84375 25.046875 1.296875 
Q 19 -10.25 7.078125 -15.578125 
z
" id="DejaVuSerif-29"/>
     </defs>
     <g transform="translate(13.603248 61.678155)rotate(-90)scale(0.08 -0.08)">
      <use xlink:href="#DejaVuSerif-46"/>
      <use x="69.384766" xlink:href="#DejaVuSerif-69"/>
      <use x="101.367188" xlink:href="#DejaVuSerif-72"/>
      <use x="149.169922" xlink:href="#DejaVuSerif-69"/>
      <use x="181.152344" xlink:href="#DejaVuSerif-6e"/>
      <use x="245.556641" xlink:href="#DejaVuSerif-67"/>
      <use x="309.570312" xlink:href="#DejaVuSerif-20"/>
      <use x="341.357422" xlink:href="#DejaVuSerif-72"/>
      <use x="389.160156" xlink:href="#DejaVuSerif-61"/>
      <use x="448.779297" xlink:href="#DejaVuSerif-74"/>
      <use x="488.964844" xlink:href="#DejaVuSerif-65"/>
      <use x="548.144531" xlink:href="#DejaVuSerif-20"/>
      <use x="579.931641" xlink:href="#DejaVuSerif-28"/>
      <use x="618.945312" xlink:href="#DejaVuSerif-48"/>
      <use x="706.152344" xlink:href="#DejaVuSerif-7a"/>
      <use x="758.837891" xlink:href="#DejaVuSerif-29"/>
     </g>
    </g>
   </g>
   <g id="line2d_5">
    <path clip-path="url(#pde4151ad1c)" d="M 38.799213 49.663701 
L 43.582677 47.561102 
L 48.366142 44.660551 
L 53.149606 40.582205 
L 57.933071 35.302677 
L 62.716535 31.476614 
L 67.5 30.295276 
L 72.283465 29.991969 
L 77.066929 29.814803 
L 81.850394 29.988425 
L 82.32874 19.692283 
L 82.807087 20.542677 
L 83.285433 21.411496 
L 83.76378 22.564488 
L 84.242126 23.844331 
L 84.720472 24.815197 
L 85.198819 25.712362 
L 85.677165 26.067402 
L 86.155512 26.53937 
L 86.633858 27.138898 
L 87.112205 27.660472 
L 87.590551 28.145197 
L 88.068898 28.481102 
L 88.547244 28.222441 
L 89.025591 28.793622 
L 89.503937 28.798583 
L 89.982283 29.040236 
L 90.46063 29.140157 
L 90.938976 29.235118 
L 91.417323 29.024646 
L 91.895669 37.722756 
L 92.374016 37.288346 
L 92.852362 36.710787 
L 93.330709 36.029055 
L 93.809055 35.331732 
L 94.287402 34.833543 
L 94.765748 34.107874 
L 95.244094 33.736535 
L 95.722441 33.338268 
L 96.200787 32.449606 
L 96.679134 32.376614 
L 97.15748 31.779921 
L 97.635827 31.744488 
L 98.114173 31.456772 
L 98.59252 31.188189 
L 99.070866 30.814724 
L 99.549213 30.799843 
L 100.027559 30.514961 
L 100.505906 30.258425 
L 100.984252 30.162047 
L 101.462598 29.912598 
L 101.940945 29.965748 
L 102.419291 30.106063 
L 102.897638 29.947323 
L 103.375984 29.718425 
L 103.854331 30.014646 
L 104.332677 29.99622 
L 104.811024 30.007559 
L 105.28937 29.757402 
L 105.767717 29.691496 
L 106.246063 29.713465 
L 106.724409 29.935984 
L 107.202756 29.82685 
L 107.681102 30.059291 
L 108.159449 29.974252 
L 108.637795 29.773701 
L 109.116142 29.741811 
L 109.594488 29.792835 
L 110.072835 29.380394 
L 110.551181 29.796378 
L 111.029528 29.709921 
L 111.507874 29.694331 
L 111.98622 29.833228 
L 112.464567 30.068504 
L 112.942913 29.777244 
L 113.42126 29.875748 
L 113.899606 29.639055 
L 114.377953 29.830394 
L 114.856299 29.705669 
L 115.334646 29.971417 
L 115.812992 29.962205 
L 116.291339 29.758819 
L 116.769685 29.831102 
L 117.248031 29.658898 
L 117.726378 29.942362 
L 118.204724 29.94874 
L 118.683071 29.858031 
L 119.161417 29.736142 
L 119.639764 29.725512 
L 120.11811 29.618504 
L 124.901575 29.444173 
L 129.685039 29.522835 
L 134.468504 29.844567 
L 139.251969 29.49378 
L 144.035433 29.653937 
L 148.818898 30.026693 
L 153.602362 29.704252 
L 158.385827 29.714173 
L 163.169291 29.686535 
L 167.952756 29.639055 
L 171.07874 29.816426 
" style="fill:none;stroke:#007849;stroke-linecap:square;"/>
   </g>
   <g id="line2d_6">
    <path clip-path="url(#pde4151ad1c)" d="M 38.799213 49.624409 
L 43.582677 47.605748 
L 48.366142 44.741339 
L 53.149606 40.582913 
L 57.933071 35.333307 
L 62.716535 31.617323 
L 67.5 30.275197 
L 72.283465 29.927402 
L 77.066929 29.827244 
L 81.850394 29.781969 
L 82.32874 29.778583 
L 82.807087 29.800787 
L 83.285433 29.755984 
L 83.76378 29.784016 
L 84.242126 29.83811 
L 84.720472 29.762441 
L 85.198819 29.774331 
L 85.677165 29.644094 
L 86.155512 29.777795 
L 86.633858 29.737874 
L 87.112205 29.695276 
L 87.590551 29.761339 
L 88.068898 29.731575 
L 88.547244 29.719685 
L 89.025591 29.818819 
L 89.503937 29.744094 
L 89.982283 29.694567 
L 90.46063 29.831417 
L 90.938976 29.898661 
L 91.417323 29.747559 
L 91.895669 29.433701 
L 92.374016 29.740157 
L 92.852362 29.580709 
L 93.330709 29.687008 
L 93.809055 29.693307 
L 94.287402 29.684803 
L 94.765748 29.763858 
L 95.244094 29.902835 
L 95.722441 29.880866 
L 96.200787 29.664646 
L 96.679134 29.785433 
L 97.15748 29.929606 
L 97.635827 29.846063 
L 98.114173 29.858425 
L 98.59252 29.857323 
L 99.070866 29.890945 
L 99.549213 29.954961 
L 100.027559 29.794646 
L 100.505906 29.869606 
L 100.984252 29.83315 
L 101.462598 29.682756 
L 101.940945 29.701339 
L 102.419291 29.709921 
L 102.897638 29.61622 
L 103.375984 29.704488 
L 103.854331 29.821575 
L 104.332677 29.844488 
L 104.811024 29.755748 
L 105.28937 29.604724 
L 105.767717 29.770551 
L 106.246063 29.693701 
L 106.724409 29.815433 
L 107.202756 29.723543 
L 107.681102 29.899213 
L 108.159449 29.781732 
L 108.637795 29.941575 
L 109.116142 29.730157 
L 109.594488 29.770079 
L 110.072835 29.775591 
L 110.551181 29.66378 
L 111.029528 29.671496 
L 111.507874 29.770079 
L 111.98622 29.912205 
L 112.464567 29.830472 
L 112.942913 29.747874 
L 113.42126 29.693622 
L 113.899606 29.642126 
L 114.377953 29.804016 
L 114.856299 29.781969 
L 115.334646 29.917323 
L 115.812992 29.803622 
L 116.291339 29.752126 
L 116.769685 29.854646 
L 117.248031 29.702283 
L 117.726378 29.823937 
L 118.204724 29.801181 
L 118.683071 29.684724 
L 119.161417 29.767244 
L 119.639764 29.653228 
L 120.11811 29.859685 
L 124.901575 29.739685 
L 129.685039 29.690787 
L 134.468504 29.865591 
L 139.251969 29.682362 
L 144.035433 29.652205 
L 148.818898 29.74937 
L 153.602362 29.918976 
L 158.385827 29.939606 
L 163.169291 29.719606 
L 167.952756 29.709134 
L 171.07874 29.808857 
" style="fill:none;stroke:#4d4d4d;stroke-linecap:square;"/>
   </g>
   <g id="patch_4">
    <path d="M 34.015748 58.110236 
L 34.015748 1.417323 
" style="fill:none;stroke:#000000;stroke-linecap:square;stroke-linejoin:miter;stroke-width:0.8;"/>
   </g>
   <g id="patch_5">
    <path d="M 34.015748 58.110236 
L 161.574803 58.110236 
" style="fill:none;stroke:#000000;stroke-linecap:square;stroke-linejoin:miter;stroke-width:0.8;"/>
   </g>
   <g id="legend_1">
    <g id="line2d_7">
     <path d="M 76.134803 49.230236 
L 88.134803 49.230236 
" style="fill:none;stroke:#007849;stroke-linecap:square;"/>
    </g>
    <g id="line2d_8"/>
    <g id="text_6">
     <!-- $\mathrm{sti\ (depolarizing \ DC)}$ -->
     <defs>
      <path d="M 5.609375 2.875 
L 5.609375 14.984375 
L 10.796875 14.984375 
Q 10.984375 9.1875 14.421875 6.296875 
Q 17.875 3.421875 24.609375 3.421875 
Q 30.671875 3.421875 33.84375 5.6875 
Q 37.015625 7.953125 37.015625 12.3125 
Q 37.015625 15.71875 34.6875 17.8125 
Q 32.375 19.921875 24.90625 22.3125 
L 18.40625 24.515625 
Q 11.71875 26.65625 8.71875 29.875 
Q 5.71875 33.109375 5.71875 38.09375 
Q 5.71875 45.21875 10.9375 49.265625 
Q 16.15625 53.328125 25.390625 53.328125 
Q 29.5 53.328125 34.03125 52.25 
Q 38.578125 51.171875 43.40625 49.125 
L 43.40625 37.796875 
L 38.234375 37.796875 
Q 38.03125 42.828125 34.703125 45.65625 
Q 31.390625 48.484375 25.6875 48.484375 
Q 20.015625 48.484375 17.109375 46.484375 
Q 14.203125 44.484375 14.203125 40.484375 
Q 14.203125 37.203125 16.40625 35.21875 
Q 18.609375 33.25 25.203125 31.203125 
L 32.328125 29 
Q 39.703125 26.703125 42.9375 23.265625 
Q 46.1875 19.828125 46.1875 14.40625 
Q 46.1875 7.03125 40.546875 2.796875 
Q 34.90625 -1.421875 25 -1.421875 
Q 19.96875 -1.421875 15.1875 -0.34375 
Q 10.40625 0.734375 5.609375 2.875 
z
" id="DejaVuSerif-73"/>
      <path d="M 52.484375 5.171875 
L 61.078125 5.171875 
L 61.078125 0 
L 43.5 0 
L 43.5 8.109375 
Q 40.875 3.21875 36.796875 0.890625 
Q 32.71875 -1.421875 26.703125 -1.421875 
Q 17.140625 -1.421875 11.0625 6.171875 
Q 4.984375 13.765625 4.984375 25.984375 
Q 4.984375 38.1875 11.03125 45.75 
Q 17.09375 53.328125 26.703125 53.328125 
Q 32.71875 53.328125 36.796875 51 
Q 40.875 48.6875 43.5 43.796875 
L 43.5 70.796875 
L 35.015625 70.796875 
L 35.015625 75.984375 
L 52.484375 75.984375 
z
M 43.5 23.390625 
L 43.5 28.515625 
Q 43.5 37.84375 39.90625 42.765625 
Q 36.328125 47.703125 29.5 47.703125 
Q 22.5625 47.703125 19.015625 42.234375 
Q 15.484375 36.765625 15.484375 25.984375 
Q 15.484375 15.234375 19.015625 9.71875 
Q 22.5625 4.203125 29.5 4.203125 
Q 36.328125 4.203125 39.90625 9.109375 
Q 43.5 14.015625 43.5 23.390625 
z
" id="DejaVuSerif-64"/>
      <path d="M 20.515625 28.515625 
L 20.515625 23.390625 
Q 20.515625 14.015625 24.09375 9.109375 
Q 27.6875 4.203125 34.515625 4.203125 
Q 41.40625 4.203125 44.9375 9.71875 
Q 48.484375 15.234375 48.484375 25.984375 
Q 48.484375 36.765625 44.9375 42.234375 
Q 41.40625 47.703125 34.515625 47.703125 
Q 27.6875 47.703125 24.09375 42.765625 
Q 20.515625 37.84375 20.515625 28.515625 
z
M 11.53125 46.6875 
L 2.875 46.6875 
L 2.875 51.90625 
L 20.515625 51.90625 
L 20.515625 43.796875 
Q 23.140625 48.6875 27.21875 51 
Q 31.296875 53.328125 37.3125 53.328125 
Q 46.875 53.328125 52.921875 45.75 
Q 58.984375 38.1875 58.984375 25.984375 
Q 58.984375 13.765625 52.921875 6.171875 
Q 46.875 -1.421875 37.3125 -1.421875 
Q 31.296875 -1.421875 27.21875 0.890625 
Q 23.140625 3.21875 20.515625 8.109375 
L 20.515625 -15.578125 
L 29 -15.578125 
L 29 -20.796875 
L 2.875 -20.796875 
L 2.875 -15.578125 
L 11.53125 -15.578125 
z
" id="DejaVuSerif-70"/>
      <path d="M 30.078125 3.421875 
Q 37.3125 3.421875 40.984375 9.125 
Q 44.671875 14.84375 44.671875 25.984375 
Q 44.671875 37.109375 40.984375 42.796875 
Q 37.3125 48.484375 30.078125 48.484375 
Q 22.859375 48.484375 19.171875 42.796875 
Q 15.484375 37.109375 15.484375 25.984375 
Q 15.484375 14.84375 19.1875 9.125 
Q 22.90625 3.421875 30.078125 3.421875 
z
M 30.078125 -1.421875 
Q 18.75 -1.421875 11.859375 6.078125 
Q 4.984375 13.578125 4.984375 25.984375 
Q 4.984375 38.375 11.84375 45.84375 
Q 18.703125 53.328125 30.078125 53.328125 
Q 41.453125 53.328125 48.3125 45.84375 
Q 55.171875 38.375 55.171875 25.984375 
Q 55.171875 13.578125 48.3125 6.078125 
Q 41.453125 -1.421875 30.078125 -1.421875 
z
" id="DejaVuSerif-6f"/>
      <path d="M 20.515625 5.171875 
L 29 5.171875 
L 29 0 
L 2.875 0 
L 2.875 5.171875 
L 11.53125 5.171875 
L 11.53125 70.796875 
L 2.875 70.796875 
L 2.875 75.984375 
L 20.515625 75.984375 
z
" id="DejaVuSerif-6c"/>
      <path d="M 24.703125 5.171875 
L 33.796875 5.171875 
Q 48 5.171875 55.59375 13.28125 
Q 63.1875 21.390625 63.1875 36.53125 
Q 63.1875 51.65625 55.609375 59.65625 
Q 48.046875 67.671875 33.796875 67.671875 
L 24.703125 67.671875 
z
M 5.515625 0 
L 5.515625 5.171875 
L 14.796875 5.171875 
L 14.796875 67.671875 
L 5.515625 67.671875 
L 5.515625 72.90625 
L 34.515625 72.90625 
Q 53.375 72.90625 63.890625 63.28125 
Q 74.421875 53.65625 74.421875 36.53125 
Q 74.421875 19.34375 63.875 9.671875 
Q 53.328125 0 34.515625 0 
z
" id="DejaVuSerif-44"/>
      <path d="M 70.515625 19.28125 
Q 67.28125 9.078125 59.6875 3.828125 
Q 52.09375 -1.421875 40.484375 -1.421875 
Q 33.34375 -1.421875 27.234375 1.015625 
Q 21.140625 3.46875 16.40625 8.203125 
Q 10.9375 13.671875 8.265625 20.625 
Q 5.609375 27.59375 5.609375 36.375 
Q 5.609375 53.375 15.421875 63.796875 
Q 25.25 74.21875 41.3125 74.21875 
Q 47.265625 74.21875 54 72.65625 
Q 60.75 71.09375 68.5 67.921875 
L 68.5 51.125 
L 62.984375 51.125 
Q 61.1875 60.296875 55.734375 64.640625 
Q 50.296875 69 40.484375 69 
Q 28.8125 69 22.796875 60.71875 
Q 16.796875 52.4375 16.796875 36.375 
Q 16.796875 20.359375 22.796875 12.078125 
Q 28.8125 3.8125 40.484375 3.8125 
Q 48.640625 3.8125 53.90625 7.6875 
Q 59.1875 11.578125 61.53125 19.28125 
z
" id="DejaVuSerif-43"/>
     </defs>
     <g transform="translate(92.934803 51.330236)scale(0.06 -0.06)">
      <use transform="translate(0 0.015625)" xlink:href="#DejaVuSerif-73"/>
      <use transform="translate(51.318359 0.015625)" xlink:href="#DejaVuSerif-74"/>
      <use transform="translate(91.503906 0.015625)" xlink:href="#DejaVuSerif-69"/>
      <use transform="translate(155.094085 0.015625)" xlink:href="#DejaVuSerif-28"/>
      <use transform="translate(194.107757 0.015625)" xlink:href="#DejaVuSerif-64"/>
      <use transform="translate(258.121429 0.015625)" xlink:href="#DejaVuSerif-65"/>
      <use transform="translate(317.301116 0.015625)" xlink:href="#DejaVuSerif-70"/>
      <use transform="translate(381.314788 0.015625)" xlink:href="#DejaVuSerif-6f"/>
      <use transform="translate(441.519866 0.015625)" xlink:href="#DejaVuSerif-6c"/>
      <use transform="translate(473.502288 0.015625)" xlink:href="#DejaVuSerif-61"/>
      <use transform="translate(533.121429 0.015625)" xlink:href="#DejaVuSerif-72"/>
      <use transform="translate(580.924163 0.015625)" xlink:href="#DejaVuSerif-69"/>
      <use transform="translate(612.906585 0.015625)" xlink:href="#DejaVuSerif-7a"/>
      <use transform="translate(665.592132 0.015625)" xlink:href="#DejaVuSerif-69"/>
      <use transform="translate(697.574554 0.015625)" xlink:href="#DejaVuSerif-6e"/>
      <use transform="translate(761.978851 0.015625)" xlink:href="#DejaVuSerif-67"/>
      <use transform="translate(857.600279 0.015625)" xlink:href="#DejaVuSerif-44"/>
      <use transform="translate(937.776061 0.015625)" xlink:href="#DejaVuSerif-43"/>
      <use transform="translate(1014.289732 0.015625)" xlink:href="#DejaVuSerif-29"/>
     </g>
    </g>
   </g>
  </g>
  <g id="axes_2">
   <g id="patch_6">
    <path d="M 34.015748 120.472441 
L 161.574803 120.472441 
L 161.574803 63.779528 
L 34.015748 63.779528 
z
" style="fill:#ffffff;"/>
   </g>
   <g id="patch_7">
    <path clip-path="url(#pfc31d6ea47)" d="M 81.850394 120.472441 
L 81.850394 63.779528 
L 91.417323 63.779528 
L 91.417323 120.472441 
z
" style="fill:#bbdb88;opacity:0.2;stroke:#bbdb88;stroke-linejoin:miter;"/>
   </g>
   <g id="matplotlib.axis_3">
    <g id="xtick_1">
     <g id="line2d_9">
      <defs>
       <path d="M 0 0 
L 0 3.5 
" id="m7975a48600" style="stroke:#000000;stroke-width:0.8;"/>
      </defs>
      <g>
       <use style="stroke:#000000;stroke-width:0.8;" x="34.015748" xlink:href="#m7975a48600" y="120.472441"/>
      </g>
     </g>
     <g id="text_7">
      <!-- 0 -->
      <g transform="translate(32.106998 132.031503)scale(0.06 -0.06)">
       <use xlink:href="#DejaVuSerif-30"/>
      </g>
     </g>
    </g>
    <g id="xtick_2">
     <g id="line2d_10">
      <g>
       <use style="stroke:#000000;stroke-width:0.8;" x="65.905512" xlink:href="#m7975a48600" y="120.472441"/>
      </g>
     </g>
     <g id="text_8">
      <!-- 500 -->
      <g transform="translate(60.179262 132.031503)scale(0.06 -0.06)">
       <use xlink:href="#DejaVuSerif-35"/>
       <use x="63.623047" xlink:href="#DejaVuSerif-30"/>
       <use x="127.246094" xlink:href="#DejaVuSerif-30"/>
      </g>
     </g>
    </g>
    <g id="xtick_3">
     <g id="line2d_11">
      <g>
       <use style="stroke:#000000;stroke-width:0.8;" x="97.795276" xlink:href="#m7975a48600" y="120.472441"/>
      </g>
     </g>
     <g id="text_9">
      <!-- 1000 -->
      <g transform="translate(90.160276 132.031503)scale(0.06 -0.06)">
       <use xlink:href="#DejaVuSerif-31"/>
       <use x="63.623047" xlink:href="#DejaVuSerif-30"/>
       <use x="127.246094" xlink:href="#DejaVuSerif-30"/>
       <use x="190.869141" xlink:href="#DejaVuSerif-30"/>
      </g>
     </g>
    </g>
    <g id="xtick_4">
     <g id="line2d_12">
      <g>
       <use style="stroke:#000000;stroke-width:0.8;" x="129.685039" xlink:href="#m7975a48600" y="120.472441"/>
      </g>
     </g>
     <g id="text_10">
      <!-- 1500 -->
      <g transform="translate(122.050039 132.031503)scale(0.06 -0.06)">
       <use xlink:href="#DejaVuSerif-31"/>
       <use x="63.623047" xlink:href="#DejaVuSerif-35"/>
       <use x="127.246094" xlink:href="#DejaVuSerif-30"/>
       <use x="190.869141" xlink:href="#DejaVuSerif-30"/>
      </g>
     </g>
    </g>
    <g id="xtick_5">
     <g id="line2d_13">
      <g>
       <use style="stroke:#000000;stroke-width:0.8;" x="161.574803" xlink:href="#m7975a48600" y="120.472441"/>
      </g>
     </g>
     <g id="text_11">
      <!-- 2000 -->
      <defs>
       <path d="M 12.796875 55.515625 
L 7.328125 55.515625 
L 7.328125 68.5 
Q 12.546875 71.296875 17.84375 72.75 
Q 23.140625 74.21875 28.21875 74.21875 
Q 39.59375 74.21875 46.1875 68.703125 
Q 52.78125 63.1875 52.78125 53.71875 
Q 52.78125 43.015625 37.84375 28.125 
Q 36.671875 27 36.078125 26.421875 
L 17.671875 8.015625 
L 48.09375 8.015625 
L 48.09375 17 
L 53.8125 17 
L 53.8125 0 
L 6.78125 0 
L 6.78125 5.328125 
L 28.90625 27.390625 
Q 36.234375 34.71875 39.359375 40.84375 
Q 42.484375 46.96875 42.484375 53.71875 
Q 42.484375 61.078125 38.640625 65.234375 
Q 34.8125 69.390625 28.078125 69.390625 
Q 21.09375 69.390625 17.28125 65.921875 
Q 13.484375 62.453125 12.796875 55.515625 
z
" id="DejaVuSerif-32"/>
      </defs>
      <g transform="translate(153.939803 132.031503)scale(0.06 -0.06)">
       <use xlink:href="#DejaVuSerif-32"/>
       <use x="63.623047" xlink:href="#DejaVuSerif-30"/>
       <use x="127.246094" xlink:href="#DejaVuSerif-30"/>
       <use x="190.869141" xlink:href="#DejaVuSerif-30"/>
      </g>
     </g>
    </g>
    <g id="text_12">
     <!-- Time (s) -->
     <defs>
      <path d="M 19.09375 0 
L 19.09375 5.171875 
L 28.421875 5.171875 
L 28.421875 67.09375 
L 6.984375 67.09375 
L 6.984375 55.71875 
L 0.984375 55.71875 
L 0.984375 72.90625 
L 65.71875 72.90625 
L 65.71875 55.71875 
L 59.71875 55.71875 
L 59.71875 67.09375 
L 38.28125 67.09375 
L 38.28125 5.171875 
L 47.609375 5.171875 
L 47.609375 0 
z
" id="DejaVuSerif-54"/>
      <path d="M 51.8125 41.796875 
Q 54.390625 47.515625 58.421875 50.421875 
Q 62.453125 53.328125 67.828125 53.328125 
Q 75.984375 53.328125 79.984375 48.265625 
Q 83.984375 43.21875 83.984375 33.015625 
L 83.984375 5.171875 
L 92.09375 5.171875 
L 92.09375 0 
L 67.1875 0 
L 67.1875 5.171875 
L 75 5.171875 
L 75 31.984375 
Q 75 39.9375 72.65625 43.3125 
Q 70.3125 46.6875 64.890625 46.6875 
Q 58.890625 46.6875 55.734375 42.140625 
Q 52.59375 37.59375 52.59375 28.90625 
L 52.59375 5.171875 
L 60.40625 5.171875 
L 60.40625 0 
L 35.796875 0 
L 35.796875 5.171875 
L 43.609375 5.171875 
L 43.609375 32.328125 
Q 43.609375 40.09375 41.265625 43.390625 
Q 38.921875 46.6875 33.5 46.6875 
Q 27.484375 46.6875 24.328125 42.140625 
Q 21.1875 37.59375 21.1875 28.90625 
L 21.1875 5.171875 
L 29 5.171875 
L 29 0 
L 4.109375 0 
L 4.109375 5.171875 
L 12.203125 5.171875 
L 12.203125 46.78125 
L 3.609375 46.78125 
L 3.609375 51.90625 
L 21.1875 51.90625 
L 21.1875 42.671875 
Q 23.6875 47.859375 27.53125 50.59375 
Q 31.390625 53.328125 36.28125 53.328125 
Q 42.328125 53.328125 46.375 50.3125 
Q 50.4375 47.3125 51.8125 41.796875 
z
" id="DejaVuSerif-6d"/>
     </defs>
     <g transform="translate(81.242151 143.358066)scale(0.08 -0.08)">
      <use xlink:href="#DejaVuSerif-54"/>
      <use x="66.699219" xlink:href="#DejaVuSerif-69"/>
      <use x="98.681641" xlink:href="#DejaVuSerif-6d"/>
      <use x="193.505859" xlink:href="#DejaVuSerif-65"/>
      <use x="252.685547" xlink:href="#DejaVuSerif-20"/>
      <use x="284.472656" xlink:href="#DejaVuSerif-28"/>
      <use x="323.486328" xlink:href="#DejaVuSerif-73"/>
      <use x="374.804688" xlink:href="#DejaVuSerif-29"/>
     </g>
    </g>
   </g>
   <g id="matplotlib.axis_4">
    <g id="ytick_5">
     <g id="line2d_14">
      <g>
       <use style="stroke:#000000;stroke-width:0.8;" x="34.015748" xlink:href="#m45fa759b48" y="120.472441"/>
      </g>
     </g>
     <g id="text_13">
      <!-- 0.00 -->
      <defs>
       <path d="M 9.421875 5.078125 
Q 9.421875 7.8125 11.28125 9.71875 
Q 13.140625 11.625 15.921875 11.625 
Q 18.609375 11.625 20.5 9.71875 
Q 22.40625 7.8125 22.40625 5.078125 
Q 22.40625 2.390625 20.5 0.484375 
Q 18.609375 -1.421875 15.921875 -1.421875 
Q 13.140625 -1.421875 11.28125 0.453125 
Q 9.421875 2.34375 9.421875 5.078125 
z
" id="DejaVuSerif-2e"/>
      </defs>
      <g transform="translate(13.656373 122.751972)scale(0.06 -0.06)">
       <use xlink:href="#DejaVuSerif-30"/>
       <use x="63.623047" xlink:href="#DejaVuSerif-2e"/>
       <use x="95.410156" xlink:href="#DejaVuSerif-30"/>
       <use x="159.033203" xlink:href="#DejaVuSerif-30"/>
      </g>
     </g>
    </g>
    <g id="ytick_6">
     <g id="line2d_15">
      <g>
       <use style="stroke:#000000;stroke-width:0.8;" x="34.015748" xlink:href="#m45fa759b48" y="102.755906"/>
      </g>
     </g>
     <g id="text_14">
      <!-- 0.05 -->
      <g transform="translate(13.656373 105.035437)scale(0.06 -0.06)">
       <use xlink:href="#DejaVuSerif-30"/>
       <use x="63.623047" xlink:href="#DejaVuSerif-2e"/>
       <use x="95.410156" xlink:href="#DejaVuSerif-30"/>
       <use x="159.033203" xlink:href="#DejaVuSerif-35"/>
      </g>
     </g>
    </g>
    <g id="ytick_7">
     <g id="line2d_16">
      <g>
       <use style="stroke:#000000;stroke-width:0.8;" x="34.015748" xlink:href="#m45fa759b48" y="85.03937"/>
      </g>
     </g>
     <g id="text_15">
      <!-- 0.10 -->
      <g transform="translate(13.656373 87.318901)scale(0.06 -0.06)">
       <use xlink:href="#DejaVuSerif-30"/>
       <use x="63.623047" xlink:href="#DejaVuSerif-2e"/>
       <use x="95.410156" xlink:href="#DejaVuSerif-31"/>
       <use x="159.033203" xlink:href="#DejaVuSerif-30"/>
      </g>
     </g>
    </g>
    <g id="ytick_8">
     <g id="line2d_17">
      <g>
       <use style="stroke:#000000;stroke-width:0.8;" x="34.015748" xlink:href="#m45fa759b48" y="67.322835"/>
      </g>
     </g>
     <g id="text_16">
      <!-- 0.15 -->
      <g transform="translate(13.656373 69.602366)scale(0.06 -0.06)">
       <use xlink:href="#DejaVuSerif-30"/>
       <use x="63.623047" xlink:href="#DejaVuSerif-2e"/>
       <use x="95.410156" xlink:href="#DejaVuSerif-31"/>
       <use x="159.033203" xlink:href="#DejaVuSerif-35"/>
      </g>
     </g>
    </g>
    <g id="text_17">
     <!-- $\Gamma$ -->
     <defs>
      <path d="M 24.703125 5.171875 
L 36.375 5.171875 
L 36.375 0 
L 5.515625 0 
L 5.515625 5.171875 
L 14.796875 5.171875 
L 14.796875 67.671875 
L 5.515625 67.671875 
L 5.515625 72.90625 
L 65.1875 72.90625 
L 65.1875 56.640625 
L 59.1875 56.640625 
L 59.1875 66.890625 
L 24.703125 66.890625 
z
" id="DejaVuSerif-393"/>
     </defs>
     <g transform="translate(7.992623 94.925984)rotate(-90)scale(0.08 -0.08)">
      <use transform="translate(0 0.09375)" xlink:href="#DejaVuSerif-393"/>
     </g>
    </g>
   </g>
   <g id="line2d_18">
    <path clip-path="url(#pfc31d6ea47)" d="M 38.799213 112.380236 
L 43.582677 105.240827 
L 48.366142 98.95748 
L 53.149606 93.931299 
L 57.933071 90.700866 
L 62.716535 89.241378 
L 67.5 88.836732 
L 72.283465 88.754173 
L 77.066929 88.733268 
L 81.850394 88.745669 
L 82.32874 88.925315 
L 82.807087 89.377795 
L 83.285433 89.899724 
L 83.76378 90.429803 
L 84.242126 90.906732 
L 84.720472 91.323425 
L 85.198819 91.688031 
L 85.677165 91.99878 
L 86.155512 92.255315 
L 86.633858 92.479252 
L 87.112205 92.656063 
L 87.590551 92.803465 
L 88.068898 92.935984 
L 88.547244 93.035906 
L 89.025591 93.129449 
L 89.503937 93.197126 
L 89.982283 93.259488 
L 90.46063 93.320079 
L 90.938976 93.372874 
L 91.417323 93.428504 
L 91.895669 93.257362 
L 92.374016 92.614606 
L 92.852362 91.737283 
L 93.330709 90.794409 
L 93.809055 89.902559 
L 94.287402 89.11311 
L 94.765748 88.428189 
L 95.244094 87.834331 
L 95.722441 87.349252 
L 96.200787 86.932205 
L 96.679134 86.609055 
L 97.15748 86.347913 
L 97.635827 86.138504 
L 98.114173 85.957441 
L 98.59252 85.804724 
L 99.070866 85.691693 
L 99.549213 85.595315 
L 100.027559 85.524449 
L 100.505906 85.459252 
L 100.984252 85.407874 
L 101.462598 85.379528 
L 101.940945 85.363583 
L 102.419291 85.328858 
L 102.897638 85.301575 
L 103.375984 85.283858 
L 103.854331 85.283858 
L 104.332677 85.258701 
L 104.811024 85.245945 
L 105.28937 85.237441 
L 105.767717 85.234961 
L 106.246063 85.235669 
L 106.724409 85.230709 
L 107.202756 85.234252 
L 107.681102 85.24063 
L 108.159449 85.239567 
L 108.637795 85.23815 
L 109.116142 85.234961 
L 109.594488 85.231417 
L 110.072835 85.242047 
L 110.551181 85.264016 
L 111.029528 85.259055 
L 111.507874 85.268976 
L 111.98622 85.271102 
L 112.464567 85.280669 
L 112.942913 85.277835 
L 113.42126 85.269685 
L 113.899606 85.277126 
L 114.377953 85.285984 
L 114.856299 85.29874 
L 115.334646 85.294843 
L 115.812992 85.297677 
L 116.291339 85.287047 
L 116.769685 85.292008 
L 117.248031 85.283858 
L 117.726378 85.278543 
L 118.204724 85.287402 
L 118.683071 85.28315 
L 119.161417 85.273583 
L 119.639764 85.267913 
L 120.11811 85.268622 
L 124.901575 85.346929 
L 129.685039 85.43374 
L 134.468504 85.488307 
L 139.251969 85.519488 
L 144.035433 85.584331 
L 148.818898 85.616929 
L 153.602362 85.622598 
L 158.385827 85.656614 
L 163.169291 85.711535 
L 167.952756 85.752638 
L 171.07874 85.766763 
" style="fill:none;stroke:#007849;stroke-linecap:square;"/>
   </g>
   <g id="line2d_19">
    <path clip-path="url(#pfc31d6ea47)" d="M 38.799213 112.385748 
L 43.582677 105.215827 
L 48.366142 98.904528 
L 53.149606 93.881811 
L 57.933071 90.609567 
L 62.716535 89.149606 
L 67.5 88.738701 
L 72.283465 88.652441 
L 77.066929 88.628661 
L 81.850394 88.615748 
L 82.32874 88.709291 
L 82.807087 88.927559 
L 83.285433 89.191732 
L 83.76378 89.457402 
L 84.242126 89.704528 
L 84.720472 89.920591 
L 85.198819 90.104291 
L 85.677165 90.261535 
L 86.155512 90.401772 
L 86.633858 90.523661 
L 87.112205 90.623465 
L 87.590551 90.707087 
L 88.068898 90.771732 
L 88.547244 90.828189 
L 89.025591 90.879213 
L 89.503937 90.921732 
L 89.982283 90.958268 
L 90.46063 90.988898 
L 90.938976 91.013425 
L 91.417323 91.034488 
L 91.895669 90.981102 
L 92.374016 90.844882 
L 92.852362 90.685906 
L 93.330709 90.520748 
L 93.809055 90.360591 
L 94.287402 90.208228 
L 94.765748 90.064843 
L 95.244094 89.932992 
L 95.722441 89.810512 
L 96.200787 89.703228 
L 96.679134 89.60878 
L 97.15748 89.525866 
L 97.635827 89.450945 
L 98.114173 89.38748 
L 98.59252 89.332441 
L 99.070866 89.283425 
L 99.549213 89.24189 
L 100.027559 89.206181 
L 100.505906 89.175079 
L 100.984252 89.149646 
L 101.462598 89.127992 
L 101.940945 89.115433 
L 102.419291 89.10374 
L 102.897638 89.090354 
L 103.375984 89.079252 
L 103.854331 89.069252 
L 104.332677 89.063386 
L 104.811024 89.056024 
L 105.28937 89.047165 
L 105.767717 89.045315 
L 106.246063 89.043937 
L 106.724409 89.041496 
L 107.202756 89.040354 
L 107.681102 89.033937 
L 108.159449 89.028858 
L 108.637795 89.024803 
L 109.116142 89.020827 
L 109.594488 89.017953 
L 110.072835 89.01937 
L 110.551181 89.01878 
L 111.029528 89.022205 
L 111.507874 89.022205 
L 111.98622 89.023504 
L 112.464567 89.020315 
L 112.942913 89.01622 
L 113.42126 89.015787 
L 113.899606 89.013583 
L 114.377953 89.015906 
L 114.856299 89.011457 
L 115.334646 89.012047 
L 115.812992 89.007402 
L 116.291339 89.004961 
L 116.769685 89.001732 
L 117.248031 89.000394 
L 117.726378 88.998976 
L 118.204724 88.996181 
L 118.683071 88.993071 
L 119.161417 88.989803 
L 119.639764 88.987756 
L 120.11811 88.989646 
L 124.901575 88.986457 
L 129.685039 88.993031 
L 134.468504 88.990512 
L 139.251969 88.980433 
L 144.035433 88.990433 
L 148.818898 88.982874 
L 153.602362 88.973661 
L 158.385827 88.973307 
L 163.169291 88.972677 
L 167.952756 88.960748 
L 171.07874 88.945491 
" style="fill:none;stroke:#999999;stroke-linecap:square;"/>
   </g>
   <g id="line2d_20">
    <path clip-path="url(#pfc31d6ea47)" d="M 38.799213 112.374309 
L 43.582677 105.206562 
L 48.366142 98.898421 
L 53.149606 93.860595 
L 57.933071 90.59535 
L 62.716535 89.141789 
L 67.5 88.728941 
L 72.283465 88.642021 
L 77.066929 88.630818 
L 81.850394 88.621269 
L 82.32874 88.610888 
L 82.807087 88.585398 
L 83.285433 88.556142 
L 83.76378 88.526286 
L 84.242126 88.49671 
L 84.720472 88.470503 
L 85.198819 88.448683 
L 85.677165 88.430385 
L 86.155512 88.416177 
L 86.633858 88.404322 
L 87.112205 88.394199 
L 87.590551 88.38675 
L 88.068898 88.380901 
L 88.547244 88.376076 
L 89.025591 88.372905 
L 89.503937 88.369055 
L 89.982283 88.366684 
L 90.46063 88.363001 
L 90.938976 88.357983 
L 91.417323 88.353198 
L 91.895669 88.36049 
L 92.374016 88.381115 
L 92.852362 88.4036 
L 93.330709 88.426872 
L 93.809055 88.448683 
L 94.287402 88.470486 
L 94.765748 88.489532 
L 95.244094 88.504226 
L 95.722441 88.515144 
L 96.200787 88.526181 
L 96.679134 88.537712 
L 97.15748 88.547187 
L 97.635827 88.554318 
L 98.114173 88.559821 
L 98.59252 88.564388 
L 99.070866 88.566142 
L 99.549213 88.566907 
L 100.027559 88.567795 
L 100.505906 88.567262 
L 100.984252 88.566675 
L 101.462598 88.567349 
L 101.940945 88.568093 
L 102.419291 88.569703 
L 102.897638 88.570363 
L 103.375984 88.574379 
L 103.854331 88.576242 
L 104.332677 88.576951 
L 104.811024 88.577537 
L 105.28937 88.578718 
L 105.767717 88.581671 
L 106.246063 88.583486 
L 106.724409 88.583338 
L 107.202756 88.5836 
L 107.681102 88.584379 
L 108.159449 88.583946 
L 108.637795 88.581759 
L 109.116142 88.578198 
L 109.594488 88.576435 
L 110.072835 88.57514 
L 110.551181 88.574427 
L 111.029528 88.57615 
L 111.507874 88.575844 
L 111.98622 88.57584 
L 112.464567 88.575022 
L 112.942913 88.575774 
L 113.42126 88.578259 
L 113.899606 88.579615 
L 114.377953 88.581763 
L 114.856299 88.583145 
L 115.334646 88.583548 
L 115.812992 88.58308 
L 116.291339 88.584851 
L 116.769685 88.587095 
L 117.248031 88.587983 
L 117.726378 88.589458 
L 118.204724 88.590166 
L 118.683071 88.589694 
L 119.161417 88.590293 
L 119.639764 88.590061 
L 120.11811 88.590179 
L 124.901575 88.587135 
L 129.685039 88.590617 
L 134.468504 88.582782 
L 139.251969 88.586019 
L 144.035433 88.588093 
L 148.818898 88.591938 
L 153.602362 88.596347 
L 158.385827 88.592017 
L 163.169291 88.588395 
L 167.952756 88.59136 
L 171.07874 88.588067 
" style="fill:none;stroke:#4d4d4d;stroke-linecap:square;"/>
   </g>
   <g id="line2d_21">
    <defs>
     <path d="M 0 1.25 
C 0.331504 1.25 0.649475 1.118292 0.883883 0.883883 
C 1.118292 0.649475 1.25 0.331504 1.25 0 
C 1.25 -0.331504 1.118292 -0.649475 0.883883 -0.883883 
C 0.649475 -1.118292 0.331504 -1.25 0 -1.25 
C -0.331504 -1.25 -0.649475 -1.118292 -0.883883 -0.883883 
C -1.118292 -0.649475 -1.25 -0.331504 -1.25 0 
C -1.25 0.331504 -1.118292 0.649475 -0.883883 0.883883 
C -0.649475 1.118292 -0.331504 1.25 0 1.25 
z
" id="mdad9aa6b86" style="stroke:#353a90;"/>
    </defs>
    <g clip-path="url(#pfc31d6ea47)">
     <use style="fill:#353a90;stroke:#353a90;" x="81.850394" xlink:href="#mdad9aa6b86" y="88.745669"/>
    </g>
   </g>
   <g id="line2d_22">
    <g clip-path="url(#pfc31d6ea47)">
     <use style="fill:#353a90;stroke:#353a90;" x="91.895669" xlink:href="#mdad9aa6b86" y="93.257362"/>
    </g>
   </g>
   <g id="line2d_23">
    <g clip-path="url(#pfc31d6ea47)">
     <use style="fill:#353a90;stroke:#353a90;" x="100.984252" xlink:href="#mdad9aa6b86" y="85.407874"/>
    </g>
   </g>
   <g id="line2d_24">
    <g clip-path="url(#pfc31d6ea47)">
     <use style="fill:#353a90;stroke:#353a90;" x="129.685039" xlink:href="#mdad9aa6b86" y="85.43374"/>
    </g>
   </g>
   <g id="patch_8">
    <path d="M 34.015748 120.472441 
L 34.015748 63.779528 
" style="fill:none;stroke:#000000;stroke-linecap:square;stroke-linejoin:miter;stroke-width:0.8;"/>
   </g>
   <g id="patch_9">
    <path d="M 34.015748 120.472441 
L 161.574803 120.472441 
" style="fill:none;stroke:#000000;stroke-linecap:square;stroke-linejoin:miter;stroke-width:0.8;"/>
   </g>
   <g id="legend_2">
    <g id="line2d_25">
     <path d="M 117.234803 111.724628 
L 129.234803 111.724628 
" style="fill:none;stroke:#007849;stroke-linecap:square;"/>
    </g>
    <g id="line2d_26"/>
    <g id="text_18">
     <!-- $\mathrm{sti} \rightarrow \mathrm{sti}$ -->
     <defs>
      <path d="M 5.71875 36.28125 
L 68.609375 36.28125 
L 59.1875 52.734375 
L 59.71875 52.734375 
L 80.078125 32.5625 
L 80.078125 32.078125 
L 59.71875 11.921875 
L 59.1875 11.921875 
L 68.609375 28.375 
L 5.71875 28.375 
z
" id="DejaVuSerif-2192"/>
     </defs>
     <g transform="translate(134.034803 113.824628)scale(0.06 -0.06)">
      <use transform="translate(0 0.421875)" xlink:href="#DejaVuSerif-73"/>
      <use transform="translate(51.318359 0.421875)" xlink:href="#DejaVuSerif-74"/>
      <use transform="translate(91.503906 0.421875)" xlink:href="#DejaVuSerif-69"/>
      <use transform="translate(142.451172 0.421875)" xlink:href="#DejaVuSerif-2192"/>
      <use transform="translate(245.205078 0.421875)" xlink:href="#DejaVuSerif-73"/>
      <use transform="translate(296.523438 0.421875)" xlink:href="#DejaVuSerif-74"/>
      <use transform="translate(336.708984 0.421875)" xlink:href="#DejaVuSerif-69"/>
     </g>
    </g>
   </g>
  </g>
 </g>
 <defs>
  <clipPath id="pde4151ad1c">
   <rect height="56.692913" width="127.559055" x="34.015748" y="1.417323"/>
  </clipPath>
  <clipPath id="pfc31d6ea47">
   <rect height="56.692913" width="127.559055" x="34.015748" y="63.779528"/>
  </clipPath>
 </defs>
</svg>
