<?xml version="1.0" encoding="utf-8" standalone="no"?>
<!DOCTYPE svg PUBLIC "-//W3C//DTD SVG 1.1//EN"
  "http://www.w3.org/Graphics/SVG/1.1/DTD/svg11.dtd">
<!-- Created with matplotlib (http://matplotlib.org/) -->
<svg height="141.732283pt" version="1.1" viewBox="0 0 283.464567 141.732283" width="283.464567pt" xmlns="http://www.w3.org/2000/svg" xmlns:xlink="http://www.w3.org/1999/xlink">
 <defs>
  <style type="text/css">
*{stroke-linecap:butt;stroke-linejoin:round;}
  </style>
 </defs>
 <g id="figure_1">
  <g id="patch_1">
   <path d="M 0 141.732283 
L 283.464567 141.732283 
L 283.464567 0 
L 0 0 
z
" style="fill:#ffffff;"/>
  </g>
  <g id="axes_1">
   <g id="patch_2">
    <path d="M 42.519685 58.110236 
L 269.291339 58.110236 
L 269.291339 1.417323 
L 42.519685 1.417323 
z
" style="fill:#ffffff;"/>
   </g>
   <g id="patch_3">
    <path clip-path="url(#p437b7aa337)" d="M 148.818898 58.110236 
L 148.818898 1.417323 
L 170.07874 1.417323 
L 170.07874 58.110236 
z
" style="fill:#bbdb88;opacity:0.2;stroke:#bbdb88;stroke-linejoin:miter;"/>
   </g>
   <g id="patch_4">
    <path clip-path="url(#p437b7aa337)" d="M 170.07874 58.110236 
L 170.07874 1.417323 
L 191.338583 1.417323 
L 191.338583 58.110236 
z
" style="fill:#bfb1d3;opacity:0.2;stroke:#bfb1d3;stroke-linejoin:miter;"/>
   </g>
   <g id="matplotlib.axis_1"/>
   <g id="matplotlib.axis_2">
    <g id="ytick_1">
     <g id="line2d_1">
      <defs>
       <path d="M 0 0 
L -3.5 0 
" id="m18939e3689" style="stroke:#000000;stroke-width:0.8;"/>
      </defs>
      <g>
       <use style="stroke:#000000;stroke-width:0.8;" x="42.519685" xlink:href="#m18939e3689" y="58.110236"/>
      </g>
     </g>
     <g id="text_1">
      <!-- 0 -->
      <defs>
       <path d="M 31.78125 3.421875 
Q 39.265625 3.421875 42.96875 11.625 
Q 46.6875 19.828125 46.6875 36.375 
Q 46.6875 52.984375 42.96875 61.1875 
Q 39.265625 69.390625 31.78125 69.390625 
Q 24.3125 69.390625 20.59375 61.1875 
Q 16.890625 52.984375 16.890625 36.375 
Q 16.890625 19.828125 20.59375 11.625 
Q 24.3125 3.421875 31.78125 3.421875 
z
M 31.78125 -1.421875 
Q 19.921875 -1.421875 13.25 8.53125 
Q 6.59375 18.5 6.59375 36.375 
Q 6.59375 54.296875 13.25 64.25 
Q 19.921875 74.21875 31.78125 74.21875 
Q 43.703125 74.21875 50.34375 64.25 
Q 56.984375 54.296875 56.984375 36.375 
Q 56.984375 18.5 50.34375 8.53125 
Q 43.703125 -1.421875 31.78125 -1.421875 
z
" id="DejaVuSerif-30"/>
      </defs>
      <g transform="translate(31.702185 60.389767)scale(0.06 -0.06)">
       <use xlink:href="#DejaVuSerif-30"/>
      </g>
     </g>
    </g>
    <g id="ytick_2">
     <g id="line2d_2">
      <g>
       <use style="stroke:#000000;stroke-width:0.8;" x="42.519685" xlink:href="#m18939e3689" y="41.43585"/>
      </g>
     </g>
     <g id="text_2">
      <!-- 5 -->
      <defs>
       <path d="M 50.296875 72.90625 
L 50.296875 64.890625 
L 16.890625 64.890625 
L 16.890625 44 
Q 19.4375 45.75 22.828125 46.625 
Q 26.21875 47.515625 30.421875 47.515625 
Q 42.234375 47.515625 49.0625 40.96875 
Q 55.90625 34.421875 55.90625 23.09375 
Q 55.90625 11.53125 49 5.046875 
Q 42.09375 -1.421875 29.59375 -1.421875 
Q 24.5625 -1.421875 19.28125 -0.1875 
Q 14.015625 1.03125 8.5 3.515625 
L 8.5 17.671875 
L 14.015625 17.671875 
Q 14.453125 10.75 18.421875 7.078125 
Q 22.40625 3.421875 29.59375 3.421875 
Q 37.3125 3.421875 41.453125 8.5 
Q 45.609375 13.578125 45.609375 23.09375 
Q 45.609375 32.5625 41.484375 37.609375 
Q 37.359375 42.671875 29.59375 42.671875 
Q 25.203125 42.671875 21.84375 41.109375 
Q 18.5 39.546875 15.921875 36.28125 
L 11.71875 36.28125 
L 11.71875 72.90625 
z
" id="DejaVuSerif-35"/>
      </defs>
      <g transform="translate(31.702185 43.715381)scale(0.06 -0.06)">
       <use xlink:href="#DejaVuSerif-35"/>
      </g>
     </g>
    </g>
    <g id="ytick_3">
     <g id="line2d_3">
      <g>
       <use style="stroke:#000000;stroke-width:0.8;" x="42.519685" xlink:href="#m18939e3689" y="24.761464"/>
      </g>
     </g>
     <g id="text_3">
      <!-- 10 -->
      <defs>
       <path d="M 14.203125 0 
L 14.203125 5.171875 
L 26.90625 5.171875 
L 26.90625 65.828125 
L 12.203125 56.296875 
L 12.203125 62.703125 
L 29.984375 74.21875 
L 36.71875 74.21875 
L 36.71875 5.171875 
L 49.421875 5.171875 
L 49.421875 0 
z
" id="DejaVuSerif-31"/>
      </defs>
      <g transform="translate(27.884685 27.040995)scale(0.06 -0.06)">
       <use xlink:href="#DejaVuSerif-31"/>
       <use x="63.623047" xlink:href="#DejaVuSerif-30"/>
      </g>
     </g>
    </g>
    <g id="ytick_4">
     <g id="line2d_4">
      <g>
       <use style="stroke:#000000;stroke-width:0.8;" x="42.519685" xlink:href="#m18939e3689" y="8.087077"/>
      </g>
     </g>
     <g id="text_4">
      <!-- 15 -->
      <g transform="translate(27.884685 10.366609)scale(0.06 -0.06)">
       <use xlink:href="#DejaVuSerif-31"/>
       <use x="63.623047" xlink:href="#DejaVuSerif-35"/>
      </g>
     </g>
    </g>
    <g id="text_5">
     <!-- Firing rate (Hz) -->
     <defs>
      <path d="M 5.515625 0 
L 5.515625 5.171875 
L 14.796875 5.171875 
L 14.796875 67.671875 
L 5.515625 67.671875 
L 5.515625 72.90625 
L 65.1875 72.90625 
L 65.1875 56.6875 
L 59.1875 56.6875 
L 59.1875 66.890625 
L 24.703125 66.890625 
L 24.703125 42.484375 
L 49.609375 42.484375 
L 49.609375 51.609375 
L 55.609375 51.609375 
L 55.609375 27.390625 
L 49.609375 27.390625 
L 49.609375 36.53125 
L 24.703125 36.53125 
L 24.703125 5.171875 
L 36.375 5.171875 
L 36.375 0 
z
" id="DejaVuSerif-46"/>
      <path d="M 9.71875 68.015625 
Q 9.71875 70.265625 11.34375 71.921875 
Q 12.984375 73.578125 15.28125 73.578125 
Q 17.53125 73.578125 19.15625 71.921875 
Q 20.796875 70.265625 20.796875 68.015625 
Q 20.796875 65.71875 19.1875 64.109375 
Q 17.578125 62.5 15.28125 62.5 
Q 12.984375 62.5 11.34375 64.109375 
Q 9.71875 65.71875 9.71875 68.015625 
z
M 21.1875 5.171875 
L 29.6875 5.171875 
L 29.6875 0 
L 3.609375 0 
L 3.609375 5.171875 
L 12.203125 5.171875 
L 12.203125 46.6875 
L 3.609375 46.6875 
L 3.609375 51.90625 
L 21.1875 51.90625 
z
" id="DejaVuSerif-69"/>
      <path d="M 47.796875 52 
L 47.796875 39.015625 
L 42.625 39.015625 
Q 42.390625 42.875 40.484375 44.78125 
Q 38.578125 46.6875 34.90625 46.6875 
Q 28.265625 46.6875 24.71875 42.09375 
Q 21.1875 37.5 21.1875 28.90625 
L 21.1875 5.171875 
L 31.59375 5.171875 
L 31.59375 0 
L 4.109375 0 
L 4.109375 5.171875 
L 12.203125 5.171875 
L 12.203125 46.78125 
L 3.609375 46.78125 
L 3.609375 51.90625 
L 21.1875 51.90625 
L 21.1875 42.671875 
Q 23.828125 48.09375 27.96875 50.703125 
Q 32.125 53.328125 38.09375 53.328125 
Q 40.28125 53.328125 42.703125 52.984375 
Q 45.125 52.640625 47.796875 52 
z
" id="DejaVuSerif-72"/>
      <path d="M 4.109375 0 
L 4.109375 5.171875 
L 12.203125 5.171875 
L 12.203125 46.6875 
L 3.609375 46.6875 
L 3.609375 51.90625 
L 21.1875 51.90625 
L 21.1875 42.671875 
Q 23.6875 47.953125 27.65625 50.640625 
Q 31.640625 53.328125 36.921875 53.328125 
Q 45.515625 53.328125 49.5625 48.390625 
Q 53.609375 43.453125 53.609375 33.015625 
L 53.609375 5.171875 
L 61.625 5.171875 
L 61.625 0 
L 36.8125 0 
L 36.8125 5.171875 
L 44.578125 5.171875 
L 44.578125 30.171875 
Q 44.578125 39.703125 42.234375 43.234375 
Q 39.890625 46.78125 33.984375 46.78125 
Q 27.734375 46.78125 24.453125 42.203125 
Q 21.1875 37.640625 21.1875 28.90625 
L 21.1875 5.171875 
L 29 5.171875 
L 29 0 
z
" id="DejaVuSerif-6e"/>
      <path d="M 52.484375 46.6875 
L 52.484375 1.125 
Q 52.484375 -10.0625 46.328125 -16.140625 
Q 40.1875 -22.21875 28.8125 -22.21875 
Q 23.6875 -22.21875 19 -21.28125 
Q 14.3125 -20.359375 10.015625 -18.5 
L 10.015625 -7.625 
L 14.703125 -7.625 
Q 15.578125 -12.703125 18.84375 -15.046875 
Q 22.125 -17.390625 28.21875 -17.390625 
Q 36.140625 -17.390625 39.8125 -12.921875 
Q 43.5 -8.453125 43.5 1.125 
L 43.5 8.109375 
Q 40.875 3.21875 36.796875 0.890625 
Q 32.71875 -1.421875 26.703125 -1.421875 
Q 17.140625 -1.421875 11.0625 6.171875 
Q 4.984375 13.765625 4.984375 25.984375 
Q 4.984375 38.1875 11.03125 45.75 
Q 17.09375 53.328125 26.703125 53.328125 
Q 32.71875 53.328125 36.796875 51 
Q 40.875 48.6875 43.5 43.796875 
L 43.5 51.90625 
L 61.078125 51.90625 
L 61.078125 46.6875 
z
M 43.5 28.515625 
Q 43.5 37.84375 39.90625 42.765625 
Q 36.328125 47.703125 29.5 47.703125 
Q 22.5625 47.703125 19.015625 42.234375 
Q 15.484375 36.765625 15.484375 25.984375 
Q 15.484375 15.234375 19.015625 9.71875 
Q 22.5625 4.203125 29.5 4.203125 
Q 36.328125 4.203125 39.90625 9.109375 
Q 43.5 14.015625 43.5 23.390625 
z
" id="DejaVuSerif-67"/>
      <path id="DejaVuSerif-20"/>
      <path d="M 39.796875 16.3125 
L 39.796875 27.296875 
L 28.21875 27.296875 
Q 21.53125 27.296875 18.25 24.40625 
Q 14.984375 21.53125 14.984375 15.578125 
Q 14.984375 10.15625 18.296875 6.984375 
Q 21.625 3.8125 27.296875 3.8125 
Q 32.90625 3.8125 36.34375 7.28125 
Q 39.796875 10.75 39.796875 16.3125 
z
M 48.78125 32.421875 
L 48.78125 5.171875 
L 56.78125 5.171875 
L 56.78125 0 
L 39.796875 0 
L 39.796875 5.609375 
Q 36.8125 2 32.90625 0.28125 
Q 29 -1.421875 23.78125 -1.421875 
Q 15.140625 -1.421875 10.0625 3.171875 
Q 4.984375 7.765625 4.984375 15.578125 
Q 4.984375 23.640625 10.796875 28.078125 
Q 16.609375 32.515625 27.203125 32.515625 
L 39.796875 32.515625 
L 39.796875 36.078125 
Q 39.796875 42 36.203125 45.234375 
Q 32.625 48.484375 26.125 48.484375 
Q 20.75 48.484375 17.578125 46.046875 
Q 14.40625 43.609375 13.625 38.8125 
L 8.984375 38.8125 
L 8.984375 49.3125 
Q 13.671875 51.3125 18.09375 52.3125 
Q 22.515625 53.328125 26.703125 53.328125 
Q 37.5 53.328125 43.140625 47.96875 
Q 48.78125 42.625 48.78125 32.421875 
z
" id="DejaVuSerif-61"/>
      <path d="M 10.796875 46.6875 
L 2.875 46.6875 
L 2.875 51.90625 
L 10.796875 51.90625 
L 10.796875 68.015625 
L 19.828125 68.015625 
L 19.828125 51.90625 
L 36.71875 51.90625 
L 36.71875 46.6875 
L 19.828125 46.6875 
L 19.828125 13.71875 
Q 19.828125 7.125 21.09375 5.265625 
Q 22.359375 3.421875 25.78125 3.421875 
Q 29.296875 3.421875 30.90625 5.484375 
Q 32.515625 7.5625 32.625 12.203125 
L 39.40625 12.203125 
Q 39.015625 5.125 35.546875 1.84375 
Q 32.078125 -1.421875 25 -1.421875 
Q 17.234375 -1.421875 14.015625 2.015625 
Q 10.796875 5.46875 10.796875 13.71875 
z
" id="DejaVuSerif-74"/>
      <path d="M 54.203125 25 
L 15.484375 25 
L 15.484375 24.609375 
Q 15.484375 14.109375 19.4375 8.765625 
Q 23.390625 3.421875 31.109375 3.421875 
Q 37.015625 3.421875 40.796875 6.515625 
Q 44.578125 9.625 46.09375 15.71875 
L 53.328125 15.71875 
Q 51.171875 7.171875 45.375 2.875 
Q 39.59375 -1.421875 30.171875 -1.421875 
Q 18.796875 -1.421875 11.890625 6.078125 
Q 4.984375 13.578125 4.984375 25.984375 
Q 4.984375 38.28125 11.765625 45.796875 
Q 18.5625 53.328125 29.59375 53.328125 
Q 41.359375 53.328125 47.65625 46.0625 
Q 53.953125 38.8125 54.203125 25 
z
M 43.609375 30.171875 
Q 43.3125 39.265625 39.765625 43.875 
Q 36.234375 48.484375 29.59375 48.484375 
Q 23.390625 48.484375 19.828125 43.84375 
Q 16.265625 39.203125 15.484375 30.171875 
z
" id="DejaVuSerif-65"/>
      <path d="M 31.890625 -15.578125 
Q 20.015625 -10.25 13.953125 1.296875 
Q 7.90625 12.84375 7.90625 30.171875 
Q 7.90625 47.5625 13.953125 59.109375 
Q 20.015625 70.65625 31.890625 75.984375 
L 31.890625 71.1875 
Q 24.359375 66.015625 21.09375 56.609375 
Q 17.828125 47.21875 17.828125 30.171875 
Q 17.828125 13.1875 21.09375 3.78125 
Q 24.359375 -5.609375 31.890625 -10.796875 
z
" id="DejaVuSerif-28"/>
      <path d="M 5.515625 0 
L 5.515625 5.171875 
L 14.796875 5.171875 
L 14.796875 67.671875 
L 5.515625 67.671875 
L 5.515625 72.90625 
L 33.984375 72.90625 
L 33.984375 67.671875 
L 24.703125 67.671875 
L 24.703125 42.484375 
L 62.5 42.484375 
L 62.5 67.671875 
L 53.21875 67.671875 
L 53.21875 72.90625 
L 81.6875 72.90625 
L 81.6875 67.671875 
L 72.40625 67.671875 
L 72.40625 5.171875 
L 81.6875 5.171875 
L 81.6875 0 
L 53.21875 0 
L 53.21875 5.171875 
L 62.5 5.171875 
L 62.5 36.53125 
L 24.703125 36.53125 
L 24.703125 5.171875 
L 33.984375 5.171875 
L 33.984375 0 
z
" id="DejaVuSerif-48"/>
      <path d="M 4 0 
L 4 4.203125 
L 36.53125 46.6875 
L 10.796875 46.6875 
L 10.796875 37.703125 
L 5.609375 37.703125 
L 5.609375 51.90625 
L 48.09375 51.90625 
L 48.09375 47.703125 
L 15.578125 5.171875 
L 43.796875 5.171875 
L 43.796875 14.59375 
L 49.03125 14.59375 
L 49.03125 0 
z
" id="DejaVuSerif-7a"/>
      <path d="M 7.078125 -15.578125 
L 7.078125 -10.796875 
Q 14.59375 -5.609375 17.890625 3.78125 
Q 21.1875 13.1875 21.1875 30.171875 
Q 21.1875 47.21875 17.890625 56.609375 
Q 14.59375 66.015625 7.078125 71.1875 
L 7.078125 75.984375 
Q 19 70.65625 25.046875 59.109375 
Q 31.109375 47.5625 31.109375 30.171875 
Q 31.109375 12.84375 25.046875 1.296875 
Q 19 -10.25 7.078125 -15.578125 
z
" id="DejaVuSerif-29"/>
     </defs>
     <g transform="translate(22.107185 61.678155)rotate(-90)scale(0.08 -0.08)">
      <use xlink:href="#DejaVuSerif-46"/>
      <use x="69.384766" xlink:href="#DejaVuSerif-69"/>
      <use x="101.367188" xlink:href="#DejaVuSerif-72"/>
      <use x="149.169922" xlink:href="#DejaVuSerif-69"/>
      <use x="181.152344" xlink:href="#DejaVuSerif-6e"/>
      <use x="245.556641" xlink:href="#DejaVuSerif-67"/>
      <use x="309.570312" xlink:href="#DejaVuSerif-20"/>
      <use x="341.357422" xlink:href="#DejaVuSerif-72"/>
      <use x="389.160156" xlink:href="#DejaVuSerif-61"/>
      <use x="448.779297" xlink:href="#DejaVuSerif-74"/>
      <use x="488.964844" xlink:href="#DejaVuSerif-65"/>
      <use x="548.144531" xlink:href="#DejaVuSerif-20"/>
      <use x="579.931641" xlink:href="#DejaVuSerif-28"/>
      <use x="618.945312" xlink:href="#DejaVuSerif-48"/>
      <use x="706.152344" xlink:href="#DejaVuSerif-7a"/>
      <use x="758.837891" xlink:href="#DejaVuSerif-29"/>
     </g>
    </g>
   </g>
   <g id="line2d_5">
    <path clip-path="url(#p437b7aa337)" d="M 53.149606 50.12654 
L 63.779528 48.231624 
L 74.409449 45.517426 
L 85.03937 41.628331 
L 95.669291 36.668702 
L 106.299213 33.184187 
L 116.929134 31.905634 
L 127.559055 31.592469 
L 138.188976 31.503173 
L 148.818898 31.452169 
L 149.88189 31.451227 
L 150.944882 31.468333 
L 152.007874 31.41576 
L 153.070866 31.457819 
L 154.133858 31.503722 
L 155.19685 31.437182 
L 156.259843 31.437182 
L 157.322835 31.322854 
L 158.385827 31.448952 
L 159.448819 31.410346 
L 160.511811 31.374957 
L 161.574803 31.426432 
L 162.637795 31.395123 
L 163.700787 31.39167 
L 164.76378 31.483713 
L 165.826772 31.41984 
L 166.889764 31.380685 
L 167.952756 31.503801 
L 169.015748 31.541936 
L 170.07874 31.415211 
L 171.141732 31.519651 
L 172.204724 31.490854 
L 173.267717 31.597962 
L 174.330709 31.676116 
L 175.393701 31.747208 
L 176.456693 31.718724 
L 177.519685 31.677528 
L 178.582677 31.610909 
L 179.645669 31.568301 
L 180.708661 31.473041 
L 181.771654 31.19197 
L 182.834646 31.323796 
L 183.897638 31.305434 
L 184.96063 31.154541 
L 186.023622 31.329367 
L 187.086614 31.358243 
L 188.149606 31.339097 
L 189.212598 31.355654 
L 190.275591 31.400851 
L 191.338583 31.541544 
L 192.401575 30.105271 
L 193.464567 30.192606 
L 194.527559 30.583061 
L 195.590551 30.886574 
L 196.653543 31.038644 
L 197.716535 31.267064 
L 198.779528 31.313595 
L 199.84252 31.335488 
L 200.905512 31.525615 
L 201.968504 31.448246 
L 203.031496 31.796093 
L 204.094488 31.547821 
L 205.15748 31.624876 
L 206.220472 31.761253 
L 207.283465 31.710014 
L 208.346457 31.724609 
L 209.409449 31.736614 
L 210.472441 31.689691 
L 211.535433 31.512118 
L 212.598425 31.840663 
L 213.661417 31.52891 
L 214.724409 31.620247 
L 215.787402 31.629114 
L 216.850394 31.459702 
L 217.913386 31.461193 
L 218.976378 31.614283 
L 220.03937 31.474846 
L 221.102362 31.604632 
L 222.165354 31.500113 
L 223.228346 31.497366 
L 224.291339 31.525458 
L 225.354331 31.502859 
L 226.417323 31.543819 
L 227.480315 31.500505 
L 228.543307 31.559042 
L 229.606299 31.451384 
L 230.669291 31.297352 
L 231.732283 31.485047 
L 232.795276 31.545938 
L 233.858268 31.430512 
L 244.488189 31.342942 
L 255.11811 31.456406 
L 265.748031 31.403205 
L 276.377953 31.463547 
L 284.464567 31.487245 
" style="fill:none;stroke:#4d4d4d;stroke-linecap:square;"/>
   </g>
   <g id="line2d_6">
    <path clip-path="url(#p437b7aa337)" d="M 53.149606 50.202575 
L 63.779528 48.11094 
L 74.409449 45.361667 
L 85.03937 41.549236 
L 95.669291 36.55359 
L 106.299213 32.823863 
L 116.929134 31.834071 
L 127.559055 31.804724 
L 138.188976 31.488578 
L 148.818898 31.69534 
L 149.88189 21.896137 
L 150.944882 22.835239 
L 152.007874 23.560908 
L 153.070866 24.808152 
L 154.133858 25.747253 
L 155.19685 26.528949 
L 156.259843 27.609449 
L 157.322835 28.038981 
L 158.385827 28.733969 
L 159.448819 28.992756 
L 160.511811 29.665067 
L 161.574803 29.758444 
L 162.637795 30.340046 
L 163.700787 29.923854 
L 164.76378 30.438759 
L 165.826772 30.497453 
L 166.889764 30.706883 
L 167.952756 30.782918 
L 169.015748 31.024363 
L 170.07874 30.554812 
L 171.141732 39.422918 
L 172.204724 38.986716 
L 173.267717 38.72793 
L 174.330709 37.687448 
L 175.393701 37.149866 
L 176.456693 36.48956 
L 177.519685 35.755887 
L 178.582677 35.190292 
L 179.645669 34.324558 
L 180.708661 33.77497 
L 181.771654 33.368115 
L 182.834646 33.305419 
L 183.897638 32.719815 
L 184.96063 32.384993 
L 186.023622 32.351644 
L 187.086614 32.449023 
L 188.149606 32.316962 
L 189.212598 32.074182 
L 190.275591 32.075516 
L 191.338583 32.135544 
L 192.401575 30.082594 
L 193.464567 30.622844 
L 194.527559 30.62818 
L 195.590551 31.277814 
L 196.653543 30.908309 
L 197.716535 31.345845 
L 198.779528 31.15509 
L 199.84252 31.703344 
L 200.905512 31.700676 
L 201.968504 31.838073 
L 203.031496 31.489912 
L 204.094488 31.77271 
L 205.15748 31.86742 
L 206.220472 31.962131 
L 207.283465 31.791385 
L 208.346457 31.788717 
L 209.409449 31.409875 
L 210.472441 31.7527 
L 211.535433 31.476572 
L 212.598425 31.779379 
L 213.661417 31.7527 
L 214.724409 31.696674 
L 215.787402 31.637981 
L 216.850394 31.612635 
L 217.913386 31.351181 
L 218.976378 31.453895 
L 220.03937 31.631311 
L 221.102362 31.625975 
L 222.165354 31.508587 
L 223.228346 31.653988 
L 224.291339 31.6073 
L 225.354331 31.348513 
L 226.417323 31.878092 
L 227.480315 31.609968 
L 228.543307 31.308495 
L 229.606299 31.328504 
L 230.669291 31.299157 
L 231.732283 31.388532 
L 232.795276 31.395201 
L 233.858268 31.423214 
L 244.488189 31.524595 
L 255.11811 31.149755 
L 265.748031 31.323168 
L 276.377953 31.373858 
L 284.464567 31.301808 
" style="fill:none;stroke:#007849;stroke-linecap:square;"/>
   </g>
   <g id="line2d_7">
    <path clip-path="url(#p437b7aa337)" d="M 53.149606 50.073182 
L 63.779528 48.088263 
L 74.409449 45.703159 
L 85.03937 41.369152 
L 95.669291 36.748346 
L 106.299213 33.031959 
L 116.929134 32.030162 
L 127.559055 31.461899 
L 138.188976 31.28315 
L 148.818898 31.383196 
L 149.88189 31.341843 
L 150.944882 31.427216 
L 152.007874 31.561945 
L 153.070866 31.321834 
L 154.133858 31.457897 
L 155.19685 31.307161 
L 156.259843 31.508587 
L 157.322835 31.245799 
L 158.385827 31.367189 
L 159.448819 31.347179 
L 160.511811 31.227124 
L 161.574803 31.471237 
L 162.637795 31.49925 
L 163.700787 31.356517 
L 164.76378 31.471237 
L 165.826772 31.291153 
L 166.889764 31.11774 
L 167.952756 31.343177 
L 169.015748 31.834071 
L 170.07874 31.42855 
L 171.141732 4.130579 
L 172.204724 7.320056 
L 173.267717 11.017767 
L 174.330709 14.337971 
L 175.393701 17.153942 
L 176.456693 19.865864 
L 177.519685 22.026864 
L 178.582677 23.775674 
L 179.645669 24.549365 
L 180.708661 26.019379 
L 181.771654 27.106549 
L 182.834646 27.934933 
L 183.897638 28.600574 
L 184.96063 28.515201 
L 186.023622 29.059453 
L 187.086614 29.414284 
L 188.149606 30.207985 
L 189.212598 30.110607 
L 190.275591 30.448096 
L 191.338583 30.576156 
L 192.401575 47.289226 
L 193.464567 47.035776 
L 194.527559 46.15937 
L 195.590551 45.337656 
L 196.653543 44.353201 
L 197.716535 43.539491 
L 198.779528 42.262899 
L 199.84252 41.64528 
L 200.905512 40.460732 
L 201.968504 39.414914 
L 203.031496 38.699917 
L 204.094488 37.732802 
L 205.15748 36.520241 
L 206.220472 36.092043 
L 207.283465 35.439741 
L 208.346457 34.53799 
L 209.409449 34.240519 
L 210.472441 33.517517 
L 211.535433 32.878555 
L 212.598425 32.68113 
L 213.661417 32.359648 
L 214.724409 32.437017 
L 215.787402 32.426346 
L 216.850394 32.152886 
L 217.913386 31.591292 
L 218.976378 31.656656 
L 220.03937 31.776711 
L 221.102362 31.939453 
L 222.165354 31.65132 
L 223.228346 31.903437 
L 224.291339 31.268476 
L 225.354331 31.824734 
L 226.417323 31.207114 
L 227.480315 31.580621 
L 228.543307 31.397869 
L 229.606299 31.686003 
L 230.669291 31.629977 
L 231.732283 31.491246 
L 232.795276 31.312497 
L 233.858268 31.49925 
L 244.488189 31.247133 
L 255.11811 31.523261 
L 265.748031 30.983011 
L 276.377953 31.403205 
L 284.464567 31.487433 
" style="fill:none;stroke:#9681b7;stroke-linecap:square;"/>
   </g>
   <g id="line2d_8">
    <path clip-path="url(#p437b7aa337)" d="M 53.149606 50.118536 
L 63.779528 48.252339 
L 74.409449 45.541751 
L 85.03937 41.677295 
L 95.669291 36.735007 
L 106.299213 33.262733 
L 116.929134 32.028828 
L 127.559055 31.487244 
L 138.188976 31.469903 
L 148.818898 31.589958 
L 149.88189 22.008189 
L 150.944882 22.669829 
L 152.007874 23.579583 
L 153.070866 24.502677 
L 154.133858 25.972691 
L 155.19685 27.018509 
L 156.259843 27.62679 
L 157.322835 27.865567 
L 158.385827 28.05899 
L 159.448819 28.928726 
L 160.511811 29.238203 
L 161.574803 30.057249 
L 162.637795 30.107939 
L 163.700787 30.037239 
L 164.76378 30.597499 
L 165.826772 30.548143 
L 166.889764 30.79359 
L 167.952756 30.905642 
L 169.015748 30.842946 
L 170.07874 30.916313 
L 171.141732 16.269532 
L 172.204724 17.503437 
L 173.267717 19.59107 
L 174.330709 21.114442 
L 175.393701 23.036665 
L 176.456693 24.437314 
L 177.519685 25.016248 
L 178.582677 26.278166 
L 179.645669 27.02251 
L 180.708661 28.172376 
L 181.771654 28.499194 
L 182.834646 28.721964 
L 183.897638 29.251542 
L 184.96063 29.542344 
L 186.023622 29.925188 
L 187.086614 30.187976 
L 188.149606 30.288022 
L 189.212598 30.06792 
L 190.275591 30.789588 
L 191.338583 30.537471 
L 192.401575 47.431959 
L 193.464567 46.847689 
L 194.527559 46.015303 
L 195.590551 45.46038 
L 196.653543 44.617323 
L 197.716535 43.547494 
L 198.779528 42.639074 
L 199.84252 41.641278 
L 200.905512 40.803557 
L 201.968504 39.600333 
L 203.031496 38.625215 
L 204.094488 37.992923 
L 205.15748 36.880408 
L 206.220472 35.989328 
L 207.283465 35.206299 
L 208.346457 34.746086 
L 209.409449 34.059101 
L 210.472441 33.748291 
L 211.535433 32.850542 
L 212.598425 32.894562 
L 213.661417 32.657119 
L 214.724409 32.406336 
L 215.787402 32.294284 
L 216.850394 31.940787 
L 217.913386 31.960797 
L 218.976378 31.991478 
L 220.03937 31.799389 
L 221.102362 31.71535 
L 222.165354 31.417879 
L 223.228346 31.736693 
L 224.291339 31.742029 
L 225.354331 32.000815 
L 226.417323 31.248467 
L 227.480315 31.336508 
L 228.543307 31.363187 
L 229.606299 31.563279 
L 230.669291 31.589958 
L 231.732283 31.329838 
L 232.795276 31.491246 
L 233.858268 31.504585 
L 244.488189 31.255137 
L 255.11811 31.552608 
L 265.748031 31.37786 
L 276.377953 31.240463 
L 284.464567 31.351075 
" style="fill:none;stroke:#e97117;stroke-dasharray:3.7,1.6;stroke-dashoffset:0;"/>
   </g>
   <g id="patch_5">
    <path d="M 42.519685 58.110236 
L 42.519685 1.417323 
" style="fill:none;stroke:#000000;stroke-linecap:square;stroke-linejoin:miter;stroke-width:0.8;"/>
   </g>
   <g id="patch_6">
    <path d="M 42.519685 58.110236 
L 269.291339 58.110236 
" style="fill:none;stroke:#000000;stroke-linecap:square;stroke-linejoin:miter;stroke-width:0.8;"/>
   </g>
   <g id="text_6">
    <!-- DC -->
    <defs>
     <path d="M 24.703125 5.171875 
L 33.796875 5.171875 
Q 48 5.171875 55.59375 13.28125 
Q 63.1875 21.390625 63.1875 36.53125 
Q 63.1875 51.65625 55.609375 59.65625 
Q 48.046875 67.671875 33.796875 67.671875 
L 24.703125 67.671875 
z
M 5.515625 0 
L 5.515625 5.171875 
L 14.796875 5.171875 
L 14.796875 67.671875 
L 5.515625 67.671875 
L 5.515625 72.90625 
L 34.515625 72.90625 
Q 53.375 72.90625 63.890625 63.28125 
Q 74.421875 53.65625 74.421875 36.53125 
Q 74.421875 19.34375 63.875 9.671875 
Q 53.328125 0 34.515625 0 
z
" id="DejaVuSerif-44"/>
     <path d="M 70.515625 19.28125 
Q 67.28125 9.078125 59.6875 3.828125 
Q 52.09375 -1.421875 40.484375 -1.421875 
Q 33.34375 -1.421875 27.234375 1.015625 
Q 21.140625 3.46875 16.40625 8.203125 
Q 10.9375 13.671875 8.265625 20.625 
Q 5.609375 27.59375 5.609375 36.375 
Q 5.609375 53.375 15.421875 63.796875 
Q 25.25 74.21875 41.3125 74.21875 
Q 47.265625 74.21875 54 72.65625 
Q 60.75 71.09375 68.5 67.921875 
L 68.5 51.125 
L 62.984375 51.125 
Q 61.1875 60.296875 55.734375 64.640625 
Q 50.296875 69 40.484375 69 
Q 28.8125 69 22.796875 60.71875 
Q 16.796875 52.4375 16.796875 36.375 
Q 16.796875 20.359375 22.796875 12.078125 
Q 28.8125 3.8125 40.484375 3.8125 
Q 48.640625 3.8125 53.90625 7.6875 
Q 59.1875 11.578125 61.53125 19.28125 
z
" id="DejaVuSerif-43"/>
    </defs>
    <g transform="translate(155.531631 10.382111)scale(0.05 -0.05)">
     <use xlink:href="#DejaVuSerif-44"/>
     <use x="80.175781" xlink:href="#DejaVuSerif-43"/>
    </g>
   </g>
   <g id="text_7">
    <!-- ML -->
    <defs>
     <path d="M 5.515625 0 
L 5.515625 5.171875 
L 14.796875 5.171875 
L 14.796875 67.671875 
L 4.984375 67.671875 
L 4.984375 72.90625 
L 26.21875 72.90625 
L 51.8125 21 
L 77.390625 72.90625 
L 97.3125 72.90625 
L 97.3125 67.671875 
L 87.59375 67.671875 
L 87.59375 5.171875 
L 96.921875 5.171875 
L 96.921875 0 
L 68.40625 0 
L 68.40625 5.171875 
L 77.6875 5.171875 
L 77.6875 61.53125 
L 52.6875 10.6875 
L 45.796875 10.6875 
L 20.796875 61.53125 
L 20.796875 5.171875 
L 30.078125 5.171875 
L 30.078125 0 
z
" id="DejaVuSerif-4d"/>
     <path d="M 5.515625 0 
L 5.515625 5.171875 
L 14.796875 5.171875 
L 14.796875 67.671875 
L 5.515625 67.671875 
L 5.515625 72.90625 
L 33.984375 72.90625 
L 33.984375 67.671875 
L 24.703125 67.671875 
L 24.703125 6 
L 58.015625 6 
L 58.015625 18.21875 
L 64.015625 18.21875 
L 64.015625 0 
z
" id="DejaVuSerif-4c"/>
    </defs>
    <g transform="translate(179.748582 10.382111)scale(0.05 -0.05)">
     <use xlink:href="#DejaVuSerif-4d"/>
     <use x="102.392578" xlink:href="#DejaVuSerif-4c"/>
    </g>
   </g>
   <g id="legend_1">
    <g id="line2d_9">
     <path d="M 49.455118 11.945677 
L 61.455118 11.945677 
" style="fill:none;stroke:#4d4d4d;stroke-linecap:square;"/>
    </g>
    <g id="line2d_10"/>
    <g id="text_8">
     <!-- $\mathrm{exc}$ -->
     <defs>
      <path d="M 29.109375 31.6875 
L 39.984375 46.6875 
L 33.015625 46.6875 
L 33.015625 51.90625 
L 52.984375 51.90625 
L 52.984375 46.6875 
L 46.09375 46.6875 
L 32.171875 27.484375 
L 48.390625 5.171875 
L 55.171875 5.171875 
L 55.171875 0 
L 31.203125 0 
L 31.203125 5.171875 
L 37.796875 5.171875 
L 26.515625 20.703125 
L 15.1875 5.171875 
L 21.921875 5.171875 
L 21.921875 0 
L 2.203125 0 
L 2.203125 5.171875 
L 9.078125 5.171875 
L 23.390625 24.90625 
L 7.625 46.6875 
L 1.21875 46.6875 
L 1.21875 51.90625 
L 24.421875 51.90625 
L 24.421875 46.6875 
L 18.21875 46.6875 
z
" id="DejaVuSerif-78"/>
      <path d="M 51.421875 15.578125 
Q 49.515625 7.28125 44.09375 2.921875 
Q 38.671875 -1.421875 30.078125 -1.421875 
Q 18.75 -1.421875 11.859375 6.078125 
Q 4.984375 13.578125 4.984375 25.984375 
Q 4.984375 38.421875 11.859375 45.875 
Q 18.75 53.328125 30.078125 53.328125 
Q 35.015625 53.328125 39.890625 52.171875 
Q 44.78125 51.03125 49.703125 48.6875 
L 49.703125 35.40625 
L 44.484375 35.40625 
Q 43.453125 42.234375 40.015625 45.359375 
Q 36.578125 48.484375 30.171875 48.484375 
Q 22.90625 48.484375 19.1875 42.84375 
Q 15.484375 37.203125 15.484375 25.984375 
Q 15.484375 14.75 19.171875 9.078125 
Q 22.859375 3.421875 30.171875 3.421875 
Q 35.984375 3.421875 39.453125 6.4375 
Q 42.921875 9.46875 44.1875 15.578125 
z
" id="DejaVuSerif-63"/>
     </defs>
     <g transform="translate(66.255118 14.045677)scale(0.06 -0.06)">
      <use transform="translate(0 0.671875)" xlink:href="#DejaVuSerif-65"/>
      <use transform="translate(59.179688 0.671875)" xlink:href="#DejaVuSerif-78"/>
      <use transform="translate(115.576172 0.671875)" xlink:href="#DejaVuSerif-63"/>
     </g>
    </g>
    <g id="line2d_11">
     <path d="M 49.455118 20.752552 
L 61.455118 20.752552 
" style="fill:none;stroke:#007849;stroke-linecap:square;"/>
    </g>
    <g id="line2d_12"/>
    <g id="text_9">
     <!-- $\mathrm{sti}$ -->
     <defs>
      <path d="M 5.609375 2.875 
L 5.609375 14.984375 
L 10.796875 14.984375 
Q 10.984375 9.1875 14.421875 6.296875 
Q 17.875 3.421875 24.609375 3.421875 
Q 30.671875 3.421875 33.84375 5.6875 
Q 37.015625 7.953125 37.015625 12.3125 
Q 37.015625 15.71875 34.6875 17.8125 
Q 32.375 19.921875 24.90625 22.3125 
L 18.40625 24.515625 
Q 11.71875 26.65625 8.71875 29.875 
Q 5.71875 33.109375 5.71875 38.09375 
Q 5.71875 45.21875 10.9375 49.265625 
Q 16.15625 53.328125 25.390625 53.328125 
Q 29.5 53.328125 34.03125 52.25 
Q 38.578125 51.171875 43.40625 49.125 
L 43.40625 37.796875 
L 38.234375 37.796875 
Q 38.03125 42.828125 34.703125 45.65625 
Q 31.390625 48.484375 25.6875 48.484375 
Q 20.015625 48.484375 17.109375 46.484375 
Q 14.203125 44.484375 14.203125 40.484375 
Q 14.203125 37.203125 16.40625 35.21875 
Q 18.609375 33.25 25.203125 31.203125 
L 32.328125 29 
Q 39.703125 26.703125 42.9375 23.265625 
Q 46.1875 19.828125 46.1875 14.40625 
Q 46.1875 7.03125 40.546875 2.796875 
Q 34.90625 -1.421875 25 -1.421875 
Q 19.96875 -1.421875 15.1875 -0.34375 
Q 10.40625 0.734375 5.609375 2.875 
z
" id="DejaVuSerif-73"/>
     </defs>
     <g transform="translate(66.255118 22.852552)scale(0.06 -0.06)">
      <use transform="translate(0 0.421875)" xlink:href="#DejaVuSerif-73"/>
      <use transform="translate(51.318359 0.421875)" xlink:href="#DejaVuSerif-74"/>
      <use transform="translate(91.503906 0.421875)" xlink:href="#DejaVuSerif-69"/>
     </g>
    </g>
    <g id="line2d_13">
     <path d="M 80.40378 11.945677 
L 92.40378 11.945677 
" style="fill:none;stroke:#9681b7;stroke-linecap:square;"/>
    </g>
    <g id="line2d_14"/>
    <g id="text_10">
     <!-- $\mathrm{engram}$ -->
     <defs>
      <path d="M 51.8125 41.796875 
Q 54.390625 47.515625 58.421875 50.421875 
Q 62.453125 53.328125 67.828125 53.328125 
Q 75.984375 53.328125 79.984375 48.265625 
Q 83.984375 43.21875 83.984375 33.015625 
L 83.984375 5.171875 
L 92.09375 5.171875 
L 92.09375 0 
L 67.1875 0 
L 67.1875 5.171875 
L 75 5.171875 
L 75 31.984375 
Q 75 39.9375 72.65625 43.3125 
Q 70.3125 46.6875 64.890625 46.6875 
Q 58.890625 46.6875 55.734375 42.140625 
Q 52.59375 37.59375 52.59375 28.90625 
L 52.59375 5.171875 
L 60.40625 5.171875 
L 60.40625 0 
L 35.796875 0 
L 35.796875 5.171875 
L 43.609375 5.171875 
L 43.609375 32.328125 
Q 43.609375 40.09375 41.265625 43.390625 
Q 38.921875 46.6875 33.5 46.6875 
Q 27.484375 46.6875 24.328125 42.140625 
Q 21.1875 37.59375 21.1875 28.90625 
L 21.1875 5.171875 
L 29 5.171875 
L 29 0 
L 4.109375 0 
L 4.109375 5.171875 
L 12.203125 5.171875 
L 12.203125 46.78125 
L 3.609375 46.78125 
L 3.609375 51.90625 
L 21.1875 51.90625 
L 21.1875 42.671875 
Q 23.6875 47.859375 27.53125 50.59375 
Q 31.390625 53.328125 36.28125 53.328125 
Q 42.328125 53.328125 46.375 50.3125 
Q 50.4375 47.3125 51.8125 41.796875 
z
" id="DejaVuSerif-6d"/>
     </defs>
     <g transform="translate(97.20378 14.045677)scale(0.06 -0.06)">
      <use transform="translate(0 0.671875)" xlink:href="#DejaVuSerif-65"/>
      <use transform="translate(59.179688 0.671875)" xlink:href="#DejaVuSerif-6e"/>
      <use transform="translate(123.583984 0.671875)" xlink:href="#DejaVuSerif-67"/>
      <use transform="translate(187.597656 0.671875)" xlink:href="#DejaVuSerif-72"/>
      <use transform="translate(235.400391 0.671875)" xlink:href="#DejaVuSerif-61"/>
      <use transform="translate(295.019531 0.671875)" xlink:href="#DejaVuSerif-6d"/>
     </g>
    </g>
    <g id="line2d_15">
     <path d="M 80.40378 20.884739 
L 92.40378 20.884739 
" style="fill:none;stroke:#e97117;stroke-dasharray:3.7,1.6;stroke-dashoffset:0;"/>
    </g>
    <g id="line2d_16"/>
    <g id="text_11">
     <!-- $\mathrm{engram+sti}$ -->
     <defs>
      <path d="M 45.796875 62.703125 
L 45.796875 35.296875 
L 73.1875 35.296875 
L 73.1875 27.390625 
L 45.796875 27.390625 
L 45.796875 0 
L 37.984375 0 
L 37.984375 27.390625 
L 10.59375 27.390625 
L 10.59375 35.296875 
L 37.984375 35.296875 
L 37.984375 62.703125 
z
" id="DejaVuSerif-2b"/>
     </defs>
     <g transform="translate(97.20378 22.984739)scale(0.06 -0.06)">
      <use transform="translate(0 0.421875)" xlink:href="#DejaVuSerif-65"/>
      <use transform="translate(59.179688 0.421875)" xlink:href="#DejaVuSerif-6e"/>
      <use transform="translate(123.583984 0.421875)" xlink:href="#DejaVuSerif-67"/>
      <use transform="translate(187.597656 0.421875)" xlink:href="#DejaVuSerif-72"/>
      <use transform="translate(235.400391 0.421875)" xlink:href="#DejaVuSerif-61"/>
      <use transform="translate(295.019531 0.421875)" xlink:href="#DejaVuSerif-6d"/>
      <use transform="translate(408.808594 0.421875)" xlink:href="#DejaVuSerif-2b"/>
      <use transform="translate(511.5625 0.421875)" xlink:href="#DejaVuSerif-73"/>
      <use transform="translate(562.880859 0.421875)" xlink:href="#DejaVuSerif-74"/>
      <use transform="translate(603.066406 0.421875)" xlink:href="#DejaVuSerif-69"/>
     </g>
    </g>
   </g>
  </g>
  <g id="axes_2">
   <g id="patch_7">
    <path d="M 42.519685 120.472441 
L 269.291339 120.472441 
L 269.291339 63.779528 
L 42.519685 63.779528 
z
" style="fill:#ffffff;"/>
   </g>
   <g id="patch_8">
    <path clip-path="url(#pf8d160d76f)" d="M 148.818898 120.472441 
L 148.818898 63.779528 
L 170.07874 63.779528 
L 170.07874 120.472441 
z
" style="fill:#bbdb88;opacity:0.2;stroke:#bbdb88;stroke-linejoin:miter;"/>
   </g>
   <g id="patch_9">
    <path clip-path="url(#pf8d160d76f)" d="M 170.07874 120.472441 
L 170.07874 63.779528 
L 191.338583 63.779528 
L 191.338583 120.472441 
z
" style="fill:#bfb1d3;opacity:0.2;stroke:#bfb1d3;stroke-linejoin:miter;"/>
   </g>
   <g id="matplotlib.axis_3">
    <g id="xtick_1">
     <g id="line2d_17">
      <defs>
       <path d="M 0 0 
L 0 3.5 
" id="m61fbe5f7b8" style="stroke:#000000;stroke-width:0.8;"/>
      </defs>
      <g>
       <use style="stroke:#000000;stroke-width:0.8;" x="42.519685" xlink:href="#m61fbe5f7b8" y="120.472441"/>
      </g>
     </g>
     <g id="text_12">
      <!-- 0 -->
      <g transform="translate(40.610935 132.031503)scale(0.06 -0.06)">
       <use xlink:href="#DejaVuSerif-30"/>
      </g>
     </g>
    </g>
    <g id="xtick_2">
     <g id="line2d_18">
      <g>
       <use style="stroke:#000000;stroke-width:0.8;" x="70.866142" xlink:href="#m61fbe5f7b8" y="120.472441"/>
      </g>
     </g>
     <g id="text_13">
      <!-- 200 -->
      <defs>
       <path d="M 12.796875 55.515625 
L 7.328125 55.515625 
L 7.328125 68.5 
Q 12.546875 71.296875 17.84375 72.75 
Q 23.140625 74.21875 28.21875 74.21875 
Q 39.59375 74.21875 46.1875 68.703125 
Q 52.78125 63.1875 52.78125 53.71875 
Q 52.78125 43.015625 37.84375 28.125 
Q 36.671875 27 36.078125 26.421875 
L 17.671875 8.015625 
L 48.09375 8.015625 
L 48.09375 17 
L 53.8125 17 
L 53.8125 0 
L 6.78125 0 
L 6.78125 5.328125 
L 28.90625 27.390625 
Q 36.234375 34.71875 39.359375 40.84375 
Q 42.484375 46.96875 42.484375 53.71875 
Q 42.484375 61.078125 38.640625 65.234375 
Q 34.8125 69.390625 28.078125 69.390625 
Q 21.09375 69.390625 17.28125 65.921875 
Q 13.484375 62.453125 12.796875 55.515625 
z
" id="DejaVuSerif-32"/>
      </defs>
      <g transform="translate(65.139892 132.031503)scale(0.06 -0.06)">
       <use xlink:href="#DejaVuSerif-32"/>
       <use x="63.623047" xlink:href="#DejaVuSerif-30"/>
       <use x="127.246094" xlink:href="#DejaVuSerif-30"/>
      </g>
     </g>
    </g>
    <g id="xtick_3">
     <g id="line2d_19">
      <g>
       <use style="stroke:#000000;stroke-width:0.8;" x="99.212598" xlink:href="#m61fbe5f7b8" y="120.472441"/>
      </g>
     </g>
     <g id="text_14">
      <!-- 400 -->
      <defs>
       <path d="M 34.90625 24.703125 
L 34.90625 63.484375 
L 10.015625 24.703125 
z
M 56.390625 0 
L 23.1875 0 
L 23.1875 5.171875 
L 34.90625 5.171875 
L 34.90625 19.484375 
L 3.078125 19.484375 
L 3.078125 24.8125 
L 35.015625 74.21875 
L 44.671875 74.21875 
L 44.671875 24.703125 
L 58.59375 24.703125 
L 58.59375 19.484375 
L 44.671875 19.484375 
L 44.671875 5.171875 
L 56.390625 5.171875 
z
" id="DejaVuSerif-34"/>
      </defs>
      <g transform="translate(93.486348 132.031503)scale(0.06 -0.06)">
       <use xlink:href="#DejaVuSerif-34"/>
       <use x="63.623047" xlink:href="#DejaVuSerif-30"/>
       <use x="127.246094" xlink:href="#DejaVuSerif-30"/>
      </g>
     </g>
    </g>
    <g id="xtick_4">
     <g id="line2d_20">
      <g>
       <use style="stroke:#000000;stroke-width:0.8;" x="127.559055" xlink:href="#m61fbe5f7b8" y="120.472441"/>
      </g>
     </g>
     <g id="text_15">
      <!-- 600 -->
      <defs>
       <path d="M 32.71875 3.421875 
Q 39.59375 3.421875 43.296875 8.46875 
Q 47.015625 13.53125 47.015625 23 
Q 47.015625 32.46875 43.296875 37.515625 
Q 39.59375 42.578125 32.71875 42.578125 
Q 25.734375 42.578125 22.0625 37.6875 
Q 18.40625 32.8125 18.40625 23.578125 
Q 18.40625 13.875 22.109375 8.640625 
Q 25.828125 3.421875 32.71875 3.421875 
z
M 16.796875 40.140625 
Q 20.125 43.796875 24.3125 45.59375 
Q 28.515625 47.40625 33.796875 47.40625 
Q 44.671875 47.40625 51 40.859375 
Q 57.328125 34.328125 57.328125 23 
Q 57.328125 11.921875 50.515625 5.25 
Q 43.703125 -1.421875 32.328125 -1.421875 
Q 19.96875 -1.421875 13.328125 7.78125 
Q 6.6875 17 6.6875 34.078125 
Q 6.6875 53.21875 14.546875 63.71875 
Q 22.40625 74.21875 36.71875 74.21875 
Q 40.578125 74.21875 44.828125 73.484375 
Q 49.078125 72.75 53.515625 71.296875 
L 53.515625 59.28125 
L 48 59.28125 
Q 47.40625 64.203125 44.234375 66.796875 
Q 41.0625 69.390625 35.6875 69.390625 
Q 26.21875 69.390625 21.578125 62.203125 
Q 16.9375 55.03125 16.796875 40.140625 
z
" id="DejaVuSerif-36"/>
      </defs>
      <g transform="translate(121.832805 132.031503)scale(0.06 -0.06)">
       <use xlink:href="#DejaVuSerif-36"/>
       <use x="63.623047" xlink:href="#DejaVuSerif-30"/>
       <use x="127.246094" xlink:href="#DejaVuSerif-30"/>
      </g>
     </g>
    </g>
    <g id="xtick_5">
     <g id="line2d_21">
      <g>
       <use style="stroke:#000000;stroke-width:0.8;" x="155.905512" xlink:href="#m61fbe5f7b8" y="120.472441"/>
      </g>
     </g>
     <g id="text_16">
      <!-- 800 -->
      <defs>
       <path d="M 46.578125 19.921875 
Q 46.578125 27.734375 42.6875 32.046875 
Q 38.8125 36.375 31.78125 36.375 
Q 24.75 36.375 20.875 32.046875 
Q 17 27.734375 17 19.921875 
Q 17 12.0625 20.875 7.734375 
Q 24.75 3.421875 31.78125 3.421875 
Q 38.8125 3.421875 42.6875 7.734375 
Q 46.578125 12.0625 46.578125 19.921875 
z
M 44.578125 55.328125 
Q 44.578125 61.96875 41.203125 65.671875 
Q 37.84375 69.390625 31.78125 69.390625 
Q 25.78125 69.390625 22.390625 65.671875 
Q 19 61.96875 19 55.328125 
Q 19 48.640625 22.390625 44.921875 
Q 25.78125 41.21875 31.78125 41.21875 
Q 37.84375 41.21875 41.203125 44.921875 
Q 44.578125 48.640625 44.578125 55.328125 
z
M 39.3125 38.8125 
Q 47.609375 37.703125 52.25 32.6875 
Q 56.890625 27.6875 56.890625 19.921875 
Q 56.890625 9.671875 50.390625 4.125 
Q 43.890625 -1.421875 31.78125 -1.421875 
Q 19.734375 -1.421875 13.203125 4.125 
Q 6.6875 9.671875 6.6875 19.921875 
Q 6.6875 27.6875 11.328125 32.6875 
Q 15.96875 37.703125 24.3125 38.8125 
Q 16.9375 40.140625 13 44.40625 
Q 9.078125 48.6875 9.078125 55.328125 
Q 9.078125 64.109375 15.125 69.15625 
Q 21.1875 74.21875 31.78125 74.21875 
Q 42.390625 74.21875 48.4375 69.15625 
Q 54.5 64.109375 54.5 55.328125 
Q 54.5 48.6875 50.5625 44.40625 
Q 46.625 40.140625 39.3125 38.8125 
z
" id="DejaVuSerif-38"/>
      </defs>
      <g transform="translate(150.179262 132.031503)scale(0.06 -0.06)">
       <use xlink:href="#DejaVuSerif-38"/>
       <use x="63.623047" xlink:href="#DejaVuSerif-30"/>
       <use x="127.246094" xlink:href="#DejaVuSerif-30"/>
      </g>
     </g>
    </g>
    <g id="xtick_6">
     <g id="line2d_22">
      <g>
       <use style="stroke:#000000;stroke-width:0.8;" x="184.251969" xlink:href="#m61fbe5f7b8" y="120.472441"/>
      </g>
     </g>
     <g id="text_17">
      <!-- 1000 -->
      <g transform="translate(176.616969 132.031503)scale(0.06 -0.06)">
       <use xlink:href="#DejaVuSerif-31"/>
       <use x="63.623047" xlink:href="#DejaVuSerif-30"/>
       <use x="127.246094" xlink:href="#DejaVuSerif-30"/>
       <use x="190.869141" xlink:href="#DejaVuSerif-30"/>
      </g>
     </g>
    </g>
    <g id="xtick_7">
     <g id="line2d_23">
      <g>
       <use style="stroke:#000000;stroke-width:0.8;" x="212.598425" xlink:href="#m61fbe5f7b8" y="120.472441"/>
      </g>
     </g>
     <g id="text_18">
      <!-- 1200 -->
      <g transform="translate(204.963425 132.031503)scale(0.06 -0.06)">
       <use xlink:href="#DejaVuSerif-31"/>
       <use x="63.623047" xlink:href="#DejaVuSerif-32"/>
       <use x="127.246094" xlink:href="#DejaVuSerif-30"/>
       <use x="190.869141" xlink:href="#DejaVuSerif-30"/>
      </g>
     </g>
    </g>
    <g id="xtick_8">
     <g id="line2d_24">
      <g>
       <use style="stroke:#000000;stroke-width:0.8;" x="240.944882" xlink:href="#m61fbe5f7b8" y="120.472441"/>
      </g>
     </g>
     <g id="text_19">
      <!-- 1400 -->
      <g transform="translate(233.309882 132.031503)scale(0.06 -0.06)">
       <use xlink:href="#DejaVuSerif-31"/>
       <use x="63.623047" xlink:href="#DejaVuSerif-34"/>
       <use x="127.246094" xlink:href="#DejaVuSerif-30"/>
       <use x="190.869141" xlink:href="#DejaVuSerif-30"/>
      </g>
     </g>
    </g>
    <g id="xtick_9">
     <g id="line2d_25">
      <g>
       <use style="stroke:#000000;stroke-width:0.8;" x="269.291339" xlink:href="#m61fbe5f7b8" y="120.472441"/>
      </g>
     </g>
     <g id="text_20">
      <!-- 1600 -->
      <g transform="translate(261.656339 132.031503)scale(0.06 -0.06)">
       <use xlink:href="#DejaVuSerif-31"/>
       <use x="63.623047" xlink:href="#DejaVuSerif-36"/>
       <use x="127.246094" xlink:href="#DejaVuSerif-30"/>
       <use x="190.869141" xlink:href="#DejaVuSerif-30"/>
      </g>
     </g>
    </g>
    <g id="text_21">
     <!-- Time (s) -->
     <defs>
      <path d="M 19.09375 0 
L 19.09375 5.171875 
L 28.421875 5.171875 
L 28.421875 67.09375 
L 6.984375 67.09375 
L 6.984375 55.71875 
L 0.984375 55.71875 
L 0.984375 72.90625 
L 65.71875 72.90625 
L 65.71875 55.71875 
L 59.71875 55.71875 
L 59.71875 67.09375 
L 38.28125 67.09375 
L 38.28125 5.171875 
L 47.609375 5.171875 
L 47.609375 0 
z
" id="DejaVuSerif-54"/>
     </defs>
     <g transform="translate(139.352387 143.358066)scale(0.08 -0.08)">
      <use xlink:href="#DejaVuSerif-54"/>
      <use x="66.699219" xlink:href="#DejaVuSerif-69"/>
      <use x="98.681641" xlink:href="#DejaVuSerif-6d"/>
      <use x="193.505859" xlink:href="#DejaVuSerif-65"/>
      <use x="252.685547" xlink:href="#DejaVuSerif-20"/>
      <use x="284.472656" xlink:href="#DejaVuSerif-28"/>
      <use x="323.486328" xlink:href="#DejaVuSerif-73"/>
      <use x="374.804688" xlink:href="#DejaVuSerif-29"/>
     </g>
    </g>
   </g>
   <g id="matplotlib.axis_4">
    <g id="ytick_5">
     <g id="line2d_26">
      <g>
       <use style="stroke:#000000;stroke-width:0.8;" x="42.519685" xlink:href="#m18939e3689" y="109.133858"/>
      </g>
     </g>
     <g id="text_22">
      <!-- 0.05 -->
      <defs>
       <path d="M 9.421875 5.078125 
Q 9.421875 7.8125 11.28125 9.71875 
Q 13.140625 11.625 15.921875 11.625 
Q 18.609375 11.625 20.5 9.71875 
Q 22.40625 7.8125 22.40625 5.078125 
Q 22.40625 2.390625 20.5 0.484375 
Q 18.609375 -1.421875 15.921875 -1.421875 
Q 13.140625 -1.421875 11.28125 0.453125 
Q 9.421875 2.34375 9.421875 5.078125 
z
" id="DejaVuSerif-2e"/>
      </defs>
      <g transform="translate(22.16031 111.41339)scale(0.06 -0.06)">
       <use xlink:href="#DejaVuSerif-30"/>
       <use x="63.623047" xlink:href="#DejaVuSerif-2e"/>
       <use x="95.410156" xlink:href="#DejaVuSerif-30"/>
       <use x="159.033203" xlink:href="#DejaVuSerif-35"/>
      </g>
     </g>
    </g>
    <g id="ytick_6">
     <g id="line2d_27">
      <g>
       <use style="stroke:#000000;stroke-width:0.8;" x="42.519685" xlink:href="#m18939e3689" y="90.23622"/>
      </g>
     </g>
     <g id="text_23">
      <!-- 0.10 -->
      <g transform="translate(22.16031 92.515752)scale(0.06 -0.06)">
       <use xlink:href="#DejaVuSerif-30"/>
       <use x="63.623047" xlink:href="#DejaVuSerif-2e"/>
       <use x="95.410156" xlink:href="#DejaVuSerif-31"/>
       <use x="159.033203" xlink:href="#DejaVuSerif-30"/>
      </g>
     </g>
    </g>
    <g id="ytick_7">
     <g id="line2d_28">
      <g>
       <use style="stroke:#000000;stroke-width:0.8;" x="42.519685" xlink:href="#m18939e3689" y="71.338583"/>
      </g>
     </g>
     <g id="text_24">
      <!-- 0.15 -->
      <g transform="translate(22.16031 73.618114)scale(0.06 -0.06)">
       <use xlink:href="#DejaVuSerif-30"/>
       <use x="63.623047" xlink:href="#DejaVuSerif-2e"/>
       <use x="95.410156" xlink:href="#DejaVuSerif-31"/>
       <use x="159.033203" xlink:href="#DejaVuSerif-35"/>
      </g>
     </g>
    </g>
    <g id="text_25">
     <!-- $\Gamma$ -->
     <defs>
      <path d="M 24.703125 5.171875 
L 36.375 5.171875 
L 36.375 0 
L 5.515625 0 
L 5.515625 5.171875 
L 14.796875 5.171875 
L 14.796875 67.671875 
L 5.515625 67.671875 
L 5.515625 72.90625 
L 65.1875 72.90625 
L 65.1875 56.640625 
L 59.1875 56.640625 
L 59.1875 66.890625 
L 24.703125 66.890625 
z
" id="DejaVuSerif-393"/>
     </defs>
     <g transform="translate(16.49656 94.925984)rotate(-90)scale(0.08 -0.08)">
      <use transform="translate(0 0.09375)" xlink:href="#DejaVuSerif-393"/>
     </g>
    </g>
   </g>
   <g id="line2d_29">
    <path clip-path="url(#pf8d160d76f)" d="M 53.149606 119.394457 
L 63.779528 111.747973 
L 74.409449 105.018871 
L 85.03937 99.644121 
L 95.669291 96.161044 
L 106.299213 94.611171 
L 116.929134 94.168697 
L 127.559055 94.078302 
L 138.188976 94.067103 
L 148.818898 94.056169 
L 149.88189 94.044948 
L 150.944882 94.017328 
L 152.007874 93.98604 
L 153.070866 93.954078 
L 154.133858 93.921906 
L 155.19685 93.893563 
L 156.259843 93.870394 
L 157.322835 93.851076 
L 158.385827 93.83578 
L 159.448819 93.823005 
L 160.511811 93.812014 
L 161.574803 93.804 
L 162.637795 93.798052 
L 163.700787 93.792942 
L 164.76378 93.790038 
L 165.826772 93.786089 
L 166.889764 93.783824 
L 167.952756 93.779424 
L 169.015748 93.773639 
L 170.07874 93.76892 
L 171.141732 93.745437 
L 172.204724 93.694135 
L 173.267717 93.634798 
L 174.330709 93.57296 
L 175.393701 93.514826 
L 176.456693 93.460694 
L 177.519685 93.412122 
L 178.582677 93.372841 
L 179.645669 93.339215 
L 180.708661 93.311762 
L 181.771654 93.291774 
L 182.834646 93.280066 
L 183.897638 93.272685 
L 184.96063 93.268526 
L 186.023622 93.268521 
L 187.086614 93.268171 
L 188.149606 93.267831 
L 189.212598 93.268945 
L 190.275591 93.270127 
L 191.338583 93.268872 
L 192.401575 93.302116 
L 193.464567 93.372867 
L 194.527559 93.453804 
L 195.590551 93.529295 
L 196.653543 93.594989 
L 197.716535 93.65249 
L 198.779528 93.696845 
L 199.84252 93.736267 
L 200.905512 93.767523 
L 201.968504 93.792926 
L 203.031496 93.814196 
L 204.094488 93.829701 
L 205.15748 93.843156 
L 206.220472 93.852917 
L 207.283465 93.857897 
L 208.346457 93.8618 
L 209.409449 93.862663 
L 210.472441 93.85955 
L 211.535433 93.857939 
L 212.598425 93.856019 
L 213.661417 93.852195 
L 214.724409 93.849302 
L 215.787402 93.84654 
L 216.850394 93.84415 
L 217.913386 93.842847 
L 218.976378 93.841048 
L 220.03937 93.83862 
L 221.102362 93.835419 
L 222.165354 93.831647 
L 223.228346 93.829387 
L 224.291339 93.827237 
L 225.354331 93.823643 
L 226.417323 93.820301 
L 227.480315 93.817455 
L 228.543307 93.815546 
L 229.606299 93.813118 
L 230.669291 93.813683 
L 231.732283 93.81316 
L 232.795276 93.811225 
L 233.858268 93.809399 
L 244.488189 93.819725 
L 255.11811 93.825103 
L 265.748031 93.826228 
L 276.377953 93.828006 
L 284.464567 93.834728 
" style="fill:none;stroke:#4d4d4d;stroke-linecap:square;"/>
   </g>
   <g id="line2d_30">
    <path clip-path="url(#pf8d160d76f)" d="M 53.149606 119.386961 
L 63.779528 111.874772 
L 74.409449 105.287811 
L 85.03937 99.958677 
L 95.669291 96.360567 
L 106.299213 94.758047 
L 116.929134 94.322646 
L 127.559055 94.236472 
L 138.188976 94.254614 
L 148.818898 94.316598 
L 149.88189 94.519181 
L 150.944882 95.009008 
L 152.007874 95.562331 
L 153.070866 96.154961 
L 154.133858 96.653858 
L 155.19685 97.08926 
L 156.259843 97.503496 
L 157.322835 97.784693 
L 158.385827 98.044724 
L 159.448819 98.280567 
L 160.511811 98.468031 
L 161.574803 98.60863 
L 162.637795 98.759811 
L 163.700787 98.856567 
L 164.76378 98.957858 
L 165.826772 99.021354 
L 166.889764 99.090898 
L 167.952756 99.166488 
L 169.015748 99.237543 
L 170.07874 99.278362 
L 171.141732 99.05915 
L 172.204724 98.309291 
L 173.267717 97.400693 
L 174.330709 96.375685 
L 175.393701 95.418709 
L 176.456693 94.563024 
L 177.519685 93.80863 
L 178.582677 93.178205 
L 179.645669 92.614299 
L 180.708661 92.198551 
L 181.771654 91.835717 
L 182.834646 91.548472 
L 183.897638 91.280882 
L 184.96063 91.114583 
L 186.023622 90.958866 
L 187.086614 90.825827 
L 188.149606 90.727559 
L 189.212598 90.654992 
L 190.275591 90.614173 
L 191.338583 90.546142 
L 192.401575 90.549165 
L 193.464567 90.618709 
L 194.527559 90.665575 
L 195.590551 90.750236 
L 196.653543 90.806173 
L 197.716535 90.865134 
L 198.779528 90.918047 
L 199.84252 90.970961 
L 200.905512 91.022362 
L 201.968504 91.051087 
L 203.031496 91.076787 
L 204.094488 91.097953 
L 205.15748 91.090394 
L 206.220472 91.069228 
L 207.283465 91.069228 
L 208.346457 91.035969 
L 209.409449 91.029921 
L 210.472441 91.02085 
L 211.535433 91.010268 
L 212.598425 91.019339 
L 213.661417 91.005732 
L 214.724409 91.001197 
L 215.787402 91.005732 
L 216.850394 90.986079 
L 217.913386 90.97852 
L 218.976378 90.987591 
L 220.03937 90.998173 
L 221.102362 91.007244 
L 222.165354 90.989102 
L 223.228346 91.002709 
L 224.291339 91.005732 
L 225.354331 90.990614 
L 226.417323 90.981543 
L 227.480315 90.96189 
L 228.543307 90.955843 
L 229.606299 90.96189 
L 230.669291 90.96189 
L 231.732283 90.987591 
L 232.795276 90.992126 
L 233.858268 91.013291 
L 244.488189 91.114583 
L 255.11811 91.172031 
L 265.748031 91.250646 
L 276.377953 91.311118 
L 284.464567 91.339871 
" style="fill:none;stroke:#007849;stroke-linecap:square;"/>
   </g>
   <g id="line2d_31">
    <path clip-path="url(#pf8d160d76f)" d="M 53.149606 119.297764 
L 63.779528 111.573921 
L 74.409449 104.932535 
L 85.03937 99.691087 
L 95.669291 96.159496 
L 106.299213 94.582677 
L 116.929134 94.263685 
L 127.559055 94.168441 
L 138.188976 94.157858 
L 148.818898 94.110992 
L 149.88189 94.117039 
L 150.944882 94.086803 
L 152.007874 94.053543 
L 153.070866 94.012724 
L 154.133858 93.999118 
L 155.19685 93.961323 
L 156.259843 93.956787 
L 157.322835 93.938646 
L 158.385827 93.928063 
L 159.448819 93.937134 
L 160.511811 93.943181 
L 161.574803 93.940157 
L 162.637795 93.938646 
L 163.700787 93.922016 
L 164.76378 93.922016 
L 165.826772 93.905386 
L 166.889764 93.911433 
L 167.952756 93.894803 
L 169.015748 93.906898 
L 170.07874 93.894803 
L 171.141732 94.504063 
L 172.204724 95.852598 
L 173.267717 97.337197 
L 174.330709 98.849008 
L 175.393701 100.242898 
L 176.456693 101.326866 
L 177.519685 102.24 
L 178.582677 103.04126 
L 179.645669 103.70948 
L 180.708661 104.220472 
L 181.771654 104.631685 
L 182.834646 104.928 
L 183.897638 105.174425 
L 184.96063 105.42085 
L 186.023622 105.649134 
L 187.086614 105.829039 
L 188.149606 105.948472 
L 189.212598 106.052787 
L 190.275591 106.167685 
L 191.338583 106.232693 
L 192.401575 105.702047 
L 193.464567 103.664126 
L 194.527559 100.843087 
L 195.590551 97.792252 
L 196.653543 94.535811 
L 197.716535 91.516724 
L 198.779528 88.857449 
L 199.84252 86.359937 
L 200.905512 84.087685 
L 201.968504 82.187339 
L 203.031496 80.613543 
L 204.094488 79.230236 
L 205.15748 78.078236 
L 206.220472 77.175685 
L 207.283465 76.433386 
L 208.346457 75.883087 
L 209.409449 75.449197 
L 210.472441 75.142299 
L 211.535433 74.915528 
L 212.598425 74.728063 
L 213.661417 74.644913 
L 214.724409 74.554205 
L 215.787402 74.490709 
L 216.850394 74.451402 
L 217.913386 74.409071 
L 218.976378 74.410583 
L 220.03937 74.439307 
L 221.102362 74.454425 
L 222.165354 74.44989 
L 223.228346 74.458961 
L 224.291339 74.463496 
L 225.354331 74.486173 
L 226.417323 74.516409 
L 227.480315 74.536063 
L 228.543307 74.561764 
L 229.606299 74.581417 
L 230.669291 74.581417 
L 231.732283 74.599559 
L 232.795276 74.60863 
L 233.858268 74.631307 
L 244.488189 75.02589 
L 255.11811 75.341858 
L 265.748031 75.692598 
L 276.377953 76.067528 
L 284.464567 76.228541 
" style="fill:none;stroke:#9681b7;stroke-linecap:square;"/>
   </g>
   <g id="line2d_32">
    <path clip-path="url(#pf8d160d76f)" d="M 53.149606 119.379402 
L 63.779528 111.77348 
L 74.409449 104.959748 
L 85.03937 99.641197 
L 95.669291 96.284976 
L 106.299213 94.758047 
L 116.929134 94.280315 
L 127.559055 94.163906 
L 138.188976 94.130646 
L 148.818898 94.188094 
L 149.88189 94.354394 
L 150.944882 94.847244 
L 152.007874 95.400567 
L 153.070866 95.972031 
L 154.133858 96.493606 
L 155.19685 96.966803 
L 156.259843 97.359874 
L 157.322835 97.683402 
L 158.385827 97.94948 
L 159.448819 98.206488 
L 160.511811 98.395465 
L 161.574803 98.555717 
L 162.637795 98.708409 
L 163.700787 98.809701 
L 164.76378 98.903433 
L 165.826772 98.966929 
L 166.889764 99.041008 
L 167.952756 99.098457 
L 169.015748 99.164976 
L 170.07874 99.246614 
L 171.141732 99.577701 
L 172.204724 100.265575 
L 173.267717 101.044157 
L 174.330709 101.859024 
L 175.393701 102.613417 
L 176.456693 103.21663 
L 177.519685 103.801701 
L 178.582677 104.255244 
L 179.645669 104.639244 
L 180.708661 104.956724 
L 181.771654 105.200126 
L 182.834646 105.40422 
L 183.897638 105.615874 
L 184.96063 105.764031 
L 186.023622 105.910677 
L 187.086614 105.98778 
L 188.149606 106.06337 
L 189.212598 106.134425 
L 190.275591 106.223622 
L 191.338583 106.284094 
L 192.401575 105.615874 
L 193.464567 103.541669 
L 194.527559 100.655622 
L 195.590551 97.441512 
L 196.653543 94.345323 
L 197.716535 91.265764 
L 198.779528 88.444724 
L 199.84252 85.876157 
L 200.905512 83.638677 
L 201.968504 81.736819 
L 203.031496 80.098016 
L 204.094488 78.678425 
L 205.15748 77.558173 
L 206.220472 76.608756 
L 207.283465 75.860409 
L 208.346457 75.320693 
L 209.409449 74.904945 
L 210.472441 74.602583 
L 211.535433 74.33348 
L 212.598425 74.133921 
L 213.661417 73.979717 
L 214.724409 73.851213 
L 215.787402 73.777134 
L 216.850394 73.718173 
L 217.913386 73.671307 
L 218.976378 73.677354 
L 220.03937 73.653165 
L 221.102362 73.654677 
L 222.165354 73.677354 
L 223.228346 73.693984 
L 224.291339 73.692472 
L 225.354331 73.690961 
L 226.417323 73.706079 
L 227.480315 73.754457 
L 228.543307 73.79074 
L 229.606299 73.811906 
L 230.669291 73.830047 
L 231.732283 73.851213 
L 232.795276 73.887496 
L 233.858268 73.938898 
L 244.488189 74.253354 
L 255.11811 74.605606 
L 265.748031 74.994142 
L 276.377953 75.328252 
L 284.464567 75.576673 
" style="fill:none;stroke:#e97117;stroke-dasharray:3.7,1.6;stroke-dashoffset:0;"/>
   </g>
   <g id="line2d_33">
    <defs>
     <path d="M 0 1.25 
C 0.331504 1.25 0.649475 1.118292 0.883883 0.883883 
C 1.118292 0.649475 1.25 0.331504 1.25 0 
C 1.25 -0.331504 1.118292 -0.649475 0.883883 -0.883883 
C 0.649475 -1.118292 0.331504 -1.25 0 -1.25 
C -0.331504 -1.25 -0.649475 -1.118292 -0.883883 -0.883883 
C -1.118292 -0.649475 -1.25 -0.331504 -1.25 0 
C -1.25 0.331504 -1.118292 0.649475 -0.883883 0.883883 
C -0.649475 1.118292 -0.331504 1.25 0 1.25 
z
" id="maa82155e93" style="stroke:#353a90;"/>
    </defs>
    <g clip-path="url(#pf8d160d76f)">
     <use style="fill:#353a90;stroke:#353a90;" x="212.598425" xlink:href="#maa82155e93" y="74.728063"/>
    </g>
   </g>
   <g id="patch_10">
    <path d="M 42.519685 120.472441 
L 42.519685 63.779528 
" style="fill:none;stroke:#000000;stroke-linecap:square;stroke-linejoin:miter;stroke-width:0.8;"/>
   </g>
   <g id="patch_11">
    <path d="M 42.519685 120.472441 
L 269.291339 120.472441 
" style="fill:none;stroke:#000000;stroke-linecap:square;stroke-linejoin:miter;stroke-width:0.8;"/>
   </g>
  </g>
 </g>
 <defs>
  <clipPath id="p437b7aa337">
   <rect height="56.692913" width="226.771654" x="42.519685" y="1.417323"/>
  </clipPath>
  <clipPath id="pf8d160d76f">
   <rect height="56.692913" width="226.771654" x="42.519685" y="63.779528"/>
  </clipPath>
 </defs>
</svg>
