<?xml version="1.0" encoding="utf-8" standalone="no"?>
<!DOCTYPE svg PUBLIC "-//W3C//DTD SVG 1.1//EN"
  "http://www.w3.org/Graphics/SVG/1.1/DTD/svg11.dtd">
<!-- Created with matplotlib (http://matplotlib.org/) -->
<svg height="141.732283pt" version="1.1" viewBox="0 0 283.464567 141.732283" width="283.464567pt" xmlns="http://www.w3.org/2000/svg" xmlns:xlink="http://www.w3.org/1999/xlink">
 <defs>
  <style type="text/css">
*{stroke-linecap:butt;stroke-linejoin:round;}
  </style>
 </defs>
 <g id="figure_1">
  <g id="patch_1">
   <path d="M 0 141.732283 
L 283.464567 141.732283 
L 283.464567 0 
L 0 0 
z
" style="fill:#ffffff;"/>
  </g>
  <g id="axes_1">
   <g id="patch_2">
    <path d="M 42.519685 58.110236 
L 269.291339 58.110236 
L 269.291339 1.417323 
L 42.519685 1.417323 
z
" style="fill:#ffffff;"/>
   </g>
   <g id="patch_3">
    <path clip-path="url(#p2eaa264684)" d="M 148.818898 58.110236 
L 148.818898 1.417323 
L 170.07874 1.417323 
L 170.07874 58.110236 
z
" style="fill:#bfb1d3;opacity:0.2;stroke:#bfb1d3;stroke-linejoin:miter;"/>
   </g>
   <g id="patch_4">
    <path clip-path="url(#p2eaa264684)" d="M 170.07874 58.110236 
L 170.07874 1.417323 
L 191.338583 1.417323 
L 191.338583 58.110236 
z
" style="fill:#bbdb88;opacity:0.2;stroke:#bbdb88;stroke-linejoin:miter;"/>
   </g>
   <g id="matplotlib.axis_1"/>
   <g id="matplotlib.axis_2">
    <g id="ytick_1">
     <g id="line2d_1">
      <defs>
       <path d="M 0 0 
L -3.5 0 
" id="mca1767b508" style="stroke:#000000;stroke-width:0.8;"/>
      </defs>
      <g>
       <use style="stroke:#000000;stroke-width:0.8;" x="42.519685" xlink:href="#mca1767b508" y="58.110236"/>
      </g>
     </g>
     <g id="text_1">
      <!-- 0 -->
      <defs>
       <path d="M 31.78125 3.421875 
Q 39.265625 3.421875 42.96875 11.625 
Q 46.6875 19.828125 46.6875 36.375 
Q 46.6875 52.984375 42.96875 61.1875 
Q 39.265625 69.390625 31.78125 69.390625 
Q 24.3125 69.390625 20.59375 61.1875 
Q 16.890625 52.984375 16.890625 36.375 
Q 16.890625 19.828125 20.59375 11.625 
Q 24.3125 3.421875 31.78125 3.421875 
z
M 31.78125 -1.421875 
Q 19.921875 -1.421875 13.25 8.53125 
Q 6.59375 18.5 6.59375 36.375 
Q 6.59375 54.296875 13.25 64.25 
Q 19.921875 74.21875 31.78125 74.21875 
Q 43.703125 74.21875 50.34375 64.25 
Q 56.984375 54.296875 56.984375 36.375 
Q 56.984375 18.5 50.34375 8.53125 
Q 43.703125 -1.421875 31.78125 -1.421875 
z
" id="DejaVuSerif-30"/>
      </defs>
      <g transform="translate(31.702185 60.389767)scale(0.06 -0.06)">
       <use xlink:href="#DejaVuSerif-30"/>
      </g>
     </g>
    </g>
    <g id="ytick_2">
     <g id="line2d_2">
      <g>
       <use style="stroke:#000000;stroke-width:0.8;" x="42.519685" xlink:href="#mca1767b508" y="41.43585"/>
      </g>
     </g>
     <g id="text_2">
      <!-- 5 -->
      <defs>
       <path d="M 50.296875 72.90625 
L 50.296875 64.890625 
L 16.890625 64.890625 
L 16.890625 44 
Q 19.4375 45.75 22.828125 46.625 
Q 26.21875 47.515625 30.421875 47.515625 
Q 42.234375 47.515625 49.0625 40.96875 
Q 55.90625 34.421875 55.90625 23.09375 
Q 55.90625 11.53125 49 5.046875 
Q 42.09375 -1.421875 29.59375 -1.421875 
Q 24.5625 -1.421875 19.28125 -0.1875 
Q 14.015625 1.03125 8.5 3.515625 
L 8.5 17.671875 
L 14.015625 17.671875 
Q 14.453125 10.75 18.421875 7.078125 
Q 22.40625 3.421875 29.59375 3.421875 
Q 37.3125 3.421875 41.453125 8.5 
Q 45.609375 13.578125 45.609375 23.09375 
Q 45.609375 32.5625 41.484375 37.609375 
Q 37.359375 42.671875 29.59375 42.671875 
Q 25.203125 42.671875 21.84375 41.109375 
Q 18.5 39.546875 15.921875 36.28125 
L 11.71875 36.28125 
L 11.71875 72.90625 
z
" id="DejaVuSerif-35"/>
      </defs>
      <g transform="translate(31.702185 43.715381)scale(0.06 -0.06)">
       <use xlink:href="#DejaVuSerif-35"/>
      </g>
     </g>
    </g>
    <g id="ytick_3">
     <g id="line2d_3">
      <g>
       <use style="stroke:#000000;stroke-width:0.8;" x="42.519685" xlink:href="#mca1767b508" y="24.761464"/>
      </g>
     </g>
     <g id="text_3">
      <!-- 10 -->
      <defs>
       <path d="M 14.203125 0 
L 14.203125 5.171875 
L 26.90625 5.171875 
L 26.90625 65.828125 
L 12.203125 56.296875 
L 12.203125 62.703125 
L 29.984375 74.21875 
L 36.71875 74.21875 
L 36.71875 5.171875 
L 49.421875 5.171875 
L 49.421875 0 
z
" id="DejaVuSerif-31"/>
      </defs>
      <g transform="translate(27.884685 27.040995)scale(0.06 -0.06)">
       <use xlink:href="#DejaVuSerif-31"/>
       <use x="63.623047" xlink:href="#DejaVuSerif-30"/>
      </g>
     </g>
    </g>
    <g id="ytick_4">
     <g id="line2d_4">
      <g>
       <use style="stroke:#000000;stroke-width:0.8;" x="42.519685" xlink:href="#mca1767b508" y="8.087077"/>
      </g>
     </g>
     <g id="text_4">
      <!-- 15 -->
      <g transform="translate(27.884685 10.366609)scale(0.06 -0.06)">
       <use xlink:href="#DejaVuSerif-31"/>
       <use x="63.623047" xlink:href="#DejaVuSerif-35"/>
      </g>
     </g>
    </g>
    <g id="text_5">
     <!-- Firing rate (Hz) -->
     <defs>
      <path d="M 5.515625 0 
L 5.515625 5.171875 
L 14.796875 5.171875 
L 14.796875 67.671875 
L 5.515625 67.671875 
L 5.515625 72.90625 
L 65.1875 72.90625 
L 65.1875 56.6875 
L 59.1875 56.6875 
L 59.1875 66.890625 
L 24.703125 66.890625 
L 24.703125 42.484375 
L 49.609375 42.484375 
L 49.609375 51.609375 
L 55.609375 51.609375 
L 55.609375 27.390625 
L 49.609375 27.390625 
L 49.609375 36.53125 
L 24.703125 36.53125 
L 24.703125 5.171875 
L 36.375 5.171875 
L 36.375 0 
z
" id="DejaVuSerif-46"/>
      <path d="M 9.71875 68.015625 
Q 9.71875 70.265625 11.34375 71.921875 
Q 12.984375 73.578125 15.28125 73.578125 
Q 17.53125 73.578125 19.15625 71.921875 
Q 20.796875 70.265625 20.796875 68.015625 
Q 20.796875 65.71875 19.1875 64.109375 
Q 17.578125 62.5 15.28125 62.5 
Q 12.984375 62.5 11.34375 64.109375 
Q 9.71875 65.71875 9.71875 68.015625 
z
M 21.1875 5.171875 
L 29.6875 5.171875 
L 29.6875 0 
L 3.609375 0 
L 3.609375 5.171875 
L 12.203125 5.171875 
L 12.203125 46.6875 
L 3.609375 46.6875 
L 3.609375 51.90625 
L 21.1875 51.90625 
z
" id="DejaVuSerif-69"/>
      <path d="M 47.796875 52 
L 47.796875 39.015625 
L 42.625 39.015625 
Q 42.390625 42.875 40.484375 44.78125 
Q 38.578125 46.6875 34.90625 46.6875 
Q 28.265625 46.6875 24.71875 42.09375 
Q 21.1875 37.5 21.1875 28.90625 
L 21.1875 5.171875 
L 31.59375 5.171875 
L 31.59375 0 
L 4.109375 0 
L 4.109375 5.171875 
L 12.203125 5.171875 
L 12.203125 46.78125 
L 3.609375 46.78125 
L 3.609375 51.90625 
L 21.1875 51.90625 
L 21.1875 42.671875 
Q 23.828125 48.09375 27.96875 50.703125 
Q 32.125 53.328125 38.09375 53.328125 
Q 40.28125 53.328125 42.703125 52.984375 
Q 45.125 52.640625 47.796875 52 
z
" id="DejaVuSerif-72"/>
      <path d="M 4.109375 0 
L 4.109375 5.171875 
L 12.203125 5.171875 
L 12.203125 46.6875 
L 3.609375 46.6875 
L 3.609375 51.90625 
L 21.1875 51.90625 
L 21.1875 42.671875 
Q 23.6875 47.953125 27.65625 50.640625 
Q 31.640625 53.328125 36.921875 53.328125 
Q 45.515625 53.328125 49.5625 48.390625 
Q 53.609375 43.453125 53.609375 33.015625 
L 53.609375 5.171875 
L 61.625 5.171875 
L 61.625 0 
L 36.8125 0 
L 36.8125 5.171875 
L 44.578125 5.171875 
L 44.578125 30.171875 
Q 44.578125 39.703125 42.234375 43.234375 
Q 39.890625 46.78125 33.984375 46.78125 
Q 27.734375 46.78125 24.453125 42.203125 
Q 21.1875 37.640625 21.1875 28.90625 
L 21.1875 5.171875 
L 29 5.171875 
L 29 0 
z
" id="DejaVuSerif-6e"/>
      <path d="M 52.484375 46.6875 
L 52.484375 1.125 
Q 52.484375 -10.0625 46.328125 -16.140625 
Q 40.1875 -22.21875 28.8125 -22.21875 
Q 23.6875 -22.21875 19 -21.28125 
Q 14.3125 -20.359375 10.015625 -18.5 
L 10.015625 -7.625 
L 14.703125 -7.625 
Q 15.578125 -12.703125 18.84375 -15.046875 
Q 22.125 -17.390625 28.21875 -17.390625 
Q 36.140625 -17.390625 39.8125 -12.921875 
Q 43.5 -8.453125 43.5 1.125 
L 43.5 8.109375 
Q 40.875 3.21875 36.796875 0.890625 
Q 32.71875 -1.421875 26.703125 -1.421875 
Q 17.140625 -1.421875 11.0625 6.171875 
Q 4.984375 13.765625 4.984375 25.984375 
Q 4.984375 38.1875 11.03125 45.75 
Q 17.09375 53.328125 26.703125 53.328125 
Q 32.71875 53.328125 36.796875 51 
Q 40.875 48.6875 43.5 43.796875 
L 43.5 51.90625 
L 61.078125 51.90625 
L 61.078125 46.6875 
z
M 43.5 28.515625 
Q 43.5 37.84375 39.90625 42.765625 
Q 36.328125 47.703125 29.5 47.703125 
Q 22.5625 47.703125 19.015625 42.234375 
Q 15.484375 36.765625 15.484375 25.984375 
Q 15.484375 15.234375 19.015625 9.71875 
Q 22.5625 4.203125 29.5 4.203125 
Q 36.328125 4.203125 39.90625 9.109375 
Q 43.5 14.015625 43.5 23.390625 
z
" id="DejaVuSerif-67"/>
      <path id="DejaVuSerif-20"/>
      <path d="M 39.796875 16.3125 
L 39.796875 27.296875 
L 28.21875 27.296875 
Q 21.53125 27.296875 18.25 24.40625 
Q 14.984375 21.53125 14.984375 15.578125 
Q 14.984375 10.15625 18.296875 6.984375 
Q 21.625 3.8125 27.296875 3.8125 
Q 32.90625 3.8125 36.34375 7.28125 
Q 39.796875 10.75 39.796875 16.3125 
z
M 48.78125 32.421875 
L 48.78125 5.171875 
L 56.78125 5.171875 
L 56.78125 0 
L 39.796875 0 
L 39.796875 5.609375 
Q 36.8125 2 32.90625 0.28125 
Q 29 -1.421875 23.78125 -1.421875 
Q 15.140625 -1.421875 10.0625 3.171875 
Q 4.984375 7.765625 4.984375 15.578125 
Q 4.984375 23.640625 10.796875 28.078125 
Q 16.609375 32.515625 27.203125 32.515625 
L 39.796875 32.515625 
L 39.796875 36.078125 
Q 39.796875 42 36.203125 45.234375 
Q 32.625 48.484375 26.125 48.484375 
Q 20.75 48.484375 17.578125 46.046875 
Q 14.40625 43.609375 13.625 38.8125 
L 8.984375 38.8125 
L 8.984375 49.3125 
Q 13.671875 51.3125 18.09375 52.3125 
Q 22.515625 53.328125 26.703125 53.328125 
Q 37.5 53.328125 43.140625 47.96875 
Q 48.78125 42.625 48.78125 32.421875 
z
" id="DejaVuSerif-61"/>
      <path d="M 10.796875 46.6875 
L 2.875 46.6875 
L 2.875 51.90625 
L 10.796875 51.90625 
L 10.796875 68.015625 
L 19.828125 68.015625 
L 19.828125 51.90625 
L 36.71875 51.90625 
L 36.71875 46.6875 
L 19.828125 46.6875 
L 19.828125 13.71875 
Q 19.828125 7.125 21.09375 5.265625 
Q 22.359375 3.421875 25.78125 3.421875 
Q 29.296875 3.421875 30.90625 5.484375 
Q 32.515625 7.5625 32.625 12.203125 
L 39.40625 12.203125 
Q 39.015625 5.125 35.546875 1.84375 
Q 32.078125 -1.421875 25 -1.421875 
Q 17.234375 -1.421875 14.015625 2.015625 
Q 10.796875 5.46875 10.796875 13.71875 
z
" id="DejaVuSerif-74"/>
      <path d="M 54.203125 25 
L 15.484375 25 
L 15.484375 24.609375 
Q 15.484375 14.109375 19.4375 8.765625 
Q 23.390625 3.421875 31.109375 3.421875 
Q 37.015625 3.421875 40.796875 6.515625 
Q 44.578125 9.625 46.09375 15.71875 
L 53.328125 15.71875 
Q 51.171875 7.171875 45.375 2.875 
Q 39.59375 -1.421875 30.171875 -1.421875 
Q 18.796875 -1.421875 11.890625 6.078125 
Q 4.984375 13.578125 4.984375 25.984375 
Q 4.984375 38.28125 11.765625 45.796875 
Q 18.5625 53.328125 29.59375 53.328125 
Q 41.359375 53.328125 47.65625 46.0625 
Q 53.953125 38.8125 54.203125 25 
z
M 43.609375 30.171875 
Q 43.3125 39.265625 39.765625 43.875 
Q 36.234375 48.484375 29.59375 48.484375 
Q 23.390625 48.484375 19.828125 43.84375 
Q 16.265625 39.203125 15.484375 30.171875 
z
" id="DejaVuSerif-65"/>
      <path d="M 31.890625 -15.578125 
Q 20.015625 -10.25 13.953125 1.296875 
Q 7.90625 12.84375 7.90625 30.171875 
Q 7.90625 47.5625 13.953125 59.109375 
Q 20.015625 70.65625 31.890625 75.984375 
L 31.890625 71.1875 
Q 24.359375 66.015625 21.09375 56.609375 
Q 17.828125 47.21875 17.828125 30.171875 
Q 17.828125 13.1875 21.09375 3.78125 
Q 24.359375 -5.609375 31.890625 -10.796875 
z
" id="DejaVuSerif-28"/>
      <path d="M 5.515625 0 
L 5.515625 5.171875 
L 14.796875 5.171875 
L 14.796875 67.671875 
L 5.515625 67.671875 
L 5.515625 72.90625 
L 33.984375 72.90625 
L 33.984375 67.671875 
L 24.703125 67.671875 
L 24.703125 42.484375 
L 62.5 42.484375 
L 62.5 67.671875 
L 53.21875 67.671875 
L 53.21875 72.90625 
L 81.6875 72.90625 
L 81.6875 67.671875 
L 72.40625 67.671875 
L 72.40625 5.171875 
L 81.6875 5.171875 
L 81.6875 0 
L 53.21875 0 
L 53.21875 5.171875 
L 62.5 5.171875 
L 62.5 36.53125 
L 24.703125 36.53125 
L 24.703125 5.171875 
L 33.984375 5.171875 
L 33.984375 0 
z
" id="DejaVuSerif-48"/>
      <path d="M 4 0 
L 4 4.203125 
L 36.53125 46.6875 
L 10.796875 46.6875 
L 10.796875 37.703125 
L 5.609375 37.703125 
L 5.609375 51.90625 
L 48.09375 51.90625 
L 48.09375 47.703125 
L 15.578125 5.171875 
L 43.796875 5.171875 
L 43.796875 14.59375 
L 49.03125 14.59375 
L 49.03125 0 
z
" id="DejaVuSerif-7a"/>
      <path d="M 7.078125 -15.578125 
L 7.078125 -10.796875 
Q 14.59375 -5.609375 17.890625 3.78125 
Q 21.1875 13.1875 21.1875 30.171875 
Q 21.1875 47.21875 17.890625 56.609375 
Q 14.59375 66.015625 7.078125 71.1875 
L 7.078125 75.984375 
Q 19 70.65625 25.046875 59.109375 
Q 31.109375 47.5625 31.109375 30.171875 
Q 31.109375 12.84375 25.046875 1.296875 
Q 19 -10.25 7.078125 -15.578125 
z
" id="DejaVuSerif-29"/>
     </defs>
     <g transform="translate(22.107185 61.678155)rotate(-90)scale(0.08 -0.08)">
      <use xlink:href="#DejaVuSerif-46"/>
      <use x="69.384766" xlink:href="#DejaVuSerif-69"/>
      <use x="101.367188" xlink:href="#DejaVuSerif-72"/>
      <use x="149.169922" xlink:href="#DejaVuSerif-69"/>
      <use x="181.152344" xlink:href="#DejaVuSerif-6e"/>
      <use x="245.556641" xlink:href="#DejaVuSerif-67"/>
      <use x="309.570312" xlink:href="#DejaVuSerif-20"/>
      <use x="341.357422" xlink:href="#DejaVuSerif-72"/>
      <use x="389.160156" xlink:href="#DejaVuSerif-61"/>
      <use x="448.779297" xlink:href="#DejaVuSerif-74"/>
      <use x="488.964844" xlink:href="#DejaVuSerif-65"/>
      <use x="548.144531" xlink:href="#DejaVuSerif-20"/>
      <use x="579.931641" xlink:href="#DejaVuSerif-28"/>
      <use x="618.945312" xlink:href="#DejaVuSerif-48"/>
      <use x="706.152344" xlink:href="#DejaVuSerif-7a"/>
      <use x="758.837891" xlink:href="#DejaVuSerif-29"/>
     </g>
    </g>
   </g>
   <g id="line2d_5">
    <path clip-path="url(#p2eaa264684)" d="M 53.149606 50.12654 
L 63.779528 48.231624 
L 74.409449 45.517426 
L 85.03937 41.628331 
L 95.669291 36.668702 
L 106.299213 33.184187 
L 116.929134 31.905634 
L 127.559055 31.592469 
L 138.188976 31.503173 
L 148.818898 31.452169 
L 149.88189 31.405088 
L 150.944882 31.48026 
L 152.007874 31.627387 
L 153.070866 31.813984 
L 154.133858 31.776947 
L 155.19685 31.65493 
L 156.259843 31.63751 
L 157.322835 31.519337 
L 158.385827 31.628878 
L 159.448819 31.592783 
L 160.511811 31.363422 
L 161.574803 31.249722 
L 162.637795 31.428393 
L 163.700787 31.331093 
L 164.76378 31.366953 
L 165.826772 31.184437 
L 166.889764 31.190401 
L 167.952756 31.180278 
L 169.015748 31.308887 
L 170.07874 31.368758 
L 171.141732 30.084006 
L 172.204724 30.48223 
L 173.267717 30.57749 
L 174.330709 30.771933 
L 175.393701 31.217864 
L 176.456693 31.211195 
L 177.519685 31.487166 
L 178.582677 31.496425 
L 179.645669 31.576383 
L 180.708661 31.574657 
L 181.771654 31.58831 
L 182.834646 31.523339 
L 183.897638 31.803861 
L 184.96063 31.737713 
L 186.023622 31.575285 
L 187.086614 31.580228 
L 188.149606 31.723981 
L 189.212598 31.673605 
L 190.275591 31.599061 
L 191.338583 31.538405 
L 192.401575 31.246584 
L 193.464567 31.324345 
L 194.527559 31.321991 
L 195.590551 31.525222 
L 196.653543 31.486302 
L 197.716535 31.560454 
L 198.779528 31.675174 
L 199.84252 31.543349 
L 200.905512 31.582268 
L 201.968504 31.43624 
L 203.031496 31.501918 
L 204.094488 31.536836 
L 205.15748 31.571989 
L 206.220472 31.513452 
L 207.283465 31.501839 
L 208.346457 31.305591 
L 209.409449 31.550881 
L 210.472441 31.469903 
L 211.535433 31.418349 
L 212.598425 31.571754 
L 213.661417 31.454994 
L 214.724409 31.541151 
L 215.787402 31.395829 
L 216.850394 31.499956 
L 217.913386 31.518945 
L 218.976378 31.582425 
L 220.03937 31.469275 
L 221.102362 31.443302 
L 222.165354 31.26879 
L 223.228346 31.358086 
L 224.291339 31.368836 
L 225.354331 31.34969 
L 226.417323 31.527263 
L 227.480315 31.397399 
L 228.543307 31.477671 
L 229.606299 31.574186 
L 230.669291 31.310849 
L 231.732283 31.488657 
L 232.795276 31.427295 
L 233.858268 31.335252 
L 244.488189 31.34255 
L 255.11811 31.489912 
L 265.748031 31.531186 
L 276.377953 31.368287 
L 284.464567 31.440158 
" style="fill:none;stroke:#4d4d4d;stroke-linecap:square;"/>
   </g>
   <g id="line2d_6">
    <path clip-path="url(#p2eaa264684)" d="M 53.149606 50.202575 
L 63.779528 48.11094 
L 74.409449 45.361667 
L 85.03937 41.549236 
L 95.669291 36.55359 
L 106.299213 32.823863 
L 116.929134 31.834071 
L 127.559055 31.804724 
L 138.188976 31.488578 
L 148.818898 31.69534 
L 149.88189 31.512589 
L 150.944882 31.569949 
L 152.007874 31.37786 
L 153.070866 31.59396 
L 154.133858 32.040834 
L 155.19685 31.716684 
L 156.259843 31.679333 
L 157.322835 31.700676 
L 158.385827 31.627309 
L 159.448819 31.763372 
L 160.511811 31.787383 
L 161.574803 31.1751 
L 162.637795 31.245799 
L 163.700787 30.94566 
L 164.76378 31.31383 
L 165.826772 31.145753 
L 166.889764 31.192441 
L 167.952756 30.937656 
L 169.015748 31.555276 
L 170.07874 31.396535 
L 171.141732 20.031274 
L 172.204724 21.534636 
L 173.267717 22.80856 
L 174.330709 24.101158 
L 175.393701 25.593849 
L 176.456693 26.662344 
L 177.519685 27.51874 
L 178.582677 27.998962 
L 179.645669 28.569893 
L 180.708661 29.438296 
L 181.771654 29.510329 
L 182.834646 29.611709 
L 183.897638 30.396072 
L 184.96063 30.480111 
L 186.023622 30.661528 
L 187.086614 30.709551 
L 188.149606 31.076387 
L 189.212598 31.128411 
L 190.275591 31.093729 
L 191.338583 31.579287 
L 192.401575 39.054748 
L 193.464567 38.56252 
L 194.527559 38.079629 
L 195.590551 37.774155 
L 196.653543 36.628291 
L 197.716535 36.241445 
L 198.779528 35.605151 
L 199.84252 35.365039 
L 200.905512 34.870144 
L 201.968504 34.191163 
L 203.031496 34.012413 
L 204.094488 33.520185 
L 205.15748 33.189365 
L 206.220472 32.815859 
L 207.283465 32.822529 
L 208.346457 32.252932 
L 209.409449 32.631774 
L 210.472441 32.549069 
L 211.535433 31.898101 
L 212.598425 32.050171 
L 213.661417 32.07685 
L 214.724409 31.732691 
L 215.787402 31.619305 
L 216.850394 31.682001 
L 217.913386 31.636647 
L 218.976378 31.746031 
L 220.03937 31.711348 
L 221.102362 31.257805 
L 222.165354 31.503252 
L 223.228346 31.449893 
L 224.291339 31.627309 
L 225.354331 31.357851 
L 226.417323 31.743363 
L 227.480315 31.631311 
L 228.543307 31.416545 
L 229.606299 31.748698 
L 230.669291 31.451227 
L 231.732283 31.352515 
L 232.795276 31.439222 
L 233.858268 31.152422 
L 244.488189 31.287151 
L 255.11811 31.539268 
L 265.748031 31.491246 
L 276.377953 31.563279 
L 284.464567 31.534865 
" style="fill:none;stroke:#007849;stroke-linecap:square;"/>
   </g>
   <g id="line2d_7">
    <path clip-path="url(#p2eaa264684)" d="M 53.149606 50.073182 
L 63.779528 48.088263 
L 74.409449 45.703159 
L 85.03937 41.369152 
L 95.669291 36.748346 
L 106.299213 33.031959 
L 116.929134 32.030162 
L 127.559055 31.461899 
L 138.188976 31.28315 
L 148.818898 31.383196 
L 149.88189 4.239963 
L 150.944882 7.565503 
L 152.007874 11.06579 
L 153.070866 14.156554 
L 154.133858 17.412728 
L 155.19685 19.716461 
L 156.259843 22.098898 
L 157.322835 23.722316 
L 158.385827 25.596517 
L 159.448819 26.195461 
L 160.511811 27.069199 
L 161.574803 27.568096 
L 162.637795 28.17371 
L 163.700787 28.685947 
L 164.76378 29.132821 
L 165.826772 29.805132 
L 166.889764 29.753108 
L 167.952756 29.833145 
L 169.015748 30.026568 
L 170.07874 30.29069 
L 171.141732 47.57736 
L 172.204724 47.04378 
L 173.267717 46.291431 
L 174.330709 45.277629 
L 175.393701 44.325188 
L 176.456693 43.004576 
L 177.519685 42.35094 
L 178.582677 41.427846 
L 179.645669 40.213951 
L 180.708661 38.957369 
L 181.771654 38.016934 
L 182.834646 37.20189 
L 183.897638 36.498898 
L 184.96063 36.010672 
L 186.023622 34.902158 
L 187.086614 34.511311 
L 188.149606 33.830996 
L 189.212598 33.855007 
L 190.275591 33.782974 
L 191.338583 32.663789 
L 192.401575 32.787846 
L 193.464567 32.927911 
L 194.527559 32.36365 
L 195.590551 32.235591 
L 196.653543 32.151552 
L 197.716535 32.20491 
L 198.779528 31.792719 
L 199.84252 32.318296 
L 200.905512 31.782047 
L 201.968504 31.312497 
L 203.031496 31.385864 
L 204.094488 31.577953 
L 205.15748 31.6073 
L 206.220472 31.742029 
L 207.283465 31.43522 
L 208.346457 31.49258 
L 209.409449 31.209782 
L 210.472441 31.755368 
L 211.535433 31.28315 
L 212.598425 31.145753 
L 213.661417 31.068384 
L 214.724409 31.484576 
L 215.787402 31.312497 
L 216.850394 31.287151 
L 217.913386 31.521927 
L 218.976378 31.432552 
L 220.03937 31.387198 
L 221.102362 32.010153 
L 222.165354 31.33384 
L 223.228346 31.427216 
L 224.291339 31.008356 
L 225.354331 31.268476 
L 226.417323 31.776711 
L 227.480315 31.373858 
L 228.543307 31.268476 
L 229.606299 31.256471 
L 230.669291 31.131079 
L 231.732283 31.449893 
L 232.795276 31.412543 
L 233.858268 31.475239 
L 244.488189 31.445892 
L 255.11811 31.015025 
L 265.748031 31.735359 
L 276.377953 31.300491 
L 284.464567 31.155376 
" style="fill:none;stroke:#9681b7;stroke-linecap:square;"/>
   </g>
   <g id="line2d_8">
    <path clip-path="url(#p2eaa264684)" d="M 53.149606 50.118536 
L 63.779528 48.252339 
L 74.409449 45.541751 
L 85.03937 41.677295 
L 95.669291 36.735007 
L 106.299213 33.262733 
L 116.929134 32.028828 
L 127.559055 31.487244 
L 138.188976 31.469903 
L 148.818898 31.589958 
L 149.88189 4.325336 
L 150.944882 7.183993 
L 152.007874 11.107142 
L 153.070866 14.611431 
L 154.133858 17.498101 
L 155.19685 19.833849 
L 156.259843 22.128245 
L 157.322835 23.538231 
L 158.385827 25.248356 
L 159.448819 26.115424 
L 160.511811 27.066531 
L 161.574803 27.41736 
L 162.637795 28.397814 
L 163.700787 28.711292 
L 164.76378 29.21686 
L 165.826772 29.455637 
L 166.889764 29.733099 
L 167.952756 29.919852 
L 169.015748 30.193312 
L 170.07874 30.177304 
L 171.141732 41.813358 
L 172.204724 41.38516 
L 173.267717 40.73019 
L 174.330709 40.092561 
L 175.393701 39.173469 
L 176.456693 38.33975 
L 177.519685 38.027605 
L 178.582677 36.92176 
L 179.645669 36.518907 
L 180.708661 35.798573 
L 181.771654 35.110255 
L 182.834646 34.786105 
L 183.897638 34.268532 
L 184.96063 33.54553 
L 186.023622 33.328096 
L 187.086614 33.129338 
L 188.149606 32.827865 
L 189.212598 32.958592 
L 190.275591 32.20491 
L 191.338583 32.196906 
L 192.401575 39.988513 
L 193.464567 39.396239 
L 194.527559 38.791959 
L 195.590551 38.004928 
L 196.653543 37.249912 
L 197.716535 36.576267 
L 198.779528 35.902622 
L 199.84252 35.359704 
L 200.905512 34.968856 
L 201.968504 34.064437 
L 203.031496 33.802983 
L 204.094488 33.516183 
L 205.15748 33.273404 
L 206.220472 32.777175 
L 207.283465 32.665123 
L 208.346457 32.251598 
L 209.409449 32.415674 
L 210.472441 32.239592 
L 211.535433 31.88076 
L 212.598425 31.720686 
L 213.661417 31.357851 
L 214.724409 32.24893 
L 215.787402 31.811394 
L 216.850394 31.569949 
L 217.913386 31.879426 
L 218.976378 31.718018 
L 220.03937 32.068847 
L 221.102362 31.331172 
L 222.165354 31.407207 
L 223.228346 31.473905 
L 224.291339 31.38453 
L 225.354331 31.407207 
L 226.417323 31.707346 
L 227.480315 31.3912 
L 228.543307 31.568615 
L 229.606299 31.475239 
L 230.669291 31.70201 
L 231.732283 31.296489 
L 232.795276 31.28315 
L 233.858268 31.288485 
L 244.488189 31.507253 
L 255.11811 31.44856 
L 265.748031 31.463233 
L 276.377953 31.620639 
L 284.464567 31.457258 
" style="fill:none;stroke:#e97117;stroke-dasharray:3.7,1.6;stroke-dashoffset:0;"/>
   </g>
   <g id="patch_5">
    <path d="M 42.519685 58.110236 
L 42.519685 1.417323 
" style="fill:none;stroke:#000000;stroke-linecap:square;stroke-linejoin:miter;stroke-width:0.8;"/>
   </g>
   <g id="patch_6">
    <path d="M 42.519685 58.110236 
L 269.291339 58.110236 
" style="fill:none;stroke:#000000;stroke-linecap:square;stroke-linejoin:miter;stroke-width:0.8;"/>
   </g>
   <g id="text_6">
    <!-- ML -->
    <defs>
     <path d="M 5.515625 0 
L 5.515625 5.171875 
L 14.796875 5.171875 
L 14.796875 67.671875 
L 4.984375 67.671875 
L 4.984375 72.90625 
L 26.21875 72.90625 
L 51.8125 21 
L 77.390625 72.90625 
L 97.3125 72.90625 
L 97.3125 67.671875 
L 87.59375 67.671875 
L 87.59375 5.171875 
L 96.921875 5.171875 
L 96.921875 0 
L 68.40625 0 
L 68.40625 5.171875 
L 77.6875 5.171875 
L 77.6875 61.53125 
L 52.6875 10.6875 
L 45.796875 10.6875 
L 20.796875 61.53125 
L 20.796875 5.171875 
L 30.078125 5.171875 
L 30.078125 0 
z
" id="DejaVuSerif-4d"/>
     <path d="M 5.515625 0 
L 5.515625 5.171875 
L 14.796875 5.171875 
L 14.796875 67.671875 
L 5.515625 67.671875 
L 5.515625 72.90625 
L 33.984375 72.90625 
L 33.984375 67.671875 
L 24.703125 67.671875 
L 24.703125 6 
L 58.015625 6 
L 58.015625 18.21875 
L 64.015625 18.21875 
L 64.015625 0 
z
" id="DejaVuSerif-4c"/>
    </defs>
    <g transform="translate(155.228897 10.382111)scale(0.05 -0.05)">
     <use xlink:href="#DejaVuSerif-4d"/>
     <use x="102.392578" xlink:href="#DejaVuSerif-4c"/>
    </g>
   </g>
   <g id="text_7">
    <!-- DC -->
    <defs>
     <path d="M 24.703125 5.171875 
L 33.796875 5.171875 
Q 48 5.171875 55.59375 13.28125 
Q 63.1875 21.390625 63.1875 36.53125 
Q 63.1875 51.65625 55.609375 59.65625 
Q 48.046875 67.671875 33.796875 67.671875 
L 24.703125 67.671875 
z
M 5.515625 0 
L 5.515625 5.171875 
L 14.796875 5.171875 
L 14.796875 67.671875 
L 5.515625 67.671875 
L 5.515625 72.90625 
L 34.515625 72.90625 
Q 53.375 72.90625 63.890625 63.28125 
Q 74.421875 53.65625 74.421875 36.53125 
Q 74.421875 19.34375 63.875 9.671875 
Q 53.328125 0 34.515625 0 
z
" id="DejaVuSerif-44"/>
     <path d="M 70.515625 19.28125 
Q 67.28125 9.078125 59.6875 3.828125 
Q 52.09375 -1.421875 40.484375 -1.421875 
Q 33.34375 -1.421875 27.234375 1.015625 
Q 21.140625 3.46875 16.40625 8.203125 
Q 10.9375 13.671875 8.265625 20.625 
Q 5.609375 27.59375 5.609375 36.375 
Q 5.609375 53.375 15.421875 63.796875 
Q 25.25 74.21875 41.3125 74.21875 
Q 47.265625 74.21875 54 72.65625 
Q 60.75 71.09375 68.5 67.921875 
L 68.5 51.125 
L 62.984375 51.125 
Q 61.1875 60.296875 55.734375 64.640625 
Q 50.296875 69 40.484375 69 
Q 28.8125 69 22.796875 60.71875 
Q 16.796875 52.4375 16.796875 36.375 
Q 16.796875 20.359375 22.796875 12.078125 
Q 28.8125 3.8125 40.484375 3.8125 
Q 48.640625 3.8125 53.90625 7.6875 
Q 59.1875 11.578125 61.53125 19.28125 
z
" id="DejaVuSerif-43"/>
    </defs>
    <g transform="translate(180.051316 10.382111)scale(0.05 -0.05)">
     <use xlink:href="#DejaVuSerif-44"/>
     <use x="80.175781" xlink:href="#DejaVuSerif-43"/>
    </g>
   </g>
   <g id="legend_1">
    <g id="line2d_9">
     <path d="M 49.455118 11.945677 
L 61.455118 11.945677 
" style="fill:none;stroke:#4d4d4d;stroke-linecap:square;"/>
    </g>
    <g id="line2d_10"/>
    <g id="text_8">
     <!-- $\mathrm{exc}$ -->
     <defs>
      <path d="M 29.109375 31.6875 
L 39.984375 46.6875 
L 33.015625 46.6875 
L 33.015625 51.90625 
L 52.984375 51.90625 
L 52.984375 46.6875 
L 46.09375 46.6875 
L 32.171875 27.484375 
L 48.390625 5.171875 
L 55.171875 5.171875 
L 55.171875 0 
L 31.203125 0 
L 31.203125 5.171875 
L 37.796875 5.171875 
L 26.515625 20.703125 
L 15.1875 5.171875 
L 21.921875 5.171875 
L 21.921875 0 
L 2.203125 0 
L 2.203125 5.171875 
L 9.078125 5.171875 
L 23.390625 24.90625 
L 7.625 46.6875 
L 1.21875 46.6875 
L 1.21875 51.90625 
L 24.421875 51.90625 
L 24.421875 46.6875 
L 18.21875 46.6875 
z
" id="DejaVuSerif-78"/>
      <path d="M 51.421875 15.578125 
Q 49.515625 7.28125 44.09375 2.921875 
Q 38.671875 -1.421875 30.078125 -1.421875 
Q 18.75 -1.421875 11.859375 6.078125 
Q 4.984375 13.578125 4.984375 25.984375 
Q 4.984375 38.421875 11.859375 45.875 
Q 18.75 53.328125 30.078125 53.328125 
Q 35.015625 53.328125 39.890625 52.171875 
Q 44.78125 51.03125 49.703125 48.6875 
L 49.703125 35.40625 
L 44.484375 35.40625 
Q 43.453125 42.234375 40.015625 45.359375 
Q 36.578125 48.484375 30.171875 48.484375 
Q 22.90625 48.484375 19.1875 42.84375 
Q 15.484375 37.203125 15.484375 25.984375 
Q 15.484375 14.75 19.171875 9.078125 
Q 22.859375 3.421875 30.171875 3.421875 
Q 35.984375 3.421875 39.453125 6.4375 
Q 42.921875 9.46875 44.1875 15.578125 
z
" id="DejaVuSerif-63"/>
     </defs>
     <g transform="translate(66.255118 14.045677)scale(0.06 -0.06)">
      <use transform="translate(0 0.671875)" xlink:href="#DejaVuSerif-65"/>
      <use transform="translate(59.179688 0.671875)" xlink:href="#DejaVuSerif-78"/>
      <use transform="translate(115.576172 0.671875)" xlink:href="#DejaVuSerif-63"/>
     </g>
    </g>
    <g id="line2d_11">
     <path d="M 49.455118 20.752552 
L 61.455118 20.752552 
" style="fill:none;stroke:#007849;stroke-linecap:square;"/>
    </g>
    <g id="line2d_12"/>
    <g id="text_9">
     <!-- $\mathrm{sti}$ -->
     <defs>
      <path d="M 5.609375 2.875 
L 5.609375 14.984375 
L 10.796875 14.984375 
Q 10.984375 9.1875 14.421875 6.296875 
Q 17.875 3.421875 24.609375 3.421875 
Q 30.671875 3.421875 33.84375 5.6875 
Q 37.015625 7.953125 37.015625 12.3125 
Q 37.015625 15.71875 34.6875 17.8125 
Q 32.375 19.921875 24.90625 22.3125 
L 18.40625 24.515625 
Q 11.71875 26.65625 8.71875 29.875 
Q 5.71875 33.109375 5.71875 38.09375 
Q 5.71875 45.21875 10.9375 49.265625 
Q 16.15625 53.328125 25.390625 53.328125 
Q 29.5 53.328125 34.03125 52.25 
Q 38.578125 51.171875 43.40625 49.125 
L 43.40625 37.796875 
L 38.234375 37.796875 
Q 38.03125 42.828125 34.703125 45.65625 
Q 31.390625 48.484375 25.6875 48.484375 
Q 20.015625 48.484375 17.109375 46.484375 
Q 14.203125 44.484375 14.203125 40.484375 
Q 14.203125 37.203125 16.40625 35.21875 
Q 18.609375 33.25 25.203125 31.203125 
L 32.328125 29 
Q 39.703125 26.703125 42.9375 23.265625 
Q 46.1875 19.828125 46.1875 14.40625 
Q 46.1875 7.03125 40.546875 2.796875 
Q 34.90625 -1.421875 25 -1.421875 
Q 19.96875 -1.421875 15.1875 -0.34375 
Q 10.40625 0.734375 5.609375 2.875 
z
" id="DejaVuSerif-73"/>
     </defs>
     <g transform="translate(66.255118 22.852552)scale(0.06 -0.06)">
      <use transform="translate(0 0.421875)" xlink:href="#DejaVuSerif-73"/>
      <use transform="translate(51.318359 0.421875)" xlink:href="#DejaVuSerif-74"/>
      <use transform="translate(91.503906 0.421875)" xlink:href="#DejaVuSerif-69"/>
     </g>
    </g>
    <g id="line2d_13">
     <path d="M 80.40378 11.945677 
L 92.40378 11.945677 
" style="fill:none;stroke:#9681b7;stroke-linecap:square;"/>
    </g>
    <g id="line2d_14"/>
    <g id="text_10">
     <!-- $\mathrm{engram}$ -->
     <defs>
      <path d="M 51.8125 41.796875 
Q 54.390625 47.515625 58.421875 50.421875 
Q 62.453125 53.328125 67.828125 53.328125 
Q 75.984375 53.328125 79.984375 48.265625 
Q 83.984375 43.21875 83.984375 33.015625 
L 83.984375 5.171875 
L 92.09375 5.171875 
L 92.09375 0 
L 67.1875 0 
L 67.1875 5.171875 
L 75 5.171875 
L 75 31.984375 
Q 75 39.9375 72.65625 43.3125 
Q 70.3125 46.6875 64.890625 46.6875 
Q 58.890625 46.6875 55.734375 42.140625 
Q 52.59375 37.59375 52.59375 28.90625 
L 52.59375 5.171875 
L 60.40625 5.171875 
L 60.40625 0 
L 35.796875 0 
L 35.796875 5.171875 
L 43.609375 5.171875 
L 43.609375 32.328125 
Q 43.609375 40.09375 41.265625 43.390625 
Q 38.921875 46.6875 33.5 46.6875 
Q 27.484375 46.6875 24.328125 42.140625 
Q 21.1875 37.59375 21.1875 28.90625 
L 21.1875 5.171875 
L 29 5.171875 
L 29 0 
L 4.109375 0 
L 4.109375 5.171875 
L 12.203125 5.171875 
L 12.203125 46.78125 
L 3.609375 46.78125 
L 3.609375 51.90625 
L 21.1875 51.90625 
L 21.1875 42.671875 
Q 23.6875 47.859375 27.53125 50.59375 
Q 31.390625 53.328125 36.28125 53.328125 
Q 42.328125 53.328125 46.375 50.3125 
Q 50.4375 47.3125 51.8125 41.796875 
z
" id="DejaVuSerif-6d"/>
     </defs>
     <g transform="translate(97.20378 14.045677)scale(0.06 -0.06)">
      <use transform="translate(0 0.671875)" xlink:href="#DejaVuSerif-65"/>
      <use transform="translate(59.179688 0.671875)" xlink:href="#DejaVuSerif-6e"/>
      <use transform="translate(123.583984 0.671875)" xlink:href="#DejaVuSerif-67"/>
      <use transform="translate(187.597656 0.671875)" xlink:href="#DejaVuSerif-72"/>
      <use transform="translate(235.400391 0.671875)" xlink:href="#DejaVuSerif-61"/>
      <use transform="translate(295.019531 0.671875)" xlink:href="#DejaVuSerif-6d"/>
     </g>
    </g>
    <g id="line2d_15">
     <path d="M 80.40378 20.884739 
L 92.40378 20.884739 
" style="fill:none;stroke:#e97117;stroke-dasharray:3.7,1.6;stroke-dashoffset:0;"/>
    </g>
    <g id="line2d_16"/>
    <g id="text_11">
     <!-- $\mathrm{engram+sti}$ -->
     <defs>
      <path d="M 45.796875 62.703125 
L 45.796875 35.296875 
L 73.1875 35.296875 
L 73.1875 27.390625 
L 45.796875 27.390625 
L 45.796875 0 
L 37.984375 0 
L 37.984375 27.390625 
L 10.59375 27.390625 
L 10.59375 35.296875 
L 37.984375 35.296875 
L 37.984375 62.703125 
z
" id="DejaVuSerif-2b"/>
     </defs>
     <g transform="translate(97.20378 22.984739)scale(0.06 -0.06)">
      <use transform="translate(0 0.421875)" xlink:href="#DejaVuSerif-65"/>
      <use transform="translate(59.179688 0.421875)" xlink:href="#DejaVuSerif-6e"/>
      <use transform="translate(123.583984 0.421875)" xlink:href="#DejaVuSerif-67"/>
      <use transform="translate(187.597656 0.421875)" xlink:href="#DejaVuSerif-72"/>
      <use transform="translate(235.400391 0.421875)" xlink:href="#DejaVuSerif-61"/>
      <use transform="translate(295.019531 0.421875)" xlink:href="#DejaVuSerif-6d"/>
      <use transform="translate(408.808594 0.421875)" xlink:href="#DejaVuSerif-2b"/>
      <use transform="translate(511.5625 0.421875)" xlink:href="#DejaVuSerif-73"/>
      <use transform="translate(562.880859 0.421875)" xlink:href="#DejaVuSerif-74"/>
      <use transform="translate(603.066406 0.421875)" xlink:href="#DejaVuSerif-69"/>
     </g>
    </g>
   </g>
  </g>
  <g id="axes_2">
   <g id="patch_7">
    <path d="M 42.519685 120.472441 
L 269.291339 120.472441 
L 269.291339 63.779528 
L 42.519685 63.779528 
z
" style="fill:#ffffff;"/>
   </g>
   <g id="patch_8">
    <path clip-path="url(#pe46bb48dfb)" d="M 148.818898 120.472441 
L 148.818898 63.779528 
L 170.07874 63.779528 
L 170.07874 120.472441 
z
" style="fill:#bfb1d3;opacity:0.2;stroke:#bfb1d3;stroke-linejoin:miter;"/>
   </g>
   <g id="patch_9">
    <path clip-path="url(#pe46bb48dfb)" d="M 170.07874 120.472441 
L 170.07874 63.779528 
L 191.338583 63.779528 
L 191.338583 120.472441 
z
" style="fill:#bbdb88;opacity:0.2;stroke:#bbdb88;stroke-linejoin:miter;"/>
   </g>
   <g id="matplotlib.axis_3">
    <g id="xtick_1">
     <g id="line2d_17">
      <defs>
       <path d="M 0 0 
L 0 3.5 
" id="m613344bd92" style="stroke:#000000;stroke-width:0.8;"/>
      </defs>
      <g>
       <use style="stroke:#000000;stroke-width:0.8;" x="42.519685" xlink:href="#m613344bd92" y="120.472441"/>
      </g>
     </g>
     <g id="text_12">
      <!-- 0 -->
      <g transform="translate(40.610935 132.031503)scale(0.06 -0.06)">
       <use xlink:href="#DejaVuSerif-30"/>
      </g>
     </g>
    </g>
    <g id="xtick_2">
     <g id="line2d_18">
      <g>
       <use style="stroke:#000000;stroke-width:0.8;" x="70.866142" xlink:href="#m613344bd92" y="120.472441"/>
      </g>
     </g>
     <g id="text_13">
      <!-- 200 -->
      <defs>
       <path d="M 12.796875 55.515625 
L 7.328125 55.515625 
L 7.328125 68.5 
Q 12.546875 71.296875 17.84375 72.75 
Q 23.140625 74.21875 28.21875 74.21875 
Q 39.59375 74.21875 46.1875 68.703125 
Q 52.78125 63.1875 52.78125 53.71875 
Q 52.78125 43.015625 37.84375 28.125 
Q 36.671875 27 36.078125 26.421875 
L 17.671875 8.015625 
L 48.09375 8.015625 
L 48.09375 17 
L 53.8125 17 
L 53.8125 0 
L 6.78125 0 
L 6.78125 5.328125 
L 28.90625 27.390625 
Q 36.234375 34.71875 39.359375 40.84375 
Q 42.484375 46.96875 42.484375 53.71875 
Q 42.484375 61.078125 38.640625 65.234375 
Q 34.8125 69.390625 28.078125 69.390625 
Q 21.09375 69.390625 17.28125 65.921875 
Q 13.484375 62.453125 12.796875 55.515625 
z
" id="DejaVuSerif-32"/>
      </defs>
      <g transform="translate(65.139892 132.031503)scale(0.06 -0.06)">
       <use xlink:href="#DejaVuSerif-32"/>
       <use x="63.623047" xlink:href="#DejaVuSerif-30"/>
       <use x="127.246094" xlink:href="#DejaVuSerif-30"/>
      </g>
     </g>
    </g>
    <g id="xtick_3">
     <g id="line2d_19">
      <g>
       <use style="stroke:#000000;stroke-width:0.8;" x="99.212598" xlink:href="#m613344bd92" y="120.472441"/>
      </g>
     </g>
     <g id="text_14">
      <!-- 400 -->
      <defs>
       <path d="M 34.90625 24.703125 
L 34.90625 63.484375 
L 10.015625 24.703125 
z
M 56.390625 0 
L 23.1875 0 
L 23.1875 5.171875 
L 34.90625 5.171875 
L 34.90625 19.484375 
L 3.078125 19.484375 
L 3.078125 24.8125 
L 35.015625 74.21875 
L 44.671875 74.21875 
L 44.671875 24.703125 
L 58.59375 24.703125 
L 58.59375 19.484375 
L 44.671875 19.484375 
L 44.671875 5.171875 
L 56.390625 5.171875 
z
" id="DejaVuSerif-34"/>
      </defs>
      <g transform="translate(93.486348 132.031503)scale(0.06 -0.06)">
       <use xlink:href="#DejaVuSerif-34"/>
       <use x="63.623047" xlink:href="#DejaVuSerif-30"/>
       <use x="127.246094" xlink:href="#DejaVuSerif-30"/>
      </g>
     </g>
    </g>
    <g id="xtick_4">
     <g id="line2d_20">
      <g>
       <use style="stroke:#000000;stroke-width:0.8;" x="127.559055" xlink:href="#m613344bd92" y="120.472441"/>
      </g>
     </g>
     <g id="text_15">
      <!-- 600 -->
      <defs>
       <path d="M 32.71875 3.421875 
Q 39.59375 3.421875 43.296875 8.46875 
Q 47.015625 13.53125 47.015625 23 
Q 47.015625 32.46875 43.296875 37.515625 
Q 39.59375 42.578125 32.71875 42.578125 
Q 25.734375 42.578125 22.0625 37.6875 
Q 18.40625 32.8125 18.40625 23.578125 
Q 18.40625 13.875 22.109375 8.640625 
Q 25.828125 3.421875 32.71875 3.421875 
z
M 16.796875 40.140625 
Q 20.125 43.796875 24.3125 45.59375 
Q 28.515625 47.40625 33.796875 47.40625 
Q 44.671875 47.40625 51 40.859375 
Q 57.328125 34.328125 57.328125 23 
Q 57.328125 11.921875 50.515625 5.25 
Q 43.703125 -1.421875 32.328125 -1.421875 
Q 19.96875 -1.421875 13.328125 7.78125 
Q 6.6875 17 6.6875 34.078125 
Q 6.6875 53.21875 14.546875 63.71875 
Q 22.40625 74.21875 36.71875 74.21875 
Q 40.578125 74.21875 44.828125 73.484375 
Q 49.078125 72.75 53.515625 71.296875 
L 53.515625 59.28125 
L 48 59.28125 
Q 47.40625 64.203125 44.234375 66.796875 
Q 41.0625 69.390625 35.6875 69.390625 
Q 26.21875 69.390625 21.578125 62.203125 
Q 16.9375 55.03125 16.796875 40.140625 
z
" id="DejaVuSerif-36"/>
      </defs>
      <g transform="translate(121.832805 132.031503)scale(0.06 -0.06)">
       <use xlink:href="#DejaVuSerif-36"/>
       <use x="63.623047" xlink:href="#DejaVuSerif-30"/>
       <use x="127.246094" xlink:href="#DejaVuSerif-30"/>
      </g>
     </g>
    </g>
    <g id="xtick_5">
     <g id="line2d_21">
      <g>
       <use style="stroke:#000000;stroke-width:0.8;" x="155.905512" xlink:href="#m613344bd92" y="120.472441"/>
      </g>
     </g>
     <g id="text_16">
      <!-- 800 -->
      <defs>
       <path d="M 46.578125 19.921875 
Q 46.578125 27.734375 42.6875 32.046875 
Q 38.8125 36.375 31.78125 36.375 
Q 24.75 36.375 20.875 32.046875 
Q 17 27.734375 17 19.921875 
Q 17 12.0625 20.875 7.734375 
Q 24.75 3.421875 31.78125 3.421875 
Q 38.8125 3.421875 42.6875 7.734375 
Q 46.578125 12.0625 46.578125 19.921875 
z
M 44.578125 55.328125 
Q 44.578125 61.96875 41.203125 65.671875 
Q 37.84375 69.390625 31.78125 69.390625 
Q 25.78125 69.390625 22.390625 65.671875 
Q 19 61.96875 19 55.328125 
Q 19 48.640625 22.390625 44.921875 
Q 25.78125 41.21875 31.78125 41.21875 
Q 37.84375 41.21875 41.203125 44.921875 
Q 44.578125 48.640625 44.578125 55.328125 
z
M 39.3125 38.8125 
Q 47.609375 37.703125 52.25 32.6875 
Q 56.890625 27.6875 56.890625 19.921875 
Q 56.890625 9.671875 50.390625 4.125 
Q 43.890625 -1.421875 31.78125 -1.421875 
Q 19.734375 -1.421875 13.203125 4.125 
Q 6.6875 9.671875 6.6875 19.921875 
Q 6.6875 27.6875 11.328125 32.6875 
Q 15.96875 37.703125 24.3125 38.8125 
Q 16.9375 40.140625 13 44.40625 
Q 9.078125 48.6875 9.078125 55.328125 
Q 9.078125 64.109375 15.125 69.15625 
Q 21.1875 74.21875 31.78125 74.21875 
Q 42.390625 74.21875 48.4375 69.15625 
Q 54.5 64.109375 54.5 55.328125 
Q 54.5 48.6875 50.5625 44.40625 
Q 46.625 40.140625 39.3125 38.8125 
z
" id="DejaVuSerif-38"/>
      </defs>
      <g transform="translate(150.179262 132.031503)scale(0.06 -0.06)">
       <use xlink:href="#DejaVuSerif-38"/>
       <use x="63.623047" xlink:href="#DejaVuSerif-30"/>
       <use x="127.246094" xlink:href="#DejaVuSerif-30"/>
      </g>
     </g>
    </g>
    <g id="xtick_6">
     <g id="line2d_22">
      <g>
       <use style="stroke:#000000;stroke-width:0.8;" x="184.251969" xlink:href="#m613344bd92" y="120.472441"/>
      </g>
     </g>
     <g id="text_17">
      <!-- 1000 -->
      <g transform="translate(176.616969 132.031503)scale(0.06 -0.06)">
       <use xlink:href="#DejaVuSerif-31"/>
       <use x="63.623047" xlink:href="#DejaVuSerif-30"/>
       <use x="127.246094" xlink:href="#DejaVuSerif-30"/>
       <use x="190.869141" xlink:href="#DejaVuSerif-30"/>
      </g>
     </g>
    </g>
    <g id="xtick_7">
     <g id="line2d_23">
      <g>
       <use style="stroke:#000000;stroke-width:0.8;" x="212.598425" xlink:href="#m613344bd92" y="120.472441"/>
      </g>
     </g>
     <g id="text_18">
      <!-- 1200 -->
      <g transform="translate(204.963425 132.031503)scale(0.06 -0.06)">
       <use xlink:href="#DejaVuSerif-31"/>
       <use x="63.623047" xlink:href="#DejaVuSerif-32"/>
       <use x="127.246094" xlink:href="#DejaVuSerif-30"/>
       <use x="190.869141" xlink:href="#DejaVuSerif-30"/>
      </g>
     </g>
    </g>
    <g id="xtick_8">
     <g id="line2d_24">
      <g>
       <use style="stroke:#000000;stroke-width:0.8;" x="240.944882" xlink:href="#m613344bd92" y="120.472441"/>
      </g>
     </g>
     <g id="text_19">
      <!-- 1400 -->
      <g transform="translate(233.309882 132.031503)scale(0.06 -0.06)">
       <use xlink:href="#DejaVuSerif-31"/>
       <use x="63.623047" xlink:href="#DejaVuSerif-34"/>
       <use x="127.246094" xlink:href="#DejaVuSerif-30"/>
       <use x="190.869141" xlink:href="#DejaVuSerif-30"/>
      </g>
     </g>
    </g>
    <g id="xtick_9">
     <g id="line2d_25">
      <g>
       <use style="stroke:#000000;stroke-width:0.8;" x="269.291339" xlink:href="#m613344bd92" y="120.472441"/>
      </g>
     </g>
     <g id="text_20">
      <!-- 1600 -->
      <g transform="translate(261.656339 132.031503)scale(0.06 -0.06)">
       <use xlink:href="#DejaVuSerif-31"/>
       <use x="63.623047" xlink:href="#DejaVuSerif-36"/>
       <use x="127.246094" xlink:href="#DejaVuSerif-30"/>
       <use x="190.869141" xlink:href="#DejaVuSerif-30"/>
      </g>
     </g>
    </g>
    <g id="text_21">
     <!-- Time (s) -->
     <defs>
      <path d="M 19.09375 0 
L 19.09375 5.171875 
L 28.421875 5.171875 
L 28.421875 67.09375 
L 6.984375 67.09375 
L 6.984375 55.71875 
L 0.984375 55.71875 
L 0.984375 72.90625 
L 65.71875 72.90625 
L 65.71875 55.71875 
L 59.71875 55.71875 
L 59.71875 67.09375 
L 38.28125 67.09375 
L 38.28125 5.171875 
L 47.609375 5.171875 
L 47.609375 0 
z
" id="DejaVuSerif-54"/>
     </defs>
     <g transform="translate(139.352387 143.358066)scale(0.08 -0.08)">
      <use xlink:href="#DejaVuSerif-54"/>
      <use x="66.699219" xlink:href="#DejaVuSerif-69"/>
      <use x="98.681641" xlink:href="#DejaVuSerif-6d"/>
      <use x="193.505859" xlink:href="#DejaVuSerif-65"/>
      <use x="252.685547" xlink:href="#DejaVuSerif-20"/>
      <use x="284.472656" xlink:href="#DejaVuSerif-28"/>
      <use x="323.486328" xlink:href="#DejaVuSerif-73"/>
      <use x="374.804688" xlink:href="#DejaVuSerif-29"/>
     </g>
    </g>
   </g>
   <g id="matplotlib.axis_4">
    <g id="ytick_5">
     <g id="line2d_26">
      <g>
       <use style="stroke:#000000;stroke-width:0.8;" x="42.519685" xlink:href="#mca1767b508" y="109.133858"/>
      </g>
     </g>
     <g id="text_22">
      <!-- 0.05 -->
      <defs>
       <path d="M 9.421875 5.078125 
Q 9.421875 7.8125 11.28125 9.71875 
Q 13.140625 11.625 15.921875 11.625 
Q 18.609375 11.625 20.5 9.71875 
Q 22.40625 7.8125 22.40625 5.078125 
Q 22.40625 2.390625 20.5 0.484375 
Q 18.609375 -1.421875 15.921875 -1.421875 
Q 13.140625 -1.421875 11.28125 0.453125 
Q 9.421875 2.34375 9.421875 5.078125 
z
" id="DejaVuSerif-2e"/>
      </defs>
      <g transform="translate(22.16031 111.41339)scale(0.06 -0.06)">
       <use xlink:href="#DejaVuSerif-30"/>
       <use x="63.623047" xlink:href="#DejaVuSerif-2e"/>
       <use x="95.410156" xlink:href="#DejaVuSerif-30"/>
       <use x="159.033203" xlink:href="#DejaVuSerif-35"/>
      </g>
     </g>
    </g>
    <g id="ytick_6">
     <g id="line2d_27">
      <g>
       <use style="stroke:#000000;stroke-width:0.8;" x="42.519685" xlink:href="#mca1767b508" y="90.23622"/>
      </g>
     </g>
     <g id="text_23">
      <!-- 0.10 -->
      <g transform="translate(22.16031 92.515752)scale(0.06 -0.06)">
       <use xlink:href="#DejaVuSerif-30"/>
       <use x="63.623047" xlink:href="#DejaVuSerif-2e"/>
       <use x="95.410156" xlink:href="#DejaVuSerif-31"/>
       <use x="159.033203" xlink:href="#DejaVuSerif-30"/>
      </g>
     </g>
    </g>
    <g id="ytick_7">
     <g id="line2d_28">
      <g>
       <use style="stroke:#000000;stroke-width:0.8;" x="42.519685" xlink:href="#mca1767b508" y="71.338583"/>
      </g>
     </g>
     <g id="text_24">
      <!-- 0.15 -->
      <g transform="translate(22.16031 73.618114)scale(0.06 -0.06)">
       <use xlink:href="#DejaVuSerif-30"/>
       <use x="63.623047" xlink:href="#DejaVuSerif-2e"/>
       <use x="95.410156" xlink:href="#DejaVuSerif-31"/>
       <use x="159.033203" xlink:href="#DejaVuSerif-35"/>
      </g>
     </g>
    </g>
    <g id="text_25">
     <!-- $\Gamma$ -->
     <defs>
      <path d="M 24.703125 5.171875 
L 36.375 5.171875 
L 36.375 0 
L 5.515625 0 
L 5.515625 5.171875 
L 14.796875 5.171875 
L 14.796875 67.671875 
L 5.515625 67.671875 
L 5.515625 72.90625 
L 65.1875 72.90625 
L 65.1875 56.640625 
L 59.1875 56.640625 
L 59.1875 66.890625 
L 24.703125 66.890625 
z
" id="DejaVuSerif-393"/>
     </defs>
     <g transform="translate(16.49656 94.925984)rotate(-90)scale(0.08 -0.08)">
      <use transform="translate(0 0.09375)" xlink:href="#DejaVuSerif-393"/>
     </g>
    </g>
   </g>
   <g id="line2d_29">
    <path clip-path="url(#pe46bb48dfb)" d="M 53.149606 119.394457 
L 63.779528 111.747973 
L 74.409449 105.018871 
L 85.03937 99.644121 
L 95.669291 96.161044 
L 106.299213 94.611171 
L 116.929134 94.168697 
L 127.559055 94.078302 
L 138.188976 94.067103 
L 148.818898 94.056169 
L 149.88189 94.024458 
L 150.944882 93.949736 
L 152.007874 93.860691 
L 153.070866 93.768125 
L 154.133858 93.678415 
L 155.19685 93.598619 
L 156.259843 93.528934 
L 157.322835 93.470727 
L 158.385827 93.422333 
L 159.448819 93.382728 
L 160.511811 93.351937 
L 161.574803 93.327257 
L 162.637795 93.31081 
L 163.700787 93.297507 
L 164.76378 93.287819 
L 165.826772 93.280752 
L 166.889764 93.279004 
L 167.952756 93.281976 
L 169.015748 93.285256 
L 170.07874 93.286406 
L 171.141732 93.31104 
L 172.204724 93.362484 
L 173.267717 93.419299 
L 174.330709 93.474839 
L 175.393701 93.520769 
L 176.456693 93.559139 
L 177.519685 93.588831 
L 178.582677 93.610342 
L 179.645669 93.625607 
L 180.708661 93.638407 
L 181.771654 93.646395 
L 182.834646 93.652652 
L 183.897638 93.657192 
L 184.96063 93.65759 
L 186.023622 93.65714 
L 187.086614 93.656696 
L 188.149606 93.655451 
L 189.212598 93.651773 
L 190.275591 93.647682 
L 191.338583 93.643931 
L 192.401575 93.653965 
L 193.464567 93.678164 
L 194.527559 93.704943 
L 195.590551 93.731627 
L 196.653543 93.753363 
L 197.716535 93.771933 
L 198.779528 93.786737 
L 199.84252 93.800454 
L 200.905512 93.810529 
L 201.968504 93.820405 
L 203.031496 93.830334 
L 204.094488 93.838463 
L 205.15748 93.843773 
L 206.220472 93.847006 
L 207.283465 93.850092 
L 208.346457 93.855146 
L 209.409449 93.860084 
L 210.472441 93.863793 
L 211.535433 93.866434 
L 212.598425 93.869442 
L 213.661417 93.869892 
L 214.724409 93.868067 
L 215.787402 93.867878 
L 216.850394 93.867486 
L 217.913386 93.866623 
L 218.976378 93.865294 
L 220.03937 93.863557 
L 221.102362 93.862584 
L 222.165354 93.863489 
L 223.228346 93.867036 
L 224.291339 93.869338 
L 225.354331 93.871791 
L 226.417323 93.874878 
L 227.480315 93.875835 
L 228.543307 93.877064 
L 229.606299 93.877509 
L 230.669291 93.876191 
L 231.732283 93.876604 
L 232.795276 93.875223 
L 233.858268 93.8755 
L 244.488189 93.875165 
L 255.11811 93.891675 
L 265.748031 93.882813 
L 276.377953 93.895143 
L 284.464567 93.888911 
" style="fill:none;stroke:#4d4d4d;stroke-linecap:square;"/>
   </g>
   <g id="line2d_30">
    <path clip-path="url(#pe46bb48dfb)" d="M 53.149606 119.386961 
L 63.779528 111.874772 
L 74.409449 105.287811 
L 85.03937 99.958677 
L 95.669291 96.360567 
L 106.299213 94.758047 
L 116.929134 94.322646 
L 127.559055 94.236472 
L 138.188976 94.254614 
L 148.818898 94.316598 
L 149.88189 94.269732 
L 150.944882 94.14274 
L 152.007874 94.058079 
L 153.070866 93.977953 
L 154.133858 93.914457 
L 155.19685 93.840378 
L 156.259843 93.766299 
L 157.322835 93.704315 
L 158.385827 93.630236 
L 159.448819 93.595465 
L 160.511811 93.548598 
L 161.574803 93.524409 
L 162.637795 93.489638 
L 163.700787 93.45789 
L 164.76378 93.435213 
L 165.826772 93.401953 
L 166.889764 93.414047 
L 167.952756 93.421606 
L 169.015748 93.421606 
L 170.07874 93.427654 
L 171.141732 93.690709 
L 172.204724 94.293921 
L 173.267717 95.022614 
L 174.330709 95.66211 
L 175.393701 96.340913 
L 176.456693 96.812598 
L 177.519685 97.317543 
L 178.582677 97.639559 
L 179.645669 97.93285 
L 180.708661 98.17474 
L 181.771654 98.36674 
L 182.834646 98.526992 
L 183.897638 98.693291 
L 184.96063 98.794583 
L 186.023622 98.879244 
L 187.086614 98.968441 
L 188.149606 99.02589 
L 189.212598 99.087874 
L 190.275591 99.13474 
L 191.338583 99.174047 
L 192.401575 98.99263 
L 193.464567 98.318362 
L 194.527559 97.338709 
L 195.590551 96.307654 
L 196.653543 95.334047 
L 197.716535 94.466268 
L 198.779528 93.745134 
L 199.84252 93.12378 
L 200.905512 92.564409 
L 201.968504 92.133543 
L 203.031496 91.757102 
L 204.094488 91.439622 
L 205.15748 91.193197 
L 206.220472 90.999685 
L 207.283465 90.860598 
L 208.346457 90.741165 
L 209.409449 90.633827 
L 210.472441 90.564283 
L 211.535433 90.481134 
L 212.598425 90.379843 
L 213.661417 90.334488 
L 214.724409 90.264945 
L 215.787402 90.216567 
L 216.850394 90.192378 
L 217.913386 90.166677 
L 218.976378 90.153071 
L 220.03937 90.131906 
L 221.102362 90.153071 
L 222.165354 90.162142 
L 223.228346 90.168189 
L 224.291339 90.162142 
L 225.354331 90.142488 
L 226.417323 90.147024 
L 227.480315 90.134929 
L 228.543307 90.139465 
L 229.606299 90.147024 
L 230.669291 90.154583 
L 231.732283 90.172724 
L 232.795276 90.183307 
L 233.858268 90.198425 
L 244.488189 90.298205 
L 255.11811 90.443339 
L 265.748031 90.487181 
L 276.377953 90.593008 
L 284.464567 90.61716 
" style="fill:none;stroke:#007849;stroke-linecap:square;"/>
   </g>
   <g id="line2d_31">
    <path clip-path="url(#pe46bb48dfb)" d="M 53.149606 119.297764 
L 63.779528 111.573921 
L 74.409449 104.932535 
L 85.03937 99.691087 
L 95.669291 96.159496 
L 106.299213 94.582677 
L 116.929134 94.263685 
L 127.559055 94.168441 
L 138.188976 94.157858 
L 148.818898 94.110992 
L 149.88189 94.752 
L 150.944882 96.061228 
L 152.007874 97.476283 
L 153.070866 99.015307 
L 154.133858 100.282205 
L 155.19685 101.369197 
L 156.259843 102.312567 
L 157.322835 103.068472 
L 158.385827 103.677732 
L 159.448819 104.187213 
L 160.511811 104.575748 
L 161.574803 104.908346 
L 162.637795 105.183496 
L 163.700787 105.440504 
L 164.76378 105.647622 
L 165.826772 105.785197 
L 166.889764 105.928819 
L 167.952756 106.034646 
L 169.015748 106.138961 
L 170.07874 106.234205 
L 171.141732 105.632504 
L 172.204724 103.552252 
L 173.267717 100.646551 
L 174.330709 97.450583 
L 175.393701 94.127622 
L 176.456693 90.940724 
L 177.519685 88.139339 
L 178.582677 85.570772 
L 179.645669 83.207811 
L 180.708661 81.168378 
L 181.771654 79.525039 
L 182.834646 78.22337 
L 183.897638 77.103118 
L 184.96063 76.247433 
L 186.023622 75.542929 
L 187.086614 75.027402 
L 188.149606 74.617701 
L 189.212598 74.288126 
L 190.275591 74.035654 
L 191.338583 73.827024 
L 192.401575 73.716661 
L 193.464567 73.613858 
L 194.527559 73.533732 
L 195.590551 73.461165 
L 196.653543 73.432441 
L 197.716535 73.426394 
L 198.779528 73.424882 
L 199.84252 73.446047 
L 200.905512 73.467213 
L 201.968504 73.52315 
L 203.031496 73.541291 
L 204.094488 73.588157 
L 205.15748 73.641071 
L 206.220472 73.680378 
L 207.283465 73.727244 
L 208.346457 73.780157 
L 209.409449 73.822488 
L 210.472441 73.895055 
L 211.535433 73.902614 
L 212.598425 73.944945 
L 213.661417 74.006929 
L 214.724409 74.04926 
L 215.787402 74.127874 
L 216.850394 74.167181 
L 217.913386 74.198929 
L 218.976378 74.232189 
L 220.03937 74.273008 
L 221.102362 74.344063 
L 222.165354 74.393953 
L 223.228346 74.443843 
L 224.291339 74.475591 
L 225.354331 74.50885 
L 226.417323 74.546646 
L 227.480315 74.570835 
L 228.543307 74.596535 
L 229.606299 74.661543 
L 230.669291 74.687244 
L 231.732283 74.728063 
L 232.795276 74.780976 
L 233.858268 74.836913 
L 244.488189 75.168 
L 255.11811 75.45978 
L 265.748031 75.816567 
L 276.377953 76.103811 
L 284.464567 76.32808 
" style="fill:none;stroke:#9681b7;stroke-linecap:square;"/>
   </g>
   <g id="line2d_32">
    <path clip-path="url(#pe46bb48dfb)" d="M 53.149606 119.379402 
L 63.779528 111.77348 
L 74.409449 104.959748 
L 85.03937 99.641197 
L 95.669291 96.284976 
L 106.299213 94.758047 
L 116.929134 94.280315 
L 127.559055 94.163906 
L 138.188976 94.130646 
L 148.818898 94.188094 
L 149.88189 94.826079 
L 150.944882 96.088441 
L 152.007874 97.66526 
L 153.070866 99.195213 
L 154.133858 100.407685 
L 155.19685 101.470488 
L 156.259843 102.368504 
L 157.322835 103.088126 
L 158.385827 103.689827 
L 159.448819 104.20989 
L 160.511811 104.613543 
L 161.574803 104.953701 
L 162.637795 105.237921 
L 163.700787 105.466205 
L 164.76378 105.667276 
L 165.826772 105.830551 
L 166.889764 105.968126 
L 167.952756 106.076976 
L 169.015748 106.176756 
L 170.07874 106.249323 
L 171.141732 106.03011 
L 172.204724 105.109417 
L 173.267717 103.786583 
L 174.330709 102.435024 
L 175.393701 101.065323 
L 176.456693 99.867969 
L 177.519685 98.725039 
L 178.582677 97.695496 
L 179.645669 96.879118 
L 180.708661 96.16252 
L 181.771654 95.574425 
L 182.834646 95.160189 
L 183.897638 94.755024 
L 184.96063 94.457197 
L 186.023622 94.179024 
L 187.086614 93.997606 
L 188.149606 93.822236 
L 189.212598 93.696756 
L 190.275591 93.607559 
L 191.338583 93.553134 
L 192.401575 93.169134 
L 193.464567 92.184945 
L 194.527559 91.026898 
L 195.590551 89.823496 
L 196.653543 88.71685 
L 197.716535 87.667654 
L 198.779528 86.819528 
L 199.84252 86.080252 
L 200.905512 85.487622 
L 201.968504 85.00989 
L 203.031496 84.639496 
L 204.094488 84.340157 
L 205.15748 84.065008 
L 206.220472 83.89115 
L 207.283465 83.729386 
L 208.346457 83.602394 
L 209.409449 83.511685 
L 210.472441 83.448189 
L 211.535433 83.369575 
L 212.598425 83.316661 
L 213.661417 83.295496 
L 214.724409 83.277354 
L 215.787402 83.263748 
L 216.850394 83.256189 
L 217.913386 83.227465 
L 218.976378 83.207811 
L 220.03937 83.186646 
L 221.102362 83.174551 
L 222.165354 83.160945 
L 223.228346 83.16548 
L 224.291339 83.185134 
L 225.354331 83.212346 
L 226.417323 83.232 
L 227.480315 83.241071 
L 228.543307 83.26526 
L 229.606299 83.280378 
L 230.669291 83.31515 
L 231.732283 83.328756 
L 232.795276 83.348409 
L 233.858268 83.355969 
L 244.488189 83.600882 
L 255.11811 83.736945 
L 265.748031 83.947087 
L 276.377953 84.172346 
L 284.464567 84.288506 
" style="fill:none;stroke:#e97117;stroke-dasharray:3.7,1.6;stroke-dashoffset:0;"/>
   </g>
   <g id="line2d_33">
    <defs>
     <path d="M 0 1.25 
C 0.331504 1.25 0.649475 1.118292 0.883883 0.883883 
C 1.118292 0.649475 1.25 0.331504 1.25 0 
C 1.25 -0.331504 1.118292 -0.649475 0.883883 -0.883883 
C 0.649475 -1.118292 0.331504 -1.25 0 -1.25 
C -0.331504 -1.25 -0.649475 -1.118292 -0.883883 -0.883883 
C -1.118292 -0.649475 -1.25 -0.331504 -1.25 0 
C -1.25 0.331504 -1.118292 0.649475 -0.883883 0.883883 
C -0.649475 1.118292 -0.331504 1.25 0 1.25 
z
" id="m1734fb6721" style="stroke:#353a90;"/>
    </defs>
    <g clip-path="url(#pe46bb48dfb)">
     <use style="fill:#353a90;stroke:#353a90;" x="148.818898" xlink:href="#m1734fb6721" y="94.110992"/>
    </g>
   </g>
   <g id="line2d_34">
    <g clip-path="url(#pe46bb48dfb)">
     <use style="fill:#353a90;stroke:#353a90;" x="170.07874" xlink:href="#m1734fb6721" y="106.234205"/>
    </g>
   </g>
   <g id="line2d_35">
    <g clip-path="url(#pe46bb48dfb)">
     <use style="fill:#353a90;stroke:#353a90;" x="212.598425" xlink:href="#m1734fb6721" y="73.944945"/>
    </g>
   </g>
   <g id="patch_10">
    <path d="M 42.519685 120.472441 
L 42.519685 63.779528 
" style="fill:none;stroke:#000000;stroke-linecap:square;stroke-linejoin:miter;stroke-width:0.8;"/>
   </g>
   <g id="patch_11">
    <path d="M 42.519685 120.472441 
L 269.291339 120.472441 
" style="fill:none;stroke:#000000;stroke-linecap:square;stroke-linejoin:miter;stroke-width:0.8;"/>
   </g>
  </g>
 </g>
 <defs>
  <clipPath id="p2eaa264684">
   <rect height="56.692913" width="226.771654" x="42.519685" y="1.417323"/>
  </clipPath>
  <clipPath id="pe46bb48dfb">
   <rect height="56.692913" width="226.771654" x="42.519685" y="63.779528"/>
  </clipPath>
 </defs>
</svg>
