<?xml version="1.0" encoding="utf-8" standalone="no"?>
<!DOCTYPE svg PUBLIC "-//W3C//DTD SVG 1.1//EN"
  "http://www.w3.org/Graphics/SVG/1.1/DTD/svg11.dtd">
<!-- Created with matplotlib (http://matplotlib.org/) -->
<svg height="170pt" version="1.1" viewBox="0 0 396 170" width="396pt" xmlns="http://www.w3.org/2000/svg" xmlns:xlink="http://www.w3.org/1999/xlink">
 <defs>
  <style type="text/css">
*{stroke-linecap:butt;stroke-linejoin:round;}
  </style>
 </defs>
 <g id="figure_1">
  <g id="patch_1">
   <path d="M 0 170.07874 
L 396.850394 170.07874 
L 396.850394 0 
L 0 0 
z
" style="fill:#ffffff;"/>
  </g>
  <g id="axes_1">
   <g id="patch_2">
    <path d="M 31.748031 80.017998 
L 144.602362 80.017998 
L 144.602362 13.606299 
L 31.748031 13.606299 
z
" style="fill:#ffffff;"/>
   </g>
   <g id="matplotlib.axis_1"/>
   <g id="matplotlib.axis_2">
    <g id="ytick_1">
     <g id="line2d_1">
      <defs>
       <path d="M 0 0 
L -3.5 0 
" id="m94d1994ddd" style="stroke:#000000;stroke-width:0.8;"/>
      </defs>
      <g>
       <use style="stroke:#000000;stroke-width:0.8;" x="31.748031" xlink:href="#m94d1994ddd" y="80.017998"/>
      </g>
     </g>
     <g id="text_1">
      <!-- 0.010 -->
      <defs>
       <path d="M 31.78125 3.421875 
Q 39.265625 3.421875 42.96875 11.625 
Q 46.6875 19.828125 46.6875 36.375 
Q 46.6875 52.984375 42.96875 61.1875 
Q 39.265625 69.390625 31.78125 69.390625 
Q 24.3125 69.390625 20.59375 61.1875 
Q 16.890625 52.984375 16.890625 36.375 
Q 16.890625 19.828125 20.59375 11.625 
Q 24.3125 3.421875 31.78125 3.421875 
z
M 31.78125 -1.421875 
Q 19.921875 -1.421875 13.25 8.53125 
Q 6.59375 18.5 6.59375 36.375 
Q 6.59375 54.296875 13.25 64.25 
Q 19.921875 74.21875 31.78125 74.21875 
Q 43.703125 74.21875 50.34375 64.25 
Q 56.984375 54.296875 56.984375 36.375 
Q 56.984375 18.5 50.34375 8.53125 
Q 43.703125 -1.421875 31.78125 -1.421875 
z
" id="DejaVuSerif-30"/>
       <path d="M 9.421875 5.078125 
Q 9.421875 7.8125 11.28125 9.71875 
Q 13.140625 11.625 15.921875 11.625 
Q 18.609375 11.625 20.5 9.71875 
Q 22.40625 7.8125 22.40625 5.078125 
Q 22.40625 2.390625 20.5 0.484375 
Q 18.609375 -1.421875 15.921875 -1.421875 
Q 13.140625 -1.421875 11.28125 0.453125 
Q 9.421875 2.34375 9.421875 5.078125 
z
" id="DejaVuSerif-2e"/>
       <path d="M 14.203125 0 
L 14.203125 5.171875 
L 26.90625 5.171875 
L 26.90625 65.828125 
L 12.203125 56.296875 
L 12.203125 62.703125 
L 29.984375 74.21875 
L 36.71875 74.21875 
L 36.71875 5.171875 
L 49.421875 5.171875 
L 49.421875 0 
z
" id="DejaVuSerif-31"/>
      </defs>
      <g transform="translate(7.571156 82.297529)scale(0.06 -0.06)">
       <use xlink:href="#DejaVuSerif-30"/>
       <use x="63.623047" xlink:href="#DejaVuSerif-2e"/>
       <use x="95.410156" xlink:href="#DejaVuSerif-30"/>
       <use x="159.033203" xlink:href="#DejaVuSerif-31"/>
       <use x="222.65625" xlink:href="#DejaVuSerif-30"/>
      </g>
     </g>
    </g>
    <g id="ytick_2">
     <g id="line2d_2">
      <g>
       <use style="stroke:#000000;stroke-width:0.8;" x="31.748031" xlink:href="#m94d1994ddd" y="57.880765"/>
      </g>
     </g>
     <g id="text_2">
      <!-- 0.012 -->
      <defs>
       <path d="M 12.796875 55.515625 
L 7.328125 55.515625 
L 7.328125 68.5 
Q 12.546875 71.296875 17.84375 72.75 
Q 23.140625 74.21875 28.21875 74.21875 
Q 39.59375 74.21875 46.1875 68.703125 
Q 52.78125 63.1875 52.78125 53.71875 
Q 52.78125 43.015625 37.84375 28.125 
Q 36.671875 27 36.078125 26.421875 
L 17.671875 8.015625 
L 48.09375 8.015625 
L 48.09375 17 
L 53.8125 17 
L 53.8125 0 
L 6.78125 0 
L 6.78125 5.328125 
L 28.90625 27.390625 
Q 36.234375 34.71875 39.359375 40.84375 
Q 42.484375 46.96875 42.484375 53.71875 
Q 42.484375 61.078125 38.640625 65.234375 
Q 34.8125 69.390625 28.078125 69.390625 
Q 21.09375 69.390625 17.28125 65.921875 
Q 13.484375 62.453125 12.796875 55.515625 
z
" id="DejaVuSerif-32"/>
      </defs>
      <g transform="translate(7.571156 60.160296)scale(0.06 -0.06)">
       <use xlink:href="#DejaVuSerif-30"/>
       <use x="63.623047" xlink:href="#DejaVuSerif-2e"/>
       <use x="95.410156" xlink:href="#DejaVuSerif-30"/>
       <use x="159.033203" xlink:href="#DejaVuSerif-31"/>
       <use x="222.65625" xlink:href="#DejaVuSerif-32"/>
      </g>
     </g>
    </g>
    <g id="ytick_3">
     <g id="line2d_3">
      <g>
       <use style="stroke:#000000;stroke-width:0.8;" x="31.748031" xlink:href="#m94d1994ddd" y="35.743532"/>
      </g>
     </g>
     <g id="text_3">
      <!-- 0.014 -->
      <defs>
       <path d="M 34.90625 24.703125 
L 34.90625 63.484375 
L 10.015625 24.703125 
z
M 56.390625 0 
L 23.1875 0 
L 23.1875 5.171875 
L 34.90625 5.171875 
L 34.90625 19.484375 
L 3.078125 19.484375 
L 3.078125 24.8125 
L 35.015625 74.21875 
L 44.671875 74.21875 
L 44.671875 24.703125 
L 58.59375 24.703125 
L 58.59375 19.484375 
L 44.671875 19.484375 
L 44.671875 5.171875 
L 56.390625 5.171875 
z
" id="DejaVuSerif-34"/>
      </defs>
      <g transform="translate(7.571156 38.023063)scale(0.06 -0.06)">
       <use xlink:href="#DejaVuSerif-30"/>
       <use x="63.623047" xlink:href="#DejaVuSerif-2e"/>
       <use x="95.410156" xlink:href="#DejaVuSerif-30"/>
       <use x="159.033203" xlink:href="#DejaVuSerif-31"/>
       <use x="222.65625" xlink:href="#DejaVuSerif-34"/>
      </g>
     </g>
    </g>
    <g id="ytick_4">
     <g id="line2d_4">
      <g>
       <use style="stroke:#000000;stroke-width:0.8;" x="31.748031" xlink:href="#m94d1994ddd" y="13.606299"/>
      </g>
     </g>
     <g id="text_4">
      <!-- 0.016 -->
      <defs>
       <path d="M 32.71875 3.421875 
Q 39.59375 3.421875 43.296875 8.46875 
Q 47.015625 13.53125 47.015625 23 
Q 47.015625 32.46875 43.296875 37.515625 
Q 39.59375 42.578125 32.71875 42.578125 
Q 25.734375 42.578125 22.0625 37.6875 
Q 18.40625 32.8125 18.40625 23.578125 
Q 18.40625 13.875 22.109375 8.640625 
Q 25.828125 3.421875 32.71875 3.421875 
z
M 16.796875 40.140625 
Q 20.125 43.796875 24.3125 45.59375 
Q 28.515625 47.40625 33.796875 47.40625 
Q 44.671875 47.40625 51 40.859375 
Q 57.328125 34.328125 57.328125 23 
Q 57.328125 11.921875 50.515625 5.25 
Q 43.703125 -1.421875 32.328125 -1.421875 
Q 19.96875 -1.421875 13.328125 7.78125 
Q 6.6875 17 6.6875 34.078125 
Q 6.6875 53.21875 14.546875 63.71875 
Q 22.40625 74.21875 36.71875 74.21875 
Q 40.578125 74.21875 44.828125 73.484375 
Q 49.078125 72.75 53.515625 71.296875 
L 53.515625 59.28125 
L 48 59.28125 
Q 47.40625 64.203125 44.234375 66.796875 
Q 41.0625 69.390625 35.6875 69.390625 
Q 26.21875 69.390625 21.578125 62.203125 
Q 16.9375 55.03125 16.796875 40.140625 
z
" id="DejaVuSerif-36"/>
      </defs>
      <g transform="translate(7.571156 15.88583)scale(0.06 -0.06)">
       <use xlink:href="#DejaVuSerif-30"/>
       <use x="63.623047" xlink:href="#DejaVuSerif-2e"/>
       <use x="95.410156" xlink:href="#DejaVuSerif-30"/>
       <use x="159.033203" xlink:href="#DejaVuSerif-31"/>
       <use x="222.65625" xlink:href="#DejaVuSerif-36"/>
      </g>
     </g>
    </g>
    <g id="text_5">
     <!-- Connectivity ($\Gamma$) -->
     <defs>
      <path d="M 70.515625 19.28125 
Q 67.28125 9.078125 59.6875 3.828125 
Q 52.09375 -1.421875 40.484375 -1.421875 
Q 33.34375 -1.421875 27.234375 1.015625 
Q 21.140625 3.46875 16.40625 8.203125 
Q 10.9375 13.671875 8.265625 20.625 
Q 5.609375 27.59375 5.609375 36.375 
Q 5.609375 53.375 15.421875 63.796875 
Q 25.25 74.21875 41.3125 74.21875 
Q 47.265625 74.21875 54 72.65625 
Q 60.75 71.09375 68.5 67.921875 
L 68.5 51.125 
L 62.984375 51.125 
Q 61.1875 60.296875 55.734375 64.640625 
Q 50.296875 69 40.484375 69 
Q 28.8125 69 22.796875 60.71875 
Q 16.796875 52.4375 16.796875 36.375 
Q 16.796875 20.359375 22.796875 12.078125 
Q 28.8125 3.8125 40.484375 3.8125 
Q 48.640625 3.8125 53.90625 7.6875 
Q 59.1875 11.578125 61.53125 19.28125 
z
" id="DejaVuSerif-43"/>
      <path d="M 30.078125 3.421875 
Q 37.3125 3.421875 40.984375 9.125 
Q 44.671875 14.84375 44.671875 25.984375 
Q 44.671875 37.109375 40.984375 42.796875 
Q 37.3125 48.484375 30.078125 48.484375 
Q 22.859375 48.484375 19.171875 42.796875 
Q 15.484375 37.109375 15.484375 25.984375 
Q 15.484375 14.84375 19.1875 9.125 
Q 22.90625 3.421875 30.078125 3.421875 
z
M 30.078125 -1.421875 
Q 18.75 -1.421875 11.859375 6.078125 
Q 4.984375 13.578125 4.984375 25.984375 
Q 4.984375 38.375 11.84375 45.84375 
Q 18.703125 53.328125 30.078125 53.328125 
Q 41.453125 53.328125 48.3125 45.84375 
Q 55.171875 38.375 55.171875 25.984375 
Q 55.171875 13.578125 48.3125 6.078125 
Q 41.453125 -1.421875 30.078125 -1.421875 
z
" id="DejaVuSerif-6f"/>
      <path d="M 4.109375 0 
L 4.109375 5.171875 
L 12.203125 5.171875 
L 12.203125 46.6875 
L 3.609375 46.6875 
L 3.609375 51.90625 
L 21.1875 51.90625 
L 21.1875 42.671875 
Q 23.6875 47.953125 27.65625 50.640625 
Q 31.640625 53.328125 36.921875 53.328125 
Q 45.515625 53.328125 49.5625 48.390625 
Q 53.609375 43.453125 53.609375 33.015625 
L 53.609375 5.171875 
L 61.625 5.171875 
L 61.625 0 
L 36.8125 0 
L 36.8125 5.171875 
L 44.578125 5.171875 
L 44.578125 30.171875 
Q 44.578125 39.703125 42.234375 43.234375 
Q 39.890625 46.78125 33.984375 46.78125 
Q 27.734375 46.78125 24.453125 42.203125 
Q 21.1875 37.640625 21.1875 28.90625 
L 21.1875 5.171875 
L 29 5.171875 
L 29 0 
z
" id="DejaVuSerif-6e"/>
      <path d="M 54.203125 25 
L 15.484375 25 
L 15.484375 24.609375 
Q 15.484375 14.109375 19.4375 8.765625 
Q 23.390625 3.421875 31.109375 3.421875 
Q 37.015625 3.421875 40.796875 6.515625 
Q 44.578125 9.625 46.09375 15.71875 
L 53.328125 15.71875 
Q 51.171875 7.171875 45.375 2.875 
Q 39.59375 -1.421875 30.171875 -1.421875 
Q 18.796875 -1.421875 11.890625 6.078125 
Q 4.984375 13.578125 4.984375 25.984375 
Q 4.984375 38.28125 11.765625 45.796875 
Q 18.5625 53.328125 29.59375 53.328125 
Q 41.359375 53.328125 47.65625 46.0625 
Q 53.953125 38.8125 54.203125 25 
z
M 43.609375 30.171875 
Q 43.3125 39.265625 39.765625 43.875 
Q 36.234375 48.484375 29.59375 48.484375 
Q 23.390625 48.484375 19.828125 43.84375 
Q 16.265625 39.203125 15.484375 30.171875 
z
" id="DejaVuSerif-65"/>
      <path d="M 51.421875 15.578125 
Q 49.515625 7.28125 44.09375 2.921875 
Q 38.671875 -1.421875 30.078125 -1.421875 
Q 18.75 -1.421875 11.859375 6.078125 
Q 4.984375 13.578125 4.984375 25.984375 
Q 4.984375 38.421875 11.859375 45.875 
Q 18.75 53.328125 30.078125 53.328125 
Q 35.015625 53.328125 39.890625 52.171875 
Q 44.78125 51.03125 49.703125 48.6875 
L 49.703125 35.40625 
L 44.484375 35.40625 
Q 43.453125 42.234375 40.015625 45.359375 
Q 36.578125 48.484375 30.171875 48.484375 
Q 22.90625 48.484375 19.1875 42.84375 
Q 15.484375 37.203125 15.484375 25.984375 
Q 15.484375 14.75 19.171875 9.078125 
Q 22.859375 3.421875 30.171875 3.421875 
Q 35.984375 3.421875 39.453125 6.4375 
Q 42.921875 9.46875 44.1875 15.578125 
z
" id="DejaVuSerif-63"/>
      <path d="M 10.796875 46.6875 
L 2.875 46.6875 
L 2.875 51.90625 
L 10.796875 51.90625 
L 10.796875 68.015625 
L 19.828125 68.015625 
L 19.828125 51.90625 
L 36.71875 51.90625 
L 36.71875 46.6875 
L 19.828125 46.6875 
L 19.828125 13.71875 
Q 19.828125 7.125 21.09375 5.265625 
Q 22.359375 3.421875 25.78125 3.421875 
Q 29.296875 3.421875 30.90625 5.484375 
Q 32.515625 7.5625 32.625 12.203125 
L 39.40625 12.203125 
Q 39.015625 5.125 35.546875 1.84375 
Q 32.078125 -1.421875 25 -1.421875 
Q 17.234375 -1.421875 14.015625 2.015625 
Q 10.796875 5.46875 10.796875 13.71875 
z
" id="DejaVuSerif-74"/>
      <path d="M 9.71875 68.015625 
Q 9.71875 70.265625 11.34375 71.921875 
Q 12.984375 73.578125 15.28125 73.578125 
Q 17.53125 73.578125 19.15625 71.921875 
Q 20.796875 70.265625 20.796875 68.015625 
Q 20.796875 65.71875 19.1875 64.109375 
Q 17.578125 62.5 15.28125 62.5 
Q 12.984375 62.5 11.34375 64.109375 
Q 9.71875 65.71875 9.71875 68.015625 
z
M 21.1875 5.171875 
L 29.6875 5.171875 
L 29.6875 0 
L 3.609375 0 
L 3.609375 5.171875 
L 12.203125 5.171875 
L 12.203125 46.6875 
L 3.609375 46.6875 
L 3.609375 51.90625 
L 21.1875 51.90625 
z
" id="DejaVuSerif-69"/>
      <path d="M 24.703125 0 
L 5.609375 46.6875 
L -0.296875 46.6875 
L -0.296875 51.90625 
L 23.578125 51.90625 
L 23.578125 46.6875 
L 15.28125 46.6875 
L 29.890625 10.984375 
L 44.484375 46.6875 
L 36.71875 46.6875 
L 36.71875 51.90625 
L 56.203125 51.90625 
L 56.203125 46.6875 
L 50.390625 46.6875 
L 31.296875 0 
z
" id="DejaVuSerif-76"/>
      <path d="M 21.578125 -9.515625 
L 25 -0.875 
L 5.609375 46.6875 
L -0.296875 46.6875 
L -0.296875 51.90625 
L 23.578125 51.90625 
L 23.578125 46.6875 
L 15.28125 46.6875 
L 29.890625 10.984375 
L 44.484375 46.6875 
L 36.71875 46.6875 
L 36.71875 51.90625 
L 56.203125 51.90625 
L 56.203125 46.6875 
L 50.390625 46.6875 
L 26.609375 -11.71875 
Q 24.171875 -17.78125 21.1875 -20 
Q 18.21875 -22.21875 12.796875 -22.21875 
Q 10.5 -22.21875 8.078125 -21.828125 
Q 5.671875 -21.4375 3.21875 -20.703125 
L 3.21875 -10.796875 
L 7.8125 -10.796875 
Q 8.109375 -14.109375 9.5 -15.546875 
Q 10.890625 -17 13.8125 -17 
Q 16.5 -17 18.140625 -15.5 
Q 19.78125 -14.015625 21.578125 -9.515625 
z
" id="DejaVuSerif-79"/>
      <path id="DejaVuSerif-20"/>
      <path d="M 31.890625 -15.578125 
Q 20.015625 -10.25 13.953125 1.296875 
Q 7.90625 12.84375 7.90625 30.171875 
Q 7.90625 47.5625 13.953125 59.109375 
Q 20.015625 70.65625 31.890625 75.984375 
L 31.890625 71.1875 
Q 24.359375 66.015625 21.09375 56.609375 
Q 17.828125 47.21875 17.828125 30.171875 
Q 17.828125 13.1875 21.09375 3.78125 
Q 24.359375 -5.609375 31.890625 -10.796875 
z
" id="DejaVuSerif-28"/>
      <path d="M 24.703125 5.171875 
L 36.375 5.171875 
L 36.375 0 
L 5.515625 0 
L 5.515625 5.171875 
L 14.796875 5.171875 
L 14.796875 67.671875 
L 5.515625 67.671875 
L 5.515625 72.90625 
L 65.1875 72.90625 
L 65.1875 56.640625 
L 59.1875 56.640625 
L 59.1875 66.890625 
L 24.703125 66.890625 
z
" id="DejaVuSerif-393"/>
      <path d="M 7.078125 -15.578125 
L 7.078125 -10.796875 
Q 14.59375 -5.609375 17.890625 3.78125 
Q 21.1875 13.1875 21.1875 30.171875 
Q 21.1875 47.21875 17.890625 56.609375 
Q 14.59375 66.015625 7.078125 71.1875 
L 7.078125 75.984375 
Q 19 70.65625 25.046875 59.109375 
Q 31.109375 47.5625 31.109375 30.171875 
Q 31.109375 12.84375 25.046875 1.296875 
Q 19 -10.25 7.078125 -15.578125 
z
" id="DejaVuSerif-29"/>
     </defs>
     <g transform="translate(1.731156 79.532148)rotate(-90)scale(0.08 -0.08)">
      <use transform="translate(0 0.015625)" xlink:href="#DejaVuSerif-43"/>
      <use transform="translate(76.513672 0.015625)" xlink:href="#DejaVuSerif-6f"/>
      <use transform="translate(136.71875 0.015625)" xlink:href="#DejaVuSerif-6e"/>
      <use transform="translate(201.123047 0.015625)" xlink:href="#DejaVuSerif-6e"/>
      <use transform="translate(265.527344 0.015625)" xlink:href="#DejaVuSerif-65"/>
      <use transform="translate(324.707031 0.015625)" xlink:href="#DejaVuSerif-63"/>
      <use transform="translate(380.712891 0.015625)" xlink:href="#DejaVuSerif-74"/>
      <use transform="translate(420.898438 0.015625)" xlink:href="#DejaVuSerif-69"/>
      <use transform="translate(452.880859 0.015625)" xlink:href="#DejaVuSerif-76"/>
      <use transform="translate(509.375 0.015625)" xlink:href="#DejaVuSerif-69"/>
      <use transform="translate(541.357422 0.015625)" xlink:href="#DejaVuSerif-74"/>
      <use transform="translate(581.542969 0.015625)" xlink:href="#DejaVuSerif-79"/>
      <use transform="translate(638.037109 0.015625)" xlink:href="#DejaVuSerif-20"/>
      <use transform="translate(669.824219 0.015625)" xlink:href="#DejaVuSerif-28"/>
      <use transform="translate(708.837891 0.015625)" xlink:href="#DejaVuSerif-393"/>
      <use transform="translate(778.222656 0.015625)" xlink:href="#DejaVuSerif-29"/>
     </g>
    </g>
   </g>
   <g id="line2d_5">
    <path clip-path="url(#p5ba029670b)" d="M 36.877774 54.909948 
L 53.976915 54.265755 
L 71.076056 53.877246 
L 88.175197 52.025467 
L 105.274338 51.146619 
L 122.373479 48.289809 
L 139.47262 45.146322 
" style="fill:none;stroke:#000000;stroke-linecap:square;"/>
   </g>
   <g id="line2d_6">
    <path clip-path="url(#p5ba029670b)" d="M 36.877774 47.482907 
L 53.976915 50.886506 
L 71.076056 52.234664 
L 88.175197 52.025467 
L 105.274338 51.621462 
L 122.373479 51.190893 
L 139.47262 50.657386 
" style="fill:none;stroke:#ff0000;stroke-linecap:square;"/>
   </g>
   <g id="line2d_7">
    <path clip-path="url(#p5ba029670b)" d="M 31.748031 53.707897 
L 144.602362 53.707897 
" style="fill:none;opacity:0.5;stroke:#808080;stroke-linecap:square;"/>
   </g>
   <g id="line2d_8">
    <path clip-path="url(#p5ba029670b)" d="M 88.175197 80.017998 
L 88.175197 13.606299 
" style="fill:none;opacity:0.5;stroke:#808080;stroke-linecap:square;"/>
   </g>
   <g id="patch_3">
    <path d="M 31.748031 80.017998 
L 31.748031 13.606299 
" style="fill:none;stroke:#000000;stroke-linecap:square;stroke-linejoin:miter;stroke-width:0.8;"/>
   </g>
   <g id="patch_4">
    <path d="M 31.748031 80.017998 
L 144.602362 80.017998 
" style="fill:none;stroke:#000000;stroke-linecap:square;stroke-linejoin:miter;stroke-width:0.8;"/>
   </g>
   <g id="text_6">
    <!-- tDCS before learning -->
    <defs>
     <path d="M 24.703125 5.171875 
L 33.796875 5.171875 
Q 48 5.171875 55.59375 13.28125 
Q 63.1875 21.390625 63.1875 36.53125 
Q 63.1875 51.65625 55.609375 59.65625 
Q 48.046875 67.671875 33.796875 67.671875 
L 24.703125 67.671875 
z
M 5.515625 0 
L 5.515625 5.171875 
L 14.796875 5.171875 
L 14.796875 67.671875 
L 5.515625 67.671875 
L 5.515625 72.90625 
L 34.515625 72.90625 
Q 53.375 72.90625 63.890625 63.28125 
Q 74.421875 53.65625 74.421875 36.53125 
Q 74.421875 19.34375 63.875 9.671875 
Q 53.328125 0 34.515625 0 
z
" id="DejaVuSerif-44"/>
     <path d="M 9.28125 3.515625 
L 9.28125 20.125 
L 14.890625 20.0625 
Q 15.140625 11.765625 19.703125 7.78125 
Q 24.265625 3.8125 33.59375 3.8125 
Q 42.28125 3.8125 46.84375 7.25 
Q 51.421875 10.6875 51.421875 17.28125 
Q 51.421875 22.5625 48.65625 25.390625 
Q 45.90625 28.21875 37.015625 30.90625 
L 27.390625 33.796875 
Q 16.9375 36.96875 12.671875 41.703125 
Q 8.40625 46.4375 8.40625 54.6875 
Q 8.40625 63.96875 14.984375 69.09375 
Q 21.578125 74.21875 33.5 74.21875 
Q 38.578125 74.21875 44.625 73.109375 
Q 50.6875 72.015625 57.515625 69.921875 
L 57.515625 54.390625 
L 52 54.390625 
Q 51.171875 62.109375 46.84375 65.546875 
Q 42.53125 69 33.6875 69 
Q 25.984375 69 21.953125 65.84375 
Q 17.921875 62.703125 17.921875 56.6875 
Q 17.921875 51.46875 20.9375 48.484375 
Q 23.96875 45.515625 33.796875 42.578125 
L 42.828125 39.890625 
Q 52.734375 36.921875 56.953125 32.296875 
Q 61.1875 27.6875 61.1875 19.921875 
Q 61.1875 9.328125 54.390625 3.953125 
Q 47.609375 -1.421875 34.1875 -1.421875 
Q 28.171875 -1.421875 21.9375 -0.1875 
Q 15.71875 1.03125 9.28125 3.515625 
z
" id="DejaVuSerif-53"/>
     <path d="M 11.53125 5.171875 
L 11.53125 70.796875 
L 2.875 70.796875 
L 2.875 75.984375 
L 20.515625 75.984375 
L 20.515625 43.796875 
Q 23.140625 48.6875 27.21875 51 
Q 31.296875 53.328125 37.3125 53.328125 
Q 46.875 53.328125 52.921875 45.75 
Q 58.984375 38.1875 58.984375 25.984375 
Q 58.984375 13.765625 52.921875 6.171875 
Q 46.875 -1.421875 37.3125 -1.421875 
Q 31.296875 -1.421875 27.21875 0.890625 
Q 23.140625 3.21875 20.515625 8.109375 
L 20.515625 0 
L 2.875 0 
L 2.875 5.171875 
z
M 20.515625 23.390625 
Q 20.515625 14.015625 24.09375 9.109375 
Q 27.6875 4.203125 34.515625 4.203125 
Q 41.40625 4.203125 44.9375 9.71875 
Q 48.484375 15.234375 48.484375 25.984375 
Q 48.484375 36.765625 44.9375 42.234375 
Q 41.40625 47.703125 34.515625 47.703125 
Q 27.6875 47.703125 24.09375 42.765625 
Q 20.515625 37.84375 20.515625 28.515625 
z
" id="DejaVuSerif-62"/>
     <path d="M 43.015625 63.71875 
L 38.28125 63.71875 
Q 38.234375 67.390625 36.203125 69.28125 
Q 34.1875 71.1875 30.328125 71.1875 
Q 25.296875 71.1875 23.234375 68.421875 
Q 21.1875 65.671875 21.1875 58.59375 
L 21.1875 51.90625 
L 35.6875 51.90625 
L 35.6875 46.6875 
L 21.1875 46.6875 
L 21.1875 5.171875 
L 32.71875 5.171875 
L 32.71875 0 
L 3.609375 0 
L 3.609375 5.171875 
L 12.203125 5.171875 
L 12.203125 46.6875 
L 3.609375 46.6875 
L 3.609375 51.90625 
L 12.203125 51.90625 
L 12.203125 58.40625 
Q 12.203125 67.09375 16.71875 71.53125 
Q 21.234375 75.984375 29.984375 75.984375 
Q 33.25 75.984375 36.515625 75.390625 
Q 39.796875 74.8125 43.015625 73.578125 
z
" id="DejaVuSerif-66"/>
     <path d="M 47.796875 52 
L 47.796875 39.015625 
L 42.625 39.015625 
Q 42.390625 42.875 40.484375 44.78125 
Q 38.578125 46.6875 34.90625 46.6875 
Q 28.265625 46.6875 24.71875 42.09375 
Q 21.1875 37.5 21.1875 28.90625 
L 21.1875 5.171875 
L 31.59375 5.171875 
L 31.59375 0 
L 4.109375 0 
L 4.109375 5.171875 
L 12.203125 5.171875 
L 12.203125 46.78125 
L 3.609375 46.78125 
L 3.609375 51.90625 
L 21.1875 51.90625 
L 21.1875 42.671875 
Q 23.828125 48.09375 27.96875 50.703125 
Q 32.125 53.328125 38.09375 53.328125 
Q 40.28125 53.328125 42.703125 52.984375 
Q 45.125 52.640625 47.796875 52 
z
" id="DejaVuSerif-72"/>
     <path d="M 20.515625 5.171875 
L 29 5.171875 
L 29 0 
L 2.875 0 
L 2.875 5.171875 
L 11.53125 5.171875 
L 11.53125 70.796875 
L 2.875 70.796875 
L 2.875 75.984375 
L 20.515625 75.984375 
z
" id="DejaVuSerif-6c"/>
     <path d="M 39.796875 16.3125 
L 39.796875 27.296875 
L 28.21875 27.296875 
Q 21.53125 27.296875 18.25 24.40625 
Q 14.984375 21.53125 14.984375 15.578125 
Q 14.984375 10.15625 18.296875 6.984375 
Q 21.625 3.8125 27.296875 3.8125 
Q 32.90625 3.8125 36.34375 7.28125 
Q 39.796875 10.75 39.796875 16.3125 
z
M 48.78125 32.421875 
L 48.78125 5.171875 
L 56.78125 5.171875 
L 56.78125 0 
L 39.796875 0 
L 39.796875 5.609375 
Q 36.8125 2 32.90625 0.28125 
Q 29 -1.421875 23.78125 -1.421875 
Q 15.140625 -1.421875 10.0625 3.171875 
Q 4.984375 7.765625 4.984375 15.578125 
Q 4.984375 23.640625 10.796875 28.078125 
Q 16.609375 32.515625 27.203125 32.515625 
L 39.796875 32.515625 
L 39.796875 36.078125 
Q 39.796875 42 36.203125 45.234375 
Q 32.625 48.484375 26.125 48.484375 
Q 20.75 48.484375 17.578125 46.046875 
Q 14.40625 43.609375 13.625 38.8125 
L 8.984375 38.8125 
L 8.984375 49.3125 
Q 13.671875 51.3125 18.09375 52.3125 
Q 22.515625 53.328125 26.703125 53.328125 
Q 37.5 53.328125 43.140625 47.96875 
Q 48.78125 42.625 48.78125 32.421875 
z
" id="DejaVuSerif-61"/>
     <path d="M 52.484375 46.6875 
L 52.484375 1.125 
Q 52.484375 -10.0625 46.328125 -16.140625 
Q 40.1875 -22.21875 28.8125 -22.21875 
Q 23.6875 -22.21875 19 -21.28125 
Q 14.3125 -20.359375 10.015625 -18.5 
L 10.015625 -7.625 
L 14.703125 -7.625 
Q 15.578125 -12.703125 18.84375 -15.046875 
Q 22.125 -17.390625 28.21875 -17.390625 
Q 36.140625 -17.390625 39.8125 -12.921875 
Q 43.5 -8.453125 43.5 1.125 
L 43.5 8.109375 
Q 40.875 3.21875 36.796875 0.890625 
Q 32.71875 -1.421875 26.703125 -1.421875 
Q 17.140625 -1.421875 11.0625 6.171875 
Q 4.984375 13.765625 4.984375 25.984375 
Q 4.984375 38.1875 11.03125 45.75 
Q 17.09375 53.328125 26.703125 53.328125 
Q 32.71875 53.328125 36.796875 51 
Q 40.875 48.6875 43.5 43.796875 
L 43.5 51.90625 
L 61.078125 51.90625 
L 61.078125 46.6875 
z
M 43.5 28.515625 
Q 43.5 37.84375 39.90625 42.765625 
Q 36.328125 47.703125 29.5 47.703125 
Q 22.5625 47.703125 19.015625 42.234375 
Q 15.484375 36.765625 15.484375 25.984375 
Q 15.484375 15.234375 19.015625 9.71875 
Q 22.5625 4.203125 29.5 4.203125 
Q 36.328125 4.203125 39.90625 9.109375 
Q 43.5 14.015625 43.5 23.390625 
z
" id="DejaVuSerif-67"/>
    </defs>
    <g transform="translate(34.187697 7.606299)scale(0.1 -0.1)">
     <use xlink:href="#DejaVuSerif-74"/>
     <use x="40.185547" xlink:href="#DejaVuSerif-44"/>
     <use x="120.361328" xlink:href="#DejaVuSerif-43"/>
     <use x="196.875" xlink:href="#DejaVuSerif-53"/>
     <use x="265.380859" xlink:href="#DejaVuSerif-20"/>
     <use x="297.167969" xlink:href="#DejaVuSerif-62"/>
     <use x="361.181641" xlink:href="#DejaVuSerif-65"/>
     <use x="420.361328" xlink:href="#DejaVuSerif-66"/>
     <use x="457.373047" xlink:href="#DejaVuSerif-6f"/>
     <use x="517.578125" xlink:href="#DejaVuSerif-72"/>
     <use x="565.380859" xlink:href="#DejaVuSerif-65"/>
     <use x="624.560547" xlink:href="#DejaVuSerif-20"/>
     <use x="656.347656" xlink:href="#DejaVuSerif-6c"/>
     <use x="688.330078" xlink:href="#DejaVuSerif-65"/>
     <use x="747.509766" xlink:href="#DejaVuSerif-61"/>
     <use x="807.128906" xlink:href="#DejaVuSerif-72"/>
     <use x="854.931641" xlink:href="#DejaVuSerif-6e"/>
     <use x="919.335938" xlink:href="#DejaVuSerif-69"/>
     <use x="951.318359" xlink:href="#DejaVuSerif-6e"/>
     <use x="1015.722656" xlink:href="#DejaVuSerif-67"/>
    </g>
   </g>
   <g id="legend_1">
    <g id="line2d_9">
     <path d="M 35.276575 27.781996 
L 47.276575 27.781996 
" style="fill:none;stroke:#000000;stroke-linecap:square;"/>
    </g>
    <g id="line2d_10"/>
    <g id="text_7">
     <!-- $\mathrm{non-focal}$ -->
     <defs>
      <path d="M 10.59375 35.296875 
L 73.1875 35.296875 
L 73.1875 27.390625 
L 10.59375 27.390625 
z
" id="DejaVuSerif-2212"/>
     </defs>
     <g transform="translate(52.076575 29.881996)scale(0.06 -0.06)">
      <use transform="translate(0 0.015625)" xlink:href="#DejaVuSerif-6e"/>
      <use transform="translate(64.404297 0.015625)" xlink:href="#DejaVuSerif-6f"/>
      <use transform="translate(124.609375 0.015625)" xlink:href="#DejaVuSerif-6e"/>
      <use transform="translate(207.978516 0.015625)" xlink:href="#DejaVuSerif-2212"/>
      <use transform="translate(310.732422 0.015625)" xlink:href="#DejaVuSerif-66"/>
      <use transform="translate(347.744141 0.015625)" xlink:href="#DejaVuSerif-6f"/>
      <use transform="translate(407.949219 0.015625)" xlink:href="#DejaVuSerif-63"/>
      <use transform="translate(463.955078 0.015625)" xlink:href="#DejaVuSerif-61"/>
      <use transform="translate(523.574219 0.015625)" xlink:href="#DejaVuSerif-6c"/>
     </g>
    </g>
    <g id="line2d_11">
     <path d="M 111.830906 27.781996 
L 123.830906 27.781996 
" style="fill:none;stroke:#ff0000;stroke-linecap:square;"/>
    </g>
    <g id="line2d_12"/>
    <g id="text_8">
     <!-- $\mathrm{focal}$ -->
     <g transform="translate(128.630906 29.881996)scale(0.06 -0.06)">
      <use transform="translate(0 0.015625)" xlink:href="#DejaVuSerif-66"/>
      <use transform="translate(37.011719 0.015625)" xlink:href="#DejaVuSerif-6f"/>
      <use transform="translate(97.216797 0.015625)" xlink:href="#DejaVuSerif-63"/>
      <use transform="translate(153.222656 0.015625)" xlink:href="#DejaVuSerif-61"/>
      <use transform="translate(212.841797 0.015625)" xlink:href="#DejaVuSerif-6c"/>
     </g>
    </g>
   </g>
  </g>
  <g id="axes_2">
   <g id="patch_5">
    <path d="M 155.887795 80.017998 
L 268.742126 80.017998 
L 268.742126 13.606299 
L 155.887795 13.606299 
z
" style="fill:#ffffff;"/>
   </g>
   <g id="matplotlib.axis_3"/>
   <g id="matplotlib.axis_4"/>
   <g id="line2d_13">
    <path clip-path="url(#p324af22ca0)" d="M 161.017538 76.514781 
L 178.116679 71.738673 
L 195.21582 63.058664 
L 212.314961 53.707897 
L 229.414102 55.497692 
L 246.513243 63.960756 
L 263.612384 70.54769 
" style="fill:none;stroke:#000000;stroke-linecap:square;"/>
   </g>
   <g id="line2d_14">
    <path clip-path="url(#p324af22ca0)" d="M 161.017538 75.145593 
L 178.116679 68.687055 
L 195.21582 60.917993 
L 212.314961 53.707897 
L 229.414102 45.553647 
L 246.513243 38.508472 
L 263.612384 30.772616 
" style="fill:none;stroke:#ff0000;stroke-linecap:square;"/>
   </g>
   <g id="line2d_15">
    <path clip-path="url(#p324af22ca0)" d="M 155.887795 53.707897 
L 268.742126 53.707897 
" style="fill:none;opacity:0.5;stroke:#808080;stroke-linecap:square;"/>
   </g>
   <g id="line2d_16">
    <path clip-path="url(#p324af22ca0)" d="M 212.314961 80.017998 
L 212.314961 13.606299 
" style="fill:none;opacity:0.5;stroke:#808080;stroke-linecap:square;"/>
   </g>
   <g id="patch_6">
    <path d="M 155.887795 80.017998 
L 155.887795 13.606299 
" style="fill:none;stroke:#000000;stroke-linecap:square;stroke-linejoin:miter;stroke-width:0.8;"/>
   </g>
   <g id="patch_7">
    <path d="M 155.887795 80.017998 
L 268.742126 80.017998 
" style="fill:none;stroke:#000000;stroke-linecap:square;stroke-linejoin:miter;stroke-width:0.8;"/>
   </g>
   <g id="text_9">
    <!-- tDCS during learning -->
    <defs>
     <path d="M 52.484375 5.171875 
L 61.078125 5.171875 
L 61.078125 0 
L 43.5 0 
L 43.5 8.109375 
Q 40.875 3.21875 36.796875 0.890625 
Q 32.71875 -1.421875 26.703125 -1.421875 
Q 17.140625 -1.421875 11.0625 6.171875 
Q 4.984375 13.765625 4.984375 25.984375 
Q 4.984375 38.1875 11.03125 45.75 
Q 17.09375 53.328125 26.703125 53.328125 
Q 32.71875 53.328125 36.796875 51 
Q 40.875 48.6875 43.5 43.796875 
L 43.5 70.796875 
L 35.015625 70.796875 
L 35.015625 75.984375 
L 52.484375 75.984375 
z
M 43.5 23.390625 
L 43.5 28.515625 
Q 43.5 37.84375 39.90625 42.765625 
Q 36.328125 47.703125 29.5 47.703125 
Q 22.5625 47.703125 19.015625 42.234375 
Q 15.484375 36.765625 15.484375 25.984375 
Q 15.484375 15.234375 19.015625 9.71875 
Q 22.5625 4.203125 29.5 4.203125 
Q 36.328125 4.203125 39.90625 9.109375 
Q 43.5 14.015625 43.5 23.390625 
z
" id="DejaVuSerif-64"/>
     <path d="M 35.40625 51.90625 
L 52.203125 51.90625 
L 52.203125 5.171875 
L 60.6875 5.171875 
L 60.6875 0 
L 43.21875 0 
L 43.21875 9.1875 
Q 40.71875 4 36.765625 1.28125 
Q 32.8125 -1.421875 27.59375 -1.421875 
Q 18.953125 -1.421875 14.875 3.484375 
Q 10.796875 8.40625 10.796875 18.890625 
L 10.796875 46.6875 
L 2.6875 46.6875 
L 2.6875 51.90625 
L 19.828125 51.90625 
L 19.828125 21.6875 
Q 19.828125 12.203125 22.140625 8.6875 
Q 24.46875 5.171875 30.421875 5.171875 
Q 36.671875 5.171875 39.9375 9.765625 
Q 43.21875 14.359375 43.21875 23.09375 
L 43.21875 46.6875 
L 35.40625 46.6875 
z
" id="DejaVuSerif-75"/>
    </defs>
    <g transform="translate(157.866523 7.606299)scale(0.1 -0.1)">
     <use xlink:href="#DejaVuSerif-74"/>
     <use x="40.185547" xlink:href="#DejaVuSerif-44"/>
     <use x="120.361328" xlink:href="#DejaVuSerif-43"/>
     <use x="196.875" xlink:href="#DejaVuSerif-53"/>
     <use x="265.380859" xlink:href="#DejaVuSerif-20"/>
     <use x="297.167969" xlink:href="#DejaVuSerif-64"/>
     <use x="361.181641" xlink:href="#DejaVuSerif-75"/>
     <use x="425.585938" xlink:href="#DejaVuSerif-72"/>
     <use x="473.388672" xlink:href="#DejaVuSerif-69"/>
     <use x="505.371094" xlink:href="#DejaVuSerif-6e"/>
     <use x="569.775391" xlink:href="#DejaVuSerif-67"/>
     <use x="633.789062" xlink:href="#DejaVuSerif-20"/>
     <use x="665.576172" xlink:href="#DejaVuSerif-6c"/>
     <use x="697.558594" xlink:href="#DejaVuSerif-65"/>
     <use x="756.738281" xlink:href="#DejaVuSerif-61"/>
     <use x="816.357422" xlink:href="#DejaVuSerif-72"/>
     <use x="864.160156" xlink:href="#DejaVuSerif-6e"/>
     <use x="928.564453" xlink:href="#DejaVuSerif-69"/>
     <use x="960.546875" xlink:href="#DejaVuSerif-6e"/>
     <use x="1024.951172" xlink:href="#DejaVuSerif-67"/>
    </g>
   </g>
  </g>
  <g id="axes_3">
   <g id="patch_8">
    <path d="M 280.027559 80.017998 
L 392.88189 80.017998 
L 392.88189 13.606299 
L 280.027559 13.606299 
z
" style="fill:#ffffff;"/>
   </g>
   <g id="matplotlib.axis_5"/>
   <g id="matplotlib.axis_6"/>
   <g id="line2d_17">
    <path clip-path="url(#p6a26f7b9d0)" d="M 285.157301 73.085723 
L 302.256442 67.206074 
L 319.355583 56.935505 
L 336.454724 53.707897 
L 353.553865 64.260715 
L 370.653006 73.001602 
L 387.752147 79.131402 
" style="fill:none;stroke:#000000;stroke-linecap:square;"/>
   </g>
   <g id="line2d_18">
    <path clip-path="url(#p6a26f7b9d0)" d="M 285.157301 33.823127 
L 302.256442 39.430488 
L 319.355583 45.853606 
L 336.454724 53.707897 
L 353.553865 59.415982 
L 370.653006 64.10022 
L 387.752147 65.508148 
" style="fill:none;stroke:#ff0000;stroke-linecap:square;"/>
   </g>
   <g id="line2d_19">
    <path clip-path="url(#p6a26f7b9d0)" d="M 280.027559 53.707897 
L 392.88189 53.707897 
" style="fill:none;opacity:0.5;stroke:#808080;stroke-linecap:square;"/>
   </g>
   <g id="line2d_20">
    <path clip-path="url(#p6a26f7b9d0)" d="M 336.454724 80.017998 
L 336.454724 13.606299 
" style="fill:none;opacity:0.5;stroke:#808080;stroke-linecap:square;"/>
   </g>
   <g id="patch_9">
    <path d="M 280.027559 80.017998 
L 280.027559 13.606299 
" style="fill:none;stroke:#000000;stroke-linecap:square;stroke-linejoin:miter;stroke-width:0.8;"/>
   </g>
   <g id="patch_10">
    <path d="M 280.027559 80.017998 
L 392.88189 80.017998 
" style="fill:none;stroke:#000000;stroke-linecap:square;stroke-linejoin:miter;stroke-width:0.8;"/>
   </g>
   <g id="text_10">
    <!-- tDCS after learning -->
    <g transform="translate(286.646912 7.606299)scale(0.1 -0.1)">
     <use xlink:href="#DejaVuSerif-74"/>
     <use x="40.185547" xlink:href="#DejaVuSerif-44"/>
     <use x="120.361328" xlink:href="#DejaVuSerif-43"/>
     <use x="196.875" xlink:href="#DejaVuSerif-53"/>
     <use x="265.380859" xlink:href="#DejaVuSerif-20"/>
     <use x="297.167969" xlink:href="#DejaVuSerif-61"/>
     <use x="356.787109" xlink:href="#DejaVuSerif-66"/>
     <use x="393.798828" xlink:href="#DejaVuSerif-74"/>
     <use x="433.984375" xlink:href="#DejaVuSerif-65"/>
     <use x="493.164062" xlink:href="#DejaVuSerif-72"/>
     <use x="540.966797" xlink:href="#DejaVuSerif-20"/>
     <use x="572.753906" xlink:href="#DejaVuSerif-6c"/>
     <use x="604.736328" xlink:href="#DejaVuSerif-65"/>
     <use x="663.916016" xlink:href="#DejaVuSerif-61"/>
     <use x="723.535156" xlink:href="#DejaVuSerif-72"/>
     <use x="771.337891" xlink:href="#DejaVuSerif-6e"/>
     <use x="835.742188" xlink:href="#DejaVuSerif-69"/>
     <use x="867.724609" xlink:href="#DejaVuSerif-6e"/>
     <use x="932.128906" xlink:href="#DejaVuSerif-67"/>
    </g>
   </g>
  </g>
  <g id="axes_4">
   <g id="patch_11">
    <path d="M 31.748031 153.070866 
L 144.602362 153.070866 
L 144.602362 86.659168 
L 31.748031 86.659168 
z
" style="fill:#ffffff;"/>
   </g>
   <g id="matplotlib.axis_7">
    <g id="xtick_1">
     <g id="line2d_21">
      <defs>
       <path d="M 0 0 
L 0 3.5 
" id="m433334caa6" style="stroke:#000000;stroke-width:0.8;"/>
      </defs>
      <g>
       <use style="stroke:#000000;stroke-width:0.8;" x="36.877774" xlink:href="#m433334caa6" y="153.070866"/>
      </g>
     </g>
     <g id="text_11">
      <!-- −0.6 -->
      <g transform="translate(29.59293 164.629929)scale(0.06 -0.06)">
       <use xlink:href="#DejaVuSerif-2212"/>
       <use x="83.789062" xlink:href="#DejaVuSerif-30"/>
       <use x="147.412109" xlink:href="#DejaVuSerif-2e"/>
       <use x="179.199219" xlink:href="#DejaVuSerif-36"/>
      </g>
     </g>
    </g>
    <g id="xtick_2">
     <g id="line2d_22">
      <g>
       <use style="stroke:#000000;stroke-width:0.8;" x="53.976915" xlink:href="#m433334caa6" y="153.070866"/>
      </g>
     </g>
     <g id="text_12">
      <!-- −0.4 -->
      <g transform="translate(46.692071 164.629929)scale(0.06 -0.06)">
       <use xlink:href="#DejaVuSerif-2212"/>
       <use x="83.789062" xlink:href="#DejaVuSerif-30"/>
       <use x="147.412109" xlink:href="#DejaVuSerif-2e"/>
       <use x="179.199219" xlink:href="#DejaVuSerif-34"/>
      </g>
     </g>
    </g>
    <g id="xtick_3">
     <g id="line2d_23">
      <g>
       <use style="stroke:#000000;stroke-width:0.8;" x="71.076056" xlink:href="#m433334caa6" y="153.070866"/>
      </g>
     </g>
     <g id="text_13">
      <!-- −0.2 -->
      <g transform="translate(63.791212 164.629929)scale(0.06 -0.06)">
       <use xlink:href="#DejaVuSerif-2212"/>
       <use x="83.789062" xlink:href="#DejaVuSerif-30"/>
       <use x="147.412109" xlink:href="#DejaVuSerif-2e"/>
       <use x="179.199219" xlink:href="#DejaVuSerif-32"/>
      </g>
     </g>
    </g>
    <g id="xtick_4">
     <g id="line2d_24">
      <g>
       <use style="stroke:#000000;stroke-width:0.8;" x="88.175197" xlink:href="#m433334caa6" y="153.070866"/>
      </g>
     </g>
     <g id="text_14">
      <!-- 0.0 -->
      <g transform="translate(83.404259 164.629929)scale(0.06 -0.06)">
       <use xlink:href="#DejaVuSerif-30"/>
       <use x="63.623047" xlink:href="#DejaVuSerif-2e"/>
       <use x="95.410156" xlink:href="#DejaVuSerif-30"/>
      </g>
     </g>
    </g>
    <g id="xtick_5">
     <g id="line2d_25">
      <g>
       <use style="stroke:#000000;stroke-width:0.8;" x="105.274338" xlink:href="#m433334caa6" y="153.070866"/>
      </g>
     </g>
     <g id="text_15">
      <!-- 0.2 -->
      <g transform="translate(100.5034 164.629929)scale(0.06 -0.06)">
       <use xlink:href="#DejaVuSerif-30"/>
       <use x="63.623047" xlink:href="#DejaVuSerif-2e"/>
       <use x="95.410156" xlink:href="#DejaVuSerif-32"/>
      </g>
     </g>
    </g>
    <g id="xtick_6">
     <g id="line2d_26">
      <g>
       <use style="stroke:#000000;stroke-width:0.8;" x="122.373479" xlink:href="#m433334caa6" y="153.070866"/>
      </g>
     </g>
     <g id="text_16">
      <!-- 0.4 -->
      <g transform="translate(117.602541 164.629929)scale(0.06 -0.06)">
       <use xlink:href="#DejaVuSerif-30"/>
       <use x="63.623047" xlink:href="#DejaVuSerif-2e"/>
       <use x="95.410156" xlink:href="#DejaVuSerif-34"/>
      </g>
     </g>
    </g>
    <g id="xtick_7">
     <g id="line2d_27">
      <g>
       <use style="stroke:#000000;stroke-width:0.8;" x="139.47262" xlink:href="#m433334caa6" y="153.070866"/>
      </g>
     </g>
     <g id="text_17">
      <!-- 0.6 -->
      <g transform="translate(134.701682 164.629929)scale(0.06 -0.06)">
       <use xlink:href="#DejaVuSerif-30"/>
       <use x="63.623047" xlink:href="#DejaVuSerif-2e"/>
       <use x="95.410156" xlink:href="#DejaVuSerif-36"/>
      </g>
     </g>
    </g>
    <g id="text_18">
     <!-- $\Delta V_m$ (mV) -->
     <defs>
      <path d="M 67.96875 0 
L 3.8125 0 
L 31.78125 72.90625 
L 39.984375 72.90625 
z
M 54.78125 5.171875 
L 33.40625 61.078125 
L 11.921875 5.171875 
z
" id="DejaVuSerif-394"/>
      <path d="M 23.53125 67.671875 
L 34.234375 11.71875 
L 66.546875 67.671875 
L 58.34375 67.671875 
L 59.375 72.90625 
L 80.765625 72.90625 
L 79.734375 67.671875 
L 72.65625 67.671875 
L 33.5 0 
L 25.09375 0 
L 12.359375 67.671875 
L 5.078125 67.671875 
L 6.109375 72.90625 
L 32.671875 72.90625 
L 31.640625 67.671875 
z
" id="DejaVuSerif-Italic-56"/>
      <path d="M 54.734375 41.796875 
Q 58.453125 47.515625 63.03125 50.421875 
Q 67.625 53.328125 73 53.328125 
Q 81.15625 53.328125 84.1875 48.25 
Q 85.984375 45.21875 85.984375 40.28125 
Q 85.984375 37.0625 85.203125 33.015625 
L 79.78125 5.171875 
L 87.890625 5.171875 
L 86.921875 0 
L 69.828125 0 
L 76.03125 31.984375 
Q 76.765625 35.796875 76.765625 38.53125 
Q 76.765625 41.546875 75.875 43.3125 
Q 74.21875 46.6875 68.796875 46.6875 
Q 62.796875 46.6875 58.765625 42.140625 
Q 54.734375 37.59375 53.03125 28.90625 
L 47.40625 0 
L 38.421875 0 
L 44.734375 32.328125 
Q 45.40625 35.984375 45.40625 38.625 
Q 45.40625 41.65625 44.53125 43.359375 
Q 42.828125 46.6875 37.40625 46.6875 
Q 31.390625 46.6875 27.359375 42.140625 
Q 23.34375 37.59375 21.625 28.90625 
L 16.015625 0 
L 7.03125 0 
L 16.109375 46.78125 
L 7.515625 46.78125 
L 8.5 51.90625 
L 26.078125 51.90625 
L 24.3125 42.671875 
Q 27.78125 47.859375 32.171875 50.59375 
Q 36.578125 53.328125 41.453125 53.328125 
Q 47.515625 53.328125 50.96875 50.3125 
Q 54.4375 47.3125 54.734375 41.796875 
z
" id="DejaVuSerif-Italic-6d"/>
      <path d="M 51.8125 41.796875 
Q 54.390625 47.515625 58.421875 50.421875 
Q 62.453125 53.328125 67.828125 53.328125 
Q 75.984375 53.328125 79.984375 48.265625 
Q 83.984375 43.21875 83.984375 33.015625 
L 83.984375 5.171875 
L 92.09375 5.171875 
L 92.09375 0 
L 67.1875 0 
L 67.1875 5.171875 
L 75 5.171875 
L 75 31.984375 
Q 75 39.9375 72.65625 43.3125 
Q 70.3125 46.6875 64.890625 46.6875 
Q 58.890625 46.6875 55.734375 42.140625 
Q 52.59375 37.59375 52.59375 28.90625 
L 52.59375 5.171875 
L 60.40625 5.171875 
L 60.40625 0 
L 35.796875 0 
L 35.796875 5.171875 
L 43.609375 5.171875 
L 43.609375 32.328125 
Q 43.609375 40.09375 41.265625 43.390625 
Q 38.921875 46.6875 33.5 46.6875 
Q 27.484375 46.6875 24.328125 42.140625 
Q 21.1875 37.59375 21.1875 28.90625 
L 21.1875 5.171875 
L 29 5.171875 
L 29 0 
L 4.109375 0 
L 4.109375 5.171875 
L 12.203125 5.171875 
L 12.203125 46.78125 
L 3.609375 46.78125 
L 3.609375 51.90625 
L 21.1875 51.90625 
L 21.1875 42.671875 
Q 23.6875 47.859375 27.53125 50.59375 
Q 31.390625 53.328125 36.28125 53.328125 
Q 42.328125 53.328125 46.375 50.3125 
Q 50.4375 47.3125 51.8125 41.796875 
z
" id="DejaVuSerif-6d"/>
      <path d="M 17.484375 67.671875 
L 39.015625 11.71875 
L 60.5 67.671875 
L 52.296875 67.671875 
L 52.296875 72.90625 
L 73.6875 72.90625 
L 73.6875 67.671875 
L 66.609375 67.671875 
L 40.578125 0 
L 32.171875 0 
L 6.296875 67.671875 
L -0.984375 67.671875 
L -0.984375 72.90625 
L 25.59375 72.90625 
L 25.59375 67.671875 
z
" id="DejaVuSerif-56"/>
     </defs>
     <g transform="translate(68.535197 175.956491)scale(0.08 -0.08)">
      <use transform="translate(0 0.015625)" xlink:href="#DejaVuSerif-394"/>
      <use transform="translate(72.216797 0.015625)" xlink:href="#DejaVuSerif-Italic-56"/>
      <use transform="translate(144.433594 -15.55625)scale(0.7)" xlink:href="#DejaVuSerif-Italic-6d"/>
      <use transform="translate(213.405859 0.015625)" xlink:href="#DejaVuSerif-20"/>
      <use transform="translate(245.192969 0.015625)" xlink:href="#DejaVuSerif-28"/>
      <use transform="translate(284.206641 0.015625)" xlink:href="#DejaVuSerif-6d"/>
      <use transform="translate(379.030859 0.015625)" xlink:href="#DejaVuSerif-56"/>
      <use transform="translate(451.247656 0.015625)" xlink:href="#DejaVuSerif-29"/>
     </g>
    </g>
   </g>
   <g id="matplotlib.axis_8">
    <g id="ytick_5">
     <g id="line2d_28">
      <g>
       <use style="stroke:#000000;stroke-width:0.8;" x="31.748031" xlink:href="#m94d1994ddd" y="153.070866"/>
      </g>
     </g>
     <g id="text_19">
      <!-- 0.010 -->
      <g transform="translate(7.571156 155.350397)scale(0.06 -0.06)">
       <use xlink:href="#DejaVuSerif-30"/>
       <use x="63.623047" xlink:href="#DejaVuSerif-2e"/>
       <use x="95.410156" xlink:href="#DejaVuSerif-30"/>
       <use x="159.033203" xlink:href="#DejaVuSerif-31"/>
       <use x="222.65625" xlink:href="#DejaVuSerif-30"/>
      </g>
     </g>
    </g>
    <g id="ytick_6">
     <g id="line2d_29">
      <g>
       <use style="stroke:#000000;stroke-width:0.8;" x="31.748031" xlink:href="#m94d1994ddd" y="130.933633"/>
      </g>
     </g>
     <g id="text_20">
      <!-- 0.012 -->
      <g transform="translate(7.571156 133.213165)scale(0.06 -0.06)">
       <use xlink:href="#DejaVuSerif-30"/>
       <use x="63.623047" xlink:href="#DejaVuSerif-2e"/>
       <use x="95.410156" xlink:href="#DejaVuSerif-30"/>
       <use x="159.033203" xlink:href="#DejaVuSerif-31"/>
       <use x="222.65625" xlink:href="#DejaVuSerif-32"/>
      </g>
     </g>
    </g>
    <g id="ytick_7">
     <g id="line2d_30">
      <g>
       <use style="stroke:#000000;stroke-width:0.8;" x="31.748031" xlink:href="#m94d1994ddd" y="108.7964"/>
      </g>
     </g>
     <g id="text_21">
      <!-- 0.014 -->
      <g transform="translate(7.571156 111.075932)scale(0.06 -0.06)">
       <use xlink:href="#DejaVuSerif-30"/>
       <use x="63.623047" xlink:href="#DejaVuSerif-2e"/>
       <use x="95.410156" xlink:href="#DejaVuSerif-30"/>
       <use x="159.033203" xlink:href="#DejaVuSerif-31"/>
       <use x="222.65625" xlink:href="#DejaVuSerif-34"/>
      </g>
     </g>
    </g>
    <g id="ytick_8">
     <g id="line2d_31">
      <g>
       <use style="stroke:#000000;stroke-width:0.8;" x="31.748031" xlink:href="#m94d1994ddd" y="86.659168"/>
      </g>
     </g>
     <g id="text_22">
      <!-- 0.016 -->
      <g transform="translate(7.571156 88.938699)scale(0.06 -0.06)">
       <use xlink:href="#DejaVuSerif-30"/>
       <use x="63.623047" xlink:href="#DejaVuSerif-2e"/>
       <use x="95.410156" xlink:href="#DejaVuSerif-30"/>
       <use x="159.033203" xlink:href="#DejaVuSerif-31"/>
       <use x="222.65625" xlink:href="#DejaVuSerif-36"/>
      </g>
     </g>
    </g>
    <g id="text_23">
     <!-- Connectivity ($\Gamma$) -->
     <g transform="translate(1.731156 152.585017)rotate(-90)scale(0.08 -0.08)">
      <use transform="translate(0 0.015625)" xlink:href="#DejaVuSerif-43"/>
      <use transform="translate(76.513672 0.015625)" xlink:href="#DejaVuSerif-6f"/>
      <use transform="translate(136.71875 0.015625)" xlink:href="#DejaVuSerif-6e"/>
      <use transform="translate(201.123047 0.015625)" xlink:href="#DejaVuSerif-6e"/>
      <use transform="translate(265.527344 0.015625)" xlink:href="#DejaVuSerif-65"/>
      <use transform="translate(324.707031 0.015625)" xlink:href="#DejaVuSerif-63"/>
      <use transform="translate(380.712891 0.015625)" xlink:href="#DejaVuSerif-74"/>
      <use transform="translate(420.898438 0.015625)" xlink:href="#DejaVuSerif-69"/>
      <use transform="translate(452.880859 0.015625)" xlink:href="#DejaVuSerif-76"/>
      <use transform="translate(509.375 0.015625)" xlink:href="#DejaVuSerif-69"/>
      <use transform="translate(541.357422 0.015625)" xlink:href="#DejaVuSerif-74"/>
      <use transform="translate(581.542969 0.015625)" xlink:href="#DejaVuSerif-79"/>
      <use transform="translate(638.037109 0.015625)" xlink:href="#DejaVuSerif-20"/>
      <use transform="translate(669.824219 0.015625)" xlink:href="#DejaVuSerif-28"/>
      <use transform="translate(708.837891 0.015625)" xlink:href="#DejaVuSerif-393"/>
      <use transform="translate(778.222656 0.015625)" xlink:href="#DejaVuSerif-29"/>
     </g>
    </g>
   </g>
   <g id="line2d_32">
    <path clip-path="url(#peced794151)" d="M 36.877774 121.401341 
L 53.976915 126.82939 
L 71.076056 125.757948 
L 88.175197 127.024198 
L 105.274338 125.102686 
L 122.373479 125.487874 
L 139.47262 124.071091 
" style="fill:none;stroke:#0000ff;stroke-linecap:square;"/>
   </g>
   <g id="line2d_33">
    <path clip-path="url(#peced794151)" d="M 36.877774 126.045732 
L 53.976915 126.187411 
L 71.076056 124.730781 
L 88.175197 126.333516 
L 105.274338 126.895802 
L 122.373479 126.005885 
L 139.47262 126.913512 
" style="fill:none;stroke:#0000ff;stroke-dasharray:3.7,1.6;stroke-dashoffset:0;"/>
   </g>
   <g id="line2d_34">
    <path clip-path="url(#peced794151)" d="M 31.748031 126.760765 
L 144.602362 126.760765 
" style="fill:none;opacity:0.5;stroke:#808080;stroke-linecap:square;"/>
   </g>
   <g id="line2d_35">
    <path clip-path="url(#peced794151)" d="M 88.175197 153.070866 
L 88.175197 86.659168 
" style="fill:none;opacity:0.5;stroke:#808080;stroke-linecap:square;"/>
   </g>
   <g id="patch_12">
    <path d="M 31.748031 153.070866 
L 31.748031 86.659168 
" style="fill:none;stroke:#000000;stroke-linecap:square;stroke-linejoin:miter;stroke-width:0.8;"/>
   </g>
   <g id="patch_13">
    <path d="M 31.748031 153.070866 
L 144.602362 153.070866 
" style="fill:none;stroke:#000000;stroke-linecap:square;stroke-linejoin:miter;stroke-width:0.8;"/>
   </g>
   <g id="legend_2">
    <g id="line2d_36">
     <path d="M 35.276575 91.643615 
L 47.276575 91.643615 
" style="fill:none;stroke:#0000ff;stroke-linecap:square;"/>
    </g>
    <g id="line2d_37"/>
    <g id="text_24">
     <!-- $\mathrm{overlap\_pop}$ -->
     <defs>
      <path d="M 20.515625 28.515625 
L 20.515625 23.390625 
Q 20.515625 14.015625 24.09375 9.109375 
Q 27.6875 4.203125 34.515625 4.203125 
Q 41.40625 4.203125 44.9375 9.71875 
Q 48.484375 15.234375 48.484375 25.984375 
Q 48.484375 36.765625 44.9375 42.234375 
Q 41.40625 47.703125 34.515625 47.703125 
Q 27.6875 47.703125 24.09375 42.765625 
Q 20.515625 37.84375 20.515625 28.515625 
z
M 11.53125 46.6875 
L 2.875 46.6875 
L 2.875 51.90625 
L 20.515625 51.90625 
L 20.515625 43.796875 
Q 23.140625 48.6875 27.21875 51 
Q 31.296875 53.328125 37.3125 53.328125 
Q 46.875 53.328125 52.921875 45.75 
Q 58.984375 38.1875 58.984375 25.984375 
Q 58.984375 13.765625 52.921875 6.171875 
Q 46.875 -1.421875 37.3125 -1.421875 
Q 31.296875 -1.421875 27.21875 0.890625 
Q 23.140625 3.21875 20.515625 8.109375 
L 20.515625 -15.578125 
L 29 -15.578125 
L 29 -20.796875 
L 2.875 -20.796875 
L 2.875 -15.578125 
L 11.53125 -15.578125 
z
" id="DejaVuSerif-70"/>
      <path d="M 50 -19.671875 
L 50 -23.578125 
L 0 -23.578125 
L 0 -19.671875 
z
" id="DejaVuSerif-5f"/>
     </defs>
     <g transform="translate(52.076575 93.743615)scale(0.06 -0.06)">
      <use transform="translate(0 0.015625)" xlink:href="#DejaVuSerif-6f"/>
      <use transform="translate(60.205078 0.015625)" xlink:href="#DejaVuSerif-76"/>
      <use transform="translate(116.699219 0.015625)" xlink:href="#DejaVuSerif-65"/>
      <use transform="translate(175.878906 0.015625)" xlink:href="#DejaVuSerif-72"/>
      <use transform="translate(223.681641 0.015625)" xlink:href="#DejaVuSerif-6c"/>
      <use transform="translate(255.664062 0.015625)" xlink:href="#DejaVuSerif-61"/>
      <use transform="translate(315.283203 0.015625)" xlink:href="#DejaVuSerif-70"/>
      <use transform="translate(379.296875 0.015625)" xlink:href="#DejaVuSerif-5f"/>
      <use transform="translate(429.296875 0.015625)" xlink:href="#DejaVuSerif-70"/>
      <use transform="translate(493.310547 0.015625)" xlink:href="#DejaVuSerif-6f"/>
      <use transform="translate(553.515625 0.015625)" xlink:href="#DejaVuSerif-70"/>
     </g>
    </g>
    <g id="line2d_38">
     <path d="M 35.276575 100.642677 
L 47.276575 100.642677 
" style="fill:none;stroke:#0000ff;stroke-dasharray:3.7,1.6;stroke-dashoffset:0;"/>
    </g>
    <g id="line2d_39"/>
    <g id="text_25">
     <!-- $\mathrm{L\_pop}$ -->
     <defs>
      <path d="M 5.515625 0 
L 5.515625 5.171875 
L 14.796875 5.171875 
L 14.796875 67.671875 
L 5.515625 67.671875 
L 5.515625 72.90625 
L 33.984375 72.90625 
L 33.984375 67.671875 
L 24.703125 67.671875 
L 24.703125 6 
L 58.015625 6 
L 58.015625 18.21875 
L 64.015625 18.21875 
L 64.015625 0 
z
" id="DejaVuSerif-4c"/>
     </defs>
     <g transform="translate(52.076575 102.742677)scale(0.06 -0.06)">
      <use transform="translate(0 0.09375)" xlink:href="#DejaVuSerif-4c"/>
      <use transform="translate(66.40625 0.09375)" xlink:href="#DejaVuSerif-5f"/>
      <use transform="translate(116.40625 0.09375)" xlink:href="#DejaVuSerif-70"/>
      <use transform="translate(180.419922 0.09375)" xlink:href="#DejaVuSerif-6f"/>
      <use transform="translate(240.625 0.09375)" xlink:href="#DejaVuSerif-70"/>
     </g>
    </g>
   </g>
  </g>
  <g id="axes_5">
   <g id="patch_14">
    <path d="M 155.887795 153.070866 
L 268.742126 153.070866 
L 268.742126 86.659168 
L 155.887795 86.659168 
z
" style="fill:#ffffff;"/>
   </g>
   <g id="matplotlib.axis_9">
    <g id="xtick_8">
     <g id="line2d_40">
      <g>
       <use style="stroke:#000000;stroke-width:0.8;" x="161.017538" xlink:href="#m433334caa6" y="153.070866"/>
      </g>
     </g>
     <g id="text_26">
      <!-- −0.6 -->
      <g transform="translate(153.732694 164.629929)scale(0.06 -0.06)">
       <use xlink:href="#DejaVuSerif-2212"/>
       <use x="83.789062" xlink:href="#DejaVuSerif-30"/>
       <use x="147.412109" xlink:href="#DejaVuSerif-2e"/>
       <use x="179.199219" xlink:href="#DejaVuSerif-36"/>
      </g>
     </g>
    </g>
    <g id="xtick_9">
     <g id="line2d_41">
      <g>
       <use style="stroke:#000000;stroke-width:0.8;" x="178.116679" xlink:href="#m433334caa6" y="153.070866"/>
      </g>
     </g>
     <g id="text_27">
      <!-- −0.4 -->
      <g transform="translate(170.831835 164.629929)scale(0.06 -0.06)">
       <use xlink:href="#DejaVuSerif-2212"/>
       <use x="83.789062" xlink:href="#DejaVuSerif-30"/>
       <use x="147.412109" xlink:href="#DejaVuSerif-2e"/>
       <use x="179.199219" xlink:href="#DejaVuSerif-34"/>
      </g>
     </g>
    </g>
    <g id="xtick_10">
     <g id="line2d_42">
      <g>
       <use style="stroke:#000000;stroke-width:0.8;" x="195.21582" xlink:href="#m433334caa6" y="153.070866"/>
      </g>
     </g>
     <g id="text_28">
      <!-- −0.2 -->
      <g transform="translate(187.930976 164.629929)scale(0.06 -0.06)">
       <use xlink:href="#DejaVuSerif-2212"/>
       <use x="83.789062" xlink:href="#DejaVuSerif-30"/>
       <use x="147.412109" xlink:href="#DejaVuSerif-2e"/>
       <use x="179.199219" xlink:href="#DejaVuSerif-32"/>
      </g>
     </g>
    </g>
    <g id="xtick_11">
     <g id="line2d_43">
      <g>
       <use style="stroke:#000000;stroke-width:0.8;" x="212.314961" xlink:href="#m433334caa6" y="153.070866"/>
      </g>
     </g>
     <g id="text_29">
      <!-- 0.0 -->
      <g transform="translate(207.544023 164.629929)scale(0.06 -0.06)">
       <use xlink:href="#DejaVuSerif-30"/>
       <use x="63.623047" xlink:href="#DejaVuSerif-2e"/>
       <use x="95.410156" xlink:href="#DejaVuSerif-30"/>
      </g>
     </g>
    </g>
    <g id="xtick_12">
     <g id="line2d_44">
      <g>
       <use style="stroke:#000000;stroke-width:0.8;" x="229.414102" xlink:href="#m433334caa6" y="153.070866"/>
      </g>
     </g>
     <g id="text_30">
      <!-- 0.2 -->
      <g transform="translate(224.643164 164.629929)scale(0.06 -0.06)">
       <use xlink:href="#DejaVuSerif-30"/>
       <use x="63.623047" xlink:href="#DejaVuSerif-2e"/>
       <use x="95.410156" xlink:href="#DejaVuSerif-32"/>
      </g>
     </g>
    </g>
    <g id="xtick_13">
     <g id="line2d_45">
      <g>
       <use style="stroke:#000000;stroke-width:0.8;" x="246.513243" xlink:href="#m433334caa6" y="153.070866"/>
      </g>
     </g>
     <g id="text_31">
      <!-- 0.4 -->
      <g transform="translate(241.742305 164.629929)scale(0.06 -0.06)">
       <use xlink:href="#DejaVuSerif-30"/>
       <use x="63.623047" xlink:href="#DejaVuSerif-2e"/>
       <use x="95.410156" xlink:href="#DejaVuSerif-34"/>
      </g>
     </g>
    </g>
    <g id="xtick_14">
     <g id="line2d_46">
      <g>
       <use style="stroke:#000000;stroke-width:0.8;" x="263.612384" xlink:href="#m433334caa6" y="153.070866"/>
      </g>
     </g>
     <g id="text_32">
      <!-- 0.6 -->
      <g transform="translate(258.841446 164.629929)scale(0.06 -0.06)">
       <use xlink:href="#DejaVuSerif-30"/>
       <use x="63.623047" xlink:href="#DejaVuSerif-2e"/>
       <use x="95.410156" xlink:href="#DejaVuSerif-36"/>
      </g>
     </g>
    </g>
   </g>
   <g id="matplotlib.axis_10"/>
   <g id="line2d_47">
    <path clip-path="url(#p96be4e1460)" d="M 161.017538 151.95515 
L 178.116679 144.716274 
L 195.21582 136.042907 
L 212.314961 127.692742 
L 229.414102 118.341975 
L 246.513243 110.106925 
L 263.612384 101.274169 
" style="fill:none;stroke:#0000ff;stroke-linecap:square;"/>
   </g>
   <g id="line2d_48">
    <path clip-path="url(#p96be4e1460)" d="M 161.017538 124.775055 
L 178.116679 125.288639 
L 195.21582 126.05016 
L 212.314961 127.502362 
L 229.414102 130.504171 
L 246.513243 131.553476 
L 263.612384 135.210547 
" style="fill:none;stroke:#0000ff;stroke-dasharray:3.7,1.6;stroke-dashoffset:0;"/>
   </g>
   <g id="line2d_49">
    <path clip-path="url(#p96be4e1460)" d="M 155.887795 126.760765 
L 268.742126 126.760765 
" style="fill:none;opacity:0.5;stroke:#808080;stroke-linecap:square;"/>
   </g>
   <g id="line2d_50">
    <path clip-path="url(#p96be4e1460)" d="M 212.314961 153.070866 
L 212.314961 86.659168 
" style="fill:none;opacity:0.5;stroke:#808080;stroke-linecap:square;"/>
   </g>
   <g id="patch_15">
    <path d="M 155.887795 153.070866 
L 155.887795 86.659168 
" style="fill:none;stroke:#000000;stroke-linecap:square;stroke-linejoin:miter;stroke-width:0.8;"/>
   </g>
   <g id="patch_16">
    <path d="M 155.887795 153.070866 
L 268.742126 153.070866 
" style="fill:none;stroke:#000000;stroke-linecap:square;stroke-linejoin:miter;stroke-width:0.8;"/>
   </g>
  </g>
  <g id="axes_6">
   <g id="patch_17">
    <path d="M 280.027559 153.070866 
L 392.88189 153.070866 
L 392.88189 86.659168 
L 280.027559 86.659168 
z
" style="fill:#ffffff;"/>
   </g>
   <g id="matplotlib.axis_11">
    <g id="xtick_15">
     <g id="line2d_51">
      <g>
       <use style="stroke:#000000;stroke-width:0.8;" x="285.157301" xlink:href="#m433334caa6" y="153.070866"/>
      </g>
     </g>
     <g id="text_33">
      <!-- −0.6 -->
      <g transform="translate(277.872458 164.629929)scale(0.06 -0.06)">
       <use xlink:href="#DejaVuSerif-2212"/>
       <use x="83.789062" xlink:href="#DejaVuSerif-30"/>
       <use x="147.412109" xlink:href="#DejaVuSerif-2e"/>
       <use x="179.199219" xlink:href="#DejaVuSerif-36"/>
      </g>
     </g>
    </g>
    <g id="xtick_16">
     <g id="line2d_52">
      <g>
       <use style="stroke:#000000;stroke-width:0.8;" x="302.256442" xlink:href="#m433334caa6" y="153.070866"/>
      </g>
     </g>
     <g id="text_34">
      <!-- −0.4 -->
      <g transform="translate(294.971599 164.629929)scale(0.06 -0.06)">
       <use xlink:href="#DejaVuSerif-2212"/>
       <use x="83.789062" xlink:href="#DejaVuSerif-30"/>
       <use x="147.412109" xlink:href="#DejaVuSerif-2e"/>
       <use x="179.199219" xlink:href="#DejaVuSerif-34"/>
      </g>
     </g>
    </g>
    <g id="xtick_17">
     <g id="line2d_53">
      <g>
       <use style="stroke:#000000;stroke-width:0.8;" x="319.355583" xlink:href="#m433334caa6" y="153.070866"/>
      </g>
     </g>
     <g id="text_35">
      <!-- −0.2 -->
      <g transform="translate(312.07074 164.629929)scale(0.06 -0.06)">
       <use xlink:href="#DejaVuSerif-2212"/>
       <use x="83.789062" xlink:href="#DejaVuSerif-30"/>
       <use x="147.412109" xlink:href="#DejaVuSerif-2e"/>
       <use x="179.199219" xlink:href="#DejaVuSerif-32"/>
      </g>
     </g>
    </g>
    <g id="xtick_18">
     <g id="line2d_54">
      <g>
       <use style="stroke:#000000;stroke-width:0.8;" x="336.454724" xlink:href="#m433334caa6" y="153.070866"/>
      </g>
     </g>
     <g id="text_36">
      <!-- 0.0 -->
      <g transform="translate(331.683787 164.629929)scale(0.06 -0.06)">
       <use xlink:href="#DejaVuSerif-30"/>
       <use x="63.623047" xlink:href="#DejaVuSerif-2e"/>
       <use x="95.410156" xlink:href="#DejaVuSerif-30"/>
      </g>
     </g>
    </g>
    <g id="xtick_19">
     <g id="line2d_55">
      <g>
       <use style="stroke:#000000;stroke-width:0.8;" x="353.553865" xlink:href="#m433334caa6" y="153.070866"/>
      </g>
     </g>
     <g id="text_37">
      <!-- 0.2 -->
      <g transform="translate(348.782928 164.629929)scale(0.06 -0.06)">
       <use xlink:href="#DejaVuSerif-30"/>
       <use x="63.623047" xlink:href="#DejaVuSerif-2e"/>
       <use x="95.410156" xlink:href="#DejaVuSerif-32"/>
      </g>
     </g>
    </g>
    <g id="xtick_20">
     <g id="line2d_56">
      <g>
       <use style="stroke:#000000;stroke-width:0.8;" x="370.653006" xlink:href="#m433334caa6" y="153.070866"/>
      </g>
     </g>
     <g id="text_38">
      <!-- 0.4 -->
      <g transform="translate(365.882069 164.629929)scale(0.06 -0.06)">
       <use xlink:href="#DejaVuSerif-30"/>
       <use x="63.623047" xlink:href="#DejaVuSerif-2e"/>
       <use x="95.410156" xlink:href="#DejaVuSerif-34"/>
      </g>
     </g>
    </g>
    <g id="xtick_21">
     <g id="line2d_57">
      <g>
       <use style="stroke:#000000;stroke-width:0.8;" x="387.752147" xlink:href="#m433334caa6" y="153.070866"/>
      </g>
     </g>
     <g id="text_39">
      <!-- 0.6 -->
      <g transform="translate(382.98121 164.629929)scale(0.06 -0.06)">
       <use xlink:href="#DejaVuSerif-30"/>
       <use x="63.623047" xlink:href="#DejaVuSerif-2e"/>
       <use x="95.410156" xlink:href="#DejaVuSerif-36"/>
      </g>
     </g>
    </g>
   </g>
   <g id="matplotlib.axis_12"/>
   <g id="line2d_58">
    <path clip-path="url(#p140f9f5fd6)" d="M 285.157301 108.822965 
L 302.256442 113.369953 
L 319.355583 120.551271 
L 336.454724 127.692742 
L 353.553865 135.790542 
L 370.653006 140.895388 
L 387.752147 143.016135 
" style="fill:none;stroke:#0000ff;stroke-linecap:square;"/>
   </g>
   <g id="line2d_59">
    <path clip-path="url(#p140f9f5fd6)" d="M 285.157301 133.413003 
L 302.256442 131.889962 
L 319.355583 128.666781 
L 336.454724 127.502362 
L 353.553865 127.117174 
L 370.653006 126.253822 
L 387.752147 126.399928 
" style="fill:none;stroke:#0000ff;stroke-dasharray:3.7,1.6;stroke-dashoffset:0;"/>
   </g>
   <g id="line2d_60">
    <path clip-path="url(#p140f9f5fd6)" d="M 280.027559 126.760765 
L 392.88189 126.760765 
" style="fill:none;opacity:0.5;stroke:#808080;stroke-linecap:square;"/>
   </g>
   <g id="line2d_61">
    <path clip-path="url(#p140f9f5fd6)" d="M 336.454724 153.070866 
L 336.454724 86.659168 
" style="fill:none;opacity:0.5;stroke:#808080;stroke-linecap:square;"/>
   </g>
   <g id="patch_18">
    <path d="M 280.027559 153.070866 
L 280.027559 86.659168 
" style="fill:none;stroke:#000000;stroke-linecap:square;stroke-linejoin:miter;stroke-width:0.8;"/>
   </g>
   <g id="patch_19">
    <path d="M 280.027559 153.070866 
L 392.88189 153.070866 
" style="fill:none;stroke:#000000;stroke-linecap:square;stroke-linejoin:miter;stroke-width:0.8;"/>
   </g>
  </g>
 </g>
 <defs>
  <clipPath id="p5ba029670b">
   <rect height="66.411699" width="112.854331" x="31.748031" y="13.606299"/>
  </clipPath>
  <clipPath id="p324af22ca0">
   <rect height="66.411699" width="112.854331" x="155.887795" y="13.606299"/>
  </clipPath>
  <clipPath id="p6a26f7b9d0">
   <rect height="66.411699" width="112.854331" x="280.027559" y="13.606299"/>
  </clipPath>
  <clipPath id="peced794151">
   <rect height="66.411699" width="112.854331" x="31.748031" y="86.659168"/>
  </clipPath>
  <clipPath id="p96be4e1460">
   <rect height="66.411699" width="112.854331" x="155.887795" y="86.659168"/>
  </clipPath>
  <clipPath id="p140f9f5fd6">
   <rect height="66.411699" width="112.854331" x="280.027559" y="86.659168"/>
  </clipPath>
 </defs>
</svg>
