<?xml version="1.0" encoding="utf-8" standalone="no"?>
<!DOCTYPE svg PUBLIC "-//W3C//DTD SVG 1.1//EN"
  "http://www.w3.org/Graphics/SVG/1.1/DTD/svg11.dtd">
<!-- Created with matplotlib (http://matplotlib.org/) -->
<svg height="198.425197pt" version="1.1" viewBox="0 0 566.929134 198.425197" width="566.929134pt" xmlns="http://www.w3.org/2000/svg" xmlns:xlink="http://www.w3.org/1999/xlink">
 <defs>
  <style type="text/css">
*{stroke-linecap:butt;stroke-linejoin:round;}
  </style>
 </defs>
 <g id="figure_1">
  <g id="patch_1">
   <path d="M 0 198.425197 
L 566.929134 198.425197 
L 566.929134 0 
L 0 0 
z
" style="fill:#ffffff;"/>
  </g>
  <g id="axes_1">
   <g id="patch_2">
    <path d="M 68.031496 168.661417 
L 213.098657 168.661417 
L 213.098657 19.84252 
L 68.031496 19.84252 
z
" style="fill:#ffffff;"/>
   </g>
   <g id="matplotlib.axis_1"/>
   <g id="matplotlib.axis_2">
    <g id="ytick_1">
     <g id="line2d_1">
      <defs>
       <path d="M 0 0 
L -3.5 0 
" id="mf9674ff71b" style="stroke:#000000;stroke-width:0.8;"/>
      </defs>
      <g>
       <use style="stroke:#000000;stroke-width:0.8;" x="68.031496" xlink:href="#mf9674ff71b" y="143.858268"/>
      </g>
     </g>
     <g id="text_1">
      <!-- hindering -->
      <defs>
       <path d="M 4.109375 0 
L 4.109375 5.171875 
L 12.203125 5.171875 
L 12.203125 70.796875 
L 3.609375 70.796875 
L 3.609375 75.984375 
L 21.1875 75.984375 
L 21.1875 42.671875 
Q 23.6875 47.953125 27.65625 50.640625 
Q 31.640625 53.328125 36.921875 53.328125 
Q 45.515625 53.328125 49.5625 48.390625 
Q 53.609375 43.453125 53.609375 33.015625 
L 53.609375 5.171875 
L 61.625 5.171875 
L 61.625 0 
L 36.8125 0 
L 36.8125 5.171875 
L 44.578125 5.171875 
L 44.578125 30.171875 
Q 44.578125 39.703125 42.25 43.1875 
Q 39.9375 46.6875 33.984375 46.6875 
Q 27.734375 46.6875 24.453125 42.140625 
Q 21.1875 37.59375 21.1875 28.90625 
L 21.1875 5.171875 
L 29 5.171875 
L 29 0 
z
" id="DejaVuSerif-68"/>
       <path d="M 9.71875 68.015625 
Q 9.71875 70.265625 11.34375 71.921875 
Q 12.984375 73.578125 15.28125 73.578125 
Q 17.53125 73.578125 19.15625 71.921875 
Q 20.796875 70.265625 20.796875 68.015625 
Q 20.796875 65.71875 19.1875 64.109375 
Q 17.578125 62.5 15.28125 62.5 
Q 12.984375 62.5 11.34375 64.109375 
Q 9.71875 65.71875 9.71875 68.015625 
z
M 21.1875 5.171875 
L 29.6875 5.171875 
L 29.6875 0 
L 3.609375 0 
L 3.609375 5.171875 
L 12.203125 5.171875 
L 12.203125 46.6875 
L 3.609375 46.6875 
L 3.609375 51.90625 
L 21.1875 51.90625 
z
" id="DejaVuSerif-69"/>
       <path d="M 4.109375 0 
L 4.109375 5.171875 
L 12.203125 5.171875 
L 12.203125 46.6875 
L 3.609375 46.6875 
L 3.609375 51.90625 
L 21.1875 51.90625 
L 21.1875 42.671875 
Q 23.6875 47.953125 27.65625 50.640625 
Q 31.640625 53.328125 36.921875 53.328125 
Q 45.515625 53.328125 49.5625 48.390625 
Q 53.609375 43.453125 53.609375 33.015625 
L 53.609375 5.171875 
L 61.625 5.171875 
L 61.625 0 
L 36.8125 0 
L 36.8125 5.171875 
L 44.578125 5.171875 
L 44.578125 30.171875 
Q 44.578125 39.703125 42.234375 43.234375 
Q 39.890625 46.78125 33.984375 46.78125 
Q 27.734375 46.78125 24.453125 42.203125 
Q 21.1875 37.640625 21.1875 28.90625 
L 21.1875 5.171875 
L 29 5.171875 
L 29 0 
z
" id="DejaVuSerif-6e"/>
       <path d="M 52.484375 5.171875 
L 61.078125 5.171875 
L 61.078125 0 
L 43.5 0 
L 43.5 8.109375 
Q 40.875 3.21875 36.796875 0.890625 
Q 32.71875 -1.421875 26.703125 -1.421875 
Q 17.140625 -1.421875 11.0625 6.171875 
Q 4.984375 13.765625 4.984375 25.984375 
Q 4.984375 38.1875 11.03125 45.75 
Q 17.09375 53.328125 26.703125 53.328125 
Q 32.71875 53.328125 36.796875 51 
Q 40.875 48.6875 43.5 43.796875 
L 43.5 70.796875 
L 35.015625 70.796875 
L 35.015625 75.984375 
L 52.484375 75.984375 
z
M 43.5 23.390625 
L 43.5 28.515625 
Q 43.5 37.84375 39.90625 42.765625 
Q 36.328125 47.703125 29.5 47.703125 
Q 22.5625 47.703125 19.015625 42.234375 
Q 15.484375 36.765625 15.484375 25.984375 
Q 15.484375 15.234375 19.015625 9.71875 
Q 22.5625 4.203125 29.5 4.203125 
Q 36.328125 4.203125 39.90625 9.109375 
Q 43.5 14.015625 43.5 23.390625 
z
" id="DejaVuSerif-64"/>
       <path d="M 54.203125 25 
L 15.484375 25 
L 15.484375 24.609375 
Q 15.484375 14.109375 19.4375 8.765625 
Q 23.390625 3.421875 31.109375 3.421875 
Q 37.015625 3.421875 40.796875 6.515625 
Q 44.578125 9.625 46.09375 15.71875 
L 53.328125 15.71875 
Q 51.171875 7.171875 45.375 2.875 
Q 39.59375 -1.421875 30.171875 -1.421875 
Q 18.796875 -1.421875 11.890625 6.078125 
Q 4.984375 13.578125 4.984375 25.984375 
Q 4.984375 38.28125 11.765625 45.796875 
Q 18.5625 53.328125 29.59375 53.328125 
Q 41.359375 53.328125 47.65625 46.0625 
Q 53.953125 38.8125 54.203125 25 
z
M 43.609375 30.171875 
Q 43.3125 39.265625 39.765625 43.875 
Q 36.234375 48.484375 29.59375 48.484375 
Q 23.390625 48.484375 19.828125 43.84375 
Q 16.265625 39.203125 15.484375 30.171875 
z
" id="DejaVuSerif-65"/>
       <path d="M 47.796875 52 
L 47.796875 39.015625 
L 42.625 39.015625 
Q 42.390625 42.875 40.484375 44.78125 
Q 38.578125 46.6875 34.90625 46.6875 
Q 28.265625 46.6875 24.71875 42.09375 
Q 21.1875 37.5 21.1875 28.90625 
L 21.1875 5.171875 
L 31.59375 5.171875 
L 31.59375 0 
L 4.109375 0 
L 4.109375 5.171875 
L 12.203125 5.171875 
L 12.203125 46.78125 
L 3.609375 46.78125 
L 3.609375 51.90625 
L 21.1875 51.90625 
L 21.1875 42.671875 
Q 23.828125 48.09375 27.96875 50.703125 
Q 32.125 53.328125 38.09375 53.328125 
Q 40.28125 53.328125 42.703125 52.984375 
Q 45.125 52.640625 47.796875 52 
z
" id="DejaVuSerif-72"/>
       <path d="M 52.484375 46.6875 
L 52.484375 1.125 
Q 52.484375 -10.0625 46.328125 -16.140625 
Q 40.1875 -22.21875 28.8125 -22.21875 
Q 23.6875 -22.21875 19 -21.28125 
Q 14.3125 -20.359375 10.015625 -18.5 
L 10.015625 -7.625 
L 14.703125 -7.625 
Q 15.578125 -12.703125 18.84375 -15.046875 
Q 22.125 -17.390625 28.21875 -17.390625 
Q 36.140625 -17.390625 39.8125 -12.921875 
Q 43.5 -8.453125 43.5 1.125 
L 43.5 8.109375 
Q 40.875 3.21875 36.796875 0.890625 
Q 32.71875 -1.421875 26.703125 -1.421875 
Q 17.140625 -1.421875 11.0625 6.171875 
Q 4.984375 13.765625 4.984375 25.984375 
Q 4.984375 38.1875 11.03125 45.75 
Q 17.09375 53.328125 26.703125 53.328125 
Q 32.71875 53.328125 36.796875 51 
Q 40.875 48.6875 43.5 43.796875 
L 43.5 51.90625 
L 61.078125 51.90625 
L 61.078125 46.6875 
z
M 43.5 28.515625 
Q 43.5 37.84375 39.90625 42.765625 
Q 36.328125 47.703125 29.5 47.703125 
Q 22.5625 47.703125 19.015625 42.234375 
Q 15.484375 36.765625 15.484375 25.984375 
Q 15.484375 15.234375 19.015625 9.71875 
Q 22.5625 4.203125 29.5 4.203125 
Q 36.328125 4.203125 39.90625 9.109375 
Q 43.5 14.015625 43.5 23.390625 
z
" id="DejaVuSerif-67"/>
      </defs>
      <g transform="translate(11.811184 141.987486)scale(0.1 -0.1)">
       <use xlink:href="#DejaVuSerif-68"/>
       <use x="64.404297" xlink:href="#DejaVuSerif-69"/>
       <use x="96.386719" xlink:href="#DejaVuSerif-6e"/>
       <use x="160.791016" xlink:href="#DejaVuSerif-64"/>
       <use x="224.804688" xlink:href="#DejaVuSerif-65"/>
       <use x="283.984375" xlink:href="#DejaVuSerif-72"/>
       <use x="331.787109" xlink:href="#DejaVuSerif-69"/>
       <use x="363.769531" xlink:href="#DejaVuSerif-6e"/>
       <use x="428.173828" xlink:href="#DejaVuSerif-67"/>
      </g>
      <!--  learning -->
      <defs>
       <path id="DejaVuSerif-20"/>
       <path d="M 20.515625 5.171875 
L 29 5.171875 
L 29 0 
L 2.875 0 
L 2.875 5.171875 
L 11.53125 5.171875 
L 11.53125 70.796875 
L 2.875 70.796875 
L 2.875 75.984375 
L 20.515625 75.984375 
z
" id="DejaVuSerif-6c"/>
       <path d="M 39.796875 16.3125 
L 39.796875 27.296875 
L 28.21875 27.296875 
Q 21.53125 27.296875 18.25 24.40625 
Q 14.984375 21.53125 14.984375 15.578125 
Q 14.984375 10.15625 18.296875 6.984375 
Q 21.625 3.8125 27.296875 3.8125 
Q 32.90625 3.8125 36.34375 7.28125 
Q 39.796875 10.75 39.796875 16.3125 
z
M 48.78125 32.421875 
L 48.78125 5.171875 
L 56.78125 5.171875 
L 56.78125 0 
L 39.796875 0 
L 39.796875 5.609375 
Q 36.8125 2 32.90625 0.28125 
Q 29 -1.421875 23.78125 -1.421875 
Q 15.140625 -1.421875 10.0625 3.171875 
Q 4.984375 7.765625 4.984375 15.578125 
Q 4.984375 23.640625 10.796875 28.078125 
Q 16.609375 32.515625 27.203125 32.515625 
L 39.796875 32.515625 
L 39.796875 36.078125 
Q 39.796875 42 36.203125 45.234375 
Q 32.625 48.484375 26.125 48.484375 
Q 20.75 48.484375 17.578125 46.046875 
Q 14.40625 43.609375 13.625 38.8125 
L 8.984375 38.8125 
L 8.984375 49.3125 
Q 13.671875 51.3125 18.09375 52.3125 
Q 22.515625 53.328125 26.703125 53.328125 
Q 37.5 53.328125 43.140625 47.96875 
Q 48.78125 42.625 48.78125 32.421875 
z
" id="DejaVuSerif-61"/>
      </defs>
      <g transform="translate(15.512746 153.327486)scale(0.1 -0.1)">
       <use xlink:href="#DejaVuSerif-20"/>
       <use x="31.787109" xlink:href="#DejaVuSerif-6c"/>
       <use x="63.769531" xlink:href="#DejaVuSerif-65"/>
       <use x="122.949219" xlink:href="#DejaVuSerif-61"/>
       <use x="182.568359" xlink:href="#DejaVuSerif-72"/>
       <use x="230.371094" xlink:href="#DejaVuSerif-6e"/>
       <use x="294.775391" xlink:href="#DejaVuSerif-69"/>
       <use x="326.757812" xlink:href="#DejaVuSerif-6e"/>
       <use x="391.162109" xlink:href="#DejaVuSerif-67"/>
      </g>
     </g>
    </g>
    <g id="ytick_2">
     <g id="line2d_2">
      <g>
       <use style="stroke:#000000;stroke-width:0.8;" x="68.031496" xlink:href="#mf9674ff71b" y="69.448819"/>
      </g>
     </g>
     <g id="text_2">
      <!-- boosting -->
      <defs>
       <path d="M 11.53125 5.171875 
L 11.53125 70.796875 
L 2.875 70.796875 
L 2.875 75.984375 
L 20.515625 75.984375 
L 20.515625 43.796875 
Q 23.140625 48.6875 27.21875 51 
Q 31.296875 53.328125 37.3125 53.328125 
Q 46.875 53.328125 52.921875 45.75 
Q 58.984375 38.1875 58.984375 25.984375 
Q 58.984375 13.765625 52.921875 6.171875 
Q 46.875 -1.421875 37.3125 -1.421875 
Q 31.296875 -1.421875 27.21875 0.890625 
Q 23.140625 3.21875 20.515625 8.109375 
L 20.515625 0 
L 2.875 0 
L 2.875 5.171875 
z
M 20.515625 23.390625 
Q 20.515625 14.015625 24.09375 9.109375 
Q 27.6875 4.203125 34.515625 4.203125 
Q 41.40625 4.203125 44.9375 9.71875 
Q 48.484375 15.234375 48.484375 25.984375 
Q 48.484375 36.765625 44.9375 42.234375 
Q 41.40625 47.703125 34.515625 47.703125 
Q 27.6875 47.703125 24.09375 42.765625 
Q 20.515625 37.84375 20.515625 28.515625 
z
" id="DejaVuSerif-62"/>
       <path d="M 30.078125 3.421875 
Q 37.3125 3.421875 40.984375 9.125 
Q 44.671875 14.84375 44.671875 25.984375 
Q 44.671875 37.109375 40.984375 42.796875 
Q 37.3125 48.484375 30.078125 48.484375 
Q 22.859375 48.484375 19.171875 42.796875 
Q 15.484375 37.109375 15.484375 25.984375 
Q 15.484375 14.84375 19.1875 9.125 
Q 22.90625 3.421875 30.078125 3.421875 
z
M 30.078125 -1.421875 
Q 18.75 -1.421875 11.859375 6.078125 
Q 4.984375 13.578125 4.984375 25.984375 
Q 4.984375 38.375 11.84375 45.84375 
Q 18.703125 53.328125 30.078125 53.328125 
Q 41.453125 53.328125 48.3125 45.84375 
Q 55.171875 38.375 55.171875 25.984375 
Q 55.171875 13.578125 48.3125 6.078125 
Q 41.453125 -1.421875 30.078125 -1.421875 
z
" id="DejaVuSerif-6f"/>
       <path d="M 5.609375 2.875 
L 5.609375 14.984375 
L 10.796875 14.984375 
Q 10.984375 9.1875 14.421875 6.296875 
Q 17.875 3.421875 24.609375 3.421875 
Q 30.671875 3.421875 33.84375 5.6875 
Q 37.015625 7.953125 37.015625 12.3125 
Q 37.015625 15.71875 34.6875 17.8125 
Q 32.375 19.921875 24.90625 22.3125 
L 18.40625 24.515625 
Q 11.71875 26.65625 8.71875 29.875 
Q 5.71875 33.109375 5.71875 38.09375 
Q 5.71875 45.21875 10.9375 49.265625 
Q 16.15625 53.328125 25.390625 53.328125 
Q 29.5 53.328125 34.03125 52.25 
Q 38.578125 51.171875 43.40625 49.125 
L 43.40625 37.796875 
L 38.234375 37.796875 
Q 38.03125 42.828125 34.703125 45.65625 
Q 31.390625 48.484375 25.6875 48.484375 
Q 20.015625 48.484375 17.109375 46.484375 
Q 14.203125 44.484375 14.203125 40.484375 
Q 14.203125 37.203125 16.40625 35.21875 
Q 18.609375 33.25 25.203125 31.203125 
L 32.328125 29 
Q 39.703125 26.703125 42.9375 23.265625 
Q 46.1875 19.828125 46.1875 14.40625 
Q 46.1875 7.03125 40.546875 2.796875 
Q 34.90625 -1.421875 25 -1.421875 
Q 19.96875 -1.421875 15.1875 -0.34375 
Q 10.40625 0.734375 5.609375 2.875 
z
" id="DejaVuSerif-73"/>
       <path d="M 10.796875 46.6875 
L 2.875 46.6875 
L 2.875 51.90625 
L 10.796875 51.90625 
L 10.796875 68.015625 
L 19.828125 68.015625 
L 19.828125 51.90625 
L 36.71875 51.90625 
L 36.71875 46.6875 
L 19.828125 46.6875 
L 19.828125 13.71875 
Q 19.828125 7.125 21.09375 5.265625 
Q 22.359375 3.421875 25.78125 3.421875 
Q 29.296875 3.421875 30.90625 5.484375 
Q 32.515625 7.5625 32.625 12.203125 
L 39.40625 12.203125 
Q 39.015625 5.125 35.546875 1.84375 
Q 32.078125 -1.421875 25 -1.421875 
Q 17.234375 -1.421875 14.015625 2.015625 
Q 10.796875 5.46875 10.796875 13.71875 
z
" id="DejaVuSerif-74"/>
      </defs>
      <g transform="translate(17.398684 67.578038)scale(0.1 -0.1)">
       <use xlink:href="#DejaVuSerif-62"/>
       <use x="64.013672" xlink:href="#DejaVuSerif-6f"/>
       <use x="124.21875" xlink:href="#DejaVuSerif-6f"/>
       <use x="184.423828" xlink:href="#DejaVuSerif-73"/>
       <use x="235.742188" xlink:href="#DejaVuSerif-74"/>
       <use x="275.927734" xlink:href="#DejaVuSerif-69"/>
       <use x="307.910156" xlink:href="#DejaVuSerif-6e"/>
       <use x="372.314453" xlink:href="#DejaVuSerif-67"/>
      </g>
      <!--  learning -->
      <g transform="translate(15.512746 78.918038)scale(0.1 -0.1)">
       <use xlink:href="#DejaVuSerif-20"/>
       <use x="31.787109" xlink:href="#DejaVuSerif-6c"/>
       <use x="63.769531" xlink:href="#DejaVuSerif-65"/>
       <use x="122.949219" xlink:href="#DejaVuSerif-61"/>
       <use x="182.568359" xlink:href="#DejaVuSerif-72"/>
       <use x="230.371094" xlink:href="#DejaVuSerif-6e"/>
       <use x="294.775391" xlink:href="#DejaVuSerif-69"/>
       <use x="326.757812" xlink:href="#DejaVuSerif-6e"/>
       <use x="391.162109" xlink:href="#DejaVuSerif-67"/>
      </g>
     </g>
    </g>
   </g>
   <g id="line2d_3">
    <path clip-path="url(#p9cec1ceef9)" d="M 74.625458 112.397953 
L 96.605331 110.954409 
L 118.585204 110.083819 
L 140.565076 105.934252 
L 162.544949 103.964882 
L 184.524822 97.563189 
L 206.504695 90.519094 
" style="fill:none;stroke:#000000;stroke-linecap:square;"/>
   </g>
   <g id="line2d_4">
    <path clip-path="url(#p9cec1ceef9)" d="M 74.625458 95.755039 
L 96.605331 103.382008 
L 118.585204 106.403031 
L 140.565076 105.934252 
L 162.544949 105.028937 
L 184.524822 104.064094 
L 206.504695 102.868583 
" style="fill:none;stroke:#ff0000;stroke-linecap:square;"/>
   </g>
   <g id="line2d_5">
    <path clip-path="url(#p9cec1ceef9)" d="M 68.031496 109.704331 
L 213.098657 109.704331 
" style="fill:none;stroke:#808080;stroke-linecap:square;stroke-opacity:0.5;"/>
   </g>
   <g id="line2d_6">
    <path clip-path="url(#p9cec1ceef9)" d="M 140.565076 168.661417 
L 140.565076 19.84252 
" style="fill:none;stroke:#808080;stroke-linecap:square;stroke-opacity:0.5;"/>
   </g>
   <g id="patch_3">
    <path d="M 68.031496 168.661417 
L 68.031496 19.84252 
" style="fill:none;stroke:#000000;stroke-linecap:square;stroke-linejoin:miter;stroke-width:0.8;"/>
   </g>
   <g id="patch_4">
    <path d="M 68.031496 168.661417 
L 213.098657 168.661417 
" style="fill:none;stroke:#000000;stroke-linecap:square;stroke-linejoin:miter;stroke-width:0.8;"/>
   </g>
   <g id="text_3">
    <!-- tDCS before learning -->
    <defs>
     <path d="M 24.703125 5.171875 
L 33.796875 5.171875 
Q 48 5.171875 55.59375 13.28125 
Q 63.1875 21.390625 63.1875 36.53125 
Q 63.1875 51.65625 55.609375 59.65625 
Q 48.046875 67.671875 33.796875 67.671875 
L 24.703125 67.671875 
z
M 5.515625 0 
L 5.515625 5.171875 
L 14.796875 5.171875 
L 14.796875 67.671875 
L 5.515625 67.671875 
L 5.515625 72.90625 
L 34.515625 72.90625 
Q 53.375 72.90625 63.890625 63.28125 
Q 74.421875 53.65625 74.421875 36.53125 
Q 74.421875 19.34375 63.875 9.671875 
Q 53.328125 0 34.515625 0 
z
" id="DejaVuSerif-44"/>
     <path d="M 70.515625 19.28125 
Q 67.28125 9.078125 59.6875 3.828125 
Q 52.09375 -1.421875 40.484375 -1.421875 
Q 33.34375 -1.421875 27.234375 1.015625 
Q 21.140625 3.46875 16.40625 8.203125 
Q 10.9375 13.671875 8.265625 20.625 
Q 5.609375 27.59375 5.609375 36.375 
Q 5.609375 53.375 15.421875 63.796875 
Q 25.25 74.21875 41.3125 74.21875 
Q 47.265625 74.21875 54 72.65625 
Q 60.75 71.09375 68.5 67.921875 
L 68.5 51.125 
L 62.984375 51.125 
Q 61.1875 60.296875 55.734375 64.640625 
Q 50.296875 69 40.484375 69 
Q 28.8125 69 22.796875 60.71875 
Q 16.796875 52.4375 16.796875 36.375 
Q 16.796875 20.359375 22.796875 12.078125 
Q 28.8125 3.8125 40.484375 3.8125 
Q 48.640625 3.8125 53.90625 7.6875 
Q 59.1875 11.578125 61.53125 19.28125 
z
" id="DejaVuSerif-43"/>
     <path d="M 9.28125 3.515625 
L 9.28125 20.125 
L 14.890625 20.0625 
Q 15.140625 11.765625 19.703125 7.78125 
Q 24.265625 3.8125 33.59375 3.8125 
Q 42.28125 3.8125 46.84375 7.25 
Q 51.421875 10.6875 51.421875 17.28125 
Q 51.421875 22.5625 48.65625 25.390625 
Q 45.90625 28.21875 37.015625 30.90625 
L 27.390625 33.796875 
Q 16.9375 36.96875 12.671875 41.703125 
Q 8.40625 46.4375 8.40625 54.6875 
Q 8.40625 63.96875 14.984375 69.09375 
Q 21.578125 74.21875 33.5 74.21875 
Q 38.578125 74.21875 44.625 73.109375 
Q 50.6875 72.015625 57.515625 69.921875 
L 57.515625 54.390625 
L 52 54.390625 
Q 51.171875 62.109375 46.84375 65.546875 
Q 42.53125 69 33.6875 69 
Q 25.984375 69 21.953125 65.84375 
Q 17.921875 62.703125 17.921875 56.6875 
Q 17.921875 51.46875 20.9375 48.484375 
Q 23.96875 45.515625 33.796875 42.578125 
L 42.828125 39.890625 
Q 52.734375 36.921875 56.953125 32.296875 
Q 61.1875 27.6875 61.1875 19.921875 
Q 61.1875 9.328125 54.390625 3.953125 
Q 47.609375 -1.421875 34.1875 -1.421875 
Q 28.171875 -1.421875 21.9375 -0.1875 
Q 15.71875 1.03125 9.28125 3.515625 
z
" id="DejaVuSerif-53"/>
     <path d="M 43.015625 63.71875 
L 38.28125 63.71875 
Q 38.234375 67.390625 36.203125 69.28125 
Q 34.1875 71.1875 30.328125 71.1875 
Q 25.296875 71.1875 23.234375 68.421875 
Q 21.1875 65.671875 21.1875 58.59375 
L 21.1875 51.90625 
L 35.6875 51.90625 
L 35.6875 46.6875 
L 21.1875 46.6875 
L 21.1875 5.171875 
L 32.71875 5.171875 
L 32.71875 0 
L 3.609375 0 
L 3.609375 5.171875 
L 12.203125 5.171875 
L 12.203125 46.6875 
L 3.609375 46.6875 
L 3.609375 51.90625 
L 12.203125 51.90625 
L 12.203125 58.40625 
Q 12.203125 67.09375 16.71875 71.53125 
Q 21.234375 75.984375 29.984375 75.984375 
Q 33.25 75.984375 36.515625 75.390625 
Q 39.796875 74.8125 43.015625 73.578125 
z
" id="DejaVuSerif-66"/>
    </defs>
    <g transform="translate(75.780076 13.84252)scale(0.12 -0.12)">
     <use xlink:href="#DejaVuSerif-74"/>
     <use x="40.185547" xlink:href="#DejaVuSerif-44"/>
     <use x="120.361328" xlink:href="#DejaVuSerif-43"/>
     <use x="196.875" xlink:href="#DejaVuSerif-53"/>
     <use x="265.380859" xlink:href="#DejaVuSerif-20"/>
     <use x="297.167969" xlink:href="#DejaVuSerif-62"/>
     <use x="361.181641" xlink:href="#DejaVuSerif-65"/>
     <use x="420.361328" xlink:href="#DejaVuSerif-66"/>
     <use x="457.373047" xlink:href="#DejaVuSerif-6f"/>
     <use x="517.578125" xlink:href="#DejaVuSerif-72"/>
     <use x="565.380859" xlink:href="#DejaVuSerif-65"/>
     <use x="624.560547" xlink:href="#DejaVuSerif-20"/>
     <use x="656.347656" xlink:href="#DejaVuSerif-6c"/>
     <use x="688.330078" xlink:href="#DejaVuSerif-65"/>
     <use x="747.509766" xlink:href="#DejaVuSerif-61"/>
     <use x="807.128906" xlink:href="#DejaVuSerif-72"/>
     <use x="854.931641" xlink:href="#DejaVuSerif-6e"/>
     <use x="919.335938" xlink:href="#DejaVuSerif-69"/>
     <use x="951.318359" xlink:href="#DejaVuSerif-6e"/>
     <use x="1015.722656" xlink:href="#DejaVuSerif-67"/>
    </g>
   </g>
   <g id="legend_1">
    <g id="line2d_7">
     <path d="M 72.682168 44.904439 
L 88.682168 44.904439 
" style="fill:none;stroke:#000000;stroke-linecap:square;"/>
    </g>
    <g id="line2d_8"/>
    <g id="text_4">
     <!-- $\mathrm{uniform}$ -->
     <defs>
      <path d="M 35.40625 51.90625 
L 52.203125 51.90625 
L 52.203125 5.171875 
L 60.6875 5.171875 
L 60.6875 0 
L 43.21875 0 
L 43.21875 9.1875 
Q 40.71875 4 36.765625 1.28125 
Q 32.8125 -1.421875 27.59375 -1.421875 
Q 18.953125 -1.421875 14.875 3.484375 
Q 10.796875 8.40625 10.796875 18.890625 
L 10.796875 46.6875 
L 2.6875 46.6875 
L 2.6875 51.90625 
L 19.828125 51.90625 
L 19.828125 21.6875 
Q 19.828125 12.203125 22.140625 8.6875 
Q 24.46875 5.171875 30.421875 5.171875 
Q 36.671875 5.171875 39.9375 9.765625 
Q 43.21875 14.359375 43.21875 23.09375 
L 43.21875 46.6875 
L 35.40625 46.6875 
z
" id="DejaVuSerif-75"/>
      <path d="M 51.8125 41.796875 
Q 54.390625 47.515625 58.421875 50.421875 
Q 62.453125 53.328125 67.828125 53.328125 
Q 75.984375 53.328125 79.984375 48.265625 
Q 83.984375 43.21875 83.984375 33.015625 
L 83.984375 5.171875 
L 92.09375 5.171875 
L 92.09375 0 
L 67.1875 0 
L 67.1875 5.171875 
L 75 5.171875 
L 75 31.984375 
Q 75 39.9375 72.65625 43.3125 
Q 70.3125 46.6875 64.890625 46.6875 
Q 58.890625 46.6875 55.734375 42.140625 
Q 52.59375 37.59375 52.59375 28.90625 
L 52.59375 5.171875 
L 60.40625 5.171875 
L 60.40625 0 
L 35.796875 0 
L 35.796875 5.171875 
L 43.609375 5.171875 
L 43.609375 32.328125 
Q 43.609375 40.09375 41.265625 43.390625 
Q 38.921875 46.6875 33.5 46.6875 
Q 27.484375 46.6875 24.328125 42.140625 
Q 21.1875 37.59375 21.1875 28.90625 
L 21.1875 5.171875 
L 29 5.171875 
L 29 0 
L 4.109375 0 
L 4.109375 5.171875 
L 12.203125 5.171875 
L 12.203125 46.78125 
L 3.609375 46.78125 
L 3.609375 51.90625 
L 21.1875 51.90625 
L 21.1875 42.671875 
Q 23.6875 47.859375 27.53125 50.59375 
Q 31.390625 53.328125 36.28125 53.328125 
Q 42.328125 53.328125 46.375 50.3125 
Q 50.4375 47.3125 51.8125 41.796875 
z
" id="DejaVuSerif-6d"/>
     </defs>
     <g transform="translate(95.082168 47.704439)scale(0.08 -0.08)">
      <use transform="translate(0 0.015625)" xlink:href="#DejaVuSerif-75"/>
      <use transform="translate(64.404297 0.015625)" xlink:href="#DejaVuSerif-6e"/>
      <use transform="translate(128.808594 0.015625)" xlink:href="#DejaVuSerif-69"/>
      <use transform="translate(160.791016 0.015625)" xlink:href="#DejaVuSerif-66"/>
      <use transform="translate(197.802734 0.015625)" xlink:href="#DejaVuSerif-6f"/>
      <use transform="translate(258.007812 0.015625)" xlink:href="#DejaVuSerif-72"/>
      <use transform="translate(305.810547 0.015625)" xlink:href="#DejaVuSerif-6d"/>
     </g>
    </g>
    <g id="line2d_9">
     <path d="M 72.682168 56.648189 
L 88.682168 56.648189 
" style="fill:none;stroke:#ff0000;stroke-linecap:square;"/>
    </g>
    <g id="line2d_10"/>
    <g id="text_5">
     <!-- $\mathrm{targeted}$ -->
     <g transform="translate(95.082168 59.448189)scale(0.08 -0.08)">
      <use transform="translate(0 0.015625)" xlink:href="#DejaVuSerif-74"/>
      <use transform="translate(40.185547 0.015625)" xlink:href="#DejaVuSerif-61"/>
      <use transform="translate(99.804688 0.015625)" xlink:href="#DejaVuSerif-72"/>
      <use transform="translate(147.607422 0.015625)" xlink:href="#DejaVuSerif-67"/>
      <use transform="translate(211.621094 0.015625)" xlink:href="#DejaVuSerif-65"/>
      <use transform="translate(270.800781 0.015625)" xlink:href="#DejaVuSerif-74"/>
      <use transform="translate(310.986328 0.015625)" xlink:href="#DejaVuSerif-65"/>
      <use transform="translate(370.166016 0.015625)" xlink:href="#DejaVuSerif-64"/>
     </g>
    </g>
   </g>
  </g>
  <g id="axes_2">
   <g id="patch_5">
    <path d="M 242.112089 168.661417 
L 387.17925 168.661417 
L 387.17925 19.84252 
L 242.112089 19.84252 
z
" style="fill:#ffffff;"/>
   </g>
   <g id="matplotlib.axis_3">
    <g id="xtick_1">
     <g id="line2d_11">
      <defs>
       <path d="M 0 0 
L 0 3.5 
" id="m1c43194b80" style="stroke:#000000;stroke-width:0.8;"/>
      </defs>
      <g>
       <use style="stroke:#000000;stroke-width:0.8;" x="281.67586" xlink:href="#m1c43194b80" y="168.661417"/>
      </g>
     </g>
     <g id="text_6">
      <!-- cathodal -->
      <defs>
       <path d="M 51.421875 15.578125 
Q 49.515625 7.28125 44.09375 2.921875 
Q 38.671875 -1.421875 30.078125 -1.421875 
Q 18.75 -1.421875 11.859375 6.078125 
Q 4.984375 13.578125 4.984375 25.984375 
Q 4.984375 38.421875 11.859375 45.875 
Q 18.75 53.328125 30.078125 53.328125 
Q 35.015625 53.328125 39.890625 52.171875 
Q 44.78125 51.03125 49.703125 48.6875 
L 49.703125 35.40625 
L 44.484375 35.40625 
Q 43.453125 42.234375 40.015625 45.359375 
Q 36.578125 48.484375 30.171875 48.484375 
Q 22.90625 48.484375 19.1875 42.84375 
Q 15.484375 37.203125 15.484375 25.984375 
Q 15.484375 14.75 19.171875 9.078125 
Q 22.859375 3.421875 30.171875 3.421875 
Q 35.984375 3.421875 39.453125 6.4375 
Q 42.921875 9.46875 44.1875 15.578125 
z
" id="DejaVuSerif-63"/>
      </defs>
      <g transform="translate(259.873516 183.259855)scale(0.1 -0.1)">
       <use xlink:href="#DejaVuSerif-63"/>
       <use x="56.005859" xlink:href="#DejaVuSerif-61"/>
       <use x="115.625" xlink:href="#DejaVuSerif-74"/>
       <use x="155.810547" xlink:href="#DejaVuSerif-68"/>
       <use x="220.214844" xlink:href="#DejaVuSerif-6f"/>
       <use x="280.419922" xlink:href="#DejaVuSerif-64"/>
       <use x="344.433594" xlink:href="#DejaVuSerif-61"/>
       <use x="404.052734" xlink:href="#DejaVuSerif-6c"/>
      </g>
     </g>
    </g>
    <g id="xtick_2">
     <g id="line2d_12">
      <g>
       <use style="stroke:#000000;stroke-width:0.8;" x="347.615479" xlink:href="#m1c43194b80" y="168.661417"/>
      </g>
     </g>
     <g id="text_7">
      <!-- anodal -->
      <g transform="translate(330.62251 183.259855)scale(0.1 -0.1)">
       <use xlink:href="#DejaVuSerif-61"/>
       <use x="59.619141" xlink:href="#DejaVuSerif-6e"/>
       <use x="124.023438" xlink:href="#DejaVuSerif-6f"/>
       <use x="184.228516" xlink:href="#DejaVuSerif-64"/>
       <use x="248.242188" xlink:href="#DejaVuSerif-61"/>
       <use x="307.861328" xlink:href="#DejaVuSerif-6c"/>
      </g>
     </g>
    </g>
   </g>
   <g id="matplotlib.axis_4"/>
   <g id="line2d_13">
    <path clip-path="url(#pa88ede8c47)" d="M 248.706051 160.81122 
L 270.685924 150.108661 
L 292.665796 130.658031 
L 314.645669 109.704331 
L 336.625542 113.715 
L 358.605415 132.679488 
L 380.585288 147.439843 
" style="fill:none;stroke:#000000;stroke-linecap:square;"/>
   </g>
   <g id="line2d_14">
    <path clip-path="url(#pa88ede8c47)" d="M 248.706051 157.743071 
L 270.685924 143.270433 
L 292.665796 125.861102 
L 314.645669 109.704331 
L 336.625542 91.43185 
L 358.605415 75.644646 
L 380.585288 58.309724 
" style="fill:none;stroke:#ff0000;stroke-linecap:square;"/>
   </g>
   <g id="line2d_15">
    <path clip-path="url(#pa88ede8c47)" d="M 242.112089 109.704331 
L 387.17925 109.704331 
" style="fill:none;stroke:#808080;stroke-linecap:square;stroke-opacity:0.5;"/>
   </g>
   <g id="line2d_16">
    <path clip-path="url(#pa88ede8c47)" d="M 314.645669 168.661417 
L 314.645669 19.84252 
" style="fill:none;stroke:#808080;stroke-linecap:square;stroke-opacity:0.5;"/>
   </g>
   <g id="patch_6">
    <path d="M 242.112089 168.661417 
L 242.112089 19.84252 
" style="fill:none;stroke:#000000;stroke-linecap:square;stroke-linejoin:miter;stroke-width:0.8;"/>
   </g>
   <g id="patch_7">
    <path d="M 242.112089 168.661417 
L 387.17925 168.661417 
" style="fill:none;stroke:#000000;stroke-linecap:square;stroke-linejoin:miter;stroke-width:0.8;"/>
   </g>
   <g id="text_8">
    <!-- tDCS during learning -->
    <g transform="translate(249.307544 13.84252)scale(0.12 -0.12)">
     <use xlink:href="#DejaVuSerif-74"/>
     <use x="40.185547" xlink:href="#DejaVuSerif-44"/>
     <use x="120.361328" xlink:href="#DejaVuSerif-43"/>
     <use x="196.875" xlink:href="#DejaVuSerif-53"/>
     <use x="265.380859" xlink:href="#DejaVuSerif-20"/>
     <use x="297.167969" xlink:href="#DejaVuSerif-64"/>
     <use x="361.181641" xlink:href="#DejaVuSerif-75"/>
     <use x="425.585938" xlink:href="#DejaVuSerif-72"/>
     <use x="473.388672" xlink:href="#DejaVuSerif-69"/>
     <use x="505.371094" xlink:href="#DejaVuSerif-6e"/>
     <use x="569.775391" xlink:href="#DejaVuSerif-67"/>
     <use x="633.789062" xlink:href="#DejaVuSerif-20"/>
     <use x="665.576172" xlink:href="#DejaVuSerif-6c"/>
     <use x="697.558594" xlink:href="#DejaVuSerif-65"/>
     <use x="756.738281" xlink:href="#DejaVuSerif-61"/>
     <use x="816.357422" xlink:href="#DejaVuSerif-72"/>
     <use x="864.160156" xlink:href="#DejaVuSerif-6e"/>
     <use x="928.564453" xlink:href="#DejaVuSerif-69"/>
     <use x="960.546875" xlink:href="#DejaVuSerif-6e"/>
     <use x="1024.951172" xlink:href="#DejaVuSerif-67"/>
    </g>
   </g>
  </g>
  <g id="axes_3">
   <g id="patch_8">
    <path d="M 416.192682 168.661417 
L 561.259843 168.661417 
L 561.259843 19.84252 
L 416.192682 19.84252 
z
" style="fill:#ffffff;"/>
   </g>
   <g id="matplotlib.axis_5"/>
   <g id="matplotlib.axis_6"/>
   <g id="line2d_17">
    <path clip-path="url(#p5a3784090e)" d="M 422.786644 153.127205 
L 444.766516 139.951772 
L 466.746389 116.936929 
L 488.726262 109.704331 
L 510.706135 133.351654 
L 532.686008 152.938701 
L 554.665881 166.674685 
" style="fill:none;stroke:#000000;stroke-linecap:square;"/>
   </g>
   <g id="line2d_18">
    <path clip-path="url(#p5a3784090e)" d="M 422.786644 65.145472 
L 444.766516 77.710748 
L 466.746389 92.104016 
L 488.726262 109.704331 
L 510.706135 122.495315 
L 532.686008 132.992008 
L 554.665881 136.146969 
" style="fill:none;stroke:#ff0000;stroke-linecap:square;"/>
   </g>
   <g id="line2d_19">
    <path clip-path="url(#p5a3784090e)" d="M 416.192682 109.704331 
L 561.259843 109.704331 
" style="fill:none;stroke:#808080;stroke-linecap:square;stroke-opacity:0.5;"/>
   </g>
   <g id="line2d_20">
    <path clip-path="url(#p5a3784090e)" d="M 488.726262 168.661417 
L 488.726262 19.84252 
" style="fill:none;stroke:#808080;stroke-linecap:square;stroke-opacity:0.5;"/>
   </g>
   <g id="patch_9">
    <path d="M 416.192682 168.661417 
L 416.192682 19.84252 
" style="fill:none;stroke:#000000;stroke-linecap:square;stroke-linejoin:miter;stroke-width:0.8;"/>
   </g>
   <g id="patch_10">
    <path d="M 416.192682 168.661417 
L 561.259843 168.661417 
" style="fill:none;stroke:#000000;stroke-linecap:square;stroke-linejoin:miter;stroke-width:0.8;"/>
   </g>
   <g id="text_9">
    <!-- tDCS after learning -->
    <g transform="translate(428.956887 13.84252)scale(0.12 -0.12)">
     <use xlink:href="#DejaVuSerif-74"/>
     <use x="40.185547" xlink:href="#DejaVuSerif-44"/>
     <use x="120.361328" xlink:href="#DejaVuSerif-43"/>
     <use x="196.875" xlink:href="#DejaVuSerif-53"/>
     <use x="265.380859" xlink:href="#DejaVuSerif-20"/>
     <use x="297.167969" xlink:href="#DejaVuSerif-61"/>
     <use x="356.787109" xlink:href="#DejaVuSerif-66"/>
     <use x="393.798828" xlink:href="#DejaVuSerif-74"/>
     <use x="433.984375" xlink:href="#DejaVuSerif-65"/>
     <use x="493.164062" xlink:href="#DejaVuSerif-72"/>
     <use x="540.966797" xlink:href="#DejaVuSerif-20"/>
     <use x="572.753906" xlink:href="#DejaVuSerif-6c"/>
     <use x="604.736328" xlink:href="#DejaVuSerif-65"/>
     <use x="663.916016" xlink:href="#DejaVuSerif-61"/>
     <use x="723.535156" xlink:href="#DejaVuSerif-72"/>
     <use x="771.337891" xlink:href="#DejaVuSerif-6e"/>
     <use x="835.742188" xlink:href="#DejaVuSerif-69"/>
     <use x="867.724609" xlink:href="#DejaVuSerif-6e"/>
     <use x="932.128906" xlink:href="#DejaVuSerif-67"/>
    </g>
   </g>
  </g>
 </g>
 <defs>
  <clipPath id="p9cec1ceef9">
   <rect height="148.818898" width="145.067161" x="68.031496" y="19.84252"/>
  </clipPath>
  <clipPath id="pa88ede8c47">
   <rect height="148.818898" width="145.067161" x="242.112089" y="19.84252"/>
  </clipPath>
  <clipPath id="p5a3784090e">
   <rect height="148.818898" width="145.067161" x="416.192682" y="19.84252"/>
  </clipPath>
 </defs>
</svg>
